<svg width="16" height="16" viewBox="0 0 16 16" fill="none" xmlns="http://www.w3.org/2000/svg">
<path d="M5.5 11.3115L8 9.40527L10.5 11.3115L9.5625 8.21777L12.0625 6.43652H9L8 3.18652L7 6.43652H3.9375L6.4375 8.21777L5.5 11.3115ZM8 13.8115C7.13542 13.8115 6.32292 13.6475 5.5625 13.3193C4.80208 12.9912 4.14062 12.5459 3.57812 11.9834C3.01562 11.4209 2.57031 10.7594 2.24219 9.99902C1.91406 9.23861 1.75 8.42611 1.75 7.56152C1.75 6.69694 1.91406 5.88444 2.24219 5.12402C2.57031 4.36361 3.01562 3.70215 3.57812 3.13965C4.14062 2.57715 4.80208 2.13184 5.5625 1.80371C6.32292 1.47559 7.13542 1.31152 8 1.31152C8.86458 1.31152 9.67708 1.47559 10.4375 1.80371C11.1979 2.13184 11.8594 2.57715 12.4219 3.13965C12.9844 3.70215 13.4297 4.36361 13.7578 5.12402C14.0859 5.88444 14.25 6.69694 14.25 7.56152C14.25 8.42611 14.0859 9.23861 13.7578 9.99902C13.4297 10.7594 12.9844 11.4209 12.4219 11.9834C11.8594 12.5459 11.1979 12.9912 10.4375 13.3193C9.67708 13.6475 8.86458 13.8115 8 13.8115Z" fill="#1D8FFF"/>
</svg>
