<svg width="25" height="24" viewBox="0 0 25 24" fill="none" xmlns="http://www.w3.org/2000/svg">
<rect x="0.5" width="24" height="24" rx="12" fill="#1D9B5E"/>
<path fill-rule="evenodd" clip-rule="evenodd" d="M9.17258 9.93955C9.02285 9.70753 9.08955 9.3981 9.32157 9.24836L13.2825 6.69228C13.5145 6.54255 13.8239 6.60925 13.9737 6.84128L16.5298 10.8022C16.6795 11.0342 16.6128 11.3436 16.3808 11.4934C16.1487 11.6431 15.8393 11.5764 15.6896 11.3444L13.788 8.39776L12.6375 13.7347C12.5373 14.1996 12.5282 14.9387 12.8197 15.6063C13.0986 16.2451 13.6661 16.8548 14.8102 17.1015C15.0802 17.1597 15.2518 17.4257 15.1936 17.6956C15.1354 17.9655 14.8694 18.1372 14.5995 18.079C13.1368 17.7637 12.3092 16.9361 11.9032 16.0065C11.5099 15.1057 11.5261 14.1453 11.66 13.524L12.8104 8.18704L9.8638 10.0886C9.63178 10.2383 9.3223 10.1716 9.17258 9.93955Z" fill="white"/>
</svg>
