<svg width="52" height="52" viewBox="0 0 52 52" fill="none" xmlns="http://www.w3.org/2000/svg">
<path d="M0 26C0 11.6406 11.6406 0 26 0V0C40.3594 0 52 11.6406 52 26V26C52 40.3594 40.3594 52 26 52V52C11.6406 52 0 40.3594 0 26V26Z" fill="#F8A02C"/>
<g clip-path="url(#clip0_1416_34429)">
<path d="M34.7558 16.3096L34.2587 16.8067L30.2018 20.8635L29.8437 21.2217L28.9565 22.1089L25.5891 25.4763L25.4662 25.5992L25.2631 25.3961L22.3661 22.4991C21.8744 23.1779 21.575 24.001 21.543 24.8883L23.6542 26.9996L24.5415 27.8868L24.782 28.1274C24.9691 28.3144 25.2203 28.4107 25.4662 28.4107C25.5089 28.4107 25.5464 28.4053 25.5891 28.4C25.7922 28.3732 25.9953 28.2824 26.1503 28.1274L26.3909 27.8868L30.5653 23.7124L31.4526 22.8252L31.8107 22.467L35.8675 18.4102L36.3592 17.9185L37.6848 19.2333C37.8077 19.3563 37.9307 19.4899 38.1017 19.4899C38.1658 19.4899 38.2407 19.4739 38.3209 19.4257C38.5881 19.2814 38.6416 19.0516 38.6576 18.7897C38.7217 17.3626 38.7912 15.9301 38.8554 14.503C38.8767 14.0701 38.695 13.8723 38.2781 13.8723C38.2567 13.8723 38.2353 13.8723 38.2086 13.8723C36.7441 13.9418 35.2796 14.0113 33.815 14.0808C33.5852 14.0915 33.3607 14.1021 33.2378 14.3747C33.1095 14.6473 33.2538 14.8023 33.4088 14.9573C33.8525 15.4117 34.2961 15.866 34.7558 16.3096Z" fill="white"/>
<path d="M13.2846 25.396C12.9051 25.7755 12.9051 26.3849 13.2846 26.7644L13.5251 27.0049C13.7122 27.192 13.9634 27.2882 14.2093 27.2882C14.4552 27.2882 14.7064 27.192 14.8935 27.0049L16.7321 25.1662C16.7321 25.1288 16.7321 25.0967 16.7321 25.0593C16.7321 23.6055 17.0689 22.2318 17.6728 21.0078L13.2846 25.396Z" fill="white"/>
<path d="M38.5362 35.4071L33.0416 29.9125L32.7423 30.2118L32.3307 29.8003C33.3088 28.4747 33.8914 26.8391 33.8914 25.0646C33.8914 24.1827 33.7471 23.3328 33.4852 22.5418L31.4969 24.5301C31.5129 24.7065 31.5236 24.8829 31.5236 25.0646C31.5236 28.154 29.0168 30.6554 25.9328 30.6554C22.8434 30.6554 20.3419 28.1487 20.3419 25.0646C20.3419 21.9752 22.8487 19.4738 25.9328 19.4738C27.0499 19.4738 28.0921 19.8051 28.9634 20.3664L30.6684 18.6613C29.3429 17.6832 27.7073 17.1006 25.9328 17.1006C21.5338 17.1006 17.9688 20.6657 17.9688 25.0646C17.9688 29.4635 21.5338 33.0286 25.9328 33.0286C27.7126 33.0286 29.3589 32.446 30.6845 31.4572L31.096 31.8688L30.7967 32.1681L36.2913 37.6627C36.9113 38.2827 37.9216 38.2827 38.5416 37.6627C39.1562 37.0374 39.1562 36.0272 38.5362 35.4071Z" fill="white"/>
</g>
<defs>
<clipPath id="clip0_1416_34429">
<rect width="26" height="26" fill="white" transform="translate(13 13)"/>
</clipPath>
</defs>
</svg>
