<svg width="52" height="52" viewBox="0 0 52 52" fill="none" xmlns="http://www.w3.org/2000/svg">
<path d="M0 26C0 11.6406 11.6406 0 26 0V0C40.3594 0 52 11.6406 52 26V26C52 40.3594 40.3594 52 26 52V52C11.6406 52 0 40.3594 0 26V26Z" fill="#43A2FF"/>
<path d="M25.9973 33.4816C30.1254 33.4816 33.4789 30.1334 33.4789 25.9999C33.4789 21.8718 30.1307 18.5183 25.9973 18.5183C23.843 18.5183 21.9009 19.431 20.5373 20.8848C19.285 22.222 18.5156 24.0208 18.5156 25.9946C18.5156 30.1334 21.8691 33.4816 25.9973 33.4816ZM23.3866 28.9608C23.4556 28.7167 23.5193 28.4673 23.5989 28.2232C23.6891 27.942 23.7634 27.9048 24.0234 28.0428C24.4691 28.2763 24.936 28.4036 25.4295 28.4673C25.7479 28.5044 26.0609 28.4726 26.3528 28.3452C26.9046 28.1065 26.9895 27.4697 26.5226 27.0824C26.3634 26.9497 26.183 26.8542 25.9973 26.7746C25.5144 26.5624 25.0103 26.4032 24.5593 26.1273C23.8217 25.6869 23.3495 25.0767 23.4079 24.1799C23.4715 23.1612 24.0446 22.5297 24.9785 22.1901C25.3605 22.0522 25.3658 22.0575 25.3658 21.6542C25.3658 21.5163 25.3658 21.3836 25.3658 21.2457C25.3711 20.9432 25.4242 20.8901 25.7266 20.8795C25.8222 20.8742 25.9124 20.8795 26.0079 20.8795C26.6499 20.8795 26.6499 20.8795 26.6552 21.5216C26.6552 21.9779 26.6552 21.9779 27.1115 22.0469C27.4564 22.0999 27.7907 22.2008 28.1091 22.344C28.2842 22.4236 28.3532 22.5457 28.3001 22.7314C28.2205 23.0073 28.1462 23.2885 28.056 23.5644C27.9711 23.8244 27.8915 23.8616 27.6422 23.7395C27.1381 23.4955 26.6128 23.3946 26.0609 23.4265C25.9177 23.4318 25.7744 23.453 25.6364 23.5114C25.1589 23.7183 25.0793 24.2489 25.4879 24.5779C25.6948 24.7424 25.9283 24.8644 26.1724 24.9652C26.5968 25.1404 27.0213 25.3101 27.4246 25.533C28.7087 26.244 29.0536 27.8518 28.1515 28.9501C27.8226 29.3481 27.3981 29.6134 26.9046 29.7514C26.6871 29.8097 26.5915 29.9265 26.6022 30.1493C26.6128 30.3722 26.6022 30.5897 26.6022 30.8126C26.6022 31.0089 26.5013 31.115 26.305 31.1204C26.0662 31.1257 25.8275 31.1257 25.594 31.1204C25.3871 31.115 25.2862 30.9983 25.2862 30.7967C25.2862 30.6375 25.2809 30.473 25.2809 30.3138C25.2756 29.9583 25.265 29.9424 24.9254 29.8893C24.485 29.8204 24.0552 29.7195 23.6573 29.5232C23.3283 29.3693 23.2964 29.2897 23.3866 28.9608Z" fill="white"/>
<path d="M34.1009 34.1076C29.7817 38.4268 22.8466 38.5701 18.3523 34.5481H19.7955V33.0093H16.7604H16.7233H15.6992V34.0493V34.0705V37.1056H17.238V35.6146C19.7106 37.8697 22.8519 38.9999 25.9931 38.9999C29.3253 38.9999 32.6523 37.7317 35.1886 35.1954L35.7351 34.6489L34.6474 33.5611L34.1009 34.1076Z" fill="white"/>
<path d="M34.7575 14.8943V16.3853C32.2848 14.1302 29.1436 13 26.0024 13C22.6701 13 19.3432 14.2682 16.8068 16.8045L16.2656 17.3457L17.3534 18.4335L17.8999 17.8869C22.2191 13.5678 29.1542 13.4245 33.6485 17.4465H32.2052V18.9853H35.2403H35.2775H36.3015V17.9453V17.9241V14.8943H34.7575Z" fill="white"/>
</svg>
