<svg width="62" height="48" viewBox="0 0 62 48" fill="none" xmlns="http://www.w3.org/2000/svg">
<path d="M0.74395 36.022C0.988358 36.04 1.28719 36.1541 1.50838 36.2657C1.57774 36.3005 1.52211 36.369 1.56916 36.3965C1.66121 36.4502 1.76267 36.4343 1.85218 36.4934C1.88175 36.5134 1.81214 36.6263 1.84381 36.6445C2.01761 36.7431 2.20166 36.7539 2.38458 36.825C3.28554 37.1753 4.19028 37.4393 5.11993 37.7196C5.42649 37.812 5.77797 38.0132 6.11069 38.041C6.14956 38.0441 6.15281 37.9313 6.16206 37.9241C6.30624 37.815 6.21735 38.0233 6.28352 38.0695C6.54632 38.2525 6.86634 38.3391 7.15522 38.364C7.2782 38.3743 7.21005 38.1324 7.30101 38.2807C7.30739 38.2908 7.25008 38.3978 7.27973 38.4178C7.34703 38.4627 7.49194 38.4757 7.547 38.4984C7.65297 38.5426 7.67149 38.5458 7.77547 38.5719C7.91738 38.6087 8.07344 38.7058 8.23257 38.7164C8.26661 38.7183 8.25126 38.5909 8.30808 38.5834C8.36493 38.5759 8.50045 38.6187 8.54036 38.6573C8.58028 38.696 8.53857 38.7833 8.54178 38.8064C8.56709 39.0005 8.78528 38.7919 8.80725 38.7907C9.20614 38.7759 9.49355 38.9927 9.84486 39.076C10.1116 39.1388 10.4078 39.1603 10.6599 39.2271C10.9603 39.3071 11.2013 39.4315 11.4976 39.4905C11.5288 39.4969 11.5253 39.3506 11.5635 39.3581C11.9694 39.4378 12.3651 39.5479 12.7434 39.7361C12.7813 39.7551 12.7008 39.8637 12.7369 39.8899C12.9589 40.0477 13.2907 40.3788 13.5618 39.8874C13.7233 39.9475 13.9202 40.0168 14.0438 40.1583C14.1235 40.2495 13.999 40.3589 14.1302 40.3308C14.1598 40.3246 14.1527 40.2011 14.1949 40.2005C14.3729 40.1983 14.5473 40.2794 14.7276 40.2594C14.7643 40.2551 14.7797 40.1495 14.7937 40.1332C14.91 40.0017 14.9846 40.2827 15.0095 40.3077C15.1996 40.4956 15.3746 40.4811 15.5809 40.5337C15.6288 40.546 15.605 40.3937 15.6522 40.4005C15.8968 40.4377 16.1424 40.5088 16.3625 40.6263C16.4114 40.6527 16.3352 40.7595 16.3572 40.7782C16.4542 40.8592 16.5317 40.6418 16.6258 40.7151C16.6457 40.7303 16.6091 40.8285 16.6105 40.8406C16.6325 41.0302 16.7465 40.7961 16.7642 40.7946C16.9886 40.7692 17.0593 41.0587 17.2677 41.0697C17.2927 41.0708 17.2693 40.9299 17.3377 40.9407C17.7934 41.0119 18.2582 41.1597 18.6766 41.3675C18.7417 41.3997 18.6697 41.4842 18.6712 41.4971C18.6977 41.6991 18.8025 41.4618 18.8271 41.4578C19.0203 41.4326 19.1361 41.6802 19.3269 41.4132C20.0525 41.6944 20.8386 41.7061 21.5194 42.1481C21.5281 42.1534 21.482 42.2716 21.4996 42.2817C21.7104 42.4045 21.712 42.2041 21.9177 42.0075C21.9695 41.9581 22.0179 42.2661 22.0232 42.2891C22.0422 42.3738 21.9604 42.5465 21.9694 42.5641C22.0448 42.7039 22.1713 42.0984 22.3101 42.1312C22.3142 42.1333 22.2696 42.2396 22.2787 42.2534C22.3066 42.2966 22.353 42.2611 22.3794 42.3077C22.4394 42.4152 22.3987 42.7143 22.563 42.5737C22.584 42.5554 22.6413 42.2085 22.7614 42.2541C22.8092 42.2726 23.0293 42.3188 23.0853 42.3555C23.1413 42.3922 23.073 42.4921 23.0763 42.4979C23.2066 42.6826 23.1297 42.7279 23.1611 42.9629C23.1927 43.197 23.2916 42.6801 23.3388 42.631C23.3861 42.5821 23.4785 42.7309 23.4983 42.7796C23.5181 42.8284 23.4644 42.8895 23.4852 42.9194C23.6236 43.1153 23.6225 42.6838 23.6995 42.6164C23.8814 42.4565 23.897 42.8611 24.0127 42.9279C24.044 42.946 24.0371 42.853 24.069 42.8521C24.1952 42.8495 24.2385 42.9849 24.3996 42.9086C24.4259 42.8962 24.5895 42.6942 24.6205 42.8784C24.6247 42.9049 24.5737 42.9926 24.6194 43.0259C24.6875 43.0756 24.8189 43.1288 24.9078 43.1165C24.9734 43.1075 24.9416 42.9353 25.0057 43.0017C25.0342 43.0313 24.9502 43.1076 25.0055 43.1556C25.0604 43.2035 25.2219 43.2378 25.2837 43.2492C25.3454 43.2605 25.3402 43.1344 25.347 43.1276C25.3877 43.0891 25.5183 43.06 25.5286 43.0626C26.0536 43.1723 26.4871 43.486 27.0107 43.541C27.0517 43.5455 27.0548 43.4146 27.0614 43.414C27.2102 43.3943 27.0238 43.6999 27.0927 43.8335C27.1391 43.5774 27.1845 43.6365 27.2872 43.6317C27.3367 43.6291 27.3348 43.5252 27.3414 43.5162C27.4455 43.3839 27.4476 43.5873 27.4506 43.6296C27.4616 43.7849 27.5518 43.6259 27.5597 43.7299C27.5679 43.8331 27.4628 43.9583 27.5554 43.9785C27.6028 43.8941 27.5907 43.6413 27.6698 43.6196C27.9683 43.5375 28.417 43.8404 28.6247 43.9102C28.832 43.9799 28.9044 43.9795 29.0201 44.0416C29.229 44.1539 29.189 43.9589 29.3466 43.9116C29.5046 43.8644 29.3343 44.28 29.3322 44.3776C29.3297 44.475 29.3738 44.3846 29.3861 44.4414C29.3982 44.4982 29.3306 44.5488 29.3832 44.5815C29.4358 44.6143 29.6314 44.4864 29.6748 44.3942C29.7666 44.1988 29.7475 43.9663 29.8807 44.0781C29.8884 44.0847 29.8331 44.1915 29.8637 44.2109C30.1075 44.3613 30.3811 44.4322 30.627 44.5724C30.6608 44.5918 30.5982 44.7104 30.6175 44.7231C30.8186 44.8564 30.7905 44.6247 30.9676 44.4169C30.8655 44.7252 30.8864 44.9337 31.0532 44.9754C31.1534 45.0005 31.1688 44.8589 31.2569 44.7775C31.2833 44.7529 31.332 44.8643 31.3603 44.8027C31.4531 44.6014 31.4424 44.3489 31.5924 44.4841C31.5989 44.4904 31.5472 44.6004 31.5717 44.6136C31.7297 44.6997 31.8025 44.4834 31.9915 44.5001C32.1396 44.5132 32.362 44.7086 32.5198 44.7693C32.4321 45.1224 32.6053 45.078 32.7258 44.8489C32.8292 44.884 32.9467 44.8974 33.0409 44.9555C33.0733 44.9754 33.0258 45.0724 33.0276 45.0845C33.0543 45.2744 33.1568 45.0479 33.1818 45.044C33.4508 45.0125 33.6095 45.2404 33.8875 45.1208C33.8974 45.1164 33.9695 44.8738 33.9899 45.0683C33.991 45.0817 33.8864 45.175 33.9954 45.2101C34.1044 45.2452 34.2825 45.4268 34.4638 45.3496C34.5077 45.3311 34.6496 45.154 34.6882 45.328C34.6933 45.3515 34.6655 45.4194 34.6707 45.4621C34.688 45.5984 34.7729 45.356 34.778 45.5803C34.7831 45.8046 34.8606 45.9901 35.0508 45.8815C35.0568 45.8784 35.1405 45.6902 35.1886 45.705C35.2655 45.7287 35.3666 45.7961 35.4484 45.8143C35.4876 45.8229 35.4917 45.6946 35.499 45.694C35.7778 45.688 35.9387 45.8415 36.2086 45.9557C36.258 45.9769 36.4458 45.8454 36.5142 46.001C36.5894 46.1714 36.3339 46.745 36.6198 46.662C36.735 46.6289 37.0449 45.8978 37.1335 46.3359C37.5108 46.3224 37.7901 46.6024 38.1784 46.5473C38.1958 46.5449 38.2969 46.3443 38.3338 46.3561C38.3884 46.3741 38.3953 46.4807 38.4335 46.4968C38.5931 46.5664 38.7659 46.5177 38.9235 46.5692C38.9834 46.5885 38.9376 46.6862 39.009 46.7093C39.0804 46.7322 39.1611 46.6085 39.2441 46.6973C39.3067 46.7648 39.3153 47.0591 39.4065 47.1148C39.4752 46.843 39.5417 46.8647 39.6795 46.8215C39.706 46.813 39.7037 46.7122 39.7174 46.7033C39.7737 46.665 39.7963 46.7535 39.8514 46.7103C39.8647 46.7 39.8874 46.6069 39.8996 46.5932C40.0039 46.4731 40.0721 46.7108 40.0837 46.7521C40.1284 46.9091 40.1936 46.7966 40.2402 46.8654C40.2868 46.9341 40.1815 46.9811 40.2432 47.0308C40.371 47.1336 40.5598 47.1626 40.7051 47.2018C40.7633 47.2168 40.753 47.083 40.762 47.0822C40.8903 47.0794 40.9809 47.2408 41.1069 47.0091C41.0381 47.6694 41.1945 46.9643 41.3366 47.1336C41.3477 47.1472 41.2929 47.4541 41.2301 47.4862C41.1674 47.5182 41.1107 47.4047 41.0218 47.4567C41.0008 47.4689 40.8349 47.7293 40.8174 47.7433C40.6804 47.8526 40.7733 47.3965 40.7737 47.3703C40.7745 47.0871 40.5817 47.3642 40.545 47.3778C40.3773 47.4402 40.2696 47.3473 40.1322 47.3876C40.0424 47.4134 39.9641 47.708 39.9041 47.6841C39.7047 47.6049 39.7311 47.1742 39.451 47.4865C39.3911 47.553 39.3554 47.8869 39.2666 47.5965C39.261 47.5782 39.2055 47.3187 39.1062 47.4509C39.0937 47.4675 39.0715 47.562 39.059 47.5674C38.9756 47.6018 38.946 47.5152 38.8598 47.5328C38.7737 47.5504 38.6676 47.5819 38.5867 47.5287C38.5379 47.4969 38.5113 47.3047 38.496 47.2555C38.4534 47.1142 38.3276 47.2993 38.3187 47.1384C38.3096 46.9766 38.4523 46.7683 38.3573 46.6426C38.2946 46.8869 38.2245 47.1363 38.1588 47.3813C37.9018 47.311 37.6659 47.171 37.4034 47.12C37.3708 47.1139 37.3724 47.2536 37.3366 47.2505C37.1859 47.2368 37.081 47.1124 36.921 47.1139C36.797 47.1155 36.6355 47.2246 36.5048 47.2307C36.497 46.9322 36.2928 46.9843 36.167 46.9272C36.123 46.9074 36.1439 46.8331 36.1169 46.8008C36.0145 46.6809 36.0135 46.9428 35.9703 46.9737C35.7848 47.1056 35.906 46.5412 35.7309 46.5141C35.7217 46.5125 35.5391 46.7853 35.5194 46.8003C35.3931 46.8987 35.5281 46.6923 35.4724 46.6557C35.3707 46.5888 35.3104 46.4989 35.159 46.5555C35.1147 46.5724 34.979 46.7372 34.9394 46.5753C34.9342 46.5541 34.9631 46.4564 34.9567 46.4488C34.838 46.3184 34.7603 46.6284 34.6542 46.7144C34.5482 46.8004 34.4742 46.556 34.4635 46.4881C34.435 46.3123 34.5308 46.4319 34.5381 46.417C34.625 46.2403 34.5261 46.2507 34.4602 46.2184C34.5226 45.9112 34.4208 45.9062 34.3915 46.186C34.3885 46.2166 34.4495 46.2011 34.4602 46.2184C34.3278 46.5028 34.2115 46.5156 34.1597 46.208C34.1355 46.0638 34.2243 45.9236 34.0427 45.9394C33.9603 45.9464 33.9399 46.1633 33.8589 46.2045C33.6738 46.2984 33.5204 46.055 33.3544 46.0481C33.2941 46.0455 33.3229 46.1738 33.2807 46.176C33.1688 46.1823 33.0972 46.0742 32.9818 46.0934C32.9713 46.0952 32.9659 46.221 32.9329 46.2148C32.6822 46.1699 32.4852 46.0416 32.2274 45.9779C32.1029 45.9472 31.864 45.9605 31.7379 45.9163C31.5192 45.8406 31.2853 45.6001 31.0838 45.597C30.9525 45.5945 30.9512 45.7213 30.8782 45.7905C30.7372 45.9248 30.6222 45.5968 30.6081 45.5468C30.6077 45.5452 30.7219 45.5424 30.6793 45.467C30.6766 45.3304 30.6095 45.5466 30.6081 45.5468C30.5988 45.5145 30.3907 45.4361 30.3426 45.449C30.3165 45.456 30.3023 45.5731 30.2892 45.5746C29.978 45.6083 29.6836 45.5688 29.4053 45.4462C29.4008 45.4427 29.4388 45.3171 29.4277 45.3104C29.2727 45.2136 29.1277 45.3438 28.9667 45.4034C28.8058 45.4628 28.703 45.4056 28.6728 45.1672C28.5615 45.1698 28.4341 45.0372 28.3616 44.9579C28.289 44.8786 28.2178 45.1239 28.2091 45.127C27.9342 45.2274 27.8307 45.0527 27.5896 44.9719C27.4751 44.9331 27.2341 44.9138 27.1008 44.9107C26.9954 44.9087 26.9489 44.8362 26.8476 44.8514C26.834 44.8534 26.8203 44.9669 26.8155 44.9702C26.6809 45.0778 26.7947 44.8195 26.785 44.7662C26.7496 44.5725 26.7241 44.4677 26.5725 44.5188C26.5375 44.5304 26.3563 44.8982 26.2953 44.9077C26.2163 44.9194 26.2767 44.7865 26.1931 44.8023C26.186 44.8035 26.1669 44.8898 26.1212 44.8749C25.9086 44.8069 25.6845 44.7007 25.4575 44.6557C25.4266 44.6493 25.4335 44.795 25.3883 44.7879C25.1761 44.7545 24.949 44.6951 24.7613 44.5829C24.7152 44.5549 24.7692 44.4668 24.7651 44.4359C24.7394 44.2485 24.5856 44.4753 24.5689 44.4763C24.1688 44.5077 23.9382 44.2143 23.5339 44.2316C23.5117 44.233 23.2894 44.4625 23.2732 44.2164C23.272 44.2 23.2578 43.9488 23.1577 44.0944C23.1514 44.1035 23.1663 44.2346 23.0931 44.2042C23.0198 44.1738 22.8781 44.2252 22.805 44.0676C22.7818 44.018 22.7591 43.7654 22.6158 43.9283C22.6063 43.9398 22.3533 44.3251 22.368 44.0212C22.3706 43.9712 22.4531 43.6656 22.2976 43.7953C22.2677 43.8205 22.2923 43.899 22.2227 43.9277C22.116 43.9721 22.015 43.8609 21.8705 43.9714C21.8452 43.9911 21.7124 44.1802 21.6835 44.0058C21.679 43.9785 21.7233 43.8804 21.6908 43.8605C21.5367 43.7655 21.3451 43.7926 21.1922 43.681C21.1379 43.6417 21.2083 43.4829 21.1561 43.4234C21.104 43.364 20.9878 43.2911 20.9041 43.3514C20.8204 43.4117 20.829 43.6936 20.7256 43.6913C20.2762 43.6816 19.8896 43.4254 19.4681 43.301C19.4056 43.2825 19.4355 43.3898 19.3417 43.3694C18.996 43.2945 18.3809 43.2419 18.1303 42.9695C17.9295 42.7513 18.2597 42.7002 18.0926 42.591C18.0118 42.5387 17.8431 42.8239 17.8195 42.8285C17.5881 42.8774 17.476 42.7066 17.2788 42.7039C17.2381 42.7034 17.2463 42.8372 17.212 42.8354C17.0944 42.8302 16.9896 42.7464 16.8797 42.731C16.8304 42.7244 16.8166 42.8218 16.774 42.8039C16.6719 42.7622 16.5876 42.6998 16.5055 42.5858C16.498 42.5754 16.5897 42.472 16.5123 42.4489C16.3869 42.4119 16.2502 42.2862 16.0824 42.3424C16.0325 42.3595 15.979 42.5769 15.9216 42.4043C15.9095 42.3682 15.9967 42.1126 15.8344 42.3127C15.8072 42.3459 15.5522 42.6073 15.5095 42.3895C15.4982 42.3322 15.4889 42.1038 15.4287 42.1251C15.4204 42.1287 15.4208 42.2525 15.3749 42.2536C15.2135 42.2555 15.0569 42.205 14.8917 42.2044C14.8476 42.2045 14.881 42.3404 14.8161 42.3366C14.6376 42.3265 14.4311 42.2447 14.2727 42.167C14.2144 42.1381 14.2809 42.0479 14.279 42.036C14.2491 41.8413 14.1493 42.0707 14.122 42.079C13.953 42.1271 13.8663 41.9875 13.7217 41.9846C13.6819 41.9835 13.6816 42.1041 13.6716 42.1125C13.5696 42.1934 13.6768 42.0021 13.6326 41.9677C13.5091 41.8706 13.3521 41.8429 13.2082 41.8241C13.1553 41.8174 13.1817 41.9636 13.1346 41.956C12.8553 41.9136 12.5735 41.8332 12.3235 41.6965C12.2765 41.6705 12.3325 41.576 12.3275 41.5502C12.294 41.37 12.1351 41.5671 12.1057 41.5825C11.9718 41.6528 11.9502 41.5523 11.8483 41.5459C11.35 41.5158 10.7736 41.3154 10.3309 41.171C9.75379 40.9834 9.32033 40.7777 8.75325 40.6693C8.71724 40.6623 8.72088 40.8065 8.68943 40.8022C8.28475 40.7404 7.90665 40.5944 7.49964 40.5389C7.4663 40.5341 7.48271 40.674 7.42817 40.6706C7.31607 40.6646 7.18164 40.6252 7.08279 40.5582C7.03452 40.5258 7.13187 40.4324 7.08275 40.402C6.96842 40.331 6.83749 40.2902 6.70503 40.2804C6.64859 40.2766 6.69916 40.4276 6.62825 40.4124C6.14454 40.311 5.66714 40.2213 5.22204 39.9353C5.19153 39.9156 5.22598 39.6413 5.14298 39.6757C5.11998 39.7486 5.09948 39.836 5.07827 39.9148C4.36846 39.7909 3.69804 39.5333 2.99986 39.352C2.97041 39.3443 2.9878 39.4982 2.93062 39.4842C2.59966 39.4032 2.26844 39.3658 1.96292 39.1442C1.93256 39.1224 2.00916 38.8773 1.90105 38.8914C1.88193 38.8941 1.7247 38.8918 1.67322 38.9367C1.66603 38.9436 1.66557 39.0664 1.61665 39.0584C1.33284 39.0095 1.04617 38.9132 0.783976 38.7756C0.741714 38.7532 0.819184 38.6407 0.789339 38.6237C0.577407 38.5037 0.307427 38.539 0.116736 38.3747C-0.0107999 38.2643 0.0940851 38.063 0.0669234 37.8337C0.0630639 37.8014 -0.0259551 37.7752 -0.00141379 37.6515C0.0600519 37.3402 0.184122 37.0129 0.24448 36.6799C0.257554 36.6081 0.118673 36.6557 0.23089 36.5016C0.23861 36.4913 0.339656 36.4554 0.375034 36.4024C0.399598 36.3659 0.402251 36.2347 0.445106 36.1906C0.487947 36.1466 0.496699 36.2592 0.561839 36.2109C0.627133 36.1619 0.638606 36.0146 0.74395 36.022ZM28.0344 44.6028C27.9826 44.4645 27.8669 44.8981 27.9784 44.8144C27.9839 44.8098 28.0371 44.6096 28.0344 44.6028ZM37.7457 46.8421C37.6868 46.6247 37.5477 46.8907 37.5862 47.057C37.6248 47.2231 37.7637 46.9081 37.7457 46.8421ZM38.8655 46.9602C38.7792 46.7793 38.6125 47.3936 38.7734 47.2997C38.7828 47.2945 38.8705 46.9708 38.8655 46.9602ZM0.439943 37.8591C0.440217 37.8531 0.376765 37.832 0.373849 37.8374C0.306342 37.9678 0.433243 38.0098 0.439943 37.8591ZM39.9798 47.0639C39.9615 46.9711 39.8285 47.0415 39.8512 47.1569C39.8695 47.2498 40.0026 47.1794 39.9798 47.0639ZM23.9654 43.1417C23.9656 43.1349 23.9206 43.118 23.9128 43.155C23.8877 43.2742 23.9603 43.2561 23.9654 43.1417ZM41.8136 47.493C41.5485 47.4052 41.5061 46.8549 41.7871 46.9828C41.838 47.0059 41.6332 47.1184 41.6902 47.1807C41.7945 47.2943 41.9535 46.9929 42.0394 47.1951C42.0549 47.2321 41.8285 47.4991 41.813 47.4936C41.8132 47.4934 41.8134 47.4932 41.8136 47.493ZM28.113 44.0676C28.1128 44.0614 28.0498 44.0406 28.0469 44.046C27.9791 44.1762 28.106 44.2182 28.113 44.0676ZM21.3189 42.2265C21.3183 42.2133 21.1718 42.1663 21.1642 42.1765C21.0324 42.3845 21.3284 42.4803 21.3189 42.2265ZM32.5201 44.7794C32.6234 44.6567 32.7113 44.6603 32.7256 44.8486C32.658 44.8227 32.5882 44.8046 32.5201 44.7794Z" fill="#2F98FF" fill-opacity="0.63"/>
<path d="M16.102 24.3279C16.2759 24.4006 16.451 24.5724 16.5695 24.724C16.6067 24.7713 16.5375 24.8202 16.5612 24.8558C16.6076 24.9254 16.6893 24.9345 16.7315 25.0085C16.7453 25.0333 16.6477 25.1189 16.6637 25.1426C16.7524 25.2715 16.8845 25.3238 16.9911 25.4301C17.5164 25.9537 18.0797 26.4004 18.6548 26.8677C18.8444 27.0216 19.023 27.284 19.2584 27.3859C19.286 27.3977 19.3344 27.2968 19.3442 27.2925C19.4956 27.2276 19.3448 27.3946 19.375 27.4516C19.4952 27.677 19.6972 27.829 19.9013 27.9181C19.9883 27.9558 20.0364 27.7222 20.0434 27.8768C20.044 27.8873 19.9579 27.9705 19.9717 27.9953C20.0033 28.0514 20.1055 28.0965 20.1371 28.1296C20.1976 28.194 20.21 28.2011 20.2765 28.2487C20.3667 28.3145 20.4428 28.4381 20.5565 28.4843C20.581 28.4939 20.6216 28.3756 20.6668 28.382C20.712 28.3884 20.7951 28.4582 20.8089 28.5022C20.8227 28.5463 20.7562 28.6153 20.7492 28.6368C20.6887 28.8175 20.9356 28.68 20.9524 28.684C21.2543 28.7628 21.379 29.0245 21.6055 29.1806C21.7777 29.2988 21.9886 29.3866 22.1484 29.505C22.3385 29.6464 22.4665 29.8142 22.6621 29.9357C22.6827 29.9487 22.7397 29.8161 22.765 29.8317C23.0335 29.9972 23.2821 30.1878 23.4858 30.4447C23.5062 30.4706 23.4022 30.5497 23.4183 30.5817C23.5185 30.7751 23.6295 31.1499 24.0311 30.7699C24.1263 30.8614 24.2441 30.9693 24.278 31.1253C24.3 31.2258 24.1629 31.2956 24.2717 31.3006C24.2962 31.3019 24.3413 31.189 24.3729 31.1982C24.5057 31.2373 24.602 31.3507 24.7439 31.3743C24.7729 31.3789 24.8273 31.2874 24.8444 31.2759C24.9843 31.1843 24.925 31.4546 24.9332 31.4829C24.9976 31.6961 25.1333 31.7234 25.2648 31.8185C25.2953 31.8406 25.3398 31.6979 25.372 31.715C25.5382 31.805 25.6913 31.9257 25.8067 32.0824C25.8322 32.1175 25.7321 32.1961 25.7407 32.218C25.7797 32.3133 25.9259 32.1354 25.9657 32.2232C25.9743 32.2415 25.907 32.3215 25.9032 32.3327C25.8421 32.5085 26.0222 32.324 26.0359 32.3267C26.2127 32.3557 26.147 32.6328 26.2971 32.6908C26.3152 32.6976 26.3553 32.5653 26.4016 32.5908C26.7106 32.7602 26.9949 33.0007 27.2205 33.2845C27.2556 33.3285 27.1677 33.3879 27.1636 33.3999C27.1008 33.588 27.2754 33.3985 27.2953 33.4006C27.4488 33.4225 27.4337 33.6723 27.6841 33.4758C28.1075 33.8967 28.6857 34.0888 29.0103 34.6442C29.0146 34.651 28.9322 34.7468 28.9411 34.7599C29.0474 34.9192 29.1303 34.7391 29.363 34.6095C29.4216 34.577 29.3318 34.8656 29.3264 34.8875C29.306 34.9682 29.1749 35.1048 29.1743 35.1228C29.1733 35.2661 29.514 34.7499 29.6036 34.8116C29.6058 34.8144 29.5293 34.8999 29.5304 34.9144C29.5335 34.9597 29.5824 34.9385 29.5829 34.9865C29.5836 35.0972 29.4314 35.3572 29.6107 35.2685C29.6337 35.2569 29.8176 34.9577 29.8881 35.0265C29.916 35.0542 30.0604 35.1466 30.087 35.1926C30.1135 35.2386 30.0222 35.3128 30.0222 35.3188C30.0435 35.5152 29.968 35.5383 29.8955 35.7572C29.8234 35.9753 30.1075 35.5326 30.1626 35.4993C30.2176 35.4662 30.2255 35.6215 30.2203 35.6701C30.215 35.7186 30.1503 35.7611 30.1535 35.7929C30.1762 36.0013 30.3514 35.6124 30.4361 35.5695C30.6361 35.4675 30.4827 35.8355 30.5413 35.9224C30.5571 35.9459 30.5899 35.8606 30.614 35.8671C30.7086 35.894 30.6855 36.0259 30.8361 35.9944C30.8607 35.9893 31.0644 35.8451 31.0122 36.0182C31.0045 36.043 30.9309 36.1103 30.9512 36.1508C30.9814 36.2113 31.0572 36.2895 31.1281 36.299C31.1805 36.306 31.2271 36.1437 31.2476 36.2182C31.2566 36.2515 31.1632 36.3008 31.1846 36.3568C31.2058 36.4127 31.3116 36.4808 31.3528 36.5053C31.394 36.5298 31.4415 36.415 31.4493 36.4104C31.4952 36.3852 31.6039 36.3891 31.6105 36.3938C31.9551 36.614 32.1487 36.9966 32.5145 37.1671C32.5431 37.1806 32.5988 37.0634 32.6039 37.0644C32.7223 37.081 32.4594 37.3132 32.456 37.4494C32.5949 37.2295 32.6044 37.2933 32.6826 37.3126C32.7203 37.3218 32.7613 37.2278 32.7699 37.2212C32.901 37.126 32.8196 37.3097 32.8046 37.3484C32.7494 37.4909 32.8811 37.3686 32.8446 37.464C32.8085 37.5589 32.6796 37.6474 32.74 37.6869C32.8096 37.6219 32.9037 37.3914 32.9712 37.3902C33.2261 37.3851 33.4353 37.7616 33.5608 37.8725C33.6861 37.9831 33.74 37.9995 33.8004 38.0821C33.9096 38.2315 33.9595 38.0467 34.0957 38.0404C34.2321 38.0344 33.9363 38.3694 33.8949 38.4568C33.8533 38.544 33.9229 38.4727 33.9088 38.5267C33.8946 38.5806 33.8239 38.6106 33.8495 38.6522C33.8752 38.6939 34.0724 38.6239 34.1422 38.5509C34.2899 38.3961 34.3706 38.1823 34.4238 38.3138C34.4268 38.3214 34.3423 38.4049 34.357 38.4294C34.4765 38.6212 34.6505 38.7482 34.7757 38.9313C34.7928 38.9566 34.698 39.0489 34.7071 39.0649C34.8019 39.2313 34.8756 39.0162 35.0917 38.8699C34.8902 39.124 34.8207 39.3167 34.9273 39.3927C34.9914 39.4385 35.0606 39.3145 35.1591 39.2615C35.1888 39.2455 35.1794 39.357 35.2255 39.3081C35.3764 39.1483 35.4715 38.9184 35.5276 39.0748C35.5298 39.082 35.4467 39.1691 35.4594 39.1866C35.5415 39.3007 35.6837 39.1227 35.817 39.1814C35.9216 39.2274 36.0068 39.4547 36.099 39.5459C35.8899 39.8436 36.0365 39.8437 36.2194 39.6651C36.2817 39.7207 36.3634 39.7599 36.4095 39.8339C36.4255 39.8593 36.3507 39.9357 36.3471 39.947C36.2894 40.1242 36.4578 39.9439 36.478 39.9462C36.6903 39.9799 36.715 40.2219 36.97 40.1783C36.9791 40.1767 37.1315 39.9748 37.0673 40.1548C37.0627 40.167 36.947 40.2269 37.0136 40.2837C37.0801 40.3405 37.138 40.5452 37.304 40.5176C37.3441 40.511 37.5216 40.3843 37.4793 40.5499C37.4734 40.5723 37.4251 40.627 37.4115 40.6667C37.3688 40.7934 37.5306 40.5947 37.4429 40.7979C37.3552 41.0011 37.337 41.186 37.5224 41.1322C37.5281 41.1308 37.6669 40.9806 37.6966 41.005C37.7439 41.0442 37.7914 41.1282 37.8447 41.1635C37.8702 41.1803 37.9256 41.0657 37.9313 41.0668C38.1405 41.1258 38.1971 41.3012 38.3507 41.4665C38.3787 41.497 38.5717 41.4219 38.5589 41.5779C38.5451 41.7487 38.1217 42.2063 38.3676 42.1975C38.4665 42.1944 38.9946 41.6075 38.8816 42.0225C39.1669 42.0975 39.2598 42.4142 39.5702 42.4542C39.5841 42.4561 39.7409 42.2988 39.7634 42.318C39.7966 42.3468 39.7582 42.4444 39.78 42.4677C39.87 42.5673 40.018 42.5633 40.1139 42.6461C40.1504 42.6773 40.0766 42.7547 40.1202 42.792C40.1637 42.8292 40.2741 42.7364 40.2994 42.8355C40.3183 42.9108 40.2046 43.1778 40.2495 43.2491C40.4113 43.0201 40.4518 43.0551 40.5716 43.0479C40.5947 43.0464 40.6342 42.9551 40.648 42.9502C40.7053 42.9287 40.686 43.0137 40.7444 42.9875C40.7585 42.9813 40.8133 42.9027 40.8279 42.8932C40.9543 42.8091 40.9079 43.0389 40.8997 43.0788C40.8688 43.2306 40.963 43.1443 40.9695 43.217C40.976 43.2897 40.8788 43.3077 40.9043 43.3666C40.9571 43.4888 41.0853 43.5585 41.1771 43.6273C41.2141 43.6543 41.2611 43.5314 41.2681 43.5328C41.3643 43.56 41.3657 43.7262 41.5536 43.5466C41.2333 44.1254 41.6369 43.5265 41.6732 43.7118C41.6759 43.7266 41.5101 43.9904 41.4504 44.0048C41.3908 44.0191 41.3951 43.9038 41.308 43.9301C41.2874 43.9362 41.0582 44.1324 41.0395 44.141C40.8933 44.2078 41.1482 43.8185 41.1592 43.795C41.2753 43.5401 41.0193 43.7452 40.9866 43.7489C40.8368 43.7664 40.7948 43.6578 40.6764 43.6623C40.5993 43.6649 40.4211 43.9121 40.3863 43.8767C40.2707 43.7594 40.466 43.3776 40.131 43.5941C40.0594 43.6402 39.8967 43.9326 39.9493 43.6506C39.9526 43.6328 40.0172 43.3863 39.8897 43.4824C39.8737 43.4945 39.8187 43.5744 39.8072 43.5764C39.7313 43.5881 39.7447 43.5033 39.6736 43.4992C39.6026 43.4952 39.5111 43.499 39.4727 43.4325C39.4495 43.3925 39.5082 43.2133 39.5169 43.1655C39.5429 43.0284 39.3742 43.166 39.4332 43.019C39.4924 42.8712 39.6832 42.7166 39.6641 42.5814C39.5179 42.7869 39.3642 42.9954 39.2155 43.2009C39.0536 43.0782 38.9358 42.8976 38.7619 42.791C38.7402 42.778 38.6844 42.9042 38.6592 42.8932C38.553 42.846 38.5259 42.7098 38.4067 42.6741C38.314 42.647 38.1498 42.7079 38.0504 42.6832C38.1663 42.4125 37.9936 42.4123 37.9237 42.3318C37.8991 42.3038 37.9449 42.2418 37.938 42.2064C37.911 42.0747 37.8034 42.3104 37.7587 42.3283C37.5674 42.4043 37.8876 41.9239 37.7687 41.8591C37.7625 41.8555 37.5159 42.059 37.4951 42.0679C37.3613 42.1273 37.5456 41.9727 37.5193 41.9268C37.4712 41.8431 37.4631 41.7482 37.3277 41.7642C37.288 41.7692 37.1201 41.8863 37.1568 41.7313C37.1616 41.711 37.2229 41.6297 37.2212 41.6213C37.1863 41.4766 37.0023 41.7378 36.8886 41.7907C36.7748 41.8437 36.8197 41.6065 36.8394 41.5429C36.89 41.3779 36.9122 41.5078 36.9237 41.4961C37.0602 41.357 36.9827 41.3435 36.947 41.2991C37.1186 41.0369 37.0451 41.0089 36.9092 41.2541C36.8945 41.281 36.9461 41.2811 36.947 41.2991C36.7327 41.5248 36.6413 41.5094 36.7284 41.2204C36.7693 41.085 36.8922 40.9792 36.7512 40.9515C36.6872 40.9388 36.5836 41.1294 36.5067 41.1478C36.3312 41.1896 36.3167 40.9349 36.1964 40.8903C36.1527 40.8741 36.1217 40.9963 36.0896 40.9886C36.004 40.9684 35.995 40.8545 35.9016 40.8451C35.893 40.8443 35.8377 40.9564 35.8158 40.9431C35.6482 40.8448 35.5544 40.6837 35.3892 40.5669C35.3094 40.5105 35.1269 40.4672 35.0513 40.3983C34.9201 40.2796 34.8446 40.009 34.6965 39.9596C34.6001 39.927 34.5475 40.0409 34.4651 40.0864C34.3057 40.1748 34.3543 39.8528 34.3642 39.8046C34.3646 39.803 34.4504 39.8269 34.4495 39.7491C34.5032 39.6255 34.3653 39.8046 34.3642 39.8046C34.3704 39.7733 34.2481 39.6546 34.2072 39.6551C34.1849 39.6554 34.1267 39.7576 34.1163 39.7559C33.8718 39.7143 33.6696 39.6108 33.5132 39.4361C33.5113 39.4319 33.5908 39.3275 33.5852 39.3189C33.5098 39.196 33.3491 39.2798 33.2055 39.2962C33.0619 39.3126 33.009 39.2373 33.0839 39.0156C33.0002 38.9922 32.9598 38.8434 32.9384 38.7552C32.9169 38.6671 32.7641 38.8715 32.7563 38.8723C32.5115 38.8992 32.506 38.718 32.3601 38.5896C32.2911 38.5281 32.1203 38.4551 32.0227 38.4215C31.9453 38.3954 31.9404 38.3193 31.8591 38.3096C31.8481 38.3082 31.7917 38.4073 31.7868 38.4092C31.6431 38.475 31.8329 38.2687 31.8473 38.2184C31.9001 38.0357 31.924 37.9355 31.7907 37.9465C31.76 37.9489 31.4756 38.2382 31.4265 38.2328C31.3632 38.225 31.4622 38.1193 31.3938 38.1142C31.388 38.1136 31.3386 38.187 31.3107 38.163C31.1809 38.0526 31.058 37.9052 30.908 37.8123C30.8877 37.7993 30.8334 37.9322 30.8027 37.9154C30.659 37.8363 30.5148 37.7303 30.4213 37.5859C30.3986 37.55 30.4746 37.4832 30.4842 37.4544C30.5415 37.2796 30.335 37.4484 30.3222 37.4455C30.0127 37.3813 29.9613 37.0638 29.6544 36.9859C29.6374 36.9821 29.379 37.1374 29.4673 36.9121C29.4731 36.897 29.565 36.6675 29.4314 36.7755C29.423 36.7823 29.3806 36.9038 29.3387 36.8595C29.2968 36.8151 29.1707 36.8287 29.1807 36.6699C29.1838 36.6198 29.27 36.3871 29.0973 36.5008C29.0855 36.5089 28.7407 36.7975 28.8756 36.5272C28.8979 36.4827 29.0838 36.2265 28.9155 36.3074C28.8831 36.3233 28.8693 36.3996 28.806 36.4094C28.7087 36.4247 28.6792 36.3013 28.5269 36.3674C28.5002 36.3793 28.3245 36.519 28.3743 36.3552C28.3821 36.3295 28.4549 36.2514 28.439 36.226C28.3634 36.1049 28.2103 36.085 28.1424 35.9492C28.1182 35.9012 28.2351 35.7744 28.2207 35.7088C28.2063 35.6433 28.1499 35.5508 28.0632 35.5857C27.9765 35.6207 27.868 35.8766 27.7922 35.8507C27.4628 35.7381 27.2807 35.4181 27.0188 35.2087C26.98 35.1776 26.9584 35.2811 26.8972 35.2411C26.6714 35.0938 26.2366 34.9043 26.1619 34.6011C26.102 34.3582 26.3678 34.3884 26.2883 34.2515C26.2498 34.1858 26.0083 34.4036 25.9889 34.4023C25.7974 34.3929 25.7839 34.2132 25.6388 34.1652C25.6088 34.1553 25.5603 34.2777 25.5356 34.2682C25.4505 34.2364 25.4069 34.1367 25.3318 34.0975C25.2979 34.0801 25.2479 34.1647 25.2236 34.1387C25.1649 34.0775 25.1279 34.0018 25.1134 33.8802C25.1121 33.8692 25.2224 33.7972 25.1743 33.7585C25.0965 33.6962 25.0463 33.5515 24.899 33.5633C24.855 33.5671 24.7266 33.7506 24.7545 33.5819C24.7602 33.5466 24.9292 33.3365 24.7271 33.4793C24.6934 33.5029 24.3977 33.6794 24.4549 33.4734C24.4699 33.4191 24.5561 33.2113 24.5029 33.2165C24.4952 33.2179 24.445 33.3295 24.4105 33.3199C24.2901 33.2843 24.1945 33.2027 24.0723 33.164C24.0395 33.1539 24.0088 33.2839 23.9622 33.2656C23.834 33.2152 23.7142 33.0939 23.6285 32.9873C23.597 32.9478 23.6831 32.882 23.6866 32.8707C23.7438 32.6884 23.5762 32.872 23.5526 32.8732C23.4076 32.8775 23.4002 32.7318 23.2943 32.6957C23.2652 32.6855 23.2158 32.7941 23.2049 32.7994C23.0963 32.8487 23.2538 32.7011 23.2351 32.6599C23.183 32.544 23.0779 32.4828 22.9789 32.4326C22.9424 32.4143 22.9023 32.5521 22.8705 32.5344C22.6806 32.4317 22.5045 32.2941 22.3749 32.1133C22.3506 32.079 22.4306 32.0069 22.4375 31.9825C22.4861 31.8124 22.2879 31.9533 22.2598 31.9603C22.1318 31.9927 22.1568 31.8972 22.0838 31.8679C21.7266 31.7257 21.3808 31.4121 21.1114 31.1798C20.76 30.8775 20.5225 30.5921 20.1461 30.3635C20.1223 30.3488 20.0661 30.4796 20.0446 30.4685C19.7697 30.3193 19.5488 30.1005 19.2696 29.9565C19.2469 29.9444 19.202 30.0742 19.1629 30.0585C19.0822 30.0272 18.9986 29.9607 18.9526 29.8776C18.93 29.8372 19.0404 29.7756 19.0163 29.7369C18.9605 29.6466 18.88 29.5795 18.7858 29.5401C18.7455 29.5236 18.7214 29.6714 18.675 29.6412C18.3577 29.4382 18.0402 29.2471 17.8268 28.8867C17.8122 28.862 17.9496 28.6228 17.874 28.6347C17.8272 28.695 17.7764 28.769 17.7285 28.835C17.2526 28.5595 16.8605 28.1727 16.4167 27.8481C16.398 27.8344 16.3481 27.977 16.3115 27.9511C16.0991 27.8017 15.8687 27.6916 15.7325 27.4214C15.7188 27.3948 15.8756 27.1917 15.7897 27.1794C15.7744 27.1775 15.6588 27.1391 15.6023 27.1676C15.5941 27.1722 15.5437 27.2827 15.5107 27.2642C15.3202 27.1546 15.1469 27.0016 15.0085 26.8171C14.9863 26.7872 15.0896 26.7038 15.0745 26.6815C14.9662 26.5246 14.7516 26.4939 14.6772 26.3019C14.6277 26.173 14.7876 26.0159 14.8609 25.8032C14.8713 25.7732 14.8159 25.7291 14.8846 25.6233C15.0571 25.3571 15.2827 25.091 15.4632 24.805C15.5022 24.7434 15.3798 24.7542 15.5259 24.6413C15.5358 24.6338 15.6254 24.6248 15.6732 24.5853C15.7063 24.5581 15.7618 24.4405 15.8116 24.4107C15.8613 24.381 15.8219 24.4844 15.8899 24.4559C15.9583 24.4269 16.0269 24.2969 16.102 24.3279ZM32.8406 38.3598C32.8586 38.2233 32.5959 38.5871 32.7128 38.5374C32.7187 38.5346 32.8398 38.3666 32.8406 38.3598ZM39.1291 42.6199C39.1741 42.4104 38.9625 42.6179 38.9232 42.7765C38.884 42.935 39.1156 42.6834 39.1291 42.6199ZM39.9113 42.9849C39.9211 42.802 39.547 43.3168 39.7046 43.2694C39.7137 43.2668 39.9108 42.9955 39.9113 42.9849ZM15.1272 25.9122C15.1299 25.9069 15.0914 25.8732 15.0871 25.8774C14.9838 25.9792 15.0608 26.0464 15.1272 25.9122ZM40.6955 43.3356C40.7198 43.2478 40.5924 43.2805 40.5621 43.3897C40.5378 43.4776 40.6653 43.4449 40.6955 43.3356ZM30.4189 36.1041C30.4219 36.098 30.3954 36.0724 30.3745 36.1039C30.3073 36.2054 30.3685 36.2059 30.4189 36.1041ZM41.8804 44.1457C41.7195 44.0054 41.9126 43.5 42.0688 43.6801C42.0971 43.7127 41.8994 43.7667 41.9162 43.8359C41.9473 43.9623 42.1881 43.7276 42.1693 43.9296C42.1657 43.9664 41.8889 44.1546 41.8797 44.1461C41.8799 44.1459 41.8801 44.1458 41.8804 44.1457ZM33.1172 37.8959C33.1196 37.8903 33.0813 37.8571 33.077 37.8612C32.9736 37.9629 33.0506 38.03 33.1172 37.8959ZM28.8296 34.6684C28.8345 34.6565 28.7451 34.5803 28.7353 34.5877C28.5527 34.7446 28.7332 34.8992 28.8296 34.6684ZM36.0951 39.555C36.2218 39.4684 36.2855 39.4919 36.2193 39.6648C36.1798 39.6259 36.1353 39.5935 36.0951 39.555Z" fill="#2F98FF" fill-opacity="0.63"/>
<path d="M27.7742 0.686894C27.9412 0.907424 28.0788 1.24162 28.1609 1.50802C28.1869 1.59141 28.0963 1.59212 28.1111 1.65143C28.1401 1.76737 28.2263 1.8425 28.2494 1.96013C28.2568 1.9993 28.1238 2.01923 28.134 2.05891C28.1907 2.27587 28.3184 2.44003 28.4018 2.64545C28.812 3.65741 29.2875 4.6121 29.7695 5.59942C29.9285 5.92491 30.0419 6.36494 30.2669 6.66747C30.2932 6.70273 30.3773 6.62637 30.3893 6.6292C30.5744 6.67538 30.3582 6.74578 30.3735 6.83449C30.4348 7.18628 30.6078 7.51925 30.8026 7.78245C30.8857 7.89427 31.0106 7.66666 30.9703 7.84806C30.9677 7.86054 30.848 7.88684 30.8554 7.92603C30.8725 8.01481 30.9699 8.14714 30.994 8.20987C31.0401 8.33105 31.0514 8.34904 31.1091 8.45581C31.1871 8.60226 31.2317 8.80312 31.3413 8.94587C31.365 8.97617 31.4459 8.87381 31.4932 8.91686C31.5405 8.95998 31.6093 9.10522 31.6108 9.16628C31.6122 9.22736 31.5183 9.2531 31.504 9.27199C31.3822 9.42963 31.6938 9.46898 31.7109 9.48681C32.0154 9.81573 32.0703 10.2122 32.2689 10.5694C32.4199 10.8404 32.6225 11.1074 32.7599 11.3687C32.9233 11.6803 33.0109 11.9725 33.1864 12.2659C33.2048 12.2969 33.308 12.1913 33.3308 12.2291C33.5721 12.6303 33.784 13.0441 33.9264 13.4978C33.9406 13.5434 33.8028 13.551 33.8104 13.6001C33.8598 13.8995 33.8646 14.4139 34.42 14.3C34.4954 14.4795 34.5903 14.6956 34.579 14.9C34.5717 15.0316 34.4008 15.0024 34.5178 15.0944C34.5441 15.1152 34.6282 15.0225 34.6598 15.0581C34.7924 15.2079 34.8623 15.4132 35.0095 15.5524C35.0397 15.5806 35.1274 15.5197 35.1495 15.5202C35.3304 15.5269 35.1821 15.7874 35.1823 15.8261C35.1864 16.1196 35.3258 16.2583 35.4397 16.4706C35.4661 16.5199 35.5587 16.3929 35.5886 16.4379C35.7418 16.672 35.8713 16.9307 35.9485 17.2004C35.9654 17.2605 35.832 17.2706 35.8346 17.3023C35.8475 17.4416 36.062 17.3551 36.0782 17.4866C36.0818 17.5142 35.9838 17.5519 35.9761 17.5615C35.8551 17.7132 36.1085 17.6461 36.1226 17.66C36.3063 17.8331 36.1489 18.0962 36.2944 18.2812C36.3121 18.3032 36.3968 18.1845 36.4394 18.2503C36.7236 18.6879 36.959 19.1868 37.1169 19.6885C37.1416 19.7664 37.0274 19.7643 37.0192 19.7746C36.8925 19.9389 37.1414 19.8616 37.1625 19.8798C37.3229 20.0264 37.2292 20.2986 37.5629 20.2736C37.894 21.0879 38.4646 21.7648 38.6463 22.6538C38.6489 22.665 38.5294 22.7087 38.535 22.7307C38.6015 22.9961 38.7477 22.8569 39.0415 22.894C39.1153 22.9035 38.9281 23.1606 38.9154 23.1812C38.8682 23.2568 38.683 23.3083 38.6768 23.3282C38.6313 23.4904 39.1625 23.1734 39.241 23.3146C39.2426 23.3195 39.1328 23.3562 39.1295 23.3735C39.1188 23.4276 39.1786 23.4421 39.1644 23.4972C39.1308 23.6236 38.8844 23.7988 39.1072 23.8399C39.1359 23.8449 39.4291 23.6504 39.4845 23.7845C39.5064 23.8382 39.6351 24.0578 39.6498 24.1312C39.6645 24.2045 39.5419 24.2165 39.5401 24.2234C39.5025 24.4637 39.4131 24.4301 39.2662 24.6215C39.1201 24.8125 39.5669 24.5342 39.6372 24.54C39.7075 24.546 39.6679 24.7288 39.6472 24.7799C39.6264 24.8309 39.5427 24.828 39.5364 24.8667C39.4966 25.1218 39.808 24.8183 39.9135 24.8366C40.1631 24.8792 39.882 25.1761 39.9188 25.3214C39.9288 25.3607 39.991 25.2896 40.0152 25.3161C40.11 25.4217 40.044 25.5535 40.2178 25.6369C40.2462 25.6506 40.5129 25.6481 40.4024 25.8036C40.3864 25.8258 40.2853 25.844 40.2949 25.9061C40.309 25.9989 40.3674 26.148 40.4417 26.215C40.4966 26.2644 40.5978 26.1167 40.5969 26.2178C40.5965 26.2627 40.4794 26.2448 40.4854 26.3255C40.4912 26.4058 40.5854 26.5671 40.6227 26.6277C40.66 26.6882 40.7474 26.5953 40.7573 26.5963C40.8151 26.6039 40.9324 26.6946 40.9381 26.7052C41.2454 27.2287 41.3379 27.8174 41.6837 28.3013C41.7107 28.3394 41.8077 28.2502 41.813 28.2554C41.9369 28.3682 41.5785 28.4239 41.5326 28.5762C41.7521 28.4361 41.7427 28.5162 41.8218 28.6001C41.8602 28.6405 41.9339 28.566 41.9453 28.5653C42.1177 28.5611 41.9721 28.7055 41.9437 28.7376C41.8395 28.8559 42.0209 28.8212 41.9516 28.9008C41.8828 28.9801 41.7149 28.9785 41.7685 29.0714C41.8645 29.0526 42.0385 28.865 42.1124 28.9171C42.3918 29.1135 42.5031 29.7075 42.6056 29.9331C42.7079 30.1583 42.7615 30.2196 42.8018 30.3615C42.8745 30.6179 42.9861 30.4473 43.1364 30.5481C43.287 30.6494 42.8608 30.796 42.7886 30.8626C42.7163 30.9288 42.8142 30.9029 42.7821 30.9531C42.75 31.0033 42.6636 30.9812 42.6786 31.0489C42.6937 31.1166 42.9303 31.1934 43.029 31.1656C43.238 31.1067 43.3922 30.9275 43.4094 31.1192C43.4103 31.1303 43.2923 31.1582 43.3008 31.1978C43.3716 31.5106 43.5219 31.793 43.6015 32.1005C43.6123 32.1429 43.4805 32.1728 43.4855 32.1982C43.5372 32.4626 43.6842 32.2763 43.9649 32.2812C43.6667 32.4106 43.5312 32.5745 43.6239 32.7456C43.6795 32.8485 43.7933 32.7623 43.9171 32.7801C43.9544 32.7854 43.9097 32.9048 43.9751 32.8857C44.1891 32.8235 44.3639 32.6374 44.3765 32.8598C44.3768 32.8697 44.2592 32.9029 44.2676 32.933C44.3217 33.1277 44.5319 33.0381 44.659 33.2105C44.7587 33.3456 44.7811 33.6719 44.8534 33.8486C44.5333 34.0216 44.693 34.1378 44.9476 34.0797C44.9983 34.1922 45.0752 34.3016 45.1026 34.4224C45.1121 34.464 45.0069 34.4915 44.9995 34.5016C44.8817 34.6574 45.1211 34.5858 45.1424 34.6044C45.3633 34.811 45.3153 35.1058 45.6067 35.2584C45.6171 35.2638 45.8458 35.155 45.72 35.3087C45.7112 35.3191 45.5667 35.2955 45.6216 35.4128C45.6765 35.5302 45.6762 35.809 45.8656 35.9091C45.9114 35.9334 46.144 35.9299 46.0466 36.0848C46.0333 36.1056 45.9637 36.1295 45.9366 36.1639C45.8508 36.2742 46.0887 36.1765 45.9302 36.338C45.7717 36.4996 45.6945 36.6956 45.9132 36.7813C45.9199 36.7842 46.1177 36.7235 46.1425 36.7748C46.1819 36.8568 46.2076 36.99 46.2548 37.0724C46.2774 37.1117 46.3733 37.0253 46.3791 37.0311C46.5888 37.264 46.5962 37.5084 46.7124 37.8181C46.7335 37.875 46.967 37.9426 46.9048 38.1099C46.8369 38.2933 46.2336 38.4781 46.5043 38.6631C46.6131 38.7379 47.3704 38.489 47.1187 38.8715C47.4064 39.183 47.4096 39.6168 47.7355 39.9084C47.7501 39.9216 47.9697 39.867 47.9883 39.9066C48.0155 39.9656 47.9434 40.0463 47.96 40.0901C48.0272 40.2746 48.1897 40.3875 48.2685 40.5576C48.2987 40.6221 48.1943 40.6516 48.2302 40.7285C48.2662 40.8054 48.4152 40.7873 48.4121 40.9202C48.4093 41.0207 48.2027 41.2344 48.2295 41.351C48.4768 41.2188 48.5101 41.2907 48.6429 41.3775C48.6686 41.3941 48.7399 41.3215 48.7564 41.3269C48.8256 41.348 48.7782 41.4292 48.85 41.4458C48.8673 41.4499 48.9513 41.404 48.9702 41.4047C49.134 41.4092 49.0122 41.6339 48.9909 41.6727C48.9102 41.8209 49.0396 41.7974 49.0242 41.8853C49.0088 41.9731 48.8972 41.9165 48.9067 42.0038C48.9265 42.1846 49.0446 42.3655 49.1233 42.5166C49.1553 42.5766 49.2446 42.474 49.2517 42.4812C49.3482 42.5883 49.2983 42.7785 49.5587 42.7232C49.0303 43.1277 49.6557 42.7663 49.6378 43.0059C49.6362 43.0249 49.3737 43.1935 49.3043 43.1626C49.2349 43.1316 49.2753 43.0038 49.1721 42.9647C49.1478 42.9553 48.8373 42.9969 48.8142 42.9918C48.6342 42.9519 49.0326 42.7111 49.0518 42.6931C49.2574 42.4952 48.9148 42.5255 48.878 42.5038C48.7093 42.4049 48.6972 42.2481 48.5668 42.1595C48.482 42.1012 48.2111 42.2412 48.1842 42.1734C48.0946 41.9483 48.4257 41.6687 47.9935 41.6495C47.9012 41.6451 47.6333 41.8489 47.778 41.5697C47.7871 41.5521 47.9339 41.3229 47.7652 41.3312C47.744 41.3322 47.6592 41.3796 47.6461 41.3727C47.5598 41.3259 47.6006 41.24 47.5244 41.1791C47.4483 41.1181 47.3473 41.05 47.3262 40.9439C47.3132 40.88 47.4327 40.7226 47.457 40.6752C47.5279 40.5399 47.3013 40.5626 47.4112 40.4422C47.5215 40.3211 47.7774 40.2964 47.7984 40.1275C47.5754 40.2453 47.3433 40.3607 47.1176 40.4765C46.9792 40.2087 46.9067 39.9098 46.7503 39.6508C46.7306 39.6188 46.6307 39.7181 46.6066 39.6855C46.5055 39.5477 46.5182 39.3713 46.3993 39.2362C46.3067 39.1319 46.1088 39.071 46.0082 38.9641C46.2184 38.7481 46.0302 38.6109 45.9789 38.464C45.9608 38.4126 46.0299 38.3783 46.0334 38.3327C46.0448 38.1615 45.8545 38.3443 45.8003 38.3292C45.5682 38.264 46.066 37.9713 45.9565 37.8034C45.9509 37.7944 45.619 37.8304 45.5936 37.8241C45.4294 37.7856 45.6782 37.7557 45.6636 37.6827C45.6372 37.5493 45.6578 37.435 45.5053 37.3459C45.4605 37.3201 45.2412 37.3202 45.3292 37.173C45.3407 37.1537 45.4327 37.1098 45.4335 37.099C45.4403 36.9067 45.1588 37.0579 45.0184 37.028C44.8781 36.998 45.0004 36.7638 45.0416 36.707C45.1479 36.5595 45.1319 36.7249 45.1481 36.7207C45.3399 36.6706 45.2595 36.5939 45.2344 36.5151C45.5027 36.3528 45.4312 36.2628 45.2072 36.434C45.1828 36.4529 45.239 36.4939 45.2344 36.5151C44.931 36.6019 44.8361 36.512 45.0206 36.2523C45.107 36.1306 45.2739 36.1078 45.1287 35.9644C45.0629 35.8993 44.8909 36.0339 44.8015 35.9939C44.5972 35.9024 44.6603 35.6012 44.543 35.4551C44.5004 35.402 44.4288 35.5164 44.3962 35.4822C44.3092 35.3914 44.3347 35.2547 44.2358 35.1699C44.2267 35.1623 44.1317 35.2459 44.1119 35.2135C43.9597 34.9688 43.9074 34.7112 43.7636 34.4473C43.694 34.3199 43.5085 34.126 43.4475 33.9878C43.3412 33.7487 43.3429 33.381 43.1967 33.2075C43.1018 33.094 43.0091 33.1818 42.9052 33.1683C42.7042 33.1425 42.8569 32.8147 42.8826 32.7677C42.8835 32.7662 42.9696 32.8614 42.9927 32.7723C43.0896 32.6742 42.8838 32.7686 42.8826 32.7677C42.899 32.7371 42.8025 32.5051 42.7578 32.4732C42.7334 32.4559 42.6383 32.5259 42.6275 32.5158C42.3739 32.2748 42.1857 31.9967 42.0693 31.6741C42.0685 31.6677 42.1874 31.612 42.1841 31.5978C42.1399 31.3981 41.9389 31.3661 41.7772 31.2709C41.6156 31.1757 41.5813 31.0481 41.7316 30.8553C41.6477 30.7624 41.6498 30.5612 41.6537 30.4438C41.6576 30.3265 41.4278 30.4379 41.4191 30.4326C41.1439 30.2693 41.1941 30.0588 41.0749 29.797C41.0186 29.6724 40.8551 29.4539 40.7591 29.3384C40.6829 29.2473 40.7011 29.1568 40.6155 29.0814C40.604 29.0712 40.5118 29.1391 40.5059 29.1373C40.3289 29.0984 40.5996 29.0141 40.631 28.9684C40.7451 28.8024 40.8022 28.7073 40.6535 28.6142C40.6193 28.5926 40.2197 28.6963 40.1679 28.6511C40.1012 28.5921 40.2419 28.5503 40.1689 28.4902C40.1628 28.485 40.0863 28.5293 40.0633 28.4799C39.956 28.2515 39.8678 27.9864 39.7331 27.7618C39.715 27.731 39.6146 27.8391 39.5864 27.7956C39.4543 27.5917 39.33 27.3568 39.2728 27.1185C39.2591 27.0596 39.3627 27.0439 39.382 27.0187C39.4987 26.8654 39.2213 26.8937 39.2082 26.8802C38.8908 26.5618 38.9331 26.1599 38.6228 25.8281C38.6055 25.8103 38.2757 25.7821 38.4418 25.5958C38.4528 25.5832 38.624 25.395 38.445 25.412C38.4338 25.413 38.3499 25.5176 38.3179 25.434C38.286 25.3504 38.1443 25.2658 38.2045 25.0932C38.2233 25.0386 38.3894 24.8422 38.166 24.8346C38.1506 24.8345 37.6855 24.8895 37.9162 24.689C37.9543 24.6561 38.2362 24.512 38.0277 24.4706C37.9875 24.463 37.9489 24.5388 37.8768 24.4998C37.766 24.4401 37.7721 24.2763 37.5857 24.2308C37.5528 24.2231 37.3181 24.2428 37.4231 24.0959C37.4395 24.0729 37.5431 24.0418 37.5336 24.0003C37.4888 23.8025 37.3281 23.6585 37.2961 23.4502C37.2846 23.3766 37.4514 23.325 37.456 23.239C37.4606 23.153 37.4277 23.003 37.3225 22.9741C37.2171 22.9452 37.0196 23.1502 36.945 23.0607C36.621 22.6715 36.5215 22.163 36.301 21.7173C36.2683 21.6512 36.2128 21.7518 36.1585 21.6578C35.958 21.3112 35.5429 20.7511 35.5554 20.3469C35.5653 20.0231 35.8456 20.2682 35.8014 20.0495C35.7798 19.9442 35.4492 20.0006 35.4284 19.9837C35.2225 19.8212 35.2635 19.6061 35.1203 19.4364C35.0906 19.4014 34.9999 19.5022 34.9759 19.4717C34.893 19.3682 34.8764 19.2202 34.8067 19.116C34.7751 19.0694 34.6944 19.126 34.676 19.0772C34.631 18.961 34.6141 18.8456 34.636 18.6958C34.638 18.6822 34.7804 18.6877 34.7401 18.6057C34.6745 18.473 34.6647 18.2687 34.5005 18.1654C34.4514 18.1349 34.2546 18.2418 34.3372 18.0719C34.3544 18.0364 34.6036 17.9313 34.3392 17.9335C34.2951 17.9337 33.9182 17.9001 34.0443 17.711C34.0775 17.6612 34.2358 17.4932 34.1762 17.4569C34.1674 17.4524 34.0782 17.5395 34.0435 17.5012C33.9233 17.3653 33.8444 17.1967 33.7232 17.0558C33.6906 17.0183 33.6169 17.142 33.5718 17.0841C33.4476 16.9252 33.3547 16.6923 33.2943 16.503C33.2722 16.4331 33.3864 16.4265 33.3937 16.4165C33.5125 16.2545 33.273 16.3305 33.2469 16.3131C33.0876 16.2031 33.1247 16.0314 33.0203 15.9065C32.9918 15.8718 32.9043 15.9561 32.8909 15.9535C32.7572 15.9235 32.9746 15.8805 32.9669 15.8188C32.9461 15.6456 32.8505 15.4927 32.7581 15.3571C32.7241 15.3074 32.6377 15.4324 32.6085 15.387C32.4334 15.1197 32.284 14.8236 32.1988 14.5151C32.1829 14.4569 32.2925 14.4383 32.3075 14.416C32.4132 14.2611 32.1536 14.2642 32.1208 14.2499C31.9713 14.1853 32.028 14.0965 31.9576 14.0053C31.6123 13.5603 31.3327 12.9296 31.111 12.4517C30.8216 11.8293 30.6512 11.3164 30.3119 10.758C30.2904 10.7225 30.1887 10.8267 30.1687 10.797C29.9153 10.4094 29.7424 9.9854 29.4827 9.60029C29.4616 9.56856 29.3725 9.68057 29.3348 9.63181C29.2566 9.53225 29.186 9.39028 29.1617 9.25927C29.1495 9.19549 29.2889 9.21276 29.2747 9.14968C29.2418 9.00269 29.1749 8.86267 29.0844 8.74317C29.0456 8.69245 28.9735 8.84139 28.9324 8.77035C28.6494 8.28783 28.3626 7.81884 28.2416 7.23971C28.2334 7.19999 28.4573 7.03694 28.3712 6.99047C28.3015 7.02205 28.2232 7.06587 28.1506 7.10305C27.7173 6.41245 27.4098 5.66159 27.0267 4.94054C27.0105 4.91015 26.912 5.03282 26.88 4.97435C26.6948 4.63602 26.4779 4.32808 26.4131 3.91286C26.4065 3.87176 26.6403 3.76505 26.5505 3.68297C26.5344 3.66861 26.4203 3.53325 26.3498 3.52095C26.3395 3.51968 26.2503 3.60541 26.2201 3.55814C26.0464 3.28245 25.9049 2.97106 25.8113 2.65161C25.7964 2.59994 25.9348 2.58698 25.9252 2.54964C25.8559 2.28527 25.6315 2.08033 25.6099 1.80295C25.5958 1.61706 25.8187 1.56512 25.9646 1.3813C25.9851 1.35534 25.9385 1.26126 26.0461 1.19537C26.3166 1.02941 26.6448 0.905447 26.9302 0.723302C26.9918 0.684145 26.8551 0.599331 27.0492 0.586742C27.0623 0.586113 27.1628 0.646856 27.2271 0.639848C27.2717 0.635109 27.3685 0.545393 27.432 0.550938C27.4954 0.556504 27.4204 0.642877 27.5033 0.664439C27.5869 0.685606 27.7019 0.592148 27.7742 0.686894ZM41.6697 29.9165C41.7315 29.7756 41.3325 29.9812 41.4753 30.0173C41.4827 30.0188 41.6667 29.9237 41.6697 29.9165ZM47.2034 39.7471C47.3173 39.5446 47.0224 39.6128 46.9305 39.7621C46.8387 39.9113 47.169 39.8087 47.2034 39.7471ZM47.9428 40.7824C48.0102 40.5821 47.443 40.8711 47.6294 40.9422C47.6401 40.9464 47.939 40.7941 47.9428 40.7824ZM26.221 1.71639C26.2256 1.71237 26.1941 1.64362 26.188 1.64491C26.044 1.67892 26.107 1.81634 26.221 1.71639ZM48.6888 41.803C48.7425 41.7223 48.5935 41.6585 48.5267 41.7588C48.473 41.8394 48.622 41.9033 48.6888 41.803ZM39.7292 25.431C39.7344 25.4265 39.7134 25.3763 39.6809 25.3956C39.5762 25.4579 39.6428 25.507 39.7292 25.431ZM49.7292 43.6636C49.5974 43.3766 49.9643 42.9547 50.0788 43.2834C50.0996 43.3429 49.8673 43.2476 49.8643 43.3397C49.8589 43.5081 50.1941 43.432 50.1111 43.6469C50.0957 43.686 49.7357 43.6806 49.7283 43.6635C49.7286 43.6635 49.7289 43.6636 49.7292 43.6636ZM42.1149 29.6082C42.1191 29.6037 42.0878 29.5355 42.0817 29.5368C41.9375 29.5705 42.0007 29.7078 42.1149 29.6082ZM38.4419 22.5382C38.451 22.5285 38.3771 22.3709 38.3641 22.3716C38.1165 22.4053 38.2653 22.7243 38.4419 22.5382ZM44.8464 33.8559C45.0113 33.8578 45.0734 33.9351 44.9476 34.0792C44.9166 34.0037 44.8782 33.9315 44.8464 33.8559Z" fill="#2F98FF" fill-opacity="0.63"/>
</svg>
