<svg width="24" height="24" viewBox="0 0 24 24" fill="none" xmlns="http://www.w3.org/2000/svg">
<path fill-rule="evenodd" clip-rule="evenodd" d="M19.4944 3.13333C19.716 3.00004 19.9806 2.95776 20.2327 3.01537C20.4848 3.07299 20.7047 3.22601 20.8464 3.44233L21.8364 4.95233C21.9655 5.14959 22.0207 5.3861 21.9923 5.62011C21.964 5.85413 21.8539 6.0706 21.6814 6.23133L21.6784 6.23533L21.6644 6.24833L21.6074 6.30133L21.3824 6.51633C20.1375 7.72399 18.9302 8.96992 17.7624 10.2523C15.5654 12.6683 12.9564 15.8303 11.2004 18.8983C10.7104 19.7543 9.51342 19.9383 8.80342 19.1993L2.31842 12.4613C2.22549 12.3647 2.15292 12.2504 2.10504 12.1252C2.05716 12 2.03493 11.8665 2.03969 11.7325C2.04445 11.5986 2.07609 11.4669 2.13274 11.3454C2.18938 11.2239 2.26987 11.1151 2.36942 11.0253L4.32942 9.25733C4.50167 9.10204 4.72253 9.01144 4.9542 9.00104C5.18588 8.99064 5.41396 9.06109 5.59942 9.20033L8.90843 11.6813C14.0774 6.58433 17.0084 4.62833 19.4944 3.13333ZM19.7044 5.34933C17.4144 6.78133 14.5564 8.85833 9.70642 13.7073C9.53623 13.8775 9.31036 13.9806 9.07028 13.9977C8.83019 14.0148 8.592 13.9447 8.39942 13.8003L5.05743 11.2943L4.47643 11.8183L9.79342 17.3443C11.6394 14.2743 14.1804 11.2183 16.2834 8.90633C17.3909 7.68981 18.533 6.50532 19.7084 5.35433L19.7044 5.34933Z" fill="#F78C01"/>
</svg>
