<svg width="24" height="24" viewBox="0 0 24 24" fill="none" xmlns="http://www.w3.org/2000/svg">
<path d="M21.4546 10.1538C21.5776 10.8128 21.6446 11.5018 21.6446 12.2208C21.6446 17.8448 17.8806 21.8438 12.1956 21.8438C10.9027 21.8443 9.62237 21.59 8.42781 21.0955C7.23324 20.601 6.14784 19.8759 5.23363 18.9617C4.31943 18.0475 3.59434 16.9621 3.09982 15.7675C2.6053 14.573 2.35104 13.2926 2.35156 11.9998C2.35104 10.7069 2.6053 9.42657 3.09982 8.23201C3.59434 7.03744 4.31943 5.95204 5.23363 5.03783C6.14784 4.12363 7.23324 3.39854 8.42781 2.90402C9.62237 2.4095 10.9027 2.15524 12.1956 2.15576C14.8536 2.15576 17.0746 3.13376 18.7786 4.72176L16.0036 7.49676V7.48976C14.9706 6.50576 13.6596 6.00076 12.1956 6.00076C8.94756 6.00076 6.30756 8.74476 6.30756 11.9938C6.30756 15.2428 8.94756 17.9928 12.1956 17.9928C15.1426 17.9928 17.1486 16.3068 17.5606 13.9928H12.1956V10.1538H21.4546Z" fill="white"/>
</svg>
