<svg width="552" height="389" viewBox="0 0 552 389" fill="none" xmlns="http://www.w3.org/2000/svg">
<g filter="url(#filter0_d_1434_38426)">
<mask id="mask0_1434_38426" style="mask-type:luminance" maskUnits="userSpaceOnUse" x="29" y="25" width="494" height="331">
<rect x="29" y="25" width="494" height="331" rx="12" fill="white"/>
</mask>
<g mask="url(#mask0_1434_38426)">
<g filter="url(#filter1_d_1434_38426)">
<rect x="29" y="25" width="494" height="331" rx="20" fill="white"/>
<rect x="29.5" y="25.5" width="493" height="330" rx="19.5" stroke="#F8F9FA"/>
</g>
</g>
<g clip-path="url(#clip0_1434_38426)">
<path d="M50.19 72.26C49.4233 72.26 48.6867 72.14 47.98 71.9C47.2733 71.66 46.6567 71.3167 46.13 70.87C45.6033 70.4167 45.2267 69.88 45 69.26L46.95 68.53C47.0633 68.85 47.28 69.1367 47.6 69.39C47.9267 69.6367 48.3133 69.83 48.76 69.97C49.2133 70.11 49.69 70.18 50.19 70.18C50.7233 70.18 51.2233 70.0933 51.69 69.92C52.1633 69.7467 52.5433 69.5067 52.83 69.2C53.1233 68.8933 53.27 68.5333 53.27 68.12C53.27 67.6933 53.1167 67.3433 52.81 67.07C52.51 66.7967 52.1233 66.58 51.65 66.42C51.1833 66.26 50.6967 66.14 50.19 66.06C49.21 65.9 48.33 65.6667 47.55 65.36C46.7767 65.0533 46.1633 64.6233 45.71 64.07C45.2633 63.5167 45.04 62.7967 45.04 61.91C45.04 61.0767 45.2767 60.35 45.75 59.73C46.23 59.11 46.86 58.63 47.64 58.29C48.4267 57.9433 49.2767 57.77 50.19 57.77C50.9433 57.77 51.67 57.89 52.37 58.13C53.0767 58.3633 53.6967 58.7067 54.23 59.16C54.77 59.6067 55.1567 60.15 55.39 60.79L53.42 61.5C53.3067 61.1733 53.09 60.89 52.77 60.65C52.45 60.4033 52.0633 60.21 51.61 60.07C51.1633 59.93 50.69 59.86 50.19 59.86C49.6567 59.8533 49.1567 59.94 48.69 60.12C48.23 60.2933 47.8533 60.5333 47.56 60.84C47.2667 61.1467 47.12 61.5033 47.12 61.91C47.12 62.41 47.2567 62.79 47.53 63.05C47.8033 63.31 48.17 63.5033 48.63 63.63C49.0967 63.75 49.6167 63.86 50.19 63.96C51.11 64.1067 51.96 64.35 52.74 64.69C53.5267 65.03 54.1567 65.4833 54.63 66.05C55.11 66.61 55.35 67.3 55.35 68.12C55.35 68.9467 55.11 69.6733 54.63 70.3C54.1567 70.92 53.5267 71.4033 52.74 71.75C51.96 72.09 51.11 72.26 50.19 72.26ZM65.1089 62H67.1889V72H65.0989L65.0189 70.55C64.7256 71.0633 64.3289 71.4767 63.8289 71.79C63.3289 72.1033 62.7389 72.26 62.0589 72.26C61.3256 72.26 60.6356 72.1233 59.9889 71.85C59.3422 71.57 58.7722 71.1833 58.2789 70.69C57.7922 70.1967 57.4122 69.63 57.1389 68.99C56.8656 68.3433 56.7289 67.65 56.7289 66.91C56.7289 66.1967 56.8622 65.5267 57.1289 64.9C57.3956 64.2667 57.7656 63.7133 58.2389 63.24C58.7122 62.7667 59.2589 62.3967 59.8789 62.13C60.5056 61.8567 61.1756 61.72 61.8889 61.72C62.6156 61.72 63.2556 61.8867 63.8089 62.22C64.3689 62.5467 64.8322 62.9667 65.1989 63.48L65.1089 62ZM62.0089 70.25C62.5956 70.25 63.1089 70.1067 63.5489 69.82C63.9889 69.5267 64.3289 69.1333 64.5689 68.64C64.8156 68.1467 64.9389 67.6 64.9389 67C64.9389 66.3933 64.8156 65.8433 64.5689 65.35C64.3222 64.8567 63.9789 64.4667 63.5389 64.18C63.1056 63.8867 62.5956 63.74 62.0089 63.74C61.4289 63.74 60.8989 63.8867 60.4189 64.18C59.9389 64.4733 59.5589 64.8667 59.2789 65.36C58.9989 65.8533 58.8589 66.4 58.8589 67C58.8589 67.6067 59.0022 68.1567 59.2889 68.65C59.5822 69.1367 59.9656 69.5267 60.4389 69.82C60.9189 70.1067 61.4422 70.25 62.0089 70.25ZM69.2625 72V57H71.3425V72H69.2625ZM77.9984 72.26C77.0784 72.26 76.2384 72.0233 75.4784 71.55C74.7251 71.0767 74.1218 70.4433 73.6684 69.65C73.2218 68.85 72.9984 67.9667 72.9984 67C72.9984 66.2667 73.1284 65.5833 73.3884 64.95C73.6484 64.31 74.0051 63.75 74.4584 63.27C74.9184 62.7833 75.4518 62.4033 76.0584 62.13C76.6651 61.8567 77.3118 61.72 77.9984 61.72C78.7651 61.72 79.4684 61.88 80.1084 62.2C80.7484 62.5133 81.2951 62.95 81.7484 63.51C82.2018 64.0633 82.5351 64.7033 82.7484 65.43C82.9618 66.15 83.0251 66.9167 82.9384 67.73H75.2284C75.3151 68.19 75.4818 68.6067 75.7284 68.98C75.9818 69.3467 76.3018 69.6367 76.6884 69.85C77.0818 70.0633 77.5184 70.1733 77.9984 70.18C78.5051 70.18 78.9651 70.0533 79.3784 69.8C79.7984 69.5467 80.1418 69.1967 80.4084 68.75L82.5184 69.24C82.1184 70.1267 81.5151 70.8533 80.7084 71.42C79.9018 71.98 78.9984 72.26 77.9984 72.26ZM75.1584 66.14H80.8384C80.7718 65.66 80.6018 65.2267 80.3284 64.84C80.0618 64.4467 79.7251 64.1367 79.3184 63.91C78.9184 63.6767 78.4784 63.56 77.9984 63.56C77.5251 63.56 77.0851 63.6733 76.6784 63.9C76.2784 64.1267 75.9451 64.4367 75.6784 64.83C75.4184 65.2167 75.2451 65.6533 75.1584 66.14ZM87.6336 72.19C87.1069 72.1567 86.5936 72.05 86.0936 71.87C85.5936 71.69 85.1536 71.4467 84.7736 71.14C84.4003 70.8267 84.1203 70.46 83.9336 70.04L85.7036 69.28C85.7903 69.46 85.9403 69.6367 86.1536 69.81C86.3736 69.9833 86.6303 70.1267 86.9236 70.24C87.2169 70.3467 87.5236 70.4 87.8436 70.4C88.1569 70.4 88.4469 70.3567 88.7136 70.27C88.9869 70.1767 89.2103 70.0367 89.3836 69.85C89.5569 69.6633 89.6436 69.44 89.6436 69.18C89.6436 68.8867 89.5436 68.66 89.3436 68.5C89.1503 68.3333 88.9069 68.2067 88.6136 68.12C88.3203 68.0333 88.0269 67.95 87.7336 67.87C87.0803 67.7233 86.4803 67.5233 85.9336 67.27C85.3936 67.01 84.9636 66.68 84.6436 66.28C84.3236 65.8733 84.1636 65.3767 84.1636 64.79C84.1636 64.15 84.3369 63.5967 84.6836 63.13C85.0303 62.6567 85.4836 62.2933 86.0436 62.04C86.6103 61.7867 87.2136 61.66 87.8536 61.66C88.6536 61.66 89.3869 61.83 90.0536 62.17C90.7203 62.51 91.2303 62.9767 91.5836 63.57L89.9336 64.55C89.8336 64.35 89.6836 64.17 89.4836 64.01C89.2836 63.85 89.0569 63.7233 88.8036 63.63C88.5503 63.53 88.2869 63.4733 88.0136 63.46C87.6736 63.4467 87.3569 63.4867 87.0636 63.58C86.7769 63.6667 86.5469 63.8067 86.3736 64C86.2003 64.1933 86.1136 64.44 86.1136 64.74C86.1136 65.0333 86.2169 65.2533 86.4236 65.4C86.6303 65.54 86.8903 65.6533 87.2036 65.74C87.5236 65.8267 87.8503 65.9233 88.1836 66.03C88.7769 66.2167 89.3336 66.4467 89.8536 66.72C90.3736 66.9867 90.7936 67.3167 91.1136 67.71C91.4336 68.1033 91.5869 68.5833 91.5736 69.15C91.5736 69.7767 91.3836 70.3267 91.0036 70.8C90.6303 71.2733 90.1436 71.6333 89.5436 71.88C88.9436 72.1267 88.3069 72.23 87.6336 72.19Z" fill="#05004E"/>
</g>
<g clip-path="url(#clip1_1434_38426)">
<rect x="71.625" y="236.457" width="516" height="1" fill="#464E5F" fill-opacity="0.04"/>
<rect x="71.625" y="195.457" width="516" height="1" fill="#464E5F" fill-opacity="0.04"/>
<rect x="71.625" y="154.457" width="516" height="1" fill="#464E5F" fill-opacity="0.04"/>
<rect x="71.625" y="113.457" width="516" height="1" fill="#464E5F" fill-opacity="0.04"/>
</g>
<path opacity="0.7" d="M62.8048 274.917C62.3848 274.917 62.0098 274.824 61.6798 274.637C61.3498 274.447 61.0681 274.185 60.8348 273.852C60.6014 273.519 60.4231 273.134 60.2998 272.697C60.1798 272.257 60.1198 271.787 60.1198 271.287C60.1198 270.787 60.1798 270.317 60.2998 269.877C60.4231 269.437 60.6014 269.052 60.8348 268.722C61.0681 268.389 61.3498 268.129 61.6798 267.942C62.0098 267.752 62.3848 267.657 62.8048 267.657C63.2214 267.657 63.5948 267.752 63.9248 267.942C64.2548 268.129 64.5348 268.389 64.7648 268.722C64.9948 269.052 65.1698 269.437 65.2898 269.877C65.4131 270.317 65.4748 270.787 65.4748 271.287C65.4748 271.787 65.4131 272.257 65.2898 272.697C65.1698 273.134 64.9948 273.519 64.7648 273.852C64.5348 274.185 64.2548 274.447 63.9248 274.637C63.5948 274.824 63.2214 274.917 62.8048 274.917ZM62.8048 274.217C63.2448 274.217 63.6131 274.082 63.9098 273.812C64.2098 273.542 64.4348 273.185 64.5848 272.742C64.7348 272.295 64.8098 271.81 64.8098 271.287C64.8098 270.734 64.7314 270.237 64.5748 269.797C64.4214 269.354 64.1948 269.004 63.8948 268.747C63.5981 268.487 63.2348 268.357 62.8048 268.357C62.4648 268.357 62.1681 268.435 61.9148 268.592C61.6614 268.749 61.4514 268.964 61.2848 269.237C61.1181 269.51 60.9931 269.824 60.9098 270.177C60.8264 270.527 60.7848 270.897 60.7848 271.287C60.7848 271.814 60.8614 272.3 61.0148 272.747C61.1681 273.19 61.3948 273.547 61.6948 273.817C61.9948 274.084 62.3648 274.217 62.8048 274.217Z" fill="#7B91B0"/>
<path opacity="0.7" d="M52.4723 236.012V229.712H51.7223L51.9223 229.012H53.1723V236.012H52.4723ZM56.9537 236.142C56.5337 236.142 56.1587 236.048 55.8287 235.862C55.4987 235.672 55.2171 235.41 54.9837 235.077C54.7504 234.743 54.5721 234.358 54.4487 233.922C54.3287 233.482 54.2687 233.012 54.2687 232.512C54.2687 232.012 54.3287 231.542 54.4487 231.102C54.5721 230.662 54.7504 230.277 54.9837 229.947C55.2171 229.613 55.4987 229.353 55.8287 229.167C56.1587 228.977 56.5337 228.882 56.9537 228.882C57.3704 228.882 57.7437 228.977 58.0737 229.167C58.4037 229.353 58.6837 229.613 58.9137 229.947C59.1437 230.277 59.3187 230.662 59.4387 231.102C59.5621 231.542 59.6237 232.012 59.6237 232.512C59.6237 233.012 59.5621 233.482 59.4387 233.922C59.3187 234.358 59.1437 234.743 58.9137 235.077C58.6837 235.41 58.4037 235.672 58.0737 235.862C57.7437 236.048 57.3704 236.142 56.9537 236.142ZM56.9537 235.442C57.3937 235.442 57.7621 235.307 58.0587 235.037C58.3587 234.767 58.5837 234.41 58.7337 233.967C58.8837 233.52 58.9587 233.035 58.9587 232.512C58.9587 231.958 58.8804 231.462 58.7237 231.022C58.5704 230.578 58.3437 230.228 58.0437 229.972C57.7471 229.712 57.3837 229.582 56.9537 229.582C56.6137 229.582 56.3171 229.66 56.0637 229.817C55.8104 229.973 55.6004 230.188 55.4337 230.462C55.2671 230.735 55.1421 231.048 55.0587 231.402C54.9754 231.752 54.9337 232.122 54.9337 232.512C54.9337 233.038 55.0104 233.525 55.1637 233.972C55.3171 234.415 55.5437 234.772 55.8437 235.042C56.1437 235.308 56.5137 235.442 56.9537 235.442ZM62.8131 236.142C62.3931 236.142 62.0181 236.048 61.6881 235.862C61.3581 235.672 61.0765 235.41 60.8431 235.077C60.6098 234.743 60.4315 234.358 60.3081 233.922C60.1881 233.482 60.1281 233.012 60.1281 232.512C60.1281 232.012 60.1881 231.542 60.3081 231.102C60.4315 230.662 60.6098 230.277 60.8431 229.947C61.0765 229.613 61.3581 229.353 61.6881 229.167C62.0181 228.977 62.3931 228.882 62.8131 228.882C63.2298 228.882 63.6031 228.977 63.9331 229.167C64.2631 229.353 64.5431 229.613 64.7731 229.947C65.0031 230.277 65.1781 230.662 65.2981 231.102C65.4215 231.542 65.4831 232.012 65.4831 232.512C65.4831 233.012 65.4215 233.482 65.2981 233.922C65.1781 234.358 65.0031 234.743 64.7731 235.077C64.5431 235.41 64.2631 235.672 63.9331 235.862C63.6031 236.048 63.2298 236.142 62.8131 236.142ZM62.8131 235.442C63.2531 235.442 63.6215 235.307 63.9181 235.037C64.2181 234.767 64.4431 234.41 64.5931 233.967C64.7431 233.52 64.8181 233.035 64.8181 232.512C64.8181 231.958 64.7398 231.462 64.5831 231.022C64.4298 230.578 64.2031 230.228 63.9031 229.972C63.6065 229.712 63.2431 229.582 62.8131 229.582C62.4731 229.582 62.1765 229.66 61.9231 229.817C61.6698 229.973 61.4598 230.188 61.2931 230.462C61.1265 230.735 61.0015 231.048 60.9181 231.402C60.8348 231.752 60.7931 232.122 60.7931 232.512C60.7931 233.038 60.8698 233.525 61.0231 233.972C61.1765 234.415 61.4031 234.772 61.7031 235.042C62.0031 235.308 62.3731 235.442 62.8131 235.442Z" fill="#7B91B0"/>
<path opacity="0.7" d="M49.1695 196.012V195.392C49.4429 195.138 49.7429 194.862 50.0695 194.562C50.3962 194.258 50.7195 193.947 51.0395 193.627C51.3629 193.303 51.6579 192.985 51.9245 192.672C52.1912 192.355 52.4045 192.057 52.5645 191.777C52.7279 191.493 52.8095 191.243 52.8095 191.027C52.8095 190.763 52.7445 190.523 52.6145 190.307C52.4879 190.087 52.3162 189.912 52.0995 189.782C51.8862 189.648 51.6479 189.582 51.3845 189.582C51.1212 189.582 50.8795 189.648 50.6595 189.782C50.4429 189.912 50.2695 190.087 50.1395 190.307C50.0095 190.523 49.9445 190.763 49.9445 191.027H49.2445C49.2445 190.627 49.3412 190.265 49.5345 189.942C49.7312 189.618 49.9912 189.362 50.3145 189.172C50.6379 188.978 50.9945 188.882 51.3845 188.882C51.7745 188.882 52.1295 188.978 52.4495 189.172C52.7729 189.365 53.0295 189.623 53.2195 189.947C53.4129 190.27 53.5095 190.63 53.5095 191.027C53.5095 191.263 53.4462 191.523 53.3195 191.807C53.1962 192.087 53.0279 192.378 52.8145 192.682C52.6012 192.982 52.3612 193.285 52.0945 193.592C51.8279 193.898 51.5495 194.198 51.2595 194.492C50.9695 194.782 50.6879 195.055 50.4145 195.312H53.6145V196.012H49.1695ZM56.9498 196.142C56.5298 196.142 56.1548 196.048 55.8248 195.862C55.4948 195.672 55.2132 195.41 54.9798 195.077C54.7465 194.743 54.5682 194.358 54.4448 193.922C54.3248 193.482 54.2648 193.012 54.2648 192.512C54.2648 192.012 54.3248 191.542 54.4448 191.102C54.5682 190.662 54.7465 190.277 54.9798 189.947C55.2132 189.613 55.4948 189.353 55.8248 189.167C56.1548 188.977 56.5298 188.882 56.9498 188.882C57.3665 188.882 57.7398 188.977 58.0698 189.167C58.3998 189.353 58.6798 189.613 58.9098 189.947C59.1398 190.277 59.3148 190.662 59.4348 191.102C59.5582 191.542 59.6198 192.012 59.6198 192.512C59.6198 193.012 59.5582 193.482 59.4348 193.922C59.3148 194.358 59.1398 194.743 58.9098 195.077C58.6798 195.41 58.3998 195.672 58.0698 195.862C57.7398 196.048 57.3665 196.142 56.9498 196.142ZM56.9498 195.442C57.3898 195.442 57.7582 195.307 58.0548 195.037C58.3548 194.767 58.5798 194.41 58.7298 193.967C58.8798 193.52 58.9548 193.035 58.9548 192.512C58.9548 191.958 58.8765 191.462 58.7198 191.022C58.5665 190.578 58.3398 190.228 58.0398 189.972C57.7432 189.712 57.3798 189.582 56.9498 189.582C56.6098 189.582 56.3132 189.66 56.0598 189.817C55.8065 189.973 55.5965 190.188 55.4298 190.462C55.2632 190.735 55.1382 191.048 55.0548 191.402C54.9715 191.752 54.9298 192.122 54.9298 192.512C54.9298 193.038 55.0065 193.525 55.1598 193.972C55.3132 194.415 55.5398 194.772 55.8398 195.042C56.1398 195.308 56.5098 195.442 56.9498 195.442ZM62.8092 196.142C62.3892 196.142 62.0142 196.048 61.6842 195.862C61.3542 195.672 61.0725 195.41 60.8392 195.077C60.6059 194.743 60.4275 194.358 60.3042 193.922C60.1842 193.482 60.1242 193.012 60.1242 192.512C60.1242 192.012 60.1842 191.542 60.3042 191.102C60.4275 190.662 60.6059 190.277 60.8392 189.947C61.0725 189.613 61.3542 189.353 61.6842 189.167C62.0142 188.977 62.3892 188.882 62.8092 188.882C63.2259 188.882 63.5992 188.977 63.9292 189.167C64.2592 189.353 64.5392 189.613 64.7692 189.947C64.9992 190.277 65.1742 190.662 65.2942 191.102C65.4175 191.542 65.4792 192.012 65.4792 192.512C65.4792 193.012 65.4175 193.482 65.2942 193.922C65.1742 194.358 64.9992 194.743 64.7692 195.077C64.5392 195.41 64.2592 195.672 63.9292 195.862C63.5992 196.048 63.2259 196.142 62.8092 196.142ZM62.8092 195.442C63.2492 195.442 63.6175 195.307 63.9142 195.037C64.2142 194.767 64.4392 194.41 64.5892 193.967C64.7392 193.52 64.8142 193.035 64.8142 192.512C64.8142 191.958 64.7359 191.462 64.5792 191.022C64.4259 190.578 64.1992 190.228 63.8992 189.972C63.6025 189.712 63.2392 189.582 62.8092 189.582C62.4692 189.582 62.1725 189.66 61.9192 189.817C61.6659 189.973 61.4559 190.188 61.2892 190.462C61.1225 190.735 60.9975 191.048 60.9142 191.402C60.8309 191.752 60.7892 192.122 60.7892 192.512C60.7892 193.038 60.8659 193.525 61.0192 193.972C61.1725 194.415 61.3992 194.772 61.6992 195.042C61.9992 195.308 62.3692 195.442 62.8092 195.442Z" fill="#7B91B0"/>
<path opacity="0.7" d="M51.5116 158.142C51.085 158.142 50.71 158.048 50.3866 157.862C50.0633 157.672 49.81 157.418 49.6266 157.102C49.4466 156.785 49.3566 156.435 49.3566 156.052H50.0566C50.0566 156.305 50.115 156.538 50.2316 156.752C50.3516 156.962 50.52 157.13 50.7366 157.257C50.9533 157.38 51.2116 157.442 51.5116 157.442C51.765 157.442 52.0016 157.38 52.2216 157.257C52.445 157.13 52.625 156.962 52.7616 156.752C52.9016 156.538 52.9716 156.305 52.9716 156.052C52.9716 155.735 52.8916 155.472 52.7316 155.262C52.5716 155.048 52.3516 154.89 52.0716 154.787C51.7916 154.68 51.4716 154.627 51.1116 154.627V154.047C51.6083 154.047 52.0066 153.942 52.3066 153.732C52.61 153.518 52.7616 153.207 52.7616 152.797C52.7616 152.573 52.7 152.37 52.5766 152.187C52.4566 152.003 52.2983 151.857 52.1016 151.747C51.9083 151.633 51.7 151.577 51.4766 151.577C51.2533 151.577 51.0383 151.633 50.8316 151.747C50.6283 151.857 50.4616 152.003 50.3316 152.187C50.205 152.37 50.1416 152.573 50.1416 152.797H49.4416C49.4416 152.533 49.4966 152.287 49.6066 152.057C49.7166 151.823 49.8666 151.618 50.0566 151.442C50.2466 151.265 50.4633 151.127 50.7066 151.027C50.95 150.927 51.205 150.877 51.4716 150.877C51.8216 150.877 52.1466 150.963 52.4466 151.137C52.75 151.31 52.995 151.542 53.1816 151.832C53.3683 152.122 53.4616 152.443 53.4616 152.797C53.4616 153.14 53.3733 153.45 53.1966 153.727C53.02 154.003 52.7816 154.198 52.4816 154.312C52.7416 154.398 52.96 154.53 53.1366 154.707C53.3133 154.88 53.4466 155.082 53.5366 155.312C53.6266 155.542 53.6716 155.788 53.6716 156.052C53.6716 156.435 53.5716 156.785 53.3716 157.102C53.1716 157.418 52.9066 157.672 52.5766 157.862C52.25 158.048 51.895 158.142 51.5116 158.142ZM56.9537 158.142C56.5337 158.142 56.1587 158.048 55.8287 157.862C55.4987 157.672 55.2171 157.41 54.9837 157.077C54.7504 156.743 54.5721 156.358 54.4487 155.922C54.3287 155.482 54.2687 155.012 54.2687 154.512C54.2687 154.012 54.3287 153.542 54.4487 153.102C54.5721 152.662 54.7504 152.277 54.9837 151.947C55.2171 151.613 55.4987 151.353 55.8287 151.167C56.1587 150.977 56.5337 150.882 56.9537 150.882C57.3704 150.882 57.7437 150.977 58.0737 151.167C58.4037 151.353 58.6837 151.613 58.9137 151.947C59.1437 152.277 59.3187 152.662 59.4387 153.102C59.5621 153.542 59.6237 154.012 59.6237 154.512C59.6237 155.012 59.5621 155.482 59.4387 155.922C59.3187 156.358 59.1437 156.743 58.9137 157.077C58.6837 157.41 58.4037 157.672 58.0737 157.862C57.7437 158.048 57.3704 158.142 56.9537 158.142ZM56.9537 157.442C57.3937 157.442 57.7621 157.307 58.0587 157.037C58.3587 156.767 58.5837 156.41 58.7337 155.967C58.8837 155.52 58.9587 155.035 58.9587 154.512C58.9587 153.958 58.8804 153.462 58.7237 153.022C58.5704 152.578 58.3437 152.228 58.0437 151.972C57.7471 151.712 57.3837 151.582 56.9537 151.582C56.6137 151.582 56.3171 151.66 56.0637 151.817C55.8104 151.973 55.6004 152.188 55.4337 152.462C55.2671 152.735 55.1421 153.048 55.0587 153.402C54.9754 153.752 54.9337 154.122 54.9337 154.512C54.9337 155.038 55.0104 155.525 55.1637 155.972C55.3171 156.415 55.5437 156.772 55.8437 157.042C56.1437 157.308 56.5137 157.442 56.9537 157.442ZM62.8131 158.142C62.3931 158.142 62.0181 158.048 61.6881 157.862C61.3581 157.672 61.0765 157.41 60.8431 157.077C60.6098 156.743 60.4315 156.358 60.3081 155.922C60.1881 155.482 60.1281 155.012 60.1281 154.512C60.1281 154.012 60.1881 153.542 60.3081 153.102C60.4315 152.662 60.6098 152.277 60.8431 151.947C61.0765 151.613 61.3581 151.353 61.6881 151.167C62.0181 150.977 62.3931 150.882 62.8131 150.882C63.2298 150.882 63.6031 150.977 63.9331 151.167C64.2631 151.353 64.5431 151.613 64.7731 151.947C65.0031 152.277 65.1781 152.662 65.2981 153.102C65.4215 153.542 65.4831 154.012 65.4831 154.512C65.4831 155.012 65.4215 155.482 65.2981 155.922C65.1781 156.358 65.0031 156.743 64.7731 157.077C64.5431 157.41 64.2631 157.672 63.9331 157.862C63.6031 158.048 63.2298 158.142 62.8131 158.142ZM62.8131 157.442C63.2531 157.442 63.6215 157.307 63.9181 157.037C64.2181 156.767 64.4431 156.41 64.5931 155.967C64.7431 155.52 64.8181 155.035 64.8181 154.512C64.8181 153.958 64.7398 153.462 64.5831 153.022C64.4298 152.578 64.2031 152.228 63.9031 151.972C63.6065 151.712 63.2431 151.582 62.8131 151.582C62.4731 151.582 62.1765 151.66 61.9231 151.817C61.6698 151.973 61.4598 152.188 61.2931 152.462C61.1265 152.735 61.0015 153.048 60.9181 153.402C60.8348 153.752 60.7931 154.122 60.7931 154.512C60.7931 155.038 60.8698 155.525 61.0231 155.972C61.1765 156.415 61.4031 156.772 61.7031 157.042C62.0031 157.308 62.3731 157.442 62.8131 157.442Z" fill="#7B91B0"/>
<path opacity="0.7" d="M52.4473 119V117.035H49.4273V116.325L52.2673 112H53.1473V116.335H53.8823V117.035H53.1473V119H52.4473ZM50.2573 116.325L52.4473 116.335L52.4323 113L50.2573 116.325ZM57.1686 119.13C56.7486 119.13 56.3736 119.037 56.0436 118.85C55.7136 118.66 55.4319 118.398 55.1986 118.065C54.9653 117.732 54.7869 117.347 54.6636 116.91C54.5436 116.47 54.4836 116 54.4836 115.5C54.4836 115 54.5436 114.53 54.6636 114.09C54.7869 113.65 54.9653 113.265 55.1986 112.935C55.4319 112.602 55.7136 112.342 56.0436 112.155C56.3736 111.965 56.7486 111.87 57.1686 111.87C57.5853 111.87 57.9586 111.965 58.2886 112.155C58.6186 112.342 58.8986 112.602 59.1286 112.935C59.3586 113.265 59.5336 113.65 59.6536 114.09C59.7769 114.53 59.8386 115 59.8386 115.5C59.8386 116 59.7769 116.47 59.6536 116.91C59.5336 117.347 59.3586 117.732 59.1286 118.065C58.8986 118.398 58.6186 118.66 58.2886 118.85C57.9586 119.037 57.5853 119.13 57.1686 119.13ZM57.1686 118.43C57.6086 118.43 57.9769 118.295 58.2736 118.025C58.5736 117.755 58.7986 117.398 58.9486 116.955C59.0986 116.508 59.1736 116.023 59.1736 115.5C59.1736 114.947 59.0953 114.45 58.9386 114.01C58.7853 113.567 58.5586 113.217 58.2586 112.96C57.9619 112.7 57.5986 112.57 57.1686 112.57C56.8286 112.57 56.5319 112.648 56.2786 112.805C56.0253 112.962 55.8153 113.177 55.6486 113.45C55.4819 113.723 55.3569 114.037 55.2736 114.39C55.1903 114.74 55.1486 115.11 55.1486 115.5C55.1486 116.027 55.2253 116.513 55.3786 116.96C55.5319 117.403 55.7586 117.76 56.0586 118.03C56.3586 118.297 56.7286 118.43 57.1686 118.43ZM63.028 119.13C62.608 119.13 62.233 119.037 61.903 118.85C61.573 118.66 61.2913 118.398 61.058 118.065C60.8246 117.732 60.6463 117.347 60.523 116.91C60.403 116.47 60.343 116 60.343 115.5C60.343 115 60.403 114.53 60.523 114.09C60.6463 113.65 60.8246 113.265 61.058 112.935C61.2913 112.602 61.573 112.342 61.903 112.155C62.233 111.965 62.608 111.87 63.028 111.87C63.4446 111.87 63.818 111.965 64.148 112.155C64.478 112.342 64.758 112.602 64.988 112.935C65.218 113.265 65.393 113.65 65.513 114.09C65.6363 114.53 65.698 115 65.698 115.5C65.698 116 65.6363 116.47 65.513 116.91C65.393 117.347 65.218 117.732 64.988 118.065C64.758 118.398 64.478 118.66 64.148 118.85C63.818 119.037 63.4446 119.13 63.028 119.13ZM63.028 118.43C63.468 118.43 63.8363 118.295 64.133 118.025C64.433 117.755 64.658 117.398 64.808 116.955C64.958 116.508 65.033 116.023 65.033 115.5C65.033 114.947 64.9546 114.45 64.798 114.01C64.6446 113.567 64.418 113.217 64.118 112.96C63.8213 112.7 63.458 112.57 63.028 112.57C62.688 112.57 62.3913 112.648 62.138 112.805C61.8846 112.962 61.6746 113.177 61.508 113.45C61.3413 113.723 61.2163 114.037 61.133 114.39C61.0496 114.74 61.008 115.11 61.008 115.5C61.008 116.027 61.0846 116.513 61.238 116.96C61.3913 117.403 61.618 117.76 61.918 118.03C62.218 118.297 62.588 118.43 63.028 118.43Z" fill="#7B91B0"/>
<path d="M85.6 278V271H89.86V271.7H86.3V273.9H89.245V274.6H86.3V277.3H89.86V278H85.6ZM94.2774 276.745L94.9024 277.085C94.6758 277.402 94.3874 277.655 94.0374 277.845C93.6908 278.035 93.3141 278.13 92.9074 278.13C92.4474 278.13 92.0274 278.012 91.6474 277.775C91.2708 277.538 90.9691 277.222 90.7424 276.825C90.5191 276.425 90.4074 275.983 90.4074 275.5C90.4074 275.133 90.4724 274.792 90.6024 274.475C90.7324 274.155 90.9108 273.875 91.1374 273.635C91.3674 273.392 91.6341 273.202 91.9374 273.065C92.2408 272.928 92.5641 272.86 92.9074 272.86C93.3141 272.86 93.6908 272.955 94.0374 273.145C94.3874 273.335 94.6758 273.59 94.9024 273.91L94.2774 274.245C94.1041 274.025 93.8958 273.857 93.6524 273.74C93.4091 273.62 93.1608 273.56 92.9074 273.56C92.5708 273.56 92.2658 273.65 91.9924 273.83C91.7191 274.007 91.5024 274.242 91.3424 274.535C91.1858 274.828 91.1074 275.15 91.1074 275.5C91.1074 275.85 91.1874 276.172 91.3474 276.465C91.5108 276.758 91.7291 276.993 92.0024 277.17C92.2758 277.343 92.5774 277.43 92.9074 277.43C93.1808 277.43 93.4374 277.367 93.6774 277.24C93.9174 277.113 94.1174 276.948 94.2774 276.745ZM97.9367 278.13C97.4767 278.13 97.0567 278.012 96.6767 277.775C96.3001 277.538 95.9984 277.222 95.7717 276.825C95.5484 276.425 95.4367 275.983 95.4367 275.5C95.4367 275.133 95.5017 274.792 95.6317 274.475C95.7617 274.155 95.9401 273.875 96.1667 273.635C96.3967 273.392 96.6634 273.202 96.9667 273.065C97.2701 272.928 97.5934 272.86 97.9367 272.86C98.3967 272.86 98.8151 272.978 99.1917 273.215C99.5717 273.452 99.8734 273.77 100.097 274.17C100.323 274.57 100.437 275.013 100.437 275.5C100.437 275.863 100.372 276.203 100.242 276.52C100.112 276.837 99.9317 277.117 99.7017 277.36C99.4751 277.6 99.2101 277.788 98.9067 277.925C98.6067 278.062 98.2834 278.13 97.9367 278.13ZM97.9367 277.43C98.2767 277.43 98.5817 277.342 98.8517 277.165C99.1251 276.985 99.3401 276.748 99.4967 276.455C99.6567 276.162 99.7367 275.843 99.7367 275.5C99.7367 275.15 99.6567 274.828 99.4967 274.535C99.3367 274.238 99.1201 274.002 98.8467 273.825C98.5767 273.648 98.2734 273.56 97.9367 273.56C97.5967 273.56 97.2901 273.65 97.0167 273.83C96.7467 274.007 96.5317 274.242 96.3717 274.535C96.2151 274.828 96.1367 275.15 96.1367 275.5C96.1367 275.86 96.2184 276.187 96.3817 276.48C96.5451 276.77 96.7634 277.002 97.0367 277.175C97.3101 277.345 97.6101 277.43 97.9367 277.43ZM101.284 278V273H101.984V273.69C102.164 273.437 102.394 273.235 102.674 273.085C102.954 272.935 103.26 272.86 103.594 272.86C103.97 272.86 104.315 272.953 104.629 273.14C104.942 273.323 105.187 273.568 105.364 273.875C105.54 273.568 105.784 273.323 106.094 273.14C106.404 272.953 106.747 272.86 107.124 272.86C107.5 272.86 107.844 272.952 108.154 273.135C108.464 273.318 108.71 273.565 108.894 273.875C109.077 274.185 109.169 274.528 109.169 274.905V278H108.469V275.06C108.469 274.793 108.404 274.547 108.274 274.32C108.144 274.093 107.969 273.912 107.749 273.775C107.532 273.635 107.29 273.565 107.024 273.565C106.757 273.565 106.514 273.63 106.294 273.76C106.077 273.887 105.904 274.063 105.774 274.29C105.644 274.513 105.579 274.77 105.579 275.06V278H104.879V275.06C104.879 274.77 104.814 274.513 104.684 274.29C104.554 274.063 104.379 273.887 104.159 273.76C103.939 273.63 103.695 273.565 103.429 273.565C103.165 273.565 102.924 273.635 102.704 273.775C102.484 273.912 102.309 274.093 102.179 274.32C102.049 274.547 101.984 274.793 101.984 275.06V278H101.284ZM110.17 278V273H110.87V273.69C111.05 273.437 111.28 273.235 111.56 273.085C111.84 272.935 112.147 272.86 112.48 272.86C112.857 272.86 113.202 272.953 113.515 273.14C113.829 273.323 114.074 273.568 114.25 273.875C114.427 273.568 114.67 273.323 114.98 273.14C115.29 272.953 115.634 272.86 116.01 272.86C116.387 272.86 116.73 272.952 117.04 273.135C117.35 273.318 117.597 273.565 117.78 273.875C117.964 274.185 118.055 274.528 118.055 274.905V278H117.355V275.06C117.355 274.793 117.29 274.547 117.16 274.32C117.03 274.093 116.855 273.912 116.635 273.775C116.419 273.635 116.177 273.565 115.91 273.565C115.644 273.565 115.4 273.63 115.18 273.76C114.964 273.887 114.79 274.063 114.66 274.29C114.53 274.513 114.465 274.77 114.465 275.06V278H113.765V275.06C113.765 274.77 113.7 274.513 113.57 274.29C113.44 274.063 113.265 273.887 113.045 273.76C112.825 273.63 112.582 273.565 112.315 273.565C112.052 273.565 111.81 273.635 111.59 273.775C111.37 273.912 111.195 274.093 111.065 274.32C110.935 274.547 110.87 274.793 110.87 275.06V278H110.17ZM121.159 278.13C120.699 278.13 120.279 278.012 119.899 277.775C119.523 277.538 119.221 277.222 118.994 276.825C118.771 276.425 118.659 275.983 118.659 275.5C118.659 275.133 118.724 274.792 118.854 274.475C118.984 274.155 119.163 273.875 119.389 273.635C119.619 273.392 119.886 273.202 120.189 273.065C120.493 272.928 120.816 272.86 121.159 272.86C121.529 272.86 121.869 272.933 122.179 273.08C122.493 273.227 122.761 273.432 122.984 273.695C123.211 273.958 123.381 274.267 123.494 274.62C123.611 274.973 123.659 275.355 123.639 275.765H119.399C119.439 276.082 119.539 276.365 119.699 276.615C119.863 276.865 120.069 277.063 120.319 277.21C120.573 277.353 120.853 277.427 121.159 277.43C121.493 277.43 121.793 277.343 122.059 277.17C122.329 276.997 122.546 276.758 122.709 276.455L123.419 276.62C123.219 277.063 122.918 277.427 122.514 277.71C122.111 277.99 121.659 278.13 121.159 278.13ZM119.379 275.2H122.934C122.911 274.89 122.816 274.607 122.649 274.35C122.486 274.09 122.274 273.883 122.014 273.73C121.754 273.573 121.469 273.495 121.159 273.495C120.849 273.495 120.566 273.572 120.309 273.725C120.053 273.875 119.843 274.08 119.679 274.34C119.516 274.597 119.416 274.883 119.379 275.2ZM124.496 278V273H125.196V273.69C125.373 273.437 125.603 273.235 125.886 273.085C126.17 272.935 126.478 272.86 126.811 272.86C127.005 272.86 127.191 272.885 127.371 272.935L127.086 273.63C126.946 273.587 126.81 273.565 126.676 273.565C126.406 273.565 126.158 273.632 125.931 273.765C125.708 273.898 125.53 274.077 125.396 274.3C125.263 274.523 125.196 274.772 125.196 275.045V278H124.496ZM131.309 276.745L131.934 277.085C131.707 277.402 131.419 277.655 131.069 277.845C130.722 278.035 130.345 278.13 129.939 278.13C129.479 278.13 129.059 278.012 128.679 277.775C128.302 277.538 128 277.222 127.774 276.825C127.55 276.425 127.439 275.983 127.439 275.5C127.439 275.133 127.504 274.792 127.634 274.475C127.764 274.155 127.942 273.875 128.169 273.635C128.399 273.392 128.665 273.202 128.969 273.065C129.272 272.928 129.595 272.86 129.939 272.86C130.345 272.86 130.722 272.955 131.069 273.145C131.419 273.335 131.707 273.59 131.934 273.91L131.309 274.245C131.135 274.025 130.927 273.857 130.684 273.74C130.44 273.62 130.192 273.56 129.939 273.56C129.602 273.56 129.297 273.65 129.024 273.83C128.75 274.007 128.534 274.242 128.374 274.535C128.217 274.828 128.139 275.15 128.139 275.5C128.139 275.85 128.219 276.172 128.379 276.465C128.542 276.758 128.76 276.993 129.034 277.17C129.307 277.343 129.609 277.43 129.939 277.43C130.212 277.43 130.469 277.367 130.709 277.24C130.949 277.113 131.149 276.948 131.309 276.745ZM134.968 278.13C134.508 278.13 134.088 278.012 133.708 277.775C133.331 277.538 133.03 277.222 132.803 276.825C132.58 276.425 132.468 275.983 132.468 275.5C132.468 275.133 132.533 274.792 132.663 274.475C132.793 274.155 132.971 273.875 133.198 273.635C133.428 273.392 133.695 273.202 133.998 273.065C134.301 272.928 134.625 272.86 134.968 272.86C135.338 272.86 135.678 272.933 135.988 273.08C136.301 273.227 136.57 273.432 136.793 273.695C137.02 273.958 137.19 274.267 137.303 274.62C137.42 274.973 137.468 275.355 137.448 275.765H133.208C133.248 276.082 133.348 276.365 133.508 276.615C133.671 276.865 133.878 277.063 134.128 277.21C134.381 277.353 134.661 277.427 134.968 277.43C135.301 277.43 135.601 277.343 135.868 277.17C136.138 276.997 136.355 276.758 136.518 276.455L137.228 276.62C137.028 277.063 136.726 277.427 136.323 277.71C135.92 277.99 135.468 278.13 134.968 278.13ZM133.188 275.2H136.743C136.72 274.89 136.625 274.607 136.458 274.35C136.295 274.09 136.083 273.883 135.823 273.73C135.563 273.573 135.278 273.495 134.968 273.495C134.658 273.495 134.375 273.572 134.118 273.725C133.861 273.875 133.651 274.08 133.488 274.34C133.325 274.597 133.225 274.883 133.188 275.2Z" fill="#464E5F"/>
<path d="M170.045 278.13C169.672 278.13 169.31 278.072 168.96 277.955C168.613 277.838 168.31 277.672 168.05 277.455C167.79 277.238 167.607 276.98 167.5 276.68L168.155 276.435C168.228 276.642 168.362 276.82 168.555 276.97C168.752 277.117 168.98 277.23 169.24 277.31C169.503 277.39 169.772 277.43 170.045 277.43C170.365 277.43 170.663 277.377 170.94 277.27C171.217 277.163 171.44 277.015 171.61 276.825C171.78 276.632 171.865 276.405 171.865 276.145C171.865 275.882 171.777 275.665 171.6 275.495C171.423 275.325 171.195 275.192 170.915 275.095C170.638 274.995 170.348 274.918 170.045 274.865C169.568 274.782 169.14 274.668 168.76 274.525C168.383 274.382 168.085 274.18 167.865 273.92C167.645 273.657 167.535 273.31 167.535 272.88C167.535 272.477 167.652 272.127 167.885 271.83C168.118 271.533 168.425 271.303 168.805 271.14C169.188 270.977 169.602 270.895 170.045 270.895C170.408 270.895 170.763 270.952 171.11 271.065C171.457 271.178 171.762 271.343 172.025 271.56C172.292 271.777 172.483 272.042 172.6 272.355L171.935 272.595C171.862 272.385 171.727 272.207 171.53 272.06C171.337 271.91 171.11 271.797 170.85 271.72C170.59 271.64 170.322 271.6 170.045 271.6C169.728 271.597 169.432 271.65 169.155 271.76C168.882 271.867 168.66 272.017 168.49 272.21C168.32 272.4 168.235 272.623 168.235 272.88C168.235 273.18 168.313 273.412 168.47 273.575C168.63 273.735 168.847 273.855 169.12 273.935C169.393 274.015 169.702 274.087 170.045 274.15C170.492 274.227 170.907 274.347 171.29 274.51C171.673 274.67 171.982 274.885 172.215 275.155C172.448 275.422 172.565 275.752 172.565 276.145C172.565 276.545 172.448 276.895 172.215 277.195C171.982 277.492 171.673 277.722 171.29 277.885C170.91 278.048 170.495 278.13 170.045 278.13ZM177.745 273H178.445V278H177.745L177.72 277.07C177.557 277.387 177.328 277.643 177.035 277.84C176.742 278.033 176.392 278.13 175.985 278.13C175.618 278.13 175.275 278.062 174.955 277.925C174.635 277.785 174.353 277.593 174.11 277.35C173.867 277.107 173.677 276.825 173.54 276.505C173.403 276.185 173.335 275.842 173.335 275.475C173.335 275.115 173.402 274.777 173.535 274.46C173.672 274.143 173.858 273.865 174.095 273.625C174.335 273.385 174.612 273.198 174.925 273.065C175.242 272.928 175.58 272.86 175.94 272.86C176.357 272.86 176.72 272.96 177.03 273.16C177.34 273.357 177.587 273.615 177.77 273.935L177.745 273ZM175.97 277.45C176.327 277.45 176.633 277.363 176.89 277.19C177.147 277.013 177.343 276.777 177.48 276.48C177.62 276.183 177.69 275.857 177.69 275.5C177.69 275.133 177.62 274.803 177.48 274.51C177.34 274.213 177.142 273.978 176.885 273.805C176.628 273.632 176.323 273.545 175.97 273.545C175.617 273.545 175.293 273.633 175 273.81C174.71 273.983 174.478 274.218 174.305 274.515C174.135 274.812 174.05 275.14 174.05 275.5C174.05 275.863 174.138 276.193 174.315 276.49C174.492 276.783 174.725 277.017 175.015 277.19C175.308 277.363 175.627 277.45 175.97 277.45ZM183.458 273H184.158V278H183.458L183.433 277.07C183.27 277.387 183.041 277.643 182.748 277.84C182.455 278.033 182.105 278.13 181.698 278.13C181.331 278.13 180.988 278.062 180.668 277.925C180.348 277.785 180.066 277.593 179.823 277.35C179.58 277.107 179.39 276.825 179.253 276.505C179.116 276.185 179.048 275.842 179.048 275.475C179.048 275.115 179.115 274.777 179.248 274.46C179.385 274.143 179.571 273.865 179.808 273.625C180.048 273.385 180.325 273.198 180.638 273.065C180.955 272.928 181.293 272.86 181.653 272.86C182.07 272.86 182.433 272.96 182.743 273.16C183.053 273.357 183.3 273.615 183.483 273.935L183.458 273ZM181.683 277.45C182.04 277.45 182.346 277.363 182.603 277.19C182.86 277.013 183.056 276.777 183.193 276.48C183.333 276.183 183.403 275.857 183.403 275.5C183.403 275.133 183.333 274.803 183.193 274.51C183.053 274.213 182.855 273.978 182.598 273.805C182.341 273.632 182.036 273.545 181.683 273.545C181.33 273.545 181.006 273.633 180.713 273.81C180.423 273.983 180.191 274.218 180.018 274.515C179.848 274.812 179.763 275.14 179.763 275.5C179.763 275.863 179.851 276.193 180.028 276.49C180.205 276.783 180.438 277.017 180.728 277.19C181.021 277.363 181.34 277.45 181.683 277.45ZM186.704 278.095C186.43 278.088 186.164 278.038 185.904 277.945C185.644 277.852 185.417 277.725 185.224 277.565C185.03 277.405 184.892 277.223 184.809 277.02L185.414 276.76C185.467 276.89 185.565 277.01 185.709 277.12C185.855 277.227 186.022 277.313 186.209 277.38C186.395 277.443 186.58 277.475 186.764 277.475C186.967 277.475 187.157 277.442 187.334 277.375C187.51 277.308 187.654 277.213 187.764 277.09C187.877 276.963 187.934 276.815 187.934 276.645C187.934 276.462 187.874 276.318 187.754 276.215C187.634 276.108 187.482 276.025 187.299 275.965C187.115 275.902 186.927 275.842 186.734 275.785C186.38 275.688 186.069 275.582 185.799 275.465C185.529 275.348 185.317 275.2 185.164 275.02C185.014 274.837 184.939 274.602 184.939 274.315C184.939 274.012 185.024 273.75 185.194 273.53C185.367 273.307 185.592 273.135 185.869 273.015C186.149 272.892 186.447 272.83 186.764 272.83C187.17 272.83 187.54 272.918 187.874 273.095C188.21 273.272 188.454 273.507 188.604 273.8L188.039 274.135C187.979 273.998 187.884 273.88 187.754 273.78C187.624 273.68 187.475 273.602 187.309 273.545C187.145 273.488 186.979 273.458 186.809 273.455C186.595 273.452 186.397 273.483 186.214 273.55C186.03 273.613 185.882 273.708 185.769 273.835C185.659 273.962 185.604 274.117 185.604 274.3C185.604 274.483 185.659 274.623 185.769 274.72C185.879 274.813 186.027 274.89 186.214 274.95C186.404 275.007 186.617 275.073 186.854 275.15C187.157 275.247 187.442 275.357 187.709 275.48C187.975 275.603 188.19 275.757 188.354 275.94C188.517 276.123 188.597 276.355 188.594 276.635C188.594 276.935 188.504 277.197 188.324 277.42C188.144 277.643 187.91 277.815 187.624 277.935C187.337 278.052 187.03 278.105 186.704 278.095ZM193.683 278.13C193.286 278.13 192.934 278.035 192.628 277.845C192.324 277.652 192.086 277.4 191.913 277.09C191.743 276.78 191.658 276.448 191.658 276.095C191.658 275.878 191.679 275.69 191.723 275.53C191.769 275.37 191.848 275.212 191.958 275.055C192.071 274.898 192.228 274.717 192.428 274.51C192.628 274.303 192.883 274.045 193.193 273.735C193.009 273.548 192.858 273.392 192.738 273.265C192.621 273.138 192.529 273.025 192.463 272.925C192.396 272.822 192.349 272.718 192.323 272.615C192.296 272.508 192.283 272.385 192.283 272.245C192.283 271.982 192.346 271.743 192.473 271.53C192.603 271.317 192.774 271.148 192.988 271.025C193.201 270.898 193.433 270.835 193.683 270.835C193.943 270.835 194.179 270.898 194.393 271.025C194.606 271.152 194.776 271.322 194.903 271.535C195.029 271.745 195.093 271.982 195.093 272.245C195.093 272.388 195.078 272.515 195.048 272.625C195.021 272.732 194.973 272.837 194.903 272.94C194.836 273.043 194.743 273.158 194.623 273.285C194.506 273.408 194.359 273.558 194.183 273.735L196.053 275.605L197.153 274.505V275.495L196.538 276.11L197.943 277.505L197.448 278L196.053 276.61C195.739 276.923 195.478 277.18 195.268 277.38C195.061 277.577 194.879 277.73 194.723 277.84C194.566 277.95 194.408 278.025 194.248 278.065C194.091 278.108 193.903 278.13 193.683 278.13ZM193.683 277.43C193.849 277.43 193.991 277.412 194.108 277.375C194.224 277.338 194.343 277.273 194.463 277.18C194.586 277.083 194.731 276.948 194.898 276.775C195.068 276.602 195.288 276.378 195.558 276.105L193.683 274.23C193.406 274.51 193.181 274.737 193.008 274.91C192.834 275.083 192.701 275.23 192.608 275.35C192.514 275.467 192.449 275.583 192.413 275.7C192.379 275.813 192.363 275.95 192.363 276.11C192.363 276.357 192.423 276.58 192.543 276.78C192.663 276.98 192.823 277.138 193.023 277.255C193.223 277.372 193.443 277.43 193.683 277.43ZM193.683 273.32C193.899 273.107 194.063 272.945 194.173 272.835C194.283 272.725 194.358 272.63 194.398 272.55C194.438 272.467 194.458 272.362 194.458 272.235C194.458 272.015 194.379 271.832 194.223 271.685C194.069 271.538 193.889 271.465 193.683 271.465C193.469 271.465 193.288 271.542 193.138 271.695C192.991 271.848 192.918 272.028 192.918 272.235C192.918 272.362 192.939 272.468 192.983 272.555C193.026 272.638 193.103 272.735 193.213 272.845C193.323 272.955 193.479 273.113 193.683 273.32ZM203.785 278.13C203.412 278.13 203.05 278.072 202.7 277.955C202.354 277.838 202.05 277.672 201.79 277.455C201.53 277.238 201.347 276.98 201.24 276.68L201.895 276.435C201.969 276.642 202.102 276.82 202.295 276.97C202.492 277.117 202.72 277.23 202.98 277.31C203.244 277.39 203.512 277.43 203.785 277.43C204.105 277.43 204.404 277.377 204.68 277.27C204.957 277.163 205.18 277.015 205.35 276.825C205.52 276.632 205.605 276.405 205.605 276.145C205.605 275.882 205.517 275.665 205.34 275.495C205.164 275.325 204.935 275.192 204.655 275.095C204.379 274.995 204.089 274.918 203.785 274.865C203.309 274.782 202.88 274.668 202.5 274.525C202.124 274.382 201.825 274.18 201.605 273.92C201.385 273.657 201.275 273.31 201.275 272.88C201.275 272.477 201.392 272.127 201.625 271.83C201.859 271.533 202.165 271.303 202.545 271.14C202.929 270.977 203.342 270.895 203.785 270.895C204.149 270.895 204.504 270.952 204.85 271.065C205.197 271.178 205.502 271.343 205.765 271.56C206.032 271.777 206.224 272.042 206.34 272.355L205.675 272.595C205.602 272.385 205.467 272.207 205.27 272.06C205.077 271.91 204.85 271.797 204.59 271.72C204.33 271.64 204.062 271.6 203.785 271.6C203.469 271.597 203.172 271.65 202.895 271.76C202.622 271.867 202.4 272.017 202.23 272.21C202.06 272.4 201.975 272.623 201.975 272.88C201.975 273.18 202.054 273.412 202.21 273.575C202.37 273.735 202.587 273.855 202.86 273.935C203.134 274.015 203.442 274.087 203.785 274.15C204.232 274.227 204.647 274.347 205.03 274.51C205.414 274.67 205.722 274.885 205.955 275.155C206.189 275.422 206.305 275.752 206.305 276.145C206.305 276.545 206.189 276.895 205.955 277.195C205.722 277.492 205.414 277.722 205.03 277.885C204.65 278.048 204.235 278.13 203.785 278.13ZM209.575 278.13C209.115 278.13 208.695 278.012 208.315 277.775C207.939 277.538 207.637 277.222 207.41 276.825C207.187 276.425 207.075 275.983 207.075 275.5C207.075 275.133 207.14 274.792 207.27 274.475C207.4 274.155 207.579 273.875 207.805 273.635C208.035 273.392 208.302 273.202 208.605 273.065C208.909 272.928 209.232 272.86 209.575 272.86C210.035 272.86 210.454 272.978 210.83 273.215C211.21 273.452 211.512 273.77 211.735 274.17C211.962 274.57 212.075 275.013 212.075 275.5C212.075 275.863 212.01 276.203 211.88 276.52C211.75 276.837 211.57 277.117 211.34 277.36C211.114 277.6 210.849 277.788 210.545 277.925C210.245 278.062 209.922 278.13 209.575 278.13ZM209.575 277.43C209.915 277.43 210.22 277.342 210.49 277.165C210.764 276.985 210.979 276.748 211.135 276.455C211.295 276.162 211.375 275.843 211.375 275.5C211.375 275.15 211.295 274.828 211.135 274.535C210.975 274.238 210.759 274.002 210.485 273.825C210.215 273.648 209.912 273.56 209.575 273.56C209.235 273.56 208.929 273.65 208.655 273.83C208.385 274.007 208.17 274.242 208.01 274.535C207.854 274.828 207.775 275.15 207.775 275.5C207.775 275.86 207.857 276.187 208.02 276.48C208.184 276.77 208.402 277.002 208.675 277.175C208.949 277.345 209.249 277.43 209.575 277.43ZM214.006 271.695V273H215.506V273.7H214.006V278H213.306V273.7H212.621V273H213.306V271.695C213.306 271.452 213.364 271.232 213.481 271.035C213.601 270.835 213.761 270.677 213.961 270.56C214.161 270.44 214.383 270.38 214.626 270.38C214.803 270.38 214.973 270.415 215.136 270.485C215.303 270.555 215.451 270.658 215.581 270.795L215.081 271.29C215.028 271.223 214.959 271.172 214.876 271.135C214.796 271.098 214.713 271.08 214.626 271.08C214.456 271.08 214.309 271.14 214.186 271.26C214.066 271.38 214.006 271.525 214.006 271.695ZM219.032 273.7H217.837L217.832 278H217.132L217.137 273.7H216.232V273H217.137L217.132 271.43H217.832L217.837 273H219.032V273.7ZM222.019 278H221.299L219.624 273H220.309L221.669 277.03L223.019 273H223.759L225.109 277.03L226.459 273H227.149L225.474 278H224.749L223.379 273.93L222.019 278ZM231.896 273H232.596V278H231.896L231.871 277.07C231.707 277.387 231.479 277.643 231.186 277.84C230.892 278.033 230.542 278.13 230.136 278.13C229.769 278.13 229.426 278.062 229.106 277.925C228.786 277.785 228.504 277.593 228.261 277.35C228.017 277.107 227.827 276.825 227.691 276.505C227.554 276.185 227.486 275.842 227.486 275.475C227.486 275.115 227.552 274.777 227.686 274.46C227.822 274.143 228.009 273.865 228.246 273.625C228.486 273.385 228.762 273.198 229.076 273.065C229.392 272.928 229.731 272.86 230.091 272.86C230.507 272.86 230.871 272.96 231.181 273.16C231.491 273.357 231.737 273.615 231.921 273.935L231.896 273ZM230.121 277.45C230.477 277.45 230.784 277.363 231.041 277.19C231.297 277.013 231.494 276.777 231.631 276.48C231.771 276.183 231.841 275.857 231.841 275.5C231.841 275.133 231.771 274.803 231.631 274.51C231.491 274.213 231.292 273.978 231.036 273.805C230.779 273.632 230.474 273.545 230.121 273.545C229.767 273.545 229.444 273.633 229.151 273.81C228.861 273.983 228.629 274.218 228.456 274.515C228.286 274.812 228.201 275.14 228.201 275.5C228.201 275.863 228.289 276.193 228.466 276.49C228.642 276.783 228.876 277.017 229.166 277.19C229.459 277.363 229.777 277.45 230.121 277.45ZM233.596 278V273H234.296V273.69C234.473 273.437 234.703 273.235 234.986 273.085C235.269 272.935 235.578 272.86 235.911 272.86C236.104 272.86 236.291 272.885 236.471 272.935L236.186 273.63C236.046 273.587 235.909 273.565 235.776 273.565C235.506 273.565 235.258 273.632 235.031 273.765C234.808 273.898 234.629 274.077 234.496 274.3C234.363 274.523 234.296 274.772 234.296 275.045V278H233.596ZM239.038 278.13C238.578 278.13 238.158 278.012 237.778 277.775C237.402 277.538 237.1 277.222 236.873 276.825C236.65 276.425 236.538 275.983 236.538 275.5C236.538 275.133 236.603 274.792 236.733 274.475C236.863 274.155 237.042 273.875 237.268 273.635C237.498 273.392 237.765 273.202 238.068 273.065C238.372 272.928 238.695 272.86 239.038 272.86C239.408 272.86 239.748 272.933 240.058 273.08C240.372 273.227 240.64 273.432 240.863 273.695C241.09 273.958 241.26 274.267 241.373 274.62C241.49 274.973 241.538 275.355 241.518 275.765H237.278C237.318 276.082 237.418 276.365 237.578 276.615C237.742 276.865 237.948 277.063 238.198 277.21C238.452 277.353 238.732 277.427 239.038 277.43C239.372 277.43 239.672 277.343 239.938 277.17C240.208 276.997 240.425 276.758 240.588 276.455L241.298 276.62C241.098 277.063 240.797 277.427 240.393 277.71C239.99 277.99 239.538 278.13 239.038 278.13ZM237.258 275.2H240.813C240.79 274.89 240.695 274.607 240.528 274.35C240.365 274.09 240.153 273.883 239.893 273.73C239.633 273.573 239.348 273.495 239.038 273.495C238.728 273.495 238.445 273.572 238.188 273.725C237.932 273.875 237.722 274.08 237.558 274.34C237.395 274.597 237.295 274.883 237.258 275.2Z" fill="#464E5F"/>
<path d="M268.6 278V271H270.915C271.398 271 271.852 271.092 272.275 271.275C272.698 271.455 273.07 271.707 273.39 272.03C273.71 272.35 273.96 272.722 274.14 273.145C274.323 273.565 274.415 274.017 274.415 274.5C274.415 274.983 274.323 275.437 274.14 275.86C273.96 276.28 273.71 276.652 273.39 276.975C273.07 277.295 272.698 277.547 272.275 277.73C271.852 277.91 271.398 278 270.915 278H268.6ZM269.3 277.3H270.915C271.302 277.3 271.663 277.228 272 277.085C272.34 276.938 272.638 276.737 272.895 276.48C273.152 276.223 273.352 275.927 273.495 275.59C273.642 275.25 273.715 274.887 273.715 274.5C273.715 274.113 273.642 273.752 273.495 273.415C273.352 273.075 273.15 272.777 272.89 272.52C272.633 272.263 272.337 272.063 272 271.92C271.663 271.773 271.302 271.7 270.915 271.7H269.3V277.3ZM275.28 273H275.98V278H275.28V273ZM275.635 272.125C275.521 272.125 275.425 272.088 275.345 272.015C275.268 271.938 275.23 271.843 275.23 271.73C275.23 271.617 275.268 271.523 275.345 271.45C275.425 271.373 275.521 271.335 275.635 271.335C275.745 271.335 275.838 271.373 275.915 271.45C275.995 271.523 276.035 271.617 276.035 271.73C276.035 271.843 275.996 271.938 275.92 272.015C275.843 272.088 275.748 272.125 275.635 272.125ZM281.11 273H281.81V278.185C281.81 278.505 281.74 278.805 281.6 279.085C281.463 279.365 281.277 279.61 281.04 279.82C280.807 280.033 280.54 280.2 280.24 280.32C279.94 280.44 279.628 280.5 279.305 280.5C278.958 280.5 278.623 280.42 278.3 280.26C277.977 280.103 277.695 279.893 277.455 279.63C277.218 279.367 277.05 279.075 276.95 278.755L277.595 278.46C277.658 278.71 277.777 278.935 277.95 279.135C278.127 279.338 278.333 279.498 278.57 279.615C278.81 279.735 279.055 279.795 279.305 279.795C279.535 279.795 279.757 279.752 279.97 279.665C280.187 279.582 280.38 279.467 280.55 279.32C280.723 279.173 280.86 279.002 280.96 278.805C281.06 278.612 281.11 278.405 281.11 278.185V277.08C280.937 277.393 280.702 277.647 280.405 277.84C280.112 278.033 279.77 278.13 279.38 278.13C279.03 278.13 278.7 278.062 278.39 277.925C278.083 277.788 277.813 277.6 277.58 277.36C277.347 277.117 277.163 276.837 277.03 276.52C276.9 276.203 276.835 275.863 276.835 275.5C276.835 275.137 276.9 274.797 277.03 274.48C277.163 274.16 277.347 273.88 277.58 273.64C277.813 273.397 278.083 273.207 278.39 273.07C278.7 272.933 279.03 272.865 279.38 272.865C279.77 272.865 280.112 272.962 280.405 273.155C280.702 273.345 280.937 273.598 281.11 273.915V273ZM279.385 277.45C279.732 277.45 280.03 277.36 280.28 277.18C280.533 277 280.728 276.762 280.865 276.465C281.002 276.168 281.07 275.847 281.07 275.5C281.07 275.143 281 274.818 280.86 274.525C280.723 274.228 280.528 273.992 280.275 273.815C280.022 273.635 279.725 273.545 279.385 273.545C279.045 273.545 278.735 273.633 278.455 273.81C278.178 273.983 277.958 274.218 277.795 274.515C277.632 274.812 277.55 275.14 277.55 275.5C277.55 275.86 277.633 276.188 277.8 276.485C277.967 276.778 278.188 277.013 278.465 277.19C278.745 277.363 279.052 277.45 279.385 277.45ZM282.965 273H283.665V278H282.965V273ZM283.32 272.125C283.207 272.125 283.11 272.088 283.03 272.015C282.954 271.938 282.915 271.843 282.915 271.73C282.915 271.617 282.954 271.523 283.03 271.45C283.11 271.373 283.207 271.335 283.32 271.335C283.43 271.335 283.524 271.373 283.6 271.45C283.68 271.523 283.72 271.617 283.72 271.73C283.72 271.843 283.682 271.938 283.605 272.015C283.529 272.088 283.434 272.125 283.32 272.125ZM287.425 273.7H286.23L286.225 278H285.525L285.53 273.7H284.625V273H285.53L285.525 271.43H286.225L286.23 273H287.425V273.7ZM292.29 273H292.99V278H292.29L292.265 277.07C292.102 277.387 291.873 277.643 291.58 277.84C291.287 278.033 290.937 278.13 290.53 278.13C290.163 278.13 289.82 278.062 289.5 277.925C289.18 277.785 288.898 277.593 288.655 277.35C288.412 277.107 288.222 276.825 288.085 276.505C287.948 276.185 287.88 275.842 287.88 275.475C287.88 275.115 287.947 274.777 288.08 274.46C288.217 274.143 288.403 273.865 288.64 273.625C288.88 273.385 289.157 273.198 289.47 273.065C289.787 272.928 290.125 272.86 290.485 272.86C290.902 272.86 291.265 272.96 291.575 273.16C291.885 273.357 292.132 273.615 292.315 273.935L292.29 273ZM290.515 277.45C290.872 277.45 291.178 277.363 291.435 277.19C291.692 277.013 291.888 276.777 292.025 276.48C292.165 276.183 292.235 275.857 292.235 275.5C292.235 275.133 292.165 274.803 292.025 274.51C291.885 274.213 291.687 273.978 291.43 273.805C291.173 273.632 290.868 273.545 290.515 273.545C290.162 273.545 289.838 273.633 289.545 273.81C289.255 273.983 289.023 274.218 288.85 274.515C288.68 274.812 288.595 275.14 288.595 275.5C288.595 275.863 288.683 276.193 288.86 276.49C289.037 276.783 289.27 277.017 289.56 277.19C289.853 277.363 290.172 277.45 290.515 277.45ZM294.059 278V270.5H294.759V278H294.059ZM299.066 280.5H298.366V273H299.066V273.935C299.239 273.618 299.476 273.362 299.776 273.165C300.076 272.968 300.432 272.87 300.846 272.87C301.209 272.87 301.549 272.938 301.866 273.075C302.186 273.212 302.466 273.402 302.706 273.645C302.946 273.885 303.134 274.163 303.271 274.48C303.407 274.797 303.476 275.137 303.476 275.5C303.476 275.863 303.407 276.205 303.271 276.525C303.134 276.845 302.946 277.127 302.706 277.37C302.466 277.61 302.186 277.798 301.866 277.935C301.549 278.072 301.209 278.14 300.846 278.14C300.432 278.14 300.076 278.042 299.776 277.845C299.476 277.648 299.239 277.392 299.066 277.075V280.5ZM300.841 273.55C300.491 273.55 300.186 273.638 299.926 273.815C299.669 273.988 299.471 274.222 299.331 274.515C299.191 274.808 299.121 275.137 299.121 275.5C299.121 275.857 299.189 276.183 299.326 276.48C299.466 276.777 299.664 277.013 299.921 277.19C300.181 277.367 300.487 277.455 300.841 277.455C301.187 277.455 301.506 277.368 301.796 277.195C302.089 277.022 302.324 276.788 302.501 276.495C302.677 276.198 302.766 275.867 302.766 275.5C302.766 275.143 302.679 274.818 302.506 274.525C302.332 274.228 302.101 273.992 301.811 273.815C301.521 273.638 301.197 273.55 300.841 273.55ZM304.323 278V273H305.023V273.69C305.199 273.437 305.429 273.235 305.713 273.085C305.996 272.935 306.304 272.86 306.638 272.86C306.831 272.86 307.018 272.885 307.198 272.935L306.913 273.63C306.773 273.587 306.636 273.565 306.503 273.565C306.233 273.565 305.984 273.632 305.758 273.765C305.534 273.898 305.356 274.077 305.223 274.3C305.089 274.523 305.023 274.772 305.023 275.045V278H304.323ZM309.765 278.13C309.305 278.13 308.885 278.012 308.505 277.775C308.128 277.538 307.827 277.222 307.6 276.825C307.377 276.425 307.265 275.983 307.265 275.5C307.265 275.133 307.33 274.792 307.46 274.475C307.59 274.155 307.768 273.875 307.995 273.635C308.225 273.392 308.492 273.202 308.795 273.065C309.098 272.928 309.422 272.86 309.765 272.86C310.225 272.86 310.643 272.978 311.02 273.215C311.4 273.452 311.702 273.77 311.925 274.17C312.152 274.57 312.265 275.013 312.265 275.5C312.265 275.863 312.2 276.203 312.07 276.52C311.94 276.837 311.76 277.117 311.53 277.36C311.303 277.6 311.038 277.788 310.735 277.925C310.435 278.062 310.112 278.13 309.765 278.13ZM309.765 277.43C310.105 277.43 310.41 277.342 310.68 277.165C310.953 276.985 311.168 276.748 311.325 276.455C311.485 276.162 311.565 275.843 311.565 275.5C311.565 275.15 311.485 274.828 311.325 274.535C311.165 274.238 310.948 274.002 310.675 273.825C310.405 273.648 310.102 273.56 309.765 273.56C309.425 273.56 309.118 273.65 308.845 273.83C308.575 274.007 308.36 274.242 308.2 274.535C308.043 274.828 307.965 275.15 307.965 275.5C307.965 275.86 308.047 276.187 308.21 276.48C308.373 276.77 308.592 277.002 308.865 277.175C309.138 277.345 309.438 277.43 309.765 277.43ZM317.178 270.5H317.878V278H317.178V277.065C317.005 277.385 316.766 277.643 316.463 277.84C316.163 278.033 315.806 278.13 315.393 278.13C315.03 278.13 314.69 278.062 314.373 277.925C314.056 277.788 313.776 277.6 313.533 277.36C313.293 277.117 313.105 276.837 312.968 276.52C312.831 276.203 312.763 275.863 312.763 275.5C312.763 275.137 312.831 274.797 312.968 274.48C313.105 274.16 313.293 273.88 313.533 273.64C313.776 273.397 314.056 273.207 314.373 273.07C314.69 272.933 315.03 272.865 315.393 272.865C315.806 272.865 316.163 272.963 316.463 273.16C316.766 273.353 317.005 273.608 317.178 273.925V270.5ZM315.398 277.45C315.755 277.45 316.061 277.363 316.318 277.19C316.575 277.013 316.771 276.777 316.908 276.48C317.048 276.183 317.118 275.857 317.118 275.5C317.118 275.133 317.048 274.803 316.908 274.51C316.768 274.213 316.57 273.978 316.313 273.805C316.056 273.632 315.751 273.545 315.398 273.545C315.045 273.545 314.723 273.633 314.433 273.81C314.143 273.983 313.911 274.218 313.738 274.515C313.565 274.812 313.478 275.14 313.478 275.5C313.478 275.863 313.566 276.193 313.743 276.49C313.92 276.783 314.153 277.017 314.443 277.19C314.736 277.363 315.055 277.45 315.398 277.45ZM318.879 276.085V273H319.579V275.945C319.579 276.218 319.645 276.467 319.779 276.69C319.912 276.913 320.09 277.092 320.314 277.225C320.54 277.358 320.789 277.425 321.059 277.425C321.332 277.425 321.579 277.358 321.799 277.225C322.022 277.092 322.2 276.913 322.334 276.69C322.467 276.467 322.534 276.218 322.534 275.945V273H323.234L323.239 278H322.539L322.534 277.3C322.357 277.553 322.127 277.755 321.844 277.905C321.564 278.055 321.257 278.13 320.924 278.13C320.547 278.13 320.204 278.038 319.894 277.855C319.584 277.672 319.337 277.425 319.154 277.115C318.97 276.805 318.879 276.462 318.879 276.085ZM327.766 276.745L328.391 277.085C328.164 277.402 327.876 277.655 327.526 277.845C327.179 278.035 326.802 278.13 326.396 278.13C325.936 278.13 325.516 278.012 325.136 277.775C324.759 277.538 324.457 277.222 324.231 276.825C324.007 276.425 323.896 275.983 323.896 275.5C323.896 275.133 323.961 274.792 324.091 274.475C324.221 274.155 324.399 273.875 324.626 273.635C324.856 273.392 325.122 273.202 325.426 273.065C325.729 272.928 326.052 272.86 326.396 272.86C326.802 272.86 327.179 272.955 327.526 273.145C327.876 273.335 328.164 273.59 328.391 273.91L327.766 274.245C327.592 274.025 327.384 273.857 327.141 273.74C326.897 273.62 326.649 273.56 326.396 273.56C326.059 273.56 325.754 273.65 325.481 273.83C325.207 274.007 324.991 274.242 324.831 274.535C324.674 274.828 324.596 275.15 324.596 275.5C324.596 275.85 324.676 276.172 324.836 276.465C324.999 276.758 325.217 276.993 325.491 277.17C325.764 277.343 326.066 277.43 326.396 277.43C326.669 277.43 326.926 277.367 327.166 277.24C327.406 277.113 327.606 276.948 327.766 276.745ZM331.848 273.7H330.653L330.648 278H329.948L329.953 273.7H329.048V273H329.953L329.948 271.43H330.648L330.653 273H331.848V273.7ZM334.247 278.095C333.973 278.088 333.707 278.038 333.447 277.945C333.187 277.852 332.96 277.725 332.767 277.565C332.573 277.405 332.435 277.223 332.352 277.02L332.957 276.76C333.01 276.89 333.108 277.01 333.252 277.12C333.398 277.227 333.565 277.313 333.752 277.38C333.938 277.443 334.123 277.475 334.307 277.475C334.51 277.475 334.7 277.442 334.877 277.375C335.053 277.308 335.197 277.213 335.307 277.09C335.42 276.963 335.477 276.815 335.477 276.645C335.477 276.462 335.417 276.318 335.297 276.215C335.177 276.108 335.025 276.025 334.842 275.965C334.658 275.902 334.47 275.842 334.277 275.785C333.923 275.688 333.612 275.582 333.342 275.465C333.072 275.348 332.86 275.2 332.707 275.02C332.557 274.837 332.482 274.602 332.482 274.315C332.482 274.012 332.567 273.75 332.737 273.53C332.91 273.307 333.135 273.135 333.412 273.015C333.692 272.892 333.99 272.83 334.307 272.83C334.713 272.83 335.083 272.918 335.417 273.095C335.753 273.272 335.997 273.507 336.147 273.8L335.582 274.135C335.522 273.998 335.427 273.88 335.297 273.78C335.167 273.68 335.018 273.602 334.852 273.545C334.688 273.488 334.522 273.458 334.352 273.455C334.138 273.452 333.94 273.483 333.757 273.55C333.573 273.613 333.425 273.708 333.312 273.835C333.202 273.962 333.147 274.117 333.147 274.3C333.147 274.483 333.202 274.623 333.312 274.72C333.422 274.813 333.57 274.89 333.757 274.95C333.947 275.007 334.16 275.073 334.397 275.15C334.7 275.247 334.985 275.357 335.252 275.48C335.518 275.603 335.733 275.757 335.897 275.94C336.06 276.123 336.14 276.355 336.137 276.635C336.137 276.935 336.047 277.197 335.867 277.42C335.687 277.643 335.453 277.815 335.167 277.935C334.88 278.052 334.573 278.105 334.247 278.095Z" fill="#464E5F"/>
<path d="M367.895 271V271.7H365.495V278H364.795V271.7H362.4V271H367.895ZM368.049 278V273H368.749V273.69C368.926 273.437 369.156 273.235 369.439 273.085C369.723 272.935 370.031 272.86 370.364 272.86C370.558 272.86 370.744 272.885 370.924 272.935L370.639 273.63C370.499 273.587 370.363 273.565 370.229 273.565C369.959 273.565 369.711 273.632 369.484 273.765C369.261 273.898 369.083 274.077 368.949 274.3C368.816 274.523 368.749 274.772 368.749 275.045V278H368.049ZM375.401 273H376.101V278H375.401L375.376 277.07C375.213 277.387 374.985 277.643 374.691 277.84C374.398 278.033 374.048 278.13 373.641 278.13C373.275 278.13 372.931 278.062 372.611 277.925C372.291 277.785 372.01 277.593 371.766 277.35C371.523 277.107 371.333 276.825 371.196 276.505C371.06 276.185 370.991 275.842 370.991 275.475C370.991 275.115 371.058 274.777 371.191 274.46C371.328 274.143 371.515 273.865 371.751 273.625C371.991 273.385 372.268 273.198 372.581 273.065C372.898 272.928 373.236 272.86 373.596 272.86C374.013 272.86 374.376 272.96 374.686 273.16C374.996 273.357 375.243 273.615 375.426 273.935L375.401 273ZM373.626 277.45C373.983 277.45 374.29 277.363 374.546 277.19C374.803 277.013 375 276.777 375.136 276.48C375.276 276.183 375.346 275.857 375.346 275.5C375.346 275.133 375.276 274.803 375.136 274.51C374.996 274.213 374.798 273.978 374.541 273.805C374.285 273.632 373.98 273.545 373.626 273.545C373.273 273.545 372.95 273.633 372.656 273.81C372.366 273.983 372.135 274.218 371.961 274.515C371.791 274.812 371.706 275.14 371.706 275.5C371.706 275.863 371.795 276.193 371.971 276.49C372.148 276.783 372.381 277.017 372.671 277.19C372.965 277.363 373.283 277.45 373.626 277.45ZM379.419 278H378.529L376.704 272.985H377.449L378.974 277.18L380.499 272.985H381.244L379.419 278ZM384.077 278.13C383.617 278.13 383.197 278.012 382.817 277.775C382.441 277.538 382.139 277.222 381.912 276.825C381.689 276.425 381.577 275.983 381.577 275.5C381.577 275.133 381.642 274.792 381.772 274.475C381.902 274.155 382.081 273.875 382.307 273.635C382.537 273.392 382.804 273.202 383.107 273.065C383.411 272.928 383.734 272.86 384.077 272.86C384.447 272.86 384.787 272.933 385.097 273.08C385.411 273.227 385.679 273.432 385.902 273.695C386.129 273.958 386.299 274.267 386.412 274.62C386.529 274.973 386.577 275.355 386.557 275.765H382.317C382.357 276.082 382.457 276.365 382.617 276.615C382.781 276.865 382.987 277.063 383.237 277.21C383.491 277.353 383.771 277.427 384.077 277.43C384.411 277.43 384.711 277.343 384.977 277.17C385.247 276.997 385.464 276.758 385.627 276.455L386.337 276.62C386.137 277.063 385.836 277.427 385.432 277.71C385.029 277.99 384.577 278.13 384.077 278.13ZM382.297 275.2H385.852C385.829 274.89 385.734 274.607 385.567 274.35C385.404 274.09 385.192 273.883 384.932 273.73C384.672 273.573 384.387 273.495 384.077 273.495C383.767 273.495 383.484 273.572 383.227 273.725C382.971 273.875 382.761 274.08 382.597 274.34C382.434 274.597 382.334 274.883 382.297 275.2ZM387.375 278V270.5H388.075V278H387.375ZM393.507 278.13C393.11 278.13 392.759 278.035 392.452 277.845C392.149 277.652 391.91 277.4 391.737 277.09C391.567 276.78 391.482 276.448 391.482 276.095C391.482 275.878 391.504 275.69 391.547 275.53C391.594 275.37 391.672 275.212 391.782 275.055C391.895 274.898 392.052 274.717 392.252 274.51C392.452 274.303 392.707 274.045 393.017 273.735C392.834 273.548 392.682 273.392 392.562 273.265C392.445 273.138 392.354 273.025 392.287 272.925C392.22 272.822 392.174 272.718 392.147 272.615C392.12 272.508 392.107 272.385 392.107 272.245C392.107 271.982 392.17 271.743 392.297 271.53C392.427 271.317 392.599 271.148 392.812 271.025C393.025 270.898 393.257 270.835 393.507 270.835C393.767 270.835 394.004 270.898 394.217 271.025C394.43 271.152 394.6 271.322 394.727 271.535C394.854 271.745 394.917 271.982 394.917 272.245C394.917 272.388 394.902 272.515 394.872 272.625C394.845 272.732 394.797 272.837 394.727 272.94C394.66 273.043 394.567 273.158 394.447 273.285C394.33 273.408 394.184 273.558 394.007 273.735L395.877 275.605L396.977 274.505V275.495L396.362 276.11L397.767 277.505L397.272 278L395.877 276.61C395.564 276.923 395.302 277.18 395.092 277.38C394.885 277.577 394.704 277.73 394.547 277.84C394.39 277.95 394.232 278.025 394.072 278.065C393.915 278.108 393.727 278.13 393.507 278.13ZM393.507 277.43C393.674 277.43 393.815 277.412 393.932 277.375C394.049 277.338 394.167 277.273 394.287 277.18C394.41 277.083 394.555 276.948 394.722 276.775C394.892 276.602 395.112 276.378 395.382 276.105L393.507 274.23C393.23 274.51 393.005 274.737 392.832 274.91C392.659 275.083 392.525 275.23 392.432 275.35C392.339 275.467 392.274 275.583 392.237 275.7C392.204 275.813 392.187 275.95 392.187 276.11C392.187 276.357 392.247 276.58 392.367 276.78C392.487 276.98 392.647 277.138 392.847 277.255C393.047 277.372 393.267 277.43 393.507 277.43ZM393.507 273.32C393.724 273.107 393.887 272.945 393.997 272.835C394.107 272.725 394.182 272.63 394.222 272.55C394.262 272.467 394.282 272.362 394.282 272.235C394.282 272.015 394.204 271.832 394.047 271.685C393.894 271.538 393.714 271.465 393.507 271.465C393.294 271.465 393.112 271.542 392.962 271.695C392.815 271.848 392.742 272.028 392.742 272.235C392.742 272.362 392.764 272.468 392.807 272.555C392.85 272.638 392.927 272.735 393.037 272.845C393.147 272.955 393.304 273.113 393.507 273.32ZM405.539 271H406.239V278H405.539V274.6H401.864V278H401.164V271H401.864V273.9H405.539V271ZM409.605 278.13C409.145 278.13 408.725 278.012 408.345 277.775C407.968 277.538 407.666 277.222 407.44 276.825C407.216 276.425 407.105 275.983 407.105 275.5C407.105 275.133 407.17 274.792 407.3 274.475C407.43 274.155 407.608 273.875 407.835 273.635C408.065 273.392 408.331 273.202 408.635 273.065C408.938 272.928 409.261 272.86 409.605 272.86C410.065 272.86 410.483 272.978 410.86 273.215C411.24 273.452 411.541 273.77 411.765 274.17C411.991 274.57 412.105 275.013 412.105 275.5C412.105 275.863 412.04 276.203 411.91 276.52C411.78 276.837 411.6 277.117 411.37 277.36C411.143 277.6 410.878 277.788 410.575 277.925C410.275 278.062 409.951 278.13 409.605 278.13ZM409.605 277.43C409.945 277.43 410.25 277.342 410.52 277.165C410.793 276.985 411.008 276.748 411.165 276.455C411.325 276.162 411.405 275.843 411.405 275.5C411.405 275.15 411.325 274.828 411.165 274.535C411.005 274.238 410.788 274.002 410.515 273.825C410.245 273.648 409.941 273.56 409.605 273.56C409.265 273.56 408.958 273.65 408.685 273.83C408.415 274.007 408.2 274.242 408.04 274.535C407.883 274.828 407.805 275.15 407.805 275.5C407.805 275.86 407.886 276.187 408.05 276.48C408.213 276.77 408.431 277.002 408.705 277.175C408.978 277.345 409.278 277.43 409.605 277.43ZM414.506 278.095C414.233 278.088 413.966 278.038 413.706 277.945C413.446 277.852 413.22 277.725 413.026 277.565C412.833 277.405 412.695 277.223 412.611 277.02L413.216 276.76C413.27 276.89 413.368 277.01 413.511 277.12C413.658 277.227 413.825 277.313 414.011 277.38C414.198 277.443 414.383 277.475 414.566 277.475C414.77 277.475 414.96 277.442 415.136 277.375C415.313 277.308 415.456 277.213 415.566 277.09C415.68 276.963 415.736 276.815 415.736 276.645C415.736 276.462 415.676 276.318 415.556 276.215C415.436 276.108 415.285 276.025 415.101 275.965C414.918 275.902 414.73 275.842 414.536 275.785C414.183 275.688 413.871 275.582 413.601 275.465C413.331 275.348 413.12 275.2 412.966 275.02C412.816 274.837 412.741 274.602 412.741 274.315C412.741 274.012 412.826 273.75 412.996 273.53C413.17 273.307 413.395 273.135 413.671 273.015C413.951 272.892 414.25 272.83 414.566 272.83C414.973 272.83 415.343 272.918 415.676 273.095C416.013 273.272 416.256 273.507 416.406 273.8L415.841 274.135C415.781 273.998 415.686 273.88 415.556 273.78C415.426 273.68 415.278 273.602 415.111 273.545C414.948 273.488 414.781 273.458 414.611 273.455C414.398 273.452 414.2 273.483 414.016 273.55C413.833 273.613 413.685 273.708 413.571 273.835C413.461 273.962 413.406 274.117 413.406 274.3C413.406 274.483 413.461 274.623 413.571 274.72C413.681 274.813 413.83 274.89 414.016 274.95C414.206 275.007 414.42 275.073 414.656 275.15C414.96 275.247 415.245 275.357 415.511 275.48C415.778 275.603 415.993 275.757 416.156 275.94C416.32 276.123 416.4 276.355 416.396 276.635C416.396 276.935 416.306 277.197 416.126 277.42C415.946 277.643 415.713 277.815 415.426 277.935C415.14 278.052 414.833 278.105 414.506 278.095ZM417.958 280.5H417.258V273H417.958V273.935C418.132 273.618 418.368 273.362 418.668 273.165C418.968 272.968 419.325 272.87 419.738 272.87C420.102 272.87 420.442 272.938 420.758 273.075C421.078 273.212 421.358 273.402 421.598 273.645C421.838 273.885 422.027 274.163 422.163 274.48C422.3 274.797 422.368 275.137 422.368 275.5C422.368 275.863 422.3 276.205 422.163 276.525C422.027 276.845 421.838 277.127 421.598 277.37C421.358 277.61 421.078 277.798 420.758 277.935C420.442 278.072 420.102 278.14 419.738 278.14C419.325 278.14 418.968 278.042 418.668 277.845C418.368 277.648 418.132 277.392 417.958 277.075V280.5ZM419.733 273.55C419.383 273.55 419.078 273.638 418.818 273.815C418.562 273.988 418.363 274.222 418.223 274.515C418.083 274.808 418.013 275.137 418.013 275.5C418.013 275.857 418.082 276.183 418.218 276.48C418.358 276.777 418.557 277.013 418.813 277.19C419.073 277.367 419.38 277.455 419.733 277.455C420.08 277.455 420.398 277.368 420.688 277.195C420.982 277.022 421.217 276.788 421.393 276.495C421.57 276.198 421.658 275.867 421.658 275.5C421.658 275.143 421.572 274.818 421.398 274.525C421.225 274.228 420.993 273.992 420.703 273.815C420.413 273.638 420.09 273.55 419.733 273.55ZM423.166 273H423.866V278H423.166V273ZM423.521 272.125C423.408 272.125 423.311 272.088 423.231 272.015C423.155 271.938 423.116 271.843 423.116 271.73C423.116 271.617 423.155 271.523 423.231 271.45C423.311 271.373 423.408 271.335 423.521 271.335C423.631 271.335 423.725 271.373 423.801 271.45C423.881 271.523 423.921 271.617 423.921 271.73C423.921 271.843 423.883 271.938 423.806 272.015C423.73 272.088 423.635 272.125 423.521 272.125ZM427.626 273.7H426.431L426.426 278H425.726L425.731 273.7H424.826V273H425.731L425.726 271.43H426.426L426.431 273H427.626V273.7ZM432.491 273H433.191V278H432.491L432.466 277.07C432.303 277.387 432.075 277.643 431.781 277.84C431.488 278.033 431.138 278.13 430.731 278.13C430.365 278.13 430.021 278.062 429.701 277.925C429.381 277.785 429.1 277.593 428.856 277.35C428.613 277.107 428.423 276.825 428.286 276.505C428.15 276.185 428.081 275.842 428.081 275.475C428.081 275.115 428.148 274.777 428.281 274.46C428.418 274.143 428.605 273.865 428.841 273.625C429.081 273.385 429.358 273.198 429.671 273.065C429.988 272.928 430.326 272.86 430.686 272.86C431.103 272.86 431.466 272.96 431.776 273.16C432.086 273.357 432.333 273.615 432.516 273.935L432.491 273ZM430.716 277.45C431.073 277.45 431.38 277.363 431.636 277.19C431.893 277.013 432.09 276.777 432.226 276.48C432.366 276.183 432.436 275.857 432.436 275.5C432.436 275.133 432.366 274.803 432.226 274.51C432.086 274.213 431.888 273.978 431.631 273.805C431.375 273.632 431.07 273.545 430.716 273.545C430.363 273.545 430.04 273.633 429.746 273.81C429.456 273.983 429.225 274.218 429.051 274.515C428.881 274.812 428.796 275.14 428.796 275.5C428.796 275.863 428.885 276.193 429.061 276.49C429.238 276.783 429.471 277.017 429.761 277.19C430.055 277.363 430.373 277.45 430.716 277.45ZM434.26 278V270.5H434.96V278H434.26ZM436.164 273H436.864V278H436.164V273ZM436.519 272.125C436.406 272.125 436.309 272.088 436.229 272.015C436.153 271.938 436.114 271.843 436.114 271.73C436.114 271.617 436.153 271.523 436.229 271.45C436.309 271.373 436.406 271.335 436.519 271.335C436.629 271.335 436.723 271.373 436.799 271.45C436.879 271.523 436.919 271.617 436.919 271.73C436.919 271.843 436.881 271.938 436.804 272.015C436.728 272.088 436.633 272.125 436.519 272.125ZM440.624 273.7H439.429L439.424 278H438.724L438.729 273.7H437.824V273H438.729L438.724 271.43H439.424L439.429 273H440.624V273.7ZM444.853 273H445.593L442.858 280.5H442.113L443.023 278L441.228 273H441.993L443.373 277.035L444.853 273Z" fill="#464E5F"/>
<path d="M465.6 278V271H467.915C468.398 271 468.852 271.092 469.275 271.275C469.698 271.455 470.07 271.707 470.39 272.03C470.71 272.35 470.96 272.722 471.14 273.145C471.323 273.565 471.415 274.017 471.415 274.5C471.415 274.983 471.323 275.437 471.14 275.86C470.96 276.28 470.71 276.652 470.39 276.975C470.07 277.295 469.698 277.547 469.275 277.73C468.852 277.91 468.398 278 467.915 278H465.6ZM466.3 277.3H467.915C468.302 277.3 468.663 277.228 469 277.085C469.34 276.938 469.638 276.737 469.895 276.48C470.152 276.223 470.352 275.927 470.495 275.59C470.642 275.25 470.715 274.887 470.715 274.5C470.715 274.113 470.642 273.752 470.495 273.415C470.352 273.075 470.15 272.777 469.89 272.52C469.633 272.263 469.337 272.063 469 271.92C468.663 271.773 468.302 271.7 467.915 271.7H466.3V277.3ZM474.45 278.13C473.99 278.13 473.57 278.012 473.19 277.775C472.814 277.538 472.512 277.222 472.285 276.825C472.062 276.425 471.95 275.983 471.95 275.5C471.95 275.133 472.015 274.792 472.145 274.475C472.275 274.155 472.454 273.875 472.68 273.635C472.91 273.392 473.177 273.202 473.48 273.065C473.784 272.928 474.107 272.86 474.45 272.86C474.82 272.86 475.16 272.933 475.47 273.08C475.784 273.227 476.052 273.432 476.275 273.695C476.502 273.958 476.672 274.267 476.785 274.62C476.902 274.973 476.95 275.355 476.93 275.765H472.69C472.73 276.082 472.83 276.365 472.99 276.615C473.154 276.865 473.36 277.063 473.61 277.21C473.864 277.353 474.144 277.427 474.45 277.43C474.784 277.43 475.084 277.343 475.35 277.17C475.62 276.997 475.837 276.758 476 276.455L476.71 276.62C476.51 277.063 476.209 277.427 475.805 277.71C475.402 277.99 474.95 278.13 474.45 278.13ZM472.67 275.2H476.225C476.202 274.89 476.107 274.607 475.94 274.35C475.777 274.09 475.565 273.883 475.305 273.73C475.045 273.573 474.76 273.495 474.45 273.495C474.14 273.495 473.857 273.572 473.6 273.725C473.344 273.875 473.134 274.08 472.97 274.34C472.807 274.597 472.707 274.883 472.67 275.2ZM477.748 278V270.5H478.448V278H477.748ZM479.653 273H480.353V278H479.653V273ZM480.008 272.125C479.894 272.125 479.798 272.088 479.718 272.015C479.641 271.938 479.603 271.843 479.603 271.73C479.603 271.617 479.641 271.523 479.718 271.45C479.798 271.373 479.894 271.335 480.008 271.335C480.118 271.335 480.211 271.373 480.288 271.45C480.368 271.523 480.408 271.617 480.408 271.73C480.408 271.843 480.369 271.938 480.293 272.015C480.216 272.088 480.121 272.125 480.008 272.125ZM483.904 278H483.014L481.189 272.985H481.934L483.459 277.18L484.984 272.985H485.729L483.904 278ZM488.562 278.13C488.102 278.13 487.682 278.012 487.302 277.775C486.925 277.538 486.623 277.222 486.397 276.825C486.173 276.425 486.062 275.983 486.062 275.5C486.062 275.133 486.127 274.792 486.257 274.475C486.387 274.155 486.565 273.875 486.792 273.635C487.022 273.392 487.288 273.202 487.592 273.065C487.895 272.928 488.218 272.86 488.562 272.86C488.932 272.86 489.272 272.933 489.582 273.08C489.895 273.227 490.163 273.432 490.387 273.695C490.613 273.958 490.783 274.267 490.897 274.62C491.013 274.973 491.062 275.355 491.042 275.765H486.802C486.842 276.082 486.942 276.365 487.102 276.615C487.265 276.865 487.472 277.063 487.722 277.21C487.975 277.353 488.255 277.427 488.562 277.43C488.895 277.43 489.195 277.343 489.462 277.17C489.732 276.997 489.948 276.758 490.112 276.455L490.822 276.62C490.622 277.063 490.32 277.427 489.917 277.71C489.513 277.99 489.062 278.13 488.562 278.13ZM486.782 275.2H490.337C490.313 274.89 490.218 274.607 490.052 274.35C489.888 274.09 489.677 273.883 489.417 273.73C489.157 273.573 488.872 273.495 488.562 273.495C488.252 273.495 487.968 273.572 487.712 273.725C487.455 273.875 487.245 274.08 487.082 274.34C486.918 274.597 486.818 274.883 486.782 275.2ZM491.899 278V273H492.599V273.69C492.775 273.437 493.005 273.235 493.289 273.085C493.572 272.935 493.88 272.86 494.214 272.86C494.407 272.86 494.594 272.885 494.774 272.935L494.489 273.63C494.349 273.587 494.212 273.565 494.079 273.565C493.809 273.565 493.56 273.632 493.334 273.765C493.11 273.898 492.932 274.077 492.799 274.3C492.665 274.523 492.599 274.772 492.599 275.045V278H491.899ZM498.83 273H499.57L496.835 280.5H496.09L497 278L495.205 273H495.97L497.35 277.035L498.83 273Z" fill="#464E5F"/>
<g clip-path="url(#clip2_1434_38426)">
<mask id="mask1_1434_38426" style="mask-type:luminance" maskUnits="userSpaceOnUse" x="85" y="114" width="405" height="156">
<rect x="85.0039" y="114.408" width="404.562" height="155.037" fill="white"/>
</mask>
<g mask="url(#mask1_1434_38426)">
<path d="M80.0039 177.107C92.0039 151.774 131.404 109.407 193.004 142.607C270.004 184.107 285.004 211.607 359.004 177.107C433.004 142.607 467.004 135.107 525.004 177.107C571.404 210.707 598.004 191.107 605.504 177.107" stroke="#3CD856" stroke-width="4"/>
<path d="M80.0039 150.408C105.004 121.908 129.404 148.208 191.004 181.408C268.004 222.908 273.477 196.422 346.504 159.908C413.504 126.408 465.504 162.408 523.504 204.408C569.904 238.008 599.504 218.408 607.004 204.408" stroke="#8950FC" stroke-width="4"/>
<path d="M80.0039 150.408C105.004 121.908 129.404 148.208 191.004 181.408C268.004 222.908 273.477 196.422 346.504 159.908C413.504 126.408 465.504 162.408 523.504 204.408C569.904 238.008 599.504 218.408 607.004 204.408" stroke="#1D8FFF" stroke-width="4"/>
</g>
</g>
<ellipse cx="352.488" cy="115.566" rx="5.8511" ry="6.65805" fill="#F64E60"/>
<path d="M352.488 257.733L352.488 98.0001" stroke="#F64E60" stroke-dasharray="2 2"/>
<g clip-path="url(#clip3_1434_38426)">
<g clip-path="url(#clip4_1434_38426)">
<rect x="150.129" y="322" width="12" height="12" rx="2" fill="#3CD856"/>
<path d="M173.203 324.6V325.608H170.407V333H169.399V325.608H166.609V324.6H173.203ZM179.712 329.268V333H178.704V329.49C178.704 329.186 178.63 328.91 178.482 328.662C178.334 328.414 178.136 328.218 177.888 328.074C177.64 327.926 177.364 327.852 177.06 327.852C176.76 327.852 176.484 327.926 176.232 328.074C175.984 328.218 175.786 328.414 175.638 328.662C175.49 328.91 175.416 329.186 175.416 329.49V333H174.408V324H175.416V327.75C175.628 327.47 175.896 327.248 176.22 327.084C176.544 326.916 176.896 326.832 177.276 326.832C177.724 326.832 178.132 326.942 178.5 327.162C178.872 327.378 179.166 327.67 179.382 328.038C179.602 328.406 179.712 328.816 179.712 329.268ZM180.911 327H181.919V333H180.911V327ZM181.427 326.022C181.267 326.022 181.133 325.97 181.025 325.866C180.917 325.762 180.863 325.632 180.863 325.476C180.863 325.32 180.917 325.19 181.025 325.086C181.133 324.982 181.265 324.93 181.421 324.93C181.577 324.93 181.709 324.982 181.817 325.086C181.925 325.19 181.979 325.32 181.979 325.476C181.979 325.632 181.925 325.762 181.817 325.866C181.713 325.97 181.583 326.022 181.427 326.022ZM185.132 333.114C184.808 333.102 184.492 333.042 184.184 332.934C183.88 332.822 183.612 332.672 183.38 332.484C183.152 332.292 182.986 332.072 182.882 331.824L183.746 331.452C183.806 331.588 183.914 331.716 184.07 331.836C184.226 331.956 184.406 332.052 184.61 332.124C184.814 332.196 185.02 332.232 185.228 332.232C185.448 332.232 185.654 332.198 185.846 332.13C186.038 332.062 186.194 331.962 186.314 331.83C186.438 331.694 186.5 331.532 186.5 331.344C186.5 331.144 186.432 330.988 186.296 330.876C186.164 330.76 185.996 330.67 185.792 330.606C185.592 330.538 185.388 330.474 185.18 330.414C184.768 330.31 184.4 330.186 184.076 330.042C183.752 329.894 183.496 329.708 183.308 329.484C183.124 329.256 183.032 328.966 183.032 328.614C183.032 328.242 183.134 327.92 183.338 327.648C183.546 327.376 183.818 327.166 184.154 327.018C184.49 326.87 184.85 326.796 185.234 326.796C185.718 326.796 186.16 326.9 186.56 327.108C186.96 327.316 187.258 327.598 187.454 327.954L186.644 328.428C186.576 328.284 186.472 328.158 186.332 328.05C186.192 327.938 186.032 327.85 185.852 327.786C185.672 327.722 185.488 327.688 185.3 327.684C185.068 327.676 184.85 327.706 184.646 327.774C184.446 327.842 184.284 327.946 184.16 328.086C184.04 328.222 183.98 328.392 183.98 328.596C183.98 328.796 184.044 328.948 184.172 329.052C184.304 329.156 184.474 329.24 184.682 329.304C184.894 329.364 185.124 329.434 185.372 329.514C185.736 329.63 186.076 329.764 186.392 329.916C186.708 330.068 186.962 330.258 187.154 330.486C187.35 330.714 187.446 330.996 187.442 331.332C187.442 331.7 187.332 332.022 187.112 332.298C186.892 332.57 186.606 332.778 186.254 332.922C185.906 333.066 185.532 333.13 185.132 333.114ZM191.353 333L192.979 324.6H193.753L196.021 330.564L198.283 324.6H199.057L200.689 333H199.663L198.481 326.904L196.351 332.544H195.685L193.555 326.904L192.379 333H191.353ZM204.247 333.156C203.695 333.156 203.191 333.014 202.735 332.73C202.283 332.446 201.921 332.066 201.649 331.59C201.381 331.11 201.247 330.58 201.247 330C201.247 329.56 201.325 329.15 201.481 328.77C201.637 328.386 201.851 328.05 202.123 327.762C202.399 327.47 202.719 327.242 203.083 327.078C203.447 326.914 203.835 326.832 204.247 326.832C204.799 326.832 205.301 326.974 205.753 327.258C206.209 327.542 206.571 327.924 206.839 328.404C207.111 328.884 207.247 329.416 207.247 330C207.247 330.436 207.169 330.844 207.013 331.224C206.857 331.604 206.641 331.94 206.365 332.232C206.093 332.52 205.775 332.746 205.411 332.91C205.051 333.074 204.663 333.156 204.247 333.156ZM204.247 332.148C204.623 332.148 204.961 332.05 205.261 331.854C205.565 331.654 205.803 331.392 205.975 331.068C206.151 330.74 206.239 330.384 206.239 330C206.239 329.608 206.149 329.248 205.969 328.92C205.793 328.592 205.555 328.33 205.255 328.134C204.955 327.938 204.619 327.84 204.247 327.84C203.871 327.84 203.533 327.94 203.233 328.14C202.933 328.336 202.695 328.598 202.519 328.926C202.343 329.254 202.255 329.612 202.255 330C202.255 330.4 202.345 330.764 202.525 331.092C202.705 331.416 202.947 331.674 203.251 331.866C203.555 332.054 203.887 332.148 204.247 332.148ZM213.544 329.268V333H212.536V329.49C212.536 329.186 212.462 328.91 212.314 328.662C212.166 328.414 211.968 328.218 211.72 328.074C211.472 327.926 211.196 327.852 210.892 327.852C210.592 327.852 210.316 327.926 210.064 328.074C209.816 328.218 209.618 328.414 209.47 328.662C209.322 328.91 209.248 329.186 209.248 329.49V333H208.24V327H209.248V327.75C209.46 327.47 209.728 327.248 210.052 327.084C210.376 326.916 210.728 326.832 211.108 326.832C211.556 326.832 211.964 326.942 212.332 327.162C212.704 327.378 212.998 327.67 213.214 328.038C213.434 328.406 213.544 328.816 213.544 329.268ZM217.851 328.008H216.489L216.483 333H215.475L215.481 328.008H214.449V327H215.481L215.475 325.116H216.483L216.489 327H217.851V328.008ZM224.231 329.268V333H223.223V329.49C223.223 329.186 223.149 328.91 223.001 328.662C222.853 328.414 222.655 328.218 222.407 328.074C222.159 327.926 221.883 327.852 221.579 327.852C221.279 327.852 221.003 327.926 220.751 328.074C220.503 328.218 220.305 328.414 220.157 328.662C220.009 328.91 219.935 329.186 219.935 329.49V333H218.927V324H219.935V327.75C220.147 327.47 220.415 327.248 220.739 327.084C221.063 326.916 221.415 326.832 221.795 326.832C222.243 326.832 222.651 326.942 223.019 327.162C223.391 327.378 223.685 327.67 223.901 328.038C224.121 328.406 224.231 328.816 224.231 329.268Z" fill="#464E5F"/>
</g>
<g clip-path="url(#clip5_1434_38426)">
<rect x="57.1289" y="322" width="12" height="12" rx="2" fill="#1D8FFF"/>
<path d="M73.8489 333V324.6H74.8569V331.992H78.6189V333H73.8489ZM84.1807 327H85.1887V333H84.1807L84.1387 331.986C83.9507 332.334 83.6907 332.616 83.3587 332.832C83.0307 333.048 82.6387 333.156 82.1827 333.156C81.7427 333.156 81.3307 333.074 80.9467 332.91C80.5627 332.742 80.2227 332.512 79.9267 332.22C79.6347 331.924 79.4067 331.584 79.2427 331.2C79.0787 330.816 78.9967 330.402 78.9967 329.958C78.9967 329.53 79.0767 329.126 79.2367 328.746C79.3967 328.366 79.6187 328.034 79.9027 327.75C80.1907 327.462 80.5227 327.238 80.8987 327.078C81.2747 326.914 81.6787 326.832 82.1107 326.832C82.5827 326.832 82.9967 326.944 83.3527 327.168C83.7087 327.388 83.9967 327.674 84.2167 328.026L84.1807 327ZM82.1647 332.178C82.5607 332.178 82.9027 332.082 83.1907 331.89C83.4827 331.694 83.7067 331.43 83.8627 331.098C84.0227 330.766 84.1027 330.4 84.1027 330C84.1027 329.592 84.0227 329.224 83.8627 328.896C83.7027 328.564 83.4767 328.302 83.1847 328.11C82.8967 327.914 82.5567 327.816 82.1647 327.816C81.7687 327.816 81.4087 327.914 81.0847 328.11C80.7607 328.306 80.5027 328.57 80.3107 328.902C80.1227 329.23 80.0287 329.596 80.0287 330C80.0287 330.404 80.1267 330.772 80.3227 331.104C80.5187 331.432 80.7787 331.694 81.1027 331.89C81.4267 332.082 81.7807 332.178 82.1647 332.178ZM88.218 333.114C87.894 333.102 87.578 333.042 87.27 332.934C86.966 332.822 86.698 332.672 86.466 332.484C86.238 332.292 86.072 332.072 85.968 331.824L86.832 331.452C86.892 331.588 87 331.716 87.156 331.836C87.312 331.956 87.492 332.052 87.696 332.124C87.9 332.196 88.106 332.232 88.314 332.232C88.534 332.232 88.74 332.198 88.932 332.13C89.124 332.062 89.28 331.962 89.4 331.83C89.524 331.694 89.586 331.532 89.586 331.344C89.586 331.144 89.518 330.988 89.382 330.876C89.25 330.76 89.082 330.67 88.878 330.606C88.678 330.538 88.474 330.474 88.266 330.414C87.854 330.31 87.486 330.186 87.162 330.042C86.838 329.894 86.582 329.708 86.394 329.484C86.21 329.256 86.118 328.966 86.118 328.614C86.118 328.242 86.22 327.92 86.424 327.648C86.632 327.376 86.904 327.166 87.24 327.018C87.576 326.87 87.936 326.796 88.32 326.796C88.804 326.796 89.246 326.9 89.646 327.108C90.046 327.316 90.344 327.598 90.54 327.954L89.73 328.428C89.662 328.284 89.558 328.158 89.418 328.05C89.278 327.938 89.118 327.85 88.938 327.786C88.758 327.722 88.574 327.688 88.386 327.684C88.154 327.676 87.936 327.706 87.732 327.774C87.532 327.842 87.37 327.946 87.246 328.086C87.126 328.222 87.066 328.392 87.066 328.596C87.066 328.796 87.13 328.948 87.258 329.052C87.39 329.156 87.56 329.24 87.768 329.304C87.98 329.364 88.21 329.434 88.458 329.514C88.822 329.63 89.162 329.764 89.478 329.916C89.794 330.068 90.048 330.258 90.24 330.486C90.436 330.714 90.532 330.996 90.528 331.332C90.528 331.7 90.418 332.022 90.198 332.298C89.978 332.57 89.692 332.778 89.34 332.922C88.992 333.066 88.618 333.13 88.218 333.114ZM94.6639 328.008H93.3019L93.2959 333H92.2879L92.2939 328.008H91.2619V327H92.2939L92.2879 325.116H93.2959L93.3019 327H94.6639V328.008ZM98.6223 333L100.248 324.6H101.022L103.29 330.564L105.552 324.6H106.326L107.958 333H106.932L105.75 326.904L103.62 332.544H102.954L100.824 326.904L99.6483 333H98.6223ZM111.516 333.156C110.964 333.156 110.46 333.014 110.004 332.73C109.552 332.446 109.19 332.066 108.918 331.59C108.65 331.11 108.516 330.58 108.516 330C108.516 329.56 108.594 329.15 108.75 328.77C108.906 328.386 109.12 328.05 109.392 327.762C109.668 327.47 109.988 327.242 110.352 327.078C110.716 326.914 111.104 326.832 111.516 326.832C112.068 326.832 112.57 326.974 113.022 327.258C113.478 327.542 113.84 327.924 114.108 328.404C114.38 328.884 114.516 329.416 114.516 330C114.516 330.436 114.438 330.844 114.282 331.224C114.126 331.604 113.91 331.94 113.634 332.232C113.362 332.52 113.044 332.746 112.68 332.91C112.32 333.074 111.932 333.156 111.516 333.156ZM111.516 332.148C111.892 332.148 112.23 332.05 112.53 331.854C112.834 331.654 113.072 331.392 113.244 331.068C113.42 330.74 113.508 330.384 113.508 330C113.508 329.608 113.418 329.248 113.238 328.92C113.062 328.592 112.824 328.33 112.524 328.134C112.224 327.938 111.888 327.84 111.516 327.84C111.14 327.84 110.802 327.94 110.502 328.14C110.202 328.336 109.964 328.598 109.788 328.926C109.612 329.254 109.524 329.612 109.524 330C109.524 330.4 109.614 330.764 109.794 331.092C109.974 331.416 110.216 331.674 110.52 331.866C110.824 332.054 111.156 332.148 111.516 332.148ZM120.813 329.268V333H119.805V329.49C119.805 329.186 119.731 328.91 119.583 328.662C119.435 328.414 119.237 328.218 118.989 328.074C118.741 327.926 118.465 327.852 118.161 327.852C117.861 327.852 117.585 327.926 117.333 328.074C117.085 328.218 116.887 328.414 116.739 328.662C116.591 328.91 116.517 329.186 116.517 329.49V333H115.509V327H116.517V327.75C116.729 327.47 116.997 327.248 117.321 327.084C117.645 326.916 117.997 326.832 118.377 326.832C118.825 326.832 119.233 326.942 119.601 327.162C119.973 327.378 120.267 327.67 120.483 328.038C120.703 328.406 120.813 328.816 120.813 329.268ZM125.121 328.008H123.759L123.753 333H122.745L122.751 328.008H121.719V327H122.751L122.745 325.116H123.753L123.759 327H125.121V328.008ZM131.501 329.268V333H130.493V329.49C130.493 329.186 130.419 328.91 130.271 328.662C130.123 328.414 129.925 328.218 129.677 328.074C129.429 327.926 129.153 327.852 128.849 327.852C128.549 327.852 128.273 327.926 128.021 328.074C127.773 328.218 127.575 328.414 127.427 328.662C127.279 328.91 127.205 329.186 127.205 329.49V333H126.197V324H127.205V327.75C127.417 327.47 127.685 327.248 128.009 327.084C128.333 326.916 128.685 326.832 129.065 326.832C129.513 326.832 129.921 326.942 130.289 327.162C130.661 327.378 130.955 327.67 131.171 328.038C131.391 328.406 131.501 328.816 131.501 329.268Z" fill="#464E5F"/>
</g>
</g>
</g>
<defs>
<filter id="filter0_d_1434_38426" x="0.9" y="0.9" width="550.2" height="387.2" filterUnits="userSpaceOnUse" color-interpolation-filters="sRGB">
<feFlood flood-opacity="0" result="BackgroundImageFix"/>
<feColorMatrix in="SourceAlpha" type="matrix" values="0 0 0 0 0 0 0 0 0 0 0 0 0 0 0 0 0 0 127 0" result="hardAlpha"/>
<feOffset dy="4"/>
<feGaussianBlur stdDeviation="14.05"/>
<feComposite in2="hardAlpha" operator="out"/>
<feColorMatrix type="matrix" values="0 0 0 0 0 0 0 0 0 0 0 0 0 0 0 0 0 0 0.1 0"/>
<feBlend mode="normal" in2="BackgroundImageFix" result="effect1_dropShadow_1434_38426"/>
<feBlend mode="normal" in="SourceGraphic" in2="effect1_dropShadow_1434_38426" result="shape"/>
</filter>
<filter id="filter1_d_1434_38426" x="9" y="9" width="534" height="371" filterUnits="userSpaceOnUse" color-interpolation-filters="sRGB">
<feFlood flood-opacity="0" result="BackgroundImageFix"/>
<feColorMatrix in="SourceAlpha" type="matrix" values="0 0 0 0 0 0 0 0 0 0 0 0 0 0 0 0 0 0 127 0" result="hardAlpha"/>
<feOffset dy="4"/>
<feGaussianBlur stdDeviation="10"/>
<feColorMatrix type="matrix" values="0 0 0 0 0.93198 0 0 0 0 0.93198 0 0 0 0 0.93198 0 0 0 0.501967 0"/>
<feBlend mode="normal" in2="BackgroundImageFix" result="effect1_dropShadow_1434_38426"/>
<feBlend mode="normal" in="SourceGraphic" in2="effect1_dropShadow_1434_38426" result="shape"/>
</filter>
<clipPath id="clip0_1434_38426">
<rect width="494" height="60.8736" fill="white" transform="translate(29 25)"/>
</clipPath>
<clipPath id="clip1_1434_38426">
<rect width="431.31" height="156.94" fill="white" transform="translate(71.625 113.457)"/>
</clipPath>
<clipPath id="clip2_1434_38426">
<rect width="404.562" height="155.037" fill="white" transform="translate(85.0039 114.408)"/>
</clipPath>
<clipPath id="clip3_1434_38426">
<rect width="428" height="11" fill="white" transform="translate(53 322)"/>
</clipPath>
<clipPath id="clip4_1434_38426">
<rect width="126" height="12" fill="white" transform="translate(150.129 322)"/>
</clipPath>
<clipPath id="clip5_1434_38426">
<rect width="115" height="12" fill="white" transform="translate(57.1289 322)"/>
</clipPath>
</defs>
</svg>
