<svg width="25" height="25" viewBox="0 0 25 25" fill="none" xmlns="http://www.w3.org/2000/svg">
<path d="M22.4149 10.186H21.6094V10.1445H12.6094V14.1445H18.2609C17.4364 16.473 15.2209 18.1445 12.6094 18.1445C9.29588 18.1445 6.60938 15.458 6.60938 12.1445C6.60938 8.83103 9.29588 6.14453 12.6094 6.14453C14.1389 6.14453 15.5304 6.72153 16.5899 7.66403L19.4184 4.83553C17.6324 3.17103 15.2434 2.14453 12.6094 2.14453C7.08687 2.14453 2.60938 6.62203 2.60938 12.1445C2.60938 17.667 7.08687 22.1445 12.6094 22.1445C18.1319 22.1445 22.6094 17.667 22.6094 12.1445C22.6094 11.474 22.5404 10.8195 22.4149 10.186Z" fill="#FFC107"/>
<path d="M3.76172 7.49003L7.04722 9.89953C7.93622 7.69853 10.0892 6.14453 12.6087 6.14453C14.1382 6.14453 15.5297 6.72153 16.5892 7.66403L19.4177 4.83553C17.6317 3.17103 15.2427 2.14453 12.6087 2.14453C8.76772 2.14453 5.43672 4.31303 3.76172 7.49003Z" fill="#FF3D00"/>
<path d="M12.6095 22.1444C15.1925 22.1444 17.5395 21.1559 19.314 19.5484L16.219 16.9294C15.1815 17.7189 13.9133 18.1458 12.6095 18.1444C10.0085 18.1444 7.80003 16.4859 6.96803 14.1714L3.70703 16.6839C5.36203 19.9224 8.72303 22.1444 12.6095 22.1444Z" fill="#4CAF50"/>
<path d="M22.4149 10.186H21.6094V10.1445H12.6094V14.1445H18.2609C17.8665 15.2527 17.1561 16.2211 16.2174 16.93L16.2189 16.929L19.3139 19.548C19.0949 19.747 22.6094 17.1445 22.6094 12.1445C22.6094 11.474 22.5404 10.8195 22.4149 10.186Z" fill="#1976D2"/>
</svg>
