<svg width="16" height="15" viewBox="0 0 16 15" fill="none" xmlns="http://www.w3.org/2000/svg">
<path d="M5.5 11.25L8 9.34375L10.5 11.25L9.5625 8.15625L12.0625 6.375H9L8 3.125L7 6.375H3.9375L6.4375 8.15625L5.5 11.25ZM8 13.75C7.13542 13.75 6.32292 13.5859 5.5625 13.2578C4.80208 12.9297 4.14062 12.4844 3.57812 11.9219C3.01562 11.3594 2.57031 10.6979 2.24219 9.9375C1.91406 9.17708 1.75 8.36458 1.75 7.5C1.75 6.63542 1.91406 5.82292 2.24219 5.0625C2.57031 4.30208 3.01562 3.64062 3.57812 3.07812C4.14062 2.51562 4.80208 2.07031 5.5625 1.74219C6.32292 1.41406 7.13542 1.25 8 1.25C8.86458 1.25 9.67708 1.41406 10.4375 1.74219C11.1979 2.07031 11.8594 2.51562 12.4219 3.07812C12.9844 3.64062 13.4297 4.30208 13.7578 5.0625C14.0859 5.82292 14.25 6.63542 14.25 7.5C14.25 8.36458 14.0859 9.17708 13.7578 9.9375C13.4297 10.6979 12.9844 11.3594 12.4219 11.9219C11.8594 12.4844 11.1979 12.9297 10.4375 13.2578C9.67708 13.5859 8.86458 13.75 8 13.75Z" fill="white"/>
</svg>
