<svg width="72" height="72" viewBox="0 0 72 72" fill="none" xmlns="http://www.w3.org/2000/svg">
<g filter="url(#filter0_d_3005_221359)">
<rect x="13.6562" y="9.64648" width="44.6913" height="44.7068" rx="22.3457" fill="white" shape-rendering="crispEdges"/>
<g filter="url(#filter1_i_3005_221359)">
<path d="M39.4368 23.3286L44.6808 28.5726L31.9863 41.2671C31.642 41.6114 31.2332 41.8846 30.7833 42.0709C30.3335 42.2573 29.8513 42.3532 29.3643 42.3532C28.8774 42.3532 28.3952 42.2573 27.9453 42.0709C27.4954 41.8846 27.0866 41.6114 26.7423 41.2671C26.398 40.9228 26.1249 40.514 25.9385 40.0641C25.7522 39.6142 25.6562 39.1321 25.6562 38.6451C25.6563 38.1582 25.7522 37.676 25.9385 37.2261C26.1249 36.7762 26.398 36.3674 26.7423 36.0231L39.4368 23.3286Z" fill="#A5D9FF"/>
</g>
<g filter="url(#filter2_f_3005_221359)">
<path d="M41.1657 25.6494L42.4054 26.8892L36.3882 32.9057L35.1484 31.6667L41.1657 25.6494Z" fill="#C6EFFF"/>
</g>
<g filter="url(#filter3_iii_3005_221359)">
<path d="M43.2213 30.0322L31.9863 41.2672C31.642 41.6116 31.2332 41.8847 30.7833 42.071C30.3335 42.2574 29.8513 42.3533 29.3643 42.3533C28.8774 42.3533 28.3952 42.2574 27.9453 42.071C27.4954 41.8847 27.0866 41.6116 26.7423 41.2672C26.398 40.9229 26.1249 40.5141 25.9385 40.0642C25.7522 39.6144 25.6562 39.1322 25.6562 38.6452C25.6563 38.1583 25.7522 37.6761 25.9385 37.2262C26.1249 36.7763 26.398 36.3676 26.7423 36.0232L32.7333 30.0322H43.2213Z" fill="#D1F884"/>
<path d="M43.2213 30.0322L31.9863 41.2672C31.642 41.6116 31.2332 41.8847 30.7833 42.071C30.3335 42.2574 29.8513 42.3533 29.3643 42.3533C28.8774 42.3533 28.3952 42.2574 27.9453 42.071C27.4954 41.8847 27.0866 41.6116 26.7423 41.2672C26.398 40.9229 26.1249 40.5141 25.9385 40.0642C25.7522 39.6144 25.6562 39.1322 25.6562 38.6452C25.6563 38.1583 25.7522 37.6761 25.9385 37.2262C26.1249 36.7763 26.398 36.3676 26.7423 36.0232L32.7333 30.0322H43.2213Z" fill="url(#paint0_linear_3005_221359)"/>
</g>
<path d="M34.7067 28.0576L33.8359 28.9291L35.4057 30.4981C35.5224 30.6082 35.6773 30.6685 35.8378 30.6662C35.9982 30.6639 36.1514 30.5992 36.2648 30.4857C36.3782 30.3723 36.443 30.2191 36.4453 30.0587C36.4476 29.8983 36.3873 29.7433 36.2772 29.6266L34.7067 28.0576Z" fill="url(#paint1_linear_3005_221359)"/>
<path d="M30.4609 32.3046L31.3324 31.4331L32.8962 32.9969C32.9562 33.0535 33.0041 33.1215 33.0373 33.197C33.0705 33.2725 33.0883 33.3538 33.0894 33.4363C33.0906 33.5187 33.0753 33.6006 33.0443 33.677C33.0133 33.7534 32.9672 33.8228 32.9089 33.8811C32.8506 33.9394 32.7812 33.9854 32.7048 34.0164C32.6284 34.0474 32.5466 34.0628 32.4641 34.0616C32.3817 34.0604 32.3003 34.0427 32.2248 34.0095C32.1493 33.9763 32.0813 33.9283 32.0247 33.8684L30.4609 32.3046Z" fill="url(#paint2_linear_3005_221359)"/>
<path d="M27.0781 35.6864L27.9496 34.8149L29.5126 36.3779C29.6282 36.4936 29.6931 36.6504 29.693 36.814C29.6929 36.9775 29.6279 37.1342 29.5122 37.2498C29.3966 37.3654 29.2397 37.4303 29.0762 37.4302C28.9127 37.4301 28.7559 37.3651 28.6404 37.2494L27.0781 35.6864Z" fill="url(#paint3_linear_3005_221359)"/>
<g filter="url(#filter4_i_3005_221359)">
<path d="M38.2995 21.9691C38.1971 22.0714 38.1159 22.193 38.0605 22.3268C38.0051 22.4605 37.9766 22.6039 37.9766 22.7487C37.9766 22.8935 38.0051 23.0369 38.0605 23.1706C38.1159 23.3044 38.1971 23.4259 38.2995 23.5283L44.481 29.7098C44.6891 29.9099 44.9674 30.0203 45.2561 30.0175C45.5448 30.0146 45.8208 29.8986 46.0249 29.6944C46.2289 29.4902 46.3448 29.2142 46.3475 28.9255C46.3503 28.6368 46.2397 28.3586 46.0395 28.1506L39.858 21.9691C39.6513 21.7625 39.371 21.6465 39.0788 21.6465C38.7865 21.6465 38.5062 21.7625 38.2995 21.9691Z" fill="#A9D8FF"/>
<path d="M38.2995 21.9691C38.1971 22.0714 38.1159 22.193 38.0605 22.3268C38.0051 22.4605 37.9766 22.6039 37.9766 22.7487C37.9766 22.8935 38.0051 23.0369 38.0605 23.1706C38.1159 23.3044 38.1971 23.4259 38.2995 23.5283L44.481 29.7098C44.6891 29.9099 44.9674 30.0203 45.2561 30.0175C45.5448 30.0146 45.8208 29.8986 46.0249 29.6944C46.2289 29.4902 46.3448 29.2142 46.3475 28.9255C46.3503 28.6368 46.2397 28.3586 46.0395 28.1506L39.858 21.9691C39.6513 21.7625 39.371 21.6465 39.0788 21.6465C38.7865 21.6465 38.5062 21.7625 38.2995 21.9691Z" fill="url(#paint4_linear_3005_221359)"/>
</g>
<g filter="url(#filter5_f_3005_221359)">
<path d="M38.5742 23.0073L39.4067 22.1748L45.6887 28.4553L44.8555 29.2886L38.5742 23.0073Z" fill="#C4ECFF"/>
</g>
</g>
<defs>
<filter id="filter0_d_3005_221359" x="0.85625" y="0.846484" width="70.2914" height="70.307" filterUnits="userSpaceOnUse" color-interpolation-filters="sRGB">
<feFlood flood-opacity="0" result="BackgroundImageFix"/>
<feColorMatrix in="SourceAlpha" type="matrix" values="0 0 0 0 0 0 0 0 0 0 0 0 0 0 0 0 0 0 127 0" result="hardAlpha"/>
<feOffset dy="4"/>
<feGaussianBlur stdDeviation="6.4"/>
<feComposite in2="hardAlpha" operator="out"/>
<feColorMatrix type="matrix" values="0 0 0 0 0.113725 0 0 0 0 0.560784 0 0 0 0 1 0 0 0 0.12 0"/>
<feBlend mode="normal" in2="BackgroundImageFix" result="effect1_dropShadow_3005_221359"/>
<feBlend mode="normal" in="SourceGraphic" in2="effect1_dropShadow_3005_221359" result="shape"/>
</filter>
<filter id="filter1_i_3005_221359" x="25.6562" y="23.3286" width="19.0234" height="19.0244" filterUnits="userSpaceOnUse" color-interpolation-filters="sRGB">
<feFlood flood-opacity="0" result="BackgroundImageFix"/>
<feBlend mode="normal" in="SourceGraphic" in2="BackgroundImageFix" result="shape"/>
<feColorMatrix in="SourceAlpha" type="matrix" values="0 0 0 0 0 0 0 0 0 0 0 0 0 0 0 0 0 0 127 0" result="hardAlpha"/>
<feOffset/>
<feGaussianBlur stdDeviation="0.75"/>
<feComposite in2="hardAlpha" operator="arithmetic" k2="-1" k3="1"/>
<feColorMatrix type="matrix" values="0 0 0 0 0.745098 0 0 0 0 0.85098 0 0 0 0 0.964706 0 0 0 1 0"/>
<feBlend mode="normal" in2="shape" result="effect1_innerShadow_3005_221359"/>
</filter>
<filter id="filter2_f_3005_221359" x="33.6484" y="24.1494" width="10.2578" height="10.2563" filterUnits="userSpaceOnUse" color-interpolation-filters="sRGB">
<feFlood flood-opacity="0" result="BackgroundImageFix"/>
<feBlend mode="normal" in="SourceGraphic" in2="BackgroundImageFix" result="shape"/>
<feGaussianBlur stdDeviation="0.75" result="effect1_foregroundBlur_3005_221359"/>
</filter>
<filter id="filter3_iii_3005_221359" x="25.6562" y="29.4697" width="19.8164" height="12.8838" filterUnits="userSpaceOnUse" color-interpolation-filters="sRGB">
<feFlood flood-opacity="0" result="BackgroundImageFix"/>
<feBlend mode="normal" in="SourceGraphic" in2="BackgroundImageFix" result="shape"/>
<feColorMatrix in="SourceAlpha" type="matrix" values="0 0 0 0 0 0 0 0 0 0 0 0 0 0 0 0 0 0 127 0" result="hardAlpha"/>
<feOffset dx="3" dy="-0.5625"/>
<feGaussianBlur stdDeviation="1.125"/>
<feComposite in2="hardAlpha" operator="arithmetic" k2="-1" k3="1"/>
<feColorMatrix type="matrix" values="0 0 0 0 0.505882 0 0 0 0 0.811765 0 0 0 0 0.34902 0 0 0 1 0"/>
<feBlend mode="normal" in2="shape" result="effect1_innerShadow_3005_221359"/>
<feColorMatrix in="SourceAlpha" type="matrix" values="0 0 0 0 0 0 0 0 0 0 0 0 0 0 0 0 0 0 127 0" result="hardAlpha"/>
<feOffset dy="-0.3"/>
<feGaussianBlur stdDeviation="0.375"/>
<feComposite in2="hardAlpha" operator="arithmetic" k2="-1" k3="1"/>
<feColorMatrix type="matrix" values="0 0 0 0 0.788235 0 0 0 0 0.843137 0 0 0 0 0.898039 0 0 0 1 0"/>
<feBlend mode="normal" in2="effect1_innerShadow_3005_221359" result="effect2_innerShadow_3005_221359"/>
<feColorMatrix in="SourceAlpha" type="matrix" values="0 0 0 0 0 0 0 0 0 0 0 0 0 0 0 0 0 0 127 0" result="hardAlpha"/>
<feOffset dx="0.3" dy="-0.3"/>
<feGaussianBlur stdDeviation="0.375"/>
<feComposite in2="hardAlpha" operator="arithmetic" k2="-1" k3="1"/>
<feColorMatrix type="matrix" values="0 0 0 0 0.67451 0 0 0 0 0.839216 0 0 0 0 0.623529 0 0 0 1 0"/>
<feBlend mode="normal" in2="effect2_innerShadow_3005_221359" result="effect3_innerShadow_3005_221359"/>
</filter>
<filter id="filter4_i_3005_221359" x="37.9766" y="21.6465" width="8.37109" height="8.37109" filterUnits="userSpaceOnUse" color-interpolation-filters="sRGB">
<feFlood flood-opacity="0" result="BackgroundImageFix"/>
<feBlend mode="normal" in="SourceGraphic" in2="BackgroundImageFix" result="shape"/>
<feColorMatrix in="SourceAlpha" type="matrix" values="0 0 0 0 0 0 0 0 0 0 0 0 0 0 0 0 0 0 127 0" result="hardAlpha"/>
<feOffset/>
<feGaussianBlur stdDeviation="0.375"/>
<feComposite in2="hardAlpha" operator="arithmetic" k2="-1" k3="1"/>
<feColorMatrix type="matrix" values="0 0 0 0 0.658824 0 0 0 0 0.776471 0 0 0 0 0.937255 0 0 0 1 0"/>
<feBlend mode="normal" in2="shape" result="effect1_innerShadow_3005_221359"/>
</filter>
<filter id="filter5_f_3005_221359" x="38.0117" y="21.6123" width="8.23828" height="8.23877" filterUnits="userSpaceOnUse" color-interpolation-filters="sRGB">
<feFlood flood-opacity="0" result="BackgroundImageFix"/>
<feBlend mode="normal" in="SourceGraphic" in2="BackgroundImageFix" result="shape"/>
<feGaussianBlur stdDeviation="0.28125" result="effect1_foregroundBlur_3005_221359"/>
</filter>
<linearGradient id="paint0_linear_3005_221359" x1="42.9581" y1="30.4125" x2="36.4428" y2="32.6625" gradientUnits="userSpaceOnUse">
<stop offset="0.203" stop-color="#E9EB7E"/>
<stop offset="1" stop-color="#E9EB7E" stop-opacity="0"/>
</linearGradient>
<linearGradient id="paint1_linear_3005_221359" x1="36.2067" y1="30.5536" x2="34.1442" y2="28.6081" gradientUnits="userSpaceOnUse">
<stop stop-color="#138979"/>
<stop offset="1" stop-color="#2E7B65"/>
</linearGradient>
<linearGradient id="paint2_linear_3005_221359" x1="32.8272" y1="33.9239" x2="30.7692" y2="31.9829" gradientUnits="userSpaceOnUse">
<stop stop-color="#138979"/>
<stop offset="1" stop-color="#2E7B65"/>
</linearGradient>
<linearGradient id="paint3_linear_3005_221359" x1="29.4436" y1="37.3049" x2="27.3864" y2="35.3639" gradientUnits="userSpaceOnUse">
<stop stop-color="#138979"/>
<stop offset="1" stop-color="#2E7B65"/>
</linearGradient>
<linearGradient id="paint4_linear_3005_221359" x1="45.2265" y1="30.1471" x2="45.129" y2="28.9013" gradientUnits="userSpaceOnUse">
<stop stop-color="#A8C3FF"/>
<stop offset="1" stop-color="#A8C3FF" stop-opacity="0"/>
</linearGradient>
</defs>
</svg>
