<svg width="74" height="74" viewBox="0 0 74 74" fill="none" xmlns="http://www.w3.org/2000/svg">
<g filter="url(#filter0_d_3005_221320)">
<rect x="13" y="9" width="48" height="48" rx="24" fill="white" shape-rendering="crispEdges"/>
<path d="M34.136 38.2881C36.2938 38.2881 38.3632 37.4309 39.889 35.9051C41.4148 34.3793 42.272 32.3099 42.272 30.1521C42.272 27.9943 41.4148 25.9249 39.889 24.3991C38.3632 22.8733 36.2938 22.0161 34.136 22.0161C31.9782 22.0161 29.9088 22.8733 28.383 24.3991C26.8572 25.9249 26 27.9943 26 30.1521C26 32.3099 26.8572 34.3793 28.383 35.9051C29.9088 37.4309 31.9782 38.2881 34.136 38.2881Z" fill="#66E1FF"/>
<path d="M35.7651 27.9603L38.2421 30.4343C38.3308 30.523 38.4362 30.5934 38.5522 30.6415C38.6682 30.6895 38.7925 30.7143 38.9181 30.7143C39.0436 30.7143 39.1679 30.6895 39.2839 30.6415C39.3999 30.5934 39.5053 30.523 39.5941 30.4343L41.9841 28.0433C41.5197 26.3108 40.4954 24.7806 39.0707 23.6911C37.646 22.6016 35.9009 22.0139 34.1073 22.0196C32.3138 22.0253 30.5724 22.6241 29.1547 23.7227C27.7369 24.8212 26.7224 26.3579 26.2691 28.0933C25.9677 29.244 25.9226 30.4469 26.1369 31.617C26.3511 32.7871 26.8195 33.8959 27.5091 34.8653L34.4181 27.9603C34.5972 27.7822 34.8395 27.6822 35.0921 27.6822C35.3446 27.6822 35.5859 27.7822 35.7651 27.9603Z" fill="#C2F3FF"/>
<path d="M26.4948 32.9401C25.813 31.0763 25.8365 29.0274 26.5609 27.1797C27.2853 25.332 28.6605 23.813 30.4274 22.9092C32.1943 22.0053 34.2308 21.779 36.153 22.2728C38.0752 22.7667 39.7504 23.9466 40.8628 25.5901M39.8808 35.9031L42.1128 38.1331" stroke="#191919" stroke-linecap="round" stroke-linejoin="round"/>
<path d="M47.5208 41.5182C47.6605 41.6499 47.7724 41.8083 47.8498 41.9841C47.9272 42.1598 47.9685 42.3493 47.9713 42.5413C47.9741 42.7334 47.9383 42.924 47.8661 43.1019C47.7939 43.2799 47.6867 43.4415 47.5509 43.5773C47.4151 43.713 47.2534 43.8201 47.0754 43.8923C46.8974 43.9644 46.7068 44.0001 46.5148 43.9972C46.3227 43.9943 46.1333 43.9528 45.9575 43.8754C45.7818 43.7979 45.6234 43.686 45.4918 43.5462L41.7718 39.8262C41.5927 39.6467 41.4922 39.4036 41.4922 39.1502C41.4922 38.8967 41.5927 38.6536 41.7718 38.4742L42.4488 37.7982C42.6282 37.6191 42.8713 37.5186 43.1248 37.5186C43.3783 37.5186 43.6214 37.6191 43.8008 37.7982L47.5208 41.5182Z" fill="#C77F67" stroke="#191919" stroke-linecap="round" stroke-linejoin="round"/>
<path d="M26.0039 36.3709L34.4209 27.9609C34.6003 27.7819 34.8434 27.6813 35.0969 27.6813C35.3504 27.6813 35.5935 27.7819 35.7729 27.9609L38.2459 30.4349C38.3347 30.5238 38.4402 30.5944 38.5562 30.6425C38.6723 30.6906 38.7967 30.7154 38.9224 30.7154C39.0481 30.7154 39.1725 30.6906 39.2886 30.6425C39.4047 30.5944 39.5101 30.5238 39.5989 30.4349L48.0019 22.0249" stroke="#191919" stroke-linecap="round" stroke-linejoin="round"/>
<path d="M45.1296 22.0249H47.9996V24.8949M42.2496 30.6519C42.1583 32.152 41.6531 33.5974 40.7899 34.8277C39.9267 36.0579 38.7395 37.0248 37.3599 37.621C35.9804 38.2172 34.4626 38.4194 32.9751 38.2051C31.4877 37.9908 30.0887 37.3683 28.9336 36.4069" stroke="#191919" stroke-linecap="round" stroke-linejoin="round"/>
</g>
<defs>
<filter id="filter0_d_3005_221320" x="0.2" y="0.2" width="73.6" height="73.6" filterUnits="userSpaceOnUse" color-interpolation-filters="sRGB">
<feFlood flood-opacity="0" result="BackgroundImageFix"/>
<feColorMatrix in="SourceAlpha" type="matrix" values="0 0 0 0 0 0 0 0 0 0 0 0 0 0 0 0 0 0 127 0" result="hardAlpha"/>
<feOffset dy="4"/>
<feGaussianBlur stdDeviation="6.4"/>
<feComposite in2="hardAlpha" operator="out"/>
<feColorMatrix type="matrix" values="0 0 0 0 0.113725 0 0 0 0 0.560784 0 0 0 0 1 0 0 0 0.12 0"/>
<feBlend mode="normal" in2="BackgroundImageFix" result="effect1_dropShadow_3005_221320"/>
<feBlend mode="normal" in="SourceGraphic" in2="effect1_dropShadow_3005_221320" result="shape"/>
</filter>
</defs>
</svg>
