<svg width="74" height="74" viewBox="0 0 74 74" fill="none" xmlns="http://www.w3.org/2000/svg">
<g filter="url(#filter0_d_3005_221331)">
<rect x="13" y="9" width="48" height="48" rx="24" fill="white" shape-rendering="crispEdges"/>
<path d="M39.5085 24.6222C33.7822 21.6012 28.569 23.7537 26.691 26.6959C26.0752 27.6574 25.6402 29.4072 25.6567 30.7947C25.6905 33.6499 27.2707 36.8322 30.6817 40.0422C34.878 43.9909 39.1605 43.6459 40.5217 43.3144C42.2355 42.8959 43.3845 42.5397 43.2082 40.9422C43.1857 40.7322 43.0057 40.3512 42.7342 40.1847C41.8627 39.6559 40.0417 39.3807 39.1852 38.1072C37.9402 36.2532 39.4882 36.1594 40.9717 36.9522C42.5595 37.8019 43.467 38.3322 45.0607 38.1859C46.2292 38.0794 47.928 37.3744 48.1582 35.4034C48.3652 33.6207 45.7627 27.9222 39.5077 24.6222M41.8455 34.3122C41.4067 34.9797 40.323 34.7509 39.6127 34.1209C38.9025 33.4909 38.8102 32.4409 39.2707 32.0284C39.7395 31.6107 40.6207 31.7059 41.3317 32.3359C42.0405 32.9674 42.189 33.7872 41.8455 34.3122Z" fill="#AC5810"/>
<path d="M39.7604 23.9421C34.0334 20.9211 28.8074 23.2573 26.9294 26.1996C25.0491 29.1433 25.8666 34.5936 30.9329 39.3621C35.1284 43.3101 39.4116 42.9658 40.7729 42.6336C42.4866 42.2158 43.6956 41.3998 42.9419 40.3596C42.4221 39.6411 40.5606 39.0996 39.4371 37.4271C38.1921 35.5723 39.7416 35.4786 41.2244 36.2721C42.8121 37.1211 43.7204 37.6521 45.3141 37.5058C46.4819 37.3986 48.2481 36.4948 48.1956 34.6686C48.1409 32.8738 46.0154 27.2436 39.7604 23.9421ZM42.3951 34.2598C41.8611 34.8373 40.7226 34.6798 39.8526 33.9111C38.9849 33.1408 38.7126 32.0496 39.2474 31.4736C39.7814 30.8961 40.9199 31.0536 41.7899 31.8223C42.6599 32.5911 42.9299 33.6846 42.3951 34.2598Z" fill="#F2A259"/>
<path d="M33.9306 36.8735C34.1466 36.3222 35.6804 35.7185 37.0904 36.7212C37.4856 37.0025 37.9806 37.7187 37.9304 38.6187C37.7654 41.5587 32.9406 39.41 33.9306 36.8735Z" fill="#EEEEEE"/>
<path d="M29.4521 31.8882C29.9448 31.1007 31.1433 31.0107 32.1911 31.6909C33.1248 32.2962 33.9048 33.7872 32.7536 34.7622C32.1371 35.2849 31.0698 34.9609 30.4121 34.4562C29.6133 33.8472 28.9211 32.7357 29.4521 31.8882Z" fill="#2686C6"/>
<path d="M35.816 25.016C35.9675 24.392 37.0265 24.2847 37.7765 24.5645C39.0725 25.0482 39.659 26.3307 39.1812 27.0447C38.4815 28.0895 36.9575 27.731 36.38 27.1332C35.3997 26.1207 35.6885 25.5395 35.816 25.016Z" fill="#FFEE58"/>
<path d="M43.324 28.0722C44.362 28.5447 44.497 29.2925 44.299 29.8385C44.1745 30.176 43.9218 30.6387 43.4043 30.6807C42.5283 30.752 42.4068 30.0282 41.782 29.8295C41.257 29.6622 41.0433 28.9445 41.2495 28.4622C41.4415 28.0182 42.0003 27.4685 43.324 28.0722Z" fill="#7CB342"/>
<path d="M37.5601 39.18C37.3014 39.4148 36.4029 39.7035 35.2629 38.991C34.8766 38.7488 34.5069 38.3985 34.2991 37.8735C34.1364 37.461 34.1716 37.0635 34.2451 36.8873C34.4551 36.3788 34.7754 36.285 34.7754 36.285C34.4529 36.2625 33.8439 36.69 33.7426 37.251C33.7104 37.4273 33.4831 38.529 34.9441 39.5288C36.2019 40.3913 38.0626 40.311 37.9404 38.5748C37.8701 38.8071 37.7392 39.0162 37.5601 39.18Z" fill="#B0B0B0"/>
<path d="M33.298 33.3222C33.2628 33.992 32.4783 34.3445 32.0418 34.346C30.8058 34.3475 29.6958 33.5712 29.6193 32.1897C29.6058 31.9422 29.728 31.5845 29.728 31.5845C29.5645 31.6535 29.3343 32.006 29.2855 32.2047C28.9968 33.3972 30.1983 34.787 31.4643 35.0682C32.1055 35.2107 32.914 34.991 33.208 34.4172C33.418 34.0085 33.3768 33.6582 33.298 33.3222Z" fill="#01579B"/>
<path d="M37.6238 27.1349C36.7838 27.0389 36.3188 26.4899 36.1973 26.3639C35.8628 26.0152 35.6573 25.6762 35.7773 25.1737C35.8148 25.0124 35.9063 24.8062 36.0188 24.6899C35.8823 24.7349 35.661 25.0289 35.5913 25.1887C35.52 25.3477 35.2613 25.9462 35.8163 26.6827C36.159 27.1402 36.7575 27.6562 37.6425 27.7799C38.2703 27.8677 38.721 27.6427 39.096 27.2774C39.351 27.0277 39.4635 26.4652 39.3113 26.1749C39.336 26.3864 38.9475 27.2864 37.6238 27.1349Z" fill="#DF7F14"/>
<path d="M44.5332 29.4098C44.4652 29.194 44.357 28.993 44.2145 28.8173C44.3097 29.0011 44.4995 29.5523 44.102 30.0878C43.901 30.3578 43.2972 30.6901 42.5847 30.1126C42.3747 29.9416 42.206 29.7728 41.8272 29.6341C40.8657 29.2801 41.285 28.3013 41.6195 27.9976C41.357 28.1348 41.1185 28.3801 41.0195 28.7551C40.88 29.2778 41.2235 29.8261 41.7447 30.0878C42.3372 30.3863 42.5285 30.9616 43.3407 30.9616C43.3817 30.9616 43.4255 30.9598 43.472 30.9563C44.0195 30.9098 44.2497 30.6976 44.417 30.4388C44.621 30.1163 44.627 29.7503 44.5325 29.4091" fill="#558B2F"/>
<path d="M29.8442 25.8359C30.2717 25.4136 31.0157 24.9674 32.1055 25.5359C32.7617 25.8771 33.5252 26.2784 33.1795 27.6659C32.9665 28.5261 31.7132 28.9821 30.667 28.0236C30.253 27.6449 28.678 26.9871 29.8442 25.8359Z" fill="#F44336"/>
<path d="M33.4269 27.4798C33.4404 27.1521 33.2717 26.7523 33.2132 26.6173C33.2229 26.8138 33.3932 27.3111 32.6117 27.9688C32.4313 28.1142 32.2153 28.2086 31.986 28.2422C31.7568 28.2758 31.5228 28.2475 31.3082 28.1601C31.0329 28.0513 30.6369 27.5961 30.3542 27.4813C29.3019 27.0583 29.7557 25.9311 29.9042 25.7773C29.6307 25.9724 29.4453 26.2676 29.3882 26.5986C29.2907 27.1071 29.3807 27.5871 30.0782 28.1361C32.0582 29.6976 32.6657 28.7563 32.8817 28.5171C33.1532 28.2246 33.4119 27.8421 33.4269 27.4798Z" fill="#C62828"/>
<path d="M37.3276 24.6301C37.0523 24.5011 36.2648 24.5386 36.1126 25.1948C36.0211 25.5886 36.3098 25.9876 36.5813 25.9411C36.8903 25.8886 36.7261 25.4063 36.9113 25.2698C37.1941 25.0636 37.7138 24.8123 37.3276 24.6301ZM31.5188 25.5863C31.2473 25.4063 30.3788 25.4048 30.1186 26.0701C29.9611 26.4698 30.2063 26.9326 30.5011 26.9251C30.8363 26.9176 30.6751 26.5223 30.9541 26.2711C31.3066 25.9538 31.8991 25.8376 31.5188 25.5863ZM31.3898 31.5938C31.1326 31.4311 30.3713 31.3666 30.0563 31.9628C29.8253 32.4016 30.1426 32.8853 30.4178 32.8726C30.7313 32.8576 30.6263 32.3588 30.8266 32.2463C31.1326 32.0761 31.7498 31.8226 31.3898 31.5938ZM35.7631 36.5866C35.4878 36.4576 34.6996 36.4951 34.5481 37.1513C34.4558 37.5451 34.7446 37.9448 35.0168 37.8976C35.3258 37.8451 35.1608 37.3628 35.3468 37.2263C35.6281 37.0201 36.1478 36.7688 35.7631 36.5866ZM42.8281 28.1341C42.5806 27.9586 41.7991 27.8551 41.5328 28.4738C41.3731 28.8451 41.5853 29.2898 41.8606 29.2913C42.1741 29.2928 42.0968 28.7903 42.3053 28.6891C42.6181 28.5376 43.1753 28.3816 42.8281 28.1341Z" fill="white"/>
</g>
<defs>
<filter id="filter0_d_3005_221331" x="0.2" y="0.2" width="73.6" height="73.6" filterUnits="userSpaceOnUse" color-interpolation-filters="sRGB">
<feFlood flood-opacity="0" result="BackgroundImageFix"/>
<feColorMatrix in="SourceAlpha" type="matrix" values="0 0 0 0 0 0 0 0 0 0 0 0 0 0 0 0 0 0 127 0" result="hardAlpha"/>
<feOffset dy="4"/>
<feGaussianBlur stdDeviation="6.4"/>
<feComposite in2="hardAlpha" operator="out"/>
<feColorMatrix type="matrix" values="0 0 0 0 0.113725 0 0 0 0 0.560784 0 0 0 0 1 0 0 0 0.12 0"/>
<feBlend mode="normal" in2="BackgroundImageFix" result="effect1_dropShadow_3005_221331"/>
<feBlend mode="normal" in="SourceGraphic" in2="effect1_dropShadow_3005_221331" result="shape"/>
</filter>
</defs>
</svg>
