<svg width="74" height="74" viewBox="0 0 74 74" fill="none" xmlns="http://www.w3.org/2000/svg">
<g filter="url(#filter0_d_3005_221378)">
<rect x="13" y="9" width="48" height="48" rx="24" fill="white" shape-rendering="crispEdges"/>
<path d="M27.7463 36.0679H46.2671C46.5261 36.0679 46.759 36.2357 46.8557 36.4918L48.956 42.0588C48.9863 42.1391 49.0019 42.2248 49.0019 42.3113V42.8237C49.0019 43.1973 48.7179 43.5001 48.3675 43.5001H25.775C25.4246 43.5001 25.1406 43.1973 25.1406 42.8237V42.3039C25.1406 42.2222 25.1545 42.1412 25.1816 42.0647L27.153 36.5051C27.2462 36.242 27.4825 36.0679 27.7463 36.0679Z" fill="#ADB8BC"/>
<path d="M27.8625 21.9028H46.2098C46.52 21.9028 46.7715 22.1543 46.7715 22.4645V35.5262C46.7715 35.8364 46.52 36.0879 46.2098 36.0879H27.8625C27.5523 36.0879 27.3008 35.8364 27.3008 35.5262V22.4645C27.3007 22.1543 27.5523 21.9028 27.8625 21.9028Z" fill="#C5CFD1"/>
<path d="M29.0557 24.1821H45.0148C45.3346 24.1821 45.5939 24.4414 45.5939 24.7613V34.2783C45.5939 34.5982 45.3346 34.8575 45.0148 34.8575H29.0557C28.7359 34.8575 28.4766 34.5982 28.4766 34.2783V24.7613C28.4766 24.4414 28.7359 24.1821 29.0557 24.1821Z" fill="#00B1FF"/>
<path d="M44.9531 23.5991C45.2336 23.5991 45.4609 23.3717 45.4609 23.0913C45.4609 22.8108 45.2336 22.5835 44.9531 22.5835C44.6727 22.5835 44.4453 22.8108 44.4453 23.0913C44.4453 23.3717 44.6727 23.5991 44.9531 23.5991Z" fill="#FF473E"/>
<path d="M43.418 23.5991C43.6984 23.5991 43.9257 23.3717 43.9257 23.0913C43.9257 22.8108 43.6984 22.5835 43.418 22.5835C43.1375 22.5835 42.9102 22.8108 42.9102 23.0913C42.9102 23.3717 43.1375 23.5991 43.418 23.5991Z" fill="#D7F4F7"/>
<path d="M30.7066 39.3692L30.4744 40.0277C30.4334 40.1441 30.3148 40.223 30.1809 40.223H28.664C28.4549 40.223 28.3064 40.037 28.3705 39.8552L28.6027 39.1967C28.6438 39.0803 28.7624 39.0014 28.8962 39.0014H30.4131C30.6222 39.0014 30.7707 39.1874 30.7066 39.3692ZM34.1492 39.0014H32.6152C32.4699 39.0014 32.3443 39.0941 32.3138 39.2238L32.1591 39.8824C32.1179 40.0577 32.2642 40.2229 32.4605 40.2229H33.9945C34.1399 40.2229 34.2655 40.1303 34.2959 40.0005L34.4507 39.3419C34.4918 39.1667 34.3455 39.0014 34.1492 39.0014ZM41.9833 39.8824L41.8286 39.2238C41.7981 39.0941 41.6725 39.0014 41.5271 39.0014H39.9931C39.7968 39.0014 39.6505 39.1667 39.6917 39.3419L39.8464 40.0005C39.8769 40.1303 40.0025 40.2229 40.1479 40.2229H41.6819C41.8782 40.2229 42.0245 40.0577 41.9833 39.8824ZM38.1661 39.9016L38.0629 39.243C38.0412 39.1044 37.9111 39.0014 37.7577 39.0014H36.3848C36.2315 39.0014 36.1014 39.1044 36.0796 39.243L35.9763 39.9016C35.9497 40.0712 36.0938 40.2229 36.2815 40.2229H37.8609C38.0486 40.2229 38.1927 40.0712 38.1661 39.9016ZM42.9976 42.157L42.7036 41.4786C42.6812 41.3357 42.5473 41.2297 42.3892 41.2297H31.9589C31.8009 41.2297 31.667 41.3357 31.6446 41.4785L31.3505 42.1569C31.323 42.3316 31.4715 42.488 31.6649 42.488H42.6832C42.8766 42.488 43.025 42.3317 42.9976 42.157ZM45.7718 39.8552L45.5396 39.1967C45.4986 39.0803 45.38 39.0014 45.2461 39.0014H43.7292C43.5201 39.0014 43.3717 39.1874 43.4357 39.3692L43.6679 40.0277C43.709 40.1441 43.8276 40.223 43.9614 40.223H45.4783C45.6874 40.2229 45.8359 40.0369 45.7718 39.8552ZM31.0393 36.9935H29.6651C29.5438 36.9935 29.4364 37.065 29.3992 37.1704L29.1888 37.767C29.1308 37.9316 29.2653 38.1002 29.4547 38.1002H30.8289C30.9502 38.1002 31.0576 38.0287 31.0948 37.9233L31.3051 37.3267C31.3632 37.162 31.2287 36.9935 31.0393 36.9935ZM34.424 36.9935H33.0343C32.9026 36.9935 32.7888 37.0775 32.7612 37.195L32.621 37.7917C32.5837 37.9504 32.7163 38.1002 32.8941 38.1002H34.2838C34.4155 38.1002 34.5293 38.0162 34.5569 37.8986L34.6971 37.302C34.7344 37.1432 34.6019 36.9935 34.424 36.9935ZM41.5213 37.7917L41.3811 37.195C41.3535 37.0775 41.2397 36.9935 41.108 36.9935H39.7183C39.5405 36.9935 39.4079 37.1432 39.4452 37.302L39.5854 37.8986C39.613 38.0162 39.7268 38.1002 39.8585 38.1002H41.2482C41.4261 38.1002 41.5586 37.9504 41.5213 37.7917ZM38.0632 37.8091L37.9696 37.2124C37.9499 37.0869 37.8321 36.9936 37.6931 36.9936H36.4493C36.3104 36.9936 36.1926 37.0868 36.1728 37.2124L36.0792 37.8091C36.0551 37.9627 36.1857 38.1002 36.3557 38.1002H37.7866C37.9567 38.1002 38.0872 37.9627 38.0632 37.8091ZM44.9535 37.767L44.7432 37.1704C44.706 37.065 44.5986 36.9935 44.4773 36.9935H43.1031C42.9137 36.9935 42.7792 37.162 42.8372 37.3267L43.0476 37.9233C43.0848 38.0287 43.1922 38.1002 43.3135 38.1002H44.6877C44.8771 38.1002 45.0116 37.9316 44.9535 37.767ZM36.3874 23.3322H37.5493C37.6485 23.3322 37.7438 23.2927 37.814 23.2225C37.8842 23.1523 37.9236 23.0571 37.9236 22.9578C37.9236 22.8586 37.8842 22.7633 37.814 22.6931C37.7438 22.6229 37.6485 22.5835 37.5493 22.5835H36.3874C36.2881 22.5835 36.1929 22.6229 36.1227 22.6931C36.0525 22.7633 36.013 22.8586 36.013 22.9578C36.013 23.007 36.0227 23.0557 36.0415 23.1011C36.0603 23.1465 36.0879 23.1878 36.1227 23.2226C36.1574 23.2573 36.1987 23.2849 36.2441 23.3037C36.2895 23.3225 36.3382 23.3322 36.3874 23.3322Z" fill="#1C4C5A"/>
</g>
<defs>
<filter id="filter0_d_3005_221378" x="0.2" y="0.2" width="73.6" height="73.6" filterUnits="userSpaceOnUse" color-interpolation-filters="sRGB">
<feFlood flood-opacity="0" result="BackgroundImageFix"/>
<feColorMatrix in="SourceAlpha" type="matrix" values="0 0 0 0 0 0 0 0 0 0 0 0 0 0 0 0 0 0 127 0" result="hardAlpha"/>
<feOffset dy="4"/>
<feGaussianBlur stdDeviation="6.4"/>
<feComposite in2="hardAlpha" operator="out"/>
<feColorMatrix type="matrix" values="0 0 0 0 0.113725 0 0 0 0 0.560784 0 0 0 0 1 0 0 0 0.12 0"/>
<feBlend mode="normal" in2="BackgroundImageFix" result="effect1_dropShadow_3005_221378"/>
<feBlend mode="normal" in="SourceGraphic" in2="effect1_dropShadow_3005_221378" result="shape"/>
</filter>
</defs>
</svg>
