<svg width="20" height="17" viewBox="0 0 20 17" fill="none" xmlns="http://www.w3.org/2000/svg">
<path d="M14.1654 16V14.3333C14.1654 13.4493 13.8142 12.6014 13.1891 11.9763C12.5639 11.3512 11.7161 11 10.832 11H4.16536C3.28131 11 2.43346 11.3512 1.80834 11.9763C1.18322 12.6014 0.832031 13.4493 0.832031 14.3333V16M19.1654 16V14.3333C19.1648 13.5948 18.919 12.8773 18.4665 12.2936C18.014 11.7099 17.3805 11.293 16.6654 11.1083M13.332 1.10833C14.049 1.29192 14.6846 1.70892 15.1384 2.29359C15.5922 2.87827 15.8386 3.59736 15.8386 4.3375C15.8386 5.07764 15.5922 5.79673 15.1384 6.38141C14.6846 6.96608 14.049 7.38308 13.332 7.56667M10.832 4.33333C10.832 6.17428 9.33965 7.66667 7.4987 7.66667C5.65775 7.66667 4.16536 6.17428 4.16536 4.33333C4.16536 2.49238 5.65775 1 7.4987 1C9.33965 1 10.832 2.49238 10.832 4.33333Z" stroke="black" stroke-width="1.66667" stroke-linecap="round" stroke-linejoin="round"/>
</svg>
