<svg width="18" height="31" viewBox="0 0 18 31" fill="none" xmlns="http://www.w3.org/2000/svg">
<path d="M3.02899 25C3.02899 28.2977 5.7023 30.971 9 30.971C12.2977 30.971 14.971 28.2977 14.971 25C14.971 21.7023 12.2977 19.029 9 19.029C5.7023 19.029 3.02899 21.7023 3.02899 25ZM9.79165 1.20835C9.35443 0.77113 8.64557 0.77113 8.20835 1.20835L1.08348 8.33322C0.646261 8.77043 0.646261 9.4793 1.08348 9.91652C1.5207 10.3537 2.22957 10.3537 2.66678 9.91652L9 3.5833L15.3332 9.91652C15.7704 10.3537 16.4793 10.3537 16.9165 9.91652C17.3537 9.4793 17.3537 8.77043 16.9165 8.33322L9.79165 1.20835ZM9 25H10.1196V2H9H7.88043V25H9Z" fill="#1D8FFF"/>
</svg>
