<svg width="242" height="471" viewBox="0 0 242 471" fill="none" xmlns="http://www.w3.org/2000/svg">
<path d="M241.5 1C241.5 0.723858 241.276 0.5 241 0.5C240.724 0.5 240.5 0.723858 240.5 1H241H241.5ZM0.646447 466.646C0.451184 466.842 0.451184 467.158 0.646447 467.354L3.82843 470.536C4.02369 470.731 4.34027 470.731 4.53553 470.536C4.7308 470.34 4.7308 470.024 4.53553 469.828L1.70711 467L4.53553 464.172C4.7308 463.976 4.7308 463.66 4.53553 463.464C4.34027 463.269 4.02369 463.269 3.82843 463.464L0.646447 466.646ZM7.42799 467.5C7.70413 467.5 7.92799 467.276 7.92799 467C7.92799 466.724 7.70413 466.5 7.42799 466.5V467V467.5ZM20.284 466.5C20.0078 466.5 19.784 466.724 19.784 467C19.784 467.276 20.0078 467.5 20.284 467.5V467V466.5ZM33.14 467.5C33.4161 467.5 33.64 467.276 33.64 467C33.64 466.724 33.4161 466.5 33.14 466.5V467V467.5ZM45.9959 466.5C45.7198 466.5 45.4959 466.724 45.4959 467C45.4959 467.276 45.7198 467.5 45.9959 467.5V467V466.5ZM58.8519 467.5C59.1281 467.5 59.3519 467.276 59.3519 467C59.3519 466.724 59.1281 466.5 58.8519 466.5V467V467.5ZM71.7079 466.5C71.4318 466.5 71.2079 466.724 71.2079 467C71.2079 467.276 71.4318 467.5 71.7079 467.5V467V466.5ZM84.5639 467.5C84.84 467.5 85.0639 467.276 85.0639 467C85.0639 466.724 84.84 466.5 84.5639 466.5V467V467.5ZM97.4199 466.5C97.1437 466.5 96.9199 466.724 96.9199 467C96.9199 467.276 97.1437 467.5 97.4199 467.5V467V466.5ZM110.276 467.5C110.552 467.5 110.776 467.276 110.776 467C110.776 466.724 110.552 466.5 110.276 466.5V467V467.5ZM123.132 466.5C122.856 466.5 122.632 466.724 122.632 467C122.632 467.276 122.856 467.5 123.132 467.5V467V466.5ZM135.988 467.5C136.264 467.5 136.488 467.276 136.488 467C136.488 466.724 136.264 466.5 135.988 466.5V467V467.5ZM148.844 466.5C148.568 466.5 148.344 466.724 148.344 467C148.344 467.276 148.568 467.5 148.844 467.5V467V466.5ZM161.7 467.5C161.976 467.5 162.2 467.276 162.2 467C162.2 466.724 161.976 466.5 161.7 466.5V467V467.5ZM174.556 466.5C174.28 466.5 174.056 466.724 174.056 467C174.056 467.276 174.28 467.5 174.556 467.5V467V466.5ZM186.917 467.213C187.192 467.186 187.393 466.942 187.366 466.667C187.34 466.392 187.095 466.191 186.82 466.217L186.869 466.715L186.917 467.213ZM198.267 463.952C198.002 464.032 197.853 464.311 197.933 464.575C198.013 464.84 198.292 464.989 198.556 464.909L198.411 464.431L198.267 463.952ZM209.516 460.365C209.76 460.234 209.851 459.931 209.721 459.688C209.591 459.445 209.288 459.353 209.044 459.483L209.28 459.924L209.516 460.365ZM218.741 452.992C218.527 453.168 218.497 453.483 218.672 453.696C218.847 453.909 219.162 453.94 219.376 453.765L219.058 453.379L218.741 452.992ZM227.765 445.376C227.94 445.162 227.91 444.847 227.696 444.672C227.483 444.497 227.168 444.527 226.992 444.741L227.379 445.058L227.765 445.376ZM233.483 435.044C233.353 435.288 233.445 435.591 233.688 435.721C233.931 435.851 234.234 435.76 234.365 435.516L233.924 435.28L233.483 435.044ZM238.909 424.556C238.989 424.292 238.84 424.013 238.576 423.933C238.311 423.853 238.032 424.002 237.952 424.266L238.431 424.411L238.909 424.556ZM240.218 412.82C240.191 413.095 240.392 413.34 240.667 413.366C240.942 413.393 241.186 413.192 241.213 412.917L240.715 412.869L240.218 412.82ZM241.5 400.984C241.5 400.708 241.276 400.484 241 400.484C240.724 400.484 240.5 400.708 240.5 400.984H241H241.5ZM240.5 388.985C240.5 389.261 240.724 389.485 241 389.485C241.276 389.485 241.5 389.261 241.5 388.985H241H240.5ZM241.5 376.986C241.5 376.709 241.276 376.486 241 376.486C240.724 376.486 240.5 376.709 240.5 376.986H241H241.5ZM240.5 364.986C240.5 365.262 240.724 365.486 241 365.486C241.276 365.486 241.5 365.262 241.5 364.986H241H240.5ZM241.5 352.987C241.5 352.711 241.276 352.487 241 352.487C240.724 352.487 240.5 352.711 240.5 352.987H241H241.5ZM240.5 340.988C240.5 341.264 240.724 341.488 241 341.488C241.276 341.488 241.5 341.264 241.5 340.988H241H240.5ZM241.5 328.989C241.5 328.712 241.276 328.489 241 328.489C240.724 328.489 240.5 328.712 240.5 328.989H241H241.5ZM240.5 316.989C240.5 317.265 240.724 317.489 241 317.489C241.276 317.489 241.5 317.265 241.5 316.989H241H240.5ZM241.5 304.99C241.5 304.714 241.276 304.49 241 304.49C240.724 304.49 240.5 304.714 240.5 304.99H241H241.5ZM240.5 292.991C240.5 293.267 240.724 293.491 241 293.491C241.276 293.491 241.5 293.267 241.5 292.991H241H240.5ZM241.5 280.992C241.5 280.715 241.276 280.492 241 280.492C240.724 280.492 240.5 280.715 240.5 280.992H241H241.5ZM240.5 268.992C240.5 269.268 240.724 269.492 241 269.492C241.276 269.492 241.5 269.268 241.5 268.992H241H240.5ZM241.5 256.993C241.5 256.717 241.276 256.493 241 256.493C240.724 256.493 240.5 256.717 240.5 256.993H241H241.5ZM240.5 244.994C240.5 245.27 240.724 245.494 241 245.494C241.276 245.494 241.5 245.27 241.5 244.994H241H240.5ZM241.5 232.994C241.5 232.718 241.276 232.494 241 232.494C240.724 232.494 240.5 232.718 240.5 232.994H241H241.5ZM240.5 220.995C240.5 221.271 240.724 221.495 241 221.495C241.276 221.495 241.5 221.271 241.5 220.995H241H240.5ZM241.5 208.996C241.5 208.72 241.276 208.496 241 208.496C240.724 208.496 240.5 208.72 240.5 208.996H241H241.5ZM240.5 196.997C240.5 197.273 240.724 197.497 241 197.497C241.276 197.497 241.5 197.273 241.5 196.997H241H240.5ZM241.5 184.997C241.5 184.721 241.276 184.497 241 184.497C240.724 184.497 240.5 184.721 240.5 184.997H241H241.5ZM240.5 172.998C240.5 173.274 240.724 173.498 241 173.498C241.276 173.498 241.5 173.274 241.5 172.998H241H240.5ZM241.5 160.999C241.5 160.723 241.276 160.499 241 160.499C240.724 160.499 240.5 160.723 240.5 160.999H241H241.5ZM240.5 149C240.5 149.276 240.724 149.5 241 149.5C241.276 149.5 241.5 149.276 241.5 149H241H240.5ZM241.5 137C241.5 136.724 241.276 136.5 241 136.5C240.724 136.5 240.5 136.724 240.5 137H241H241.5ZM240.5 125C240.5 125.276 240.724 125.5 241 125.5C241.276 125.5 241.5 125.276 241.5 125H241H240.5ZM241.5 113.1C241.5 112.824 241.276 112.6 241 112.6C240.724 112.6 240.5 112.824 240.5 113.1H241H241.5ZM240.5 101.3C240.5 101.576 240.724 101.8 241 101.8C241.276 101.8 241.5 101.576 241.5 101.3H241H240.5ZM241.5 89.5C241.5 89.2239 241.276 89 241 89C240.724 89 240.5 89.2239 240.5 89.5H241H241.5ZM240.5 77.7C240.5 77.9761 240.724 78.2 241 78.2C241.276 78.2 241.5 77.9761 241.5 77.7H241H240.5ZM241.5 65.9C241.5 65.6239 241.276 65.4 241 65.4C240.724 65.4 240.5 65.6239 240.5 65.9H241H241.5ZM240.5 54.1C240.5 54.3761 240.724 54.6 241 54.6C241.276 54.6 241.5 54.3761 241.5 54.1H241H240.5ZM241.5 42.3C241.5 42.0239 241.276 41.8 241 41.8C240.724 41.8 240.5 42.0239 240.5 42.3H241H241.5ZM240.5 30.5C240.5 30.7761 240.724 31 241 31C241.276 31 241.5 30.7761 241.5 30.5H241H240.5ZM241.5 18.7C241.5 18.4238 241.276 18.2 241 18.2C240.724 18.2 240.5 18.4238 240.5 18.7H241H241.5ZM240.5 6.89999C240.5 7.17613 240.724 7.39999 241 7.39999C241.276 7.39999 241.5 7.17613 241.5 6.89999H241H240.5ZM1 467V467.5H7.42799V467V466.5H1V467ZM20.284 467V467.5H33.14V467V466.5H20.284V467ZM45.9959 467V467.5H58.8519V467V466.5H45.9959V467ZM71.7079 467V467.5H84.5639V467V466.5H71.7079V467ZM97.4199 467V467.5H110.276V467V466.5H97.4199V467ZM123.132 467V467.5H135.988V467V466.5H123.132V467ZM148.844 467V467.5H161.7V467V466.5H148.844V467ZM174.556 467V467.5H180.984V467V466.5H174.556V467ZM180.984 467V467.5C182.986 467.5 184.965 467.403 186.917 467.213L186.869 466.715L186.82 466.217C184.9 466.404 182.953 466.5 180.984 466.5V467ZM198.411 464.431L198.556 464.909C202.384 463.749 206.051 462.221 209.516 460.365L209.28 459.924L209.044 459.483C205.636 461.309 202.03 462.812 198.267 463.952L198.411 464.431ZM219.058 453.379L219.376 453.765C222.438 451.249 225.249 448.438 227.765 445.376L227.379 445.058L226.992 444.741C224.518 447.753 221.753 450.518 218.741 452.992L219.058 453.379ZM233.924 435.28L234.365 435.516C236.221 432.051 237.749 428.384 238.909 424.556L238.431 424.411L237.952 424.266C236.812 428.03 235.309 431.636 233.483 435.044L233.924 435.28ZM240.715 412.869L241.213 412.917C241.403 410.965 241.5 408.986 241.5 406.984H241H240.5C240.5 408.953 240.404 410.9 240.218 412.82L240.715 412.869ZM241 406.984H241.5V400.984H241H240.5V406.984H241ZM241 388.985H241.5V376.986H241H240.5V388.985H241ZM241 364.986H241.5V352.987H241H240.5V364.986H241ZM241 340.988H241.5V328.989H241H240.5V340.988H241ZM241 316.989H241.5V304.99H241H240.5V316.989H241ZM241 292.991H241.5V280.992H241H240.5V292.991H241ZM241 268.992H241.5V256.993H241H240.5V268.992H241ZM241 244.994H241.5V232.994H241H240.5V244.994H241ZM241 220.995H241.5V208.996H241H240.5V220.995H241ZM241 196.997H241.5V184.997H241H240.5V196.997H241ZM241 172.998H241.5V160.999H241H240.5V172.998H241ZM241 149H241.5V143H241H240.5V149H241ZM241 143H241.5V137H241H240.5V143H241ZM241 125H241.5V119H241H240.5V125H241ZM241 119H241.5V113.1H241H240.5V119H241ZM241 101.3H241.5V89.5H241H240.5V101.3H241ZM241 77.7H241.5V65.9H241H240.5V77.7H241ZM241 54.1H241.5V42.3H241H240.5V54.1H241ZM241 30.5H241.5V18.7H241H240.5V30.5H241ZM241 6.89999H241.5V1H241H240.5V6.89999H241Z" fill="url(#paint0_linear_3005_221212)"/>
<defs>
<linearGradient id="paint0_linear_3005_221212" x1="121" y1="1" x2="121" y2="467" gradientUnits="userSpaceOnUse">
<stop stop-color="#D0D5DD"/>
<stop offset="0.466346" stop-color="#7B7B7B"/>
<stop offset="1" stop-color="#2F98FF" stop-opacity="0.63"/>
</linearGradient>
</defs>
</svg>
