<svg width="528" height="567" viewBox="0 0 528 567" fill="none" xmlns="http://www.w3.org/2000/svg">
<g opacity="0.5" clip-path="url(#clip0_1418_35045)">
<mask id="mask0_1418_35045" style="mask-type:alpha" maskUnits="userSpaceOnUse" x="-113" y="0" width="754" height="753">
<rect width="752.89" height="625.84" transform="translate(-112.047)" fill="url(#paint0_radial_1418_35045)"/>
</mask>
<g mask="url(#mask0_1418_35045)">
<g clip-path="url(#clip1_1418_35045)">
<mask id="path-3-inside-1_1418_35045" fill="white">
<path d="M-32.8047 0H17.388V50.1926H-32.8047V0Z"/>
</mask>
<path d="M17.388 50.1926V50.7155H17.9108V50.1926H17.388ZM17.388 0H16.8651V50.1926H17.388H17.9108V0H17.388ZM17.388 50.1926V49.6698H-32.8047V50.1926V50.7155H17.388V50.1926Z" fill="#43A2FF" mask="url(#path-3-inside-1_1418_35045)"/>
<mask id="path-5-inside-2_1418_35045" fill="white">
<path d="M17.3828 0H67.5755V50.1926H17.3828V0Z"/>
</mask>
<path d="M67.5755 50.1926V50.7155H68.0983V50.1926H67.5755ZM67.5755 0H67.0526V50.1926H67.5755H68.0983V0H67.5755ZM67.5755 50.1926V49.6698H17.3828V50.1926V50.7155H67.5755V50.1926Z" fill="#43A2FF" mask="url(#path-5-inside-2_1418_35045)"/>
<mask id="path-7-inside-3_1418_35045" fill="white">
<path d="M67.5781 0H117.771V50.1926H67.5781V0Z"/>
</mask>
<path d="M117.771 50.1926V50.7155H118.294V50.1926H117.771ZM117.771 0H117.248V50.1926H117.771H118.294V0H117.771ZM117.771 50.1926V49.6698H67.5781V50.1926V50.7155H117.771V50.1926Z" fill="#43A2FF" mask="url(#path-7-inside-3_1418_35045)"/>
<mask id="path-9-inside-4_1418_35045" fill="white">
<path d="M117.773 -0.00012207H167.966V50.1925H117.773V-0.00012207Z"/>
</mask>
<path d="M167.966 50.1925V50.7154H168.489V50.1925H167.966ZM167.966 -0.00012207H167.443V50.1925H167.966H168.489V-0.00012207H167.966ZM167.966 50.1925V49.6697H117.773V50.1925V50.7154H167.966V50.1925Z" fill="#43A2FF" mask="url(#path-9-inside-4_1418_35045)"/>
<mask id="path-11-inside-5_1418_35045" fill="white">
<path d="M167.961 0H218.154V50.1926H167.961V0Z"/>
</mask>
<path d="M218.154 50.1926V50.7155H218.676V50.1926H218.154ZM218.154 0H217.631V50.1926H218.154H218.676V0H218.154ZM218.154 50.1926V49.6698H167.961V50.1926V50.7155H218.154V50.1926Z" fill="#43A2FF" mask="url(#path-11-inside-5_1418_35045)"/>
<mask id="path-13-inside-6_1418_35045" fill="white">
<path d="M218.156 0H268.349V50.1926H218.156V0Z"/>
</mask>
<path d="M268.349 50.1926V50.7155H268.872V50.1926H268.349ZM268.349 0H267.826V50.1926H268.349H268.872V0H268.349ZM268.349 50.1926V49.6698H218.156V50.1926V50.7155H268.349V50.1926Z" fill="#43A2FF" mask="url(#path-13-inside-6_1418_35045)"/>
<mask id="path-15-inside-7_1418_35045" fill="white">
<path d="M268.352 0H318.544V50.1926H268.352V0Z"/>
</mask>
<path d="M318.544 50.1926V50.7155H319.067V50.1926H318.544ZM318.544 0H318.021V50.1926H318.544H319.067V0H318.544ZM318.544 50.1926V49.6698H268.352V50.1926V50.7155H318.544V50.1926Z" fill="#43A2FF" mask="url(#path-15-inside-7_1418_35045)"/>
<mask id="path-17-inside-8_1418_35045" fill="white">
<path d="M318.539 0H368.732V50.1926H318.539V0Z"/>
</mask>
<path d="M368.732 50.1926V50.7155H369.255V50.1926H368.732ZM368.732 0H368.209V50.1926H368.732H369.255V0H368.732ZM368.732 50.1926V49.6698H318.539V50.1926V50.7155H368.732V50.1926Z" fill="#43A2FF" mask="url(#path-17-inside-8_1418_35045)"/>
<mask id="path-19-inside-9_1418_35045" fill="white">
<path d="M368.734 -0.00012207H418.927V50.1925H368.734V-0.00012207Z"/>
</mask>
<path d="M418.927 50.1925V50.7154H419.45V50.1925H418.927ZM418.927 -0.00012207H418.404V50.1925H418.927H419.45V-0.00012207H418.927ZM418.927 50.1925V49.6697H368.734V50.1925V50.7154H418.927V50.1925Z" fill="#43A2FF" mask="url(#path-19-inside-9_1418_35045)"/>
<mask id="path-21-inside-10_1418_35045" fill="white">
<path d="M418.93 0H469.122V50.1926H418.93V0Z"/>
</mask>
<path d="M469.122 50.1926V50.7155H469.645V50.1926H469.122ZM469.122 0H468.599V50.1926H469.122H469.645V0H469.122ZM469.122 50.1926V49.6698H418.93V50.1926V50.7155H469.122V50.1926Z" fill="#43A2FF" mask="url(#path-21-inside-10_1418_35045)"/>
<mask id="path-23-inside-11_1418_35045" fill="white">
<path d="M469.117 0H519.31V50.1926H469.117V0Z"/>
</mask>
<path d="M519.31 50.1926V50.7155H519.833V50.1926H519.31ZM519.31 0H518.787V50.1926H519.31H519.833V0H519.31ZM519.31 50.1926V49.6698H469.117V50.1926V50.7155H519.31V50.1926Z" fill="#43A2FF" mask="url(#path-23-inside-11_1418_35045)"/>
<mask id="path-25-inside-12_1418_35045" fill="white">
<path d="M-32.8047 50.1926H17.388V100.385H-32.8047V50.1926Z"/>
</mask>
<path d="M17.388 100.385V100.908H17.9108V100.385H17.388ZM17.388 50.1926H16.8651V100.385H17.388H17.9108V50.1926H17.388ZM17.388 100.385V99.8624H-32.8047V100.385V100.908H17.388V100.385Z" fill="#43A2FF" mask="url(#path-25-inside-12_1418_35045)"/>
<mask id="path-27-inside-13_1418_35045" fill="white">
<path d="M17.3828 50.1926H67.5755V100.385H17.3828V50.1926Z"/>
</mask>
<path d="M67.5755 100.385V100.908H68.0983V100.385H67.5755ZM67.5755 50.1926H67.0526V100.385H67.5755H68.0983V50.1926H67.5755ZM67.5755 100.385V99.8624H17.3828V100.385V100.908H67.5755V100.385Z" fill="#43A2FF" mask="url(#path-27-inside-13_1418_35045)"/>
<mask id="path-29-inside-14_1418_35045" fill="white">
<path d="M67.5781 50.1926H117.771V100.385H67.5781V50.1926Z"/>
</mask>
<path d="M117.771 100.385V100.908H118.294V100.385H117.771ZM117.771 50.1926H117.248V100.385H117.771H118.294V50.1926H117.771ZM117.771 100.385V99.8624H67.5781V100.385V100.908H117.771V100.385Z" fill="#43A2FF" mask="url(#path-29-inside-14_1418_35045)"/>
<mask id="path-31-inside-15_1418_35045" fill="white">
<path d="M117.773 50.1924H167.966V100.385H117.773V50.1924Z"/>
</mask>
<path d="M167.966 100.385V100.908H168.489V100.385H167.966ZM167.966 50.1924H167.443V100.385H167.966H168.489V50.1924H167.966ZM167.966 100.385V99.8622H117.773V100.385V100.908H167.966V100.385Z" fill="#43A2FF" mask="url(#path-31-inside-15_1418_35045)"/>
<mask id="path-33-inside-16_1418_35045" fill="white">
<path d="M167.961 50.1926H218.154V100.385H167.961V50.1926Z"/>
</mask>
<path d="M167.961 50.1926H218.154V100.385H167.961V50.1926Z" fill="#43A2FF"/>
<path d="M218.154 100.385V100.908H218.676V100.385H218.154ZM218.154 50.1926H217.631V100.385H218.154H218.676V50.1926H218.154ZM218.154 100.385V99.8624H167.961V100.385V100.908H218.154V100.385Z" fill="#43A2FF" mask="url(#path-33-inside-16_1418_35045)"/>
<mask id="path-35-inside-17_1418_35045" fill="white">
<path d="M218.156 50.1926H268.349V100.385H218.156V50.1926Z"/>
</mask>
<path d="M268.349 100.385V100.908H268.872V100.385H268.349ZM268.349 50.1926H267.826V100.385H268.349H268.872V50.1926H268.349ZM268.349 100.385V99.8624H218.156V100.385V100.908H268.349V100.385Z" fill="#43A2FF" mask="url(#path-35-inside-17_1418_35045)"/>
<mask id="path-37-inside-18_1418_35045" fill="white">
<path d="M268.352 50.1926H318.544V100.385H268.352V50.1926Z"/>
</mask>
<path d="M318.544 100.385V100.908H319.067V100.385H318.544ZM318.544 50.1926H318.021V100.385H318.544H319.067V50.1926H318.544ZM318.544 100.385V99.8624H268.352V100.385V100.908H318.544V100.385Z" fill="#43A2FF" mask="url(#path-37-inside-18_1418_35045)"/>
<mask id="path-39-inside-19_1418_35045" fill="white">
<path d="M318.539 50.1926H368.732V100.385H318.539V50.1926Z"/>
</mask>
<path d="M368.732 100.385V100.908H369.255V100.385H368.732ZM368.732 50.1926H368.209V100.385H368.732H369.255V50.1926H368.732ZM368.732 100.385V99.8624H318.539V100.385V100.908H368.732V100.385Z" fill="#43A2FF" mask="url(#path-39-inside-19_1418_35045)"/>
<mask id="path-41-inside-20_1418_35045" fill="white">
<path d="M368.734 50.1924H418.927V100.385H368.734V50.1924Z"/>
</mask>
<path d="M418.927 100.385V100.908H419.45V100.385H418.927ZM418.927 50.1924H418.404V100.385H418.927H419.45V50.1924H418.927ZM418.927 100.385V99.8622H368.734V100.385V100.908H418.927V100.385Z" fill="#43A2FF" mask="url(#path-41-inside-20_1418_35045)"/>
<mask id="path-43-inside-21_1418_35045" fill="white">
<path d="M418.93 50.1926H469.122V100.385H418.93V50.1926Z"/>
</mask>
<path d="M469.122 100.385V100.908H469.645V100.385H469.122ZM469.122 50.1926H468.599V100.385H469.122H469.645V50.1926H469.122ZM469.122 100.385V99.8624H418.93V100.385V100.908H469.122V100.385Z" fill="#43A2FF" mask="url(#path-43-inside-21_1418_35045)"/>
<mask id="path-45-inside-22_1418_35045" fill="white">
<path d="M469.117 50.1926H519.31V100.385H469.117V50.1926Z"/>
</mask>
<path d="M519.31 100.385V100.908H519.833V100.385H519.31ZM519.31 50.1926H518.787V100.385H519.31H519.833V50.1926H519.31ZM519.31 100.385V99.8624H469.117V100.385V100.908H519.31V100.385Z" fill="#43A2FF" mask="url(#path-45-inside-22_1418_35045)"/>
<mask id="path-47-inside-23_1418_35045" fill="white">
<path d="M-32.8047 100.385H17.388V150.578H-32.8047V100.385Z"/>
</mask>
<path d="M17.388 150.578V151.101H17.9108V150.578H17.388ZM17.388 100.385H16.8651V150.578H17.388H17.9108V100.385H17.388ZM17.388 150.578V150.055H-32.8047V150.578V151.101H17.388V150.578Z" fill="#43A2FF" mask="url(#path-47-inside-23_1418_35045)"/>
<mask id="path-49-inside-24_1418_35045" fill="white">
<path d="M17.3828 100.385H67.5755V150.578H17.3828V100.385Z"/>
</mask>
<path d="M67.5755 150.578V151.101H68.0983V150.578H67.5755ZM67.5755 100.385H67.0526V150.578H67.5755H68.0983V100.385H67.5755ZM67.5755 150.578V150.055H17.3828V150.578V151.101H67.5755V150.578Z" fill="#43A2FF" mask="url(#path-49-inside-24_1418_35045)"/>
<mask id="path-51-inside-25_1418_35045" fill="white">
<path d="M67.5781 100.385H117.771V150.578H67.5781V100.385Z"/>
</mask>
<path d="M117.771 150.578V151.101H118.294V150.578H117.771ZM117.771 100.385H117.248V150.578H117.771H118.294V100.385H117.771ZM117.771 150.578V150.055H67.5781V150.578V151.101H117.771V150.578Z" fill="#43A2FF" mask="url(#path-51-inside-25_1418_35045)"/>
<mask id="path-53-inside-26_1418_35045" fill="white">
<path d="M117.773 100.385H167.966V150.578H117.773V100.385Z"/>
</mask>
<path d="M167.966 150.578V151.1H168.489V150.578H167.966ZM167.966 100.385H167.443V150.578H167.966H168.489V100.385H167.966ZM167.966 150.578V150.055H117.773V150.578V151.1H167.966V150.578Z" fill="#43A2FF" mask="url(#path-53-inside-26_1418_35045)"/>
<mask id="path-55-inside-27_1418_35045" fill="white">
<path d="M167.961 100.385H218.154V150.578H167.961V100.385Z"/>
</mask>
<path d="M218.154 150.578V151.101H218.676V150.578H218.154ZM218.154 100.385H217.631V150.578H218.154H218.676V100.385H218.154ZM218.154 150.578V150.055H167.961V150.578V151.101H218.154V150.578Z" fill="#43A2FF" mask="url(#path-55-inside-27_1418_35045)"/>
<mask id="path-57-inside-28_1418_35045" fill="white">
<path d="M218.156 100.385H268.349V150.578H218.156V100.385Z"/>
</mask>
<path d="M268.349 150.578V151.101H268.872V150.578H268.349ZM268.349 100.385H267.826V150.578H268.349H268.872V100.385H268.349ZM268.349 150.578V150.055H218.156V150.578V151.101H268.349V150.578Z" fill="#43A2FF" mask="url(#path-57-inside-28_1418_35045)"/>
<mask id="path-59-inside-29_1418_35045" fill="white">
<path d="M268.352 100.385H318.544V150.578H268.352V100.385Z"/>
</mask>
<path d="M268.352 100.385H318.544V150.578H268.352V100.385Z" fill="#43A2FF"/>
<path d="M318.544 150.578V151.101H319.067V150.578H318.544ZM318.544 100.385H318.021V150.578H318.544H319.067V100.385H318.544ZM318.544 150.578V150.055H268.352V150.578V151.101H318.544V150.578Z" fill="#43A2FF" mask="url(#path-59-inside-29_1418_35045)"/>
<mask id="path-61-inside-30_1418_35045" fill="white">
<path d="M318.539 100.385H368.732V150.578H318.539V100.385Z"/>
</mask>
<path d="M368.732 150.578V151.101H369.255V150.578H368.732ZM368.732 100.385H368.209V150.578H368.732H369.255V100.385H368.732ZM368.732 150.578V150.055H318.539V150.578V151.101H368.732V150.578Z" fill="#43A2FF" mask="url(#path-61-inside-30_1418_35045)"/>
<mask id="path-63-inside-31_1418_35045" fill="white">
<path d="M368.734 100.385H418.927V150.578H368.734V100.385Z"/>
</mask>
<path d="M418.927 150.578V151.1H419.45V150.578H418.927ZM418.927 100.385H418.404V150.578H418.927H419.45V100.385H418.927ZM418.927 150.578V150.055H368.734V150.578V151.1H418.927V150.578Z" fill="#43A2FF" mask="url(#path-63-inside-31_1418_35045)"/>
<mask id="path-65-inside-32_1418_35045" fill="white">
<path d="M418.93 100.385H469.122V150.578H418.93V100.385Z"/>
</mask>
<path d="M469.122 150.578V151.101H469.645V150.578H469.122ZM469.122 100.385H468.599V150.578H469.122H469.645V100.385H469.122ZM469.122 150.578V150.055H418.93V150.578V151.101H469.122V150.578Z" fill="#43A2FF" mask="url(#path-65-inside-32_1418_35045)"/>
<mask id="path-67-inside-33_1418_35045" fill="white">
<path d="M469.117 100.385H519.31V150.578H469.117V100.385Z"/>
</mask>
<path d="M469.117 100.385H519.31V150.578H469.117V100.385Z" fill="#43A2FF"/>
<path d="M519.31 150.578V151.101H519.833V150.578H519.31ZM519.31 100.385H518.787V150.578H519.31H519.833V100.385H519.31ZM519.31 150.578V150.055H469.117V150.578V151.101H519.31V150.578Z" fill="#43A2FF" mask="url(#path-67-inside-33_1418_35045)"/>
<mask id="path-69-inside-34_1418_35045" fill="white">
<path d="M-32.8047 150.578H17.388V200.771H-32.8047V150.578Z"/>
</mask>
<path d="M17.388 200.771V201.293H17.9108V200.771H17.388ZM17.388 150.578H16.8651V200.771H17.388H17.9108V150.578H17.388ZM17.388 200.771V200.248H-32.8047V200.771V201.293H17.388V200.771Z" fill="#43A2FF" mask="url(#path-69-inside-34_1418_35045)"/>
<mask id="path-71-inside-35_1418_35045" fill="white">
<path d="M17.3828 150.578H67.5755V200.771H17.3828V150.578Z"/>
</mask>
<path d="M17.3828 150.578H67.5755V200.771H17.3828V150.578Z" fill="#43A2FF"/>
<path d="M67.5755 200.771V201.293H68.0983V200.771H67.5755ZM67.5755 150.578H67.0526V200.771H67.5755H68.0983V150.578H67.5755ZM67.5755 200.771V200.248H17.3828V200.771V201.293H67.5755V200.771Z" fill="#43A2FF" mask="url(#path-71-inside-35_1418_35045)"/>
<mask id="path-73-inside-36_1418_35045" fill="white">
<path d="M67.5781 150.578H117.771V200.771H67.5781V150.578Z"/>
</mask>
<path d="M117.771 200.771V201.293H118.294V200.771H117.771ZM117.771 150.578H117.248V200.771H117.771H118.294V150.578H117.771ZM117.771 200.771V200.248H67.5781V200.771V201.293H117.771V200.771Z" fill="#43A2FF" mask="url(#path-73-inside-36_1418_35045)"/>
<mask id="path-75-inside-37_1418_35045" fill="white">
<path d="M117.773 150.578H167.966V200.771H117.773V150.578Z"/>
</mask>
<path d="M167.966 200.771V201.294H168.489V200.771H167.966ZM167.966 150.578H167.443V200.771H167.966H168.489V150.578H167.966ZM167.966 200.771V200.248H117.773V200.771V201.294H167.966V200.771Z" fill="#43A2FF" mask="url(#path-75-inside-37_1418_35045)"/>
<mask id="path-77-inside-38_1418_35045" fill="white">
<path d="M167.961 150.578H218.154V200.771H167.961V150.578Z"/>
</mask>
<path d="M218.154 200.771V201.293H218.676V200.771H218.154ZM218.154 150.578H217.631V200.771H218.154H218.676V150.578H218.154ZM218.154 200.771V200.248H167.961V200.771V201.293H218.154V200.771Z" fill="#43A2FF" mask="url(#path-77-inside-38_1418_35045)"/>
<mask id="path-79-inside-39_1418_35045" fill="white">
<path d="M218.156 150.578H268.349V200.771H218.156V150.578Z"/>
</mask>
<path d="M268.349 200.771V201.293H268.872V200.771H268.349ZM268.349 150.578H267.826V200.771H268.349H268.872V150.578H268.349ZM268.349 200.771V200.248H218.156V200.771V201.293H268.349V200.771Z" fill="#43A2FF" mask="url(#path-79-inside-39_1418_35045)"/>
<mask id="path-81-inside-40_1418_35045" fill="white">
<path d="M268.352 150.578H318.544V200.771H268.352V150.578Z"/>
</mask>
<path d="M318.544 200.771V201.293H319.067V200.771H318.544ZM318.544 150.578H318.021V200.771H318.544H319.067V150.578H318.544ZM318.544 200.771V200.248H268.352V200.771V201.293H318.544V200.771Z" fill="#43A2FF" mask="url(#path-81-inside-40_1418_35045)"/>
<mask id="path-83-inside-41_1418_35045" fill="white">
<path d="M318.539 150.578H368.732V200.771H318.539V150.578Z"/>
</mask>
<path d="M368.732 200.771V201.293H369.255V200.771H368.732ZM368.732 150.578H368.209V200.771H368.732H369.255V150.578H368.732ZM368.732 200.771V200.248H318.539V200.771V201.293H368.732V200.771Z" fill="#43A2FF" mask="url(#path-83-inside-41_1418_35045)"/>
<mask id="path-85-inside-42_1418_35045" fill="white">
<path d="M368.734 150.578H418.927V200.771H368.734V150.578Z"/>
</mask>
<path d="M418.927 200.771V201.294H419.45V200.771H418.927ZM418.927 150.578H418.404V200.771H418.927H419.45V150.578H418.927ZM418.927 200.771V200.248H368.734V200.771V201.294H418.927V200.771Z" fill="#43A2FF" mask="url(#path-85-inside-42_1418_35045)"/>
<mask id="path-87-inside-43_1418_35045" fill="white">
<path d="M418.93 150.578H469.122V200.771H418.93V150.578Z"/>
</mask>
<path d="M469.122 200.771V201.293H469.645V200.771H469.122ZM469.122 150.578H468.599V200.771H469.122H469.645V150.578H469.122ZM469.122 200.771V200.248H418.93V200.771V201.293H469.122V200.771Z" fill="#43A2FF" mask="url(#path-87-inside-43_1418_35045)"/>
<mask id="path-89-inside-44_1418_35045" fill="white">
<path d="M469.117 150.578H519.31V200.771H469.117V150.578Z"/>
</mask>
<path d="M519.31 200.771V201.293H519.833V200.771H519.31ZM519.31 150.578H518.787V200.771H519.31H519.833V150.578H519.31ZM519.31 200.771V200.248H469.117V200.771V201.293H519.31V200.771Z" fill="#43A2FF" mask="url(#path-89-inside-44_1418_35045)"/>
<mask id="path-91-inside-45_1418_35045" fill="white">
<path d="M-32.8047 200.771H17.388V250.963H-32.8047V200.771Z"/>
</mask>
<path d="M17.388 250.963V251.486H17.9108V250.963H17.388ZM17.388 200.771H16.8651V250.963H17.388H17.9108V200.771H17.388ZM17.388 250.963V250.44H-32.8047V250.963V251.486H17.388V250.963Z" fill="#43A2FF" mask="url(#path-91-inside-45_1418_35045)"/>
<mask id="path-93-inside-46_1418_35045" fill="white">
<path d="M17.3828 200.771H67.5755V250.963H17.3828V200.771Z"/>
</mask>
<path d="M67.5755 250.963V251.486H68.0983V250.963H67.5755ZM67.5755 200.771H67.0526V250.963H67.5755H68.0983V200.771H67.5755ZM67.5755 250.963V250.44H17.3828V250.963V251.486H67.5755V250.963Z" fill="#43A2FF" mask="url(#path-93-inside-46_1418_35045)"/>
<mask id="path-95-inside-47_1418_35045" fill="white">
<path d="M67.5781 200.771H117.771V250.963H67.5781V200.771Z"/>
</mask>
<path d="M117.771 250.963V251.486H118.294V250.963H117.771ZM117.771 200.771H117.248V250.963H117.771H118.294V200.771H117.771ZM117.771 250.963V250.44H67.5781V250.963V251.486H117.771V250.963Z" fill="#43A2FF" mask="url(#path-95-inside-47_1418_35045)"/>
<mask id="path-97-inside-48_1418_35045" fill="white">
<path d="M117.773 200.771H167.966V250.963H117.773V200.771Z"/>
</mask>
<path d="M167.966 250.963V251.486H168.489V250.963H167.966ZM167.966 200.771H167.443V250.963H167.966H168.489V200.771H167.966ZM167.966 250.963V250.441H117.773V250.963V251.486H167.966V250.963Z" fill="#43A2FF" mask="url(#path-97-inside-48_1418_35045)"/>
<mask id="path-99-inside-49_1418_35045" fill="white">
<path d="M167.961 200.771H218.154V250.963H167.961V200.771Z"/>
</mask>
<path d="M218.154 250.963V251.486H218.676V250.963H218.154ZM218.154 200.771H217.631V250.963H218.154H218.676V200.771H218.154ZM218.154 250.963V250.44H167.961V250.963V251.486H218.154V250.963Z" fill="#43A2FF" mask="url(#path-99-inside-49_1418_35045)"/>
<mask id="path-101-inside-50_1418_35045" fill="white">
<path d="M218.156 200.771H268.349V250.963H218.156V200.771Z"/>
</mask>
<path d="M268.349 250.963V251.486H268.872V250.963H268.349ZM268.349 200.771H267.826V250.963H268.349H268.872V200.771H268.349ZM268.349 250.963V250.44H218.156V250.963V251.486H268.349V250.963Z" fill="#43A2FF" mask="url(#path-101-inside-50_1418_35045)"/>
<mask id="path-103-inside-51_1418_35045" fill="white">
<path d="M268.352 200.771H318.544V250.963H268.352V200.771Z"/>
</mask>
<path d="M318.544 250.963V251.486H319.067V250.963H318.544ZM318.544 200.771H318.021V250.963H318.544H319.067V200.771H318.544ZM318.544 250.963V250.44H268.352V250.963V251.486H318.544V250.963Z" fill="#43A2FF" mask="url(#path-103-inside-51_1418_35045)"/>
<mask id="path-105-inside-52_1418_35045" fill="white">
<path d="M318.539 200.771H368.732V250.963H318.539V200.771Z"/>
</mask>
<path d="M318.539 200.771H368.732V250.963H318.539V200.771Z" fill="#43A2FF"/>
<path d="M368.732 250.963V251.486H369.255V250.963H368.732ZM368.732 200.771H368.209V250.963H368.732H369.255V200.771H368.732ZM368.732 250.963V250.44H318.539V250.963V251.486H368.732V250.963Z" fill="#43A2FF" mask="url(#path-105-inside-52_1418_35045)"/>
<mask id="path-107-inside-53_1418_35045" fill="white">
<path d="M368.734 200.771H418.927V250.963H368.734V200.771Z"/>
</mask>
<path d="M418.927 250.963V251.486H419.45V250.963H418.927ZM418.927 200.771H418.404V250.963H418.927H419.45V200.771H418.927ZM418.927 250.963V250.441H368.734V250.963V251.486H418.927V250.963Z" fill="#43A2FF" mask="url(#path-107-inside-53_1418_35045)"/>
<mask id="path-109-inside-54_1418_35045" fill="white">
<path d="M418.93 200.771H469.122V250.963H418.93V200.771Z"/>
</mask>
<path d="M469.122 250.963V251.486H469.645V250.963H469.122ZM469.122 200.771H468.599V250.963H469.122H469.645V200.771H469.122ZM469.122 250.963V250.44H418.93V250.963V251.486H469.122V250.963Z" fill="#43A2FF" mask="url(#path-109-inside-54_1418_35045)"/>
<mask id="path-111-inside-55_1418_35045" fill="white">
<path d="M469.117 200.771H519.31V250.963H469.117V200.771Z"/>
</mask>
<path d="M519.31 250.963V251.486H519.833V250.963H519.31ZM519.31 200.771H518.787V250.963H519.31H519.833V200.771H519.31ZM519.31 250.963V250.44H469.117V250.963V251.486H519.31V250.963Z" fill="#43A2FF" mask="url(#path-111-inside-55_1418_35045)"/>
<mask id="path-113-inside-56_1418_35045" fill="white">
<path d="M-32.8047 250.963H17.388V301.156H-32.8047V250.963Z"/>
</mask>
<path d="M17.388 301.156V301.679H17.9108V301.156H17.388ZM17.388 250.963H16.8651V301.156H17.388H17.9108V250.963H17.388ZM17.388 301.156V300.633H-32.8047V301.156V301.679H17.388V301.156Z" fill="#43A2FF" mask="url(#path-113-inside-56_1418_35045)"/>
<mask id="path-115-inside-57_1418_35045" fill="white">
<path d="M17.3828 250.963H67.5755V301.156H17.3828V250.963Z"/>
</mask>
<path d="M67.5755 301.156V301.679H68.0983V301.156H67.5755ZM67.5755 250.963H67.0526V301.156H67.5755H68.0983V250.963H67.5755ZM67.5755 301.156V300.633H17.3828V301.156V301.679H67.5755V301.156Z" fill="#43A2FF" mask="url(#path-115-inside-57_1418_35045)"/>
<mask id="path-117-inside-58_1418_35045" fill="white">
<path d="M67.5781 250.963H117.771V301.156H67.5781V250.963Z"/>
</mask>
<path d="M117.771 301.156V301.679H118.294V301.156H117.771ZM117.771 250.963H117.248V301.156H117.771H118.294V250.963H117.771ZM117.771 301.156V300.633H67.5781V301.156V301.679H117.771V301.156Z" fill="#43A2FF" mask="url(#path-117-inside-58_1418_35045)"/>
<mask id="path-119-inside-59_1418_35045" fill="white">
<path d="M117.773 250.963H167.966V301.156H117.773V250.963Z"/>
</mask>
<path d="M167.966 301.156V301.679H168.489V301.156H167.966ZM167.966 250.963H167.443V301.156H167.966H168.489V250.963H167.966ZM167.966 301.156V300.633H117.773V301.156V301.679H167.966V301.156Z" fill="#43A2FF" mask="url(#path-119-inside-59_1418_35045)"/>
<mask id="path-121-inside-60_1418_35045" fill="white">
<path d="M167.961 250.963H218.154V301.156H167.961V250.963Z"/>
</mask>
<path d="M167.961 250.963H218.154V301.156H167.961V250.963Z" fill="#43A2FF"/>
<path d="M218.154 301.156V301.679H218.676V301.156H218.154ZM218.154 250.963H217.631V301.156H218.154H218.676V250.963H218.154ZM218.154 301.156V300.633H167.961V301.156V301.679H218.154V301.156Z" fill="#43A2FF" mask="url(#path-121-inside-60_1418_35045)"/>
<mask id="path-123-inside-61_1418_35045" fill="white">
<path d="M218.156 250.963H268.349V301.156H218.156V250.963Z"/>
</mask>
<path d="M268.349 301.156V301.679H268.872V301.156H268.349ZM268.349 250.963H267.826V301.156H268.349H268.872V250.963H268.349ZM268.349 301.156V300.633H218.156V301.156V301.679H268.349V301.156Z" fill="#43A2FF" mask="url(#path-123-inside-61_1418_35045)"/>
<mask id="path-125-inside-62_1418_35045" fill="white">
<path d="M268.352 250.963H318.544V301.156H268.352V250.963Z"/>
</mask>
<path d="M318.544 301.156V301.679H319.067V301.156H318.544ZM318.544 250.963H318.021V301.156H318.544H319.067V250.963H318.544ZM318.544 301.156V300.633H268.352V301.156V301.679H318.544V301.156Z" fill="#43A2FF" mask="url(#path-125-inside-62_1418_35045)"/>
<mask id="path-127-inside-63_1418_35045" fill="white">
<path d="M318.539 250.963H368.732V301.156H318.539V250.963Z"/>
</mask>
<path d="M368.732 301.156V301.679H369.255V301.156H368.732ZM368.732 250.963H368.209V301.156H368.732H369.255V250.963H368.732ZM368.732 301.156V300.633H318.539V301.156V301.679H368.732V301.156Z" fill="#43A2FF" mask="url(#path-127-inside-63_1418_35045)"/>
<mask id="path-129-inside-64_1418_35045" fill="white">
<path d="M368.734 250.963H418.927V301.156H368.734V250.963Z"/>
</mask>
<path d="M418.927 301.156V301.679H419.45V301.156H418.927ZM418.927 250.963H418.404V301.156H418.927H419.45V250.963H418.927ZM418.927 301.156V300.633H368.734V301.156V301.679H418.927V301.156Z" fill="#43A2FF" mask="url(#path-129-inside-64_1418_35045)"/>
<mask id="path-131-inside-65_1418_35045" fill="white">
<path d="M418.93 250.963H469.122V301.156H418.93V250.963Z"/>
</mask>
<path d="M469.122 301.156V301.679H469.645V301.156H469.122ZM469.122 250.963H468.599V301.156H469.122H469.645V250.963H469.122ZM469.122 301.156V300.633H418.93V301.156V301.679H469.122V301.156Z" fill="#43A2FF" mask="url(#path-131-inside-65_1418_35045)"/>
<mask id="path-133-inside-66_1418_35045" fill="white">
<path d="M469.117 250.963H519.31V301.156H469.117V250.963Z"/>
</mask>
<path d="M469.117 250.963H519.31V301.156H469.117V250.963Z" fill="#43A2FF"/>
<path d="M519.31 301.156V301.679H519.833V301.156H519.31ZM519.31 250.963H518.787V301.156H519.31H519.833V250.963H519.31ZM519.31 301.156V300.633H469.117V301.156V301.679H519.31V301.156Z" fill="#43A2FF" mask="url(#path-133-inside-66_1418_35045)"/>
<mask id="path-135-inside-67_1418_35045" fill="white">
<path d="M-32.8047 301.156H17.388V351.348H-32.8047V301.156Z"/>
</mask>
<path d="M17.388 351.348V351.871H17.9108V351.348H17.388ZM17.388 301.156H16.8651V351.348H17.388H17.9108V301.156H17.388ZM17.388 351.348V350.826H-32.8047V351.348V351.871H17.388V351.348Z" fill="#43A2FF" mask="url(#path-135-inside-67_1418_35045)"/>
<mask id="path-137-inside-68_1418_35045" fill="white">
<path d="M17.3828 301.156H67.5755V351.348H17.3828V301.156Z"/>
</mask>
<path d="M67.5755 351.348V351.871H68.0983V351.348H67.5755ZM67.5755 301.156H67.0526V351.348H67.5755H68.0983V301.156H67.5755ZM67.5755 351.348V350.826H17.3828V351.348V351.871H67.5755V351.348Z" fill="#43A2FF" mask="url(#path-137-inside-68_1418_35045)"/>
<mask id="path-139-inside-69_1418_35045" fill="white">
<path d="M67.5781 301.156H117.771V351.348H67.5781V301.156Z"/>
</mask>
<path d="M67.5781 301.156H117.771V351.348H67.5781V301.156Z" fill="#43A2FF"/>
<path d="M117.771 351.348V351.871H118.294V351.348H117.771ZM117.771 301.156H117.248V351.348H117.771H118.294V301.156H117.771ZM117.771 351.348V350.826H67.5781V351.348V351.871H117.771V351.348Z" fill="#43A2FF" mask="url(#path-139-inside-69_1418_35045)"/>
<mask id="path-141-inside-70_1418_35045" fill="white">
<path d="M117.773 301.156H167.966V351.349H117.773V301.156Z"/>
</mask>
<path d="M167.966 351.349V351.871H168.489V351.349H167.966ZM167.966 301.156H167.443V351.349H167.966H168.489V301.156H167.966ZM167.966 351.349V350.826H117.773V351.349V351.871H167.966V351.349Z" fill="#43A2FF" mask="url(#path-141-inside-70_1418_35045)"/>
<mask id="path-143-inside-71_1418_35045" fill="white">
<path d="M167.961 301.156H218.154V351.348H167.961V301.156Z"/>
</mask>
<path d="M218.154 351.348V351.871H218.676V351.348H218.154ZM218.154 301.156H217.631V351.348H218.154H218.676V301.156H218.154ZM218.154 351.348V350.826H167.961V351.348V351.871H218.154V351.348Z" fill="#43A2FF" mask="url(#path-143-inside-71_1418_35045)"/>
<mask id="path-145-inside-72_1418_35045" fill="white">
<path d="M218.156 301.156H268.349V351.348H218.156V301.156Z"/>
</mask>
<path d="M268.349 351.348V351.871H268.872V351.348H268.349ZM268.349 301.156H267.826V351.348H268.349H268.872V301.156H268.349ZM268.349 351.348V350.826H218.156V351.348V351.871H268.349V351.348Z" fill="#43A2FF" mask="url(#path-145-inside-72_1418_35045)"/>
<mask id="path-147-inside-73_1418_35045" fill="white">
<path d="M268.352 301.156H318.544V351.348H268.352V301.156Z"/>
</mask>
<path d="M318.544 351.348V351.871H319.067V351.348H318.544ZM318.544 301.156H318.021V351.348H318.544H319.067V301.156H318.544ZM318.544 351.348V350.826H268.352V351.348V351.871H318.544V351.348Z" fill="#43A2FF" mask="url(#path-147-inside-73_1418_35045)"/>
<mask id="path-149-inside-74_1418_35045" fill="white">
<path d="M318.539 301.156H368.732V351.348H318.539V301.156Z"/>
</mask>
<path d="M368.732 351.348V351.871H369.255V351.348H368.732ZM368.732 301.156H368.209V351.348H368.732H369.255V301.156H368.732ZM368.732 351.348V350.826H318.539V351.348V351.871H368.732V351.348Z" fill="#43A2FF" mask="url(#path-149-inside-74_1418_35045)"/>
<mask id="path-151-inside-75_1418_35045" fill="white">
<path d="M368.734 301.156H418.927V351.349H368.734V301.156Z"/>
</mask>
<path d="M418.927 351.349V351.871H419.45V351.349H418.927ZM418.927 301.156H418.404V351.349H418.927H419.45V301.156H418.927ZM418.927 351.349V350.826H368.734V351.349V351.871H418.927V351.349Z" fill="#43A2FF" mask="url(#path-151-inside-75_1418_35045)"/>
<mask id="path-153-inside-76_1418_35045" fill="white">
<path d="M418.93 301.156H469.122V351.348H418.93V301.156Z"/>
</mask>
<path d="M469.122 351.348V351.871H469.645V351.348H469.122ZM469.122 301.156H468.599V351.348H469.122H469.645V301.156H469.122ZM469.122 351.348V350.826H418.93V351.348V351.871H469.122V351.348Z" fill="#43A2FF" mask="url(#path-153-inside-76_1418_35045)"/>
<mask id="path-155-inside-77_1418_35045" fill="white">
<path d="M469.117 301.156H519.31V351.348H469.117V301.156Z"/>
</mask>
<path d="M519.31 351.348V351.871H519.833V351.348H519.31ZM519.31 301.156H518.787V351.348H519.31H519.833V301.156H519.31ZM519.31 351.348V350.826H469.117V351.348V351.871H519.31V351.348Z" fill="#43A2FF" mask="url(#path-155-inside-77_1418_35045)"/>
<mask id="path-157-inside-78_1418_35045" fill="white">
<path d="M-32.8047 351.349H17.388V401.541H-32.8047V351.349Z"/>
</mask>
<path d="M17.388 401.541V402.064H17.9108V401.541H17.388ZM17.388 351.349H16.8651V401.541H17.388H17.9108V351.349H17.388ZM17.388 401.541V401.018H-32.8047V401.541V402.064H17.388V401.541Z" fill="#43A2FF" mask="url(#path-157-inside-78_1418_35045)"/>
<mask id="path-159-inside-79_1418_35045" fill="white">
<path d="M17.3828 351.349H67.5755V401.541H17.3828V351.349Z"/>
</mask>
<path d="M67.5755 401.541V402.064H68.0983V401.541H67.5755ZM67.5755 351.349H67.0526V401.541H67.5755H68.0983V351.349H67.5755ZM67.5755 401.541V401.018H17.3828V401.541V402.064H67.5755V401.541Z" fill="#43A2FF" mask="url(#path-159-inside-79_1418_35045)"/>
<mask id="path-161-inside-80_1418_35045" fill="white">
<path d="M67.5781 351.349H117.771V401.541H67.5781V351.349Z"/>
</mask>
<path d="M117.771 401.541V402.064H118.294V401.541H117.771ZM117.771 351.349H117.248V401.541H117.771H118.294V351.349H117.771ZM117.771 401.541V401.018H67.5781V401.541V402.064H117.771V401.541Z" fill="#43A2FF" mask="url(#path-161-inside-80_1418_35045)"/>
<mask id="path-163-inside-81_1418_35045" fill="white">
<path d="M117.773 351.349H167.966V401.541H117.773V351.349Z"/>
</mask>
<path d="M167.966 401.541V402.064H168.489V401.541H167.966ZM167.966 351.349H167.443V401.541H167.966H168.489V351.349H167.966ZM167.966 401.541V401.018H117.773V401.541V402.064H167.966V401.541Z" fill="#43A2FF" mask="url(#path-163-inside-81_1418_35045)"/>
<mask id="path-165-inside-82_1418_35045" fill="white">
<path d="M167.961 351.349H218.154V401.541H167.961V351.349Z"/>
</mask>
<path d="M218.154 401.541V402.064H218.676V401.541H218.154ZM218.154 351.349H217.631V401.541H218.154H218.676V351.349H218.154ZM218.154 401.541V401.018H167.961V401.541V402.064H218.154V401.541Z" fill="#43A2FF" mask="url(#path-165-inside-82_1418_35045)"/>
<mask id="path-167-inside-83_1418_35045" fill="white">
<path d="M218.156 351.349H268.349V401.541H218.156V351.349Z"/>
</mask>
<path d="M268.349 401.541V402.064H268.872V401.541H268.349ZM268.349 351.349H267.826V401.541H268.349H268.872V351.349H268.349ZM268.349 401.541V401.018H218.156V401.541V402.064H268.349V401.541Z" fill="#43A2FF" mask="url(#path-167-inside-83_1418_35045)"/>
<mask id="path-169-inside-84_1418_35045" fill="white">
<path d="M268.352 351.349H318.544V401.541H268.352V351.349Z"/>
</mask>
<path d="M318.544 401.541V402.064H319.067V401.541H318.544ZM318.544 351.349H318.021V401.541H318.544H319.067V351.349H318.544ZM318.544 401.541V401.018H268.352V401.541V402.064H318.544V401.541Z" fill="#43A2FF" mask="url(#path-169-inside-84_1418_35045)"/>
<mask id="path-171-inside-85_1418_35045" fill="white">
<path d="M318.539 351.349H368.732V401.541H318.539V351.349Z"/>
</mask>
<path d="M318.539 351.349H368.732V401.541H318.539V351.349Z" fill="#43A2FF"/>
<path d="M368.732 401.541V402.064H369.255V401.541H368.732ZM368.732 351.349H368.209V401.541H368.732H369.255V351.349H368.732ZM368.732 401.541V401.018H318.539V401.541V402.064H368.732V401.541Z" fill="#43A2FF" mask="url(#path-171-inside-85_1418_35045)"/>
<mask id="path-173-inside-86_1418_35045" fill="white">
<path d="M368.734 351.349H418.927V401.541H368.734V351.349Z"/>
</mask>
<path d="M418.927 401.541V402.064H419.45V401.541H418.927ZM418.927 351.349H418.404V401.541H418.927H419.45V351.349H418.927ZM418.927 401.541V401.018H368.734V401.541V402.064H418.927V401.541Z" fill="#43A2FF" mask="url(#path-173-inside-86_1418_35045)"/>
<mask id="path-175-inside-87_1418_35045" fill="white">
<path d="M418.93 351.349H469.122V401.541H418.93V351.349Z"/>
</mask>
<path d="M469.122 401.541V402.064H469.645V401.541H469.122ZM469.122 351.349H468.599V401.541H469.122H469.645V351.349H469.122ZM469.122 401.541V401.018H418.93V401.541V402.064H469.122V401.541Z" fill="#43A2FF" mask="url(#path-175-inside-87_1418_35045)"/>
<mask id="path-177-inside-88_1418_35045" fill="white">
<path d="M469.117 351.349H519.31V401.541H469.117V351.349Z"/>
</mask>
<path d="M519.31 401.541V402.064H519.833V401.541H519.31ZM519.31 351.349H518.787V401.541H519.31H519.833V351.349H519.31ZM519.31 401.541V401.018H469.117V401.541V402.064H519.31V401.541Z" fill="#43A2FF" mask="url(#path-177-inside-88_1418_35045)"/>
<mask id="path-179-inside-89_1418_35045" fill="white">
<path d="M-32.8047 401.541H17.388V451.734H-32.8047V401.541Z"/>
</mask>
<path d="M17.388 451.734V452.257H17.9108V451.734H17.388ZM17.388 401.541H16.8651V451.734H17.388H17.9108V401.541H17.388ZM17.388 451.734V451.211H-32.8047V451.734V452.257H17.388V451.734Z" fill="#43A2FF" mask="url(#path-179-inside-89_1418_35045)"/>
<mask id="path-181-inside-90_1418_35045" fill="white">
<path d="M17.3828 401.541H67.5755V451.734H17.3828V401.541Z"/>
</mask>
<path d="M67.5755 451.734V452.257H68.0983V451.734H67.5755ZM67.5755 401.541H67.0526V451.734H67.5755H68.0983V401.541H67.5755ZM67.5755 451.734V451.211H17.3828V451.734V452.257H67.5755V451.734Z" fill="#43A2FF" mask="url(#path-181-inside-90_1418_35045)"/>
<mask id="path-183-inside-91_1418_35045" fill="white">
<path d="M67.5781 401.541H117.771V451.734H67.5781V401.541Z"/>
</mask>
<path d="M117.771 451.734V452.257H118.294V451.734H117.771ZM117.771 401.541H117.248V451.734H117.771H118.294V401.541H117.771ZM117.771 451.734V451.211H67.5781V451.734V452.257H117.771V451.734Z" fill="#43A2FF" mask="url(#path-183-inside-91_1418_35045)"/>
<mask id="path-185-inside-92_1418_35045" fill="white">
<path d="M117.773 401.541H167.966V451.734H117.773V401.541Z"/>
</mask>
<path d="M167.966 451.734V452.257H168.489V451.734H167.966ZM167.966 401.541H167.443V451.734H167.966H168.489V401.541H167.966ZM167.966 451.734V451.211H117.773V451.734V452.257H167.966V451.734Z" fill="#43A2FF" mask="url(#path-185-inside-92_1418_35045)"/>
<mask id="path-187-inside-93_1418_35045" fill="white">
<path d="M167.961 401.541H218.154V451.734H167.961V401.541Z"/>
</mask>
<path d="M167.961 401.541H218.154V451.734H167.961V401.541Z" fill="#43A2FF"/>
<path d="M218.154 451.734V452.257H218.676V451.734H218.154ZM218.154 401.541H217.631V451.734H218.154H218.676V401.541H218.154ZM218.154 451.734V451.211H167.961V451.734V452.257H218.154V451.734Z" fill="#43A2FF" mask="url(#path-187-inside-93_1418_35045)"/>
<mask id="path-189-inside-94_1418_35045" fill="white">
<path d="M218.156 401.541H268.349V451.734H218.156V401.541Z"/>
</mask>
<path d="M268.349 451.734V452.257H268.872V451.734H268.349ZM268.349 401.541H267.826V451.734H268.349H268.872V401.541H268.349ZM268.349 451.734V451.211H218.156V451.734V452.257H268.349V451.734Z" fill="#43A2FF" mask="url(#path-189-inside-94_1418_35045)"/>
<mask id="path-191-inside-95_1418_35045" fill="white">
<path d="M268.352 401.541H318.544V451.734H268.352V401.541Z"/>
</mask>
<path d="M318.544 451.734V452.257H319.067V451.734H318.544ZM318.544 401.541H318.021V451.734H318.544H319.067V401.541H318.544ZM318.544 451.734V451.211H268.352V451.734V452.257H318.544V451.734Z" fill="#43A2FF" mask="url(#path-191-inside-95_1418_35045)"/>
<mask id="path-193-inside-96_1418_35045" fill="white">
<path d="M318.539 401.541H368.732V451.734H318.539V401.541Z"/>
</mask>
<path d="M368.732 451.734V452.257H369.255V451.734H368.732ZM368.732 401.541H368.209V451.734H368.732H369.255V401.541H368.732ZM368.732 451.734V451.211H318.539V451.734V452.257H368.732V451.734Z" fill="#43A2FF" mask="url(#path-193-inside-96_1418_35045)"/>
<mask id="path-195-inside-97_1418_35045" fill="white">
<path d="M368.734 401.541H418.927V451.734H368.734V401.541Z"/>
</mask>
<path d="M418.927 451.734V452.257H419.45V451.734H418.927ZM418.927 401.541H418.404V451.734H418.927H419.45V401.541H418.927ZM418.927 451.734V451.211H368.734V451.734V452.257H418.927V451.734Z" fill="#43A2FF" mask="url(#path-195-inside-97_1418_35045)"/>
<mask id="path-197-inside-98_1418_35045" fill="white">
<path d="M418.93 401.541H469.122V451.734H418.93V401.541Z"/>
</mask>
<path d="M469.122 451.734V452.257H469.645V451.734H469.122ZM469.122 401.541H468.599V451.734H469.122H469.645V401.541H469.122ZM469.122 451.734V451.211H418.93V451.734V452.257H469.122V451.734Z" fill="#43A2FF" mask="url(#path-197-inside-98_1418_35045)"/>
<mask id="path-199-inside-99_1418_35045" fill="white">
<path d="M469.117 401.541H519.31V451.734H469.117V401.541Z"/>
</mask>
<path d="M469.117 401.541H519.31V451.734H469.117V401.541Z" fill="#43A2FF"/>
<path d="M519.31 451.734V452.257H519.833V451.734H519.31ZM519.31 401.541H518.787V451.734H519.31H519.833V401.541H519.31ZM519.31 451.734V451.211H469.117V451.734V452.257H519.31V451.734Z" fill="#43A2FF" mask="url(#path-199-inside-99_1418_35045)"/>
<mask id="path-201-inside-100_1418_35045" fill="white">
<path d="M-32.8047 451.734H17.388V501.926H-32.8047V451.734Z"/>
</mask>
<path d="M-32.8047 451.734H17.388V501.926H-32.8047V451.734Z" fill="#43A2FF"/>
<path d="M17.388 501.926V502.449H17.9108V501.926H17.388ZM17.388 451.734H16.8651V501.926H17.388H17.9108V451.734H17.388ZM17.388 501.926V501.404H-32.8047V501.926V502.449H17.388V501.926Z" fill="#43A2FF" mask="url(#path-201-inside-100_1418_35045)"/>
<mask id="path-203-inside-101_1418_35045" fill="white">
<path d="M17.3828 451.734H67.5755V501.926H17.3828V451.734Z"/>
</mask>
<path d="M67.5755 501.926V502.449H68.0983V501.926H67.5755ZM67.5755 451.734H67.0526V501.926H67.5755H68.0983V451.734H67.5755ZM67.5755 501.926V501.404H17.3828V501.926V502.449H67.5755V501.926Z" fill="#43A2FF" mask="url(#path-203-inside-101_1418_35045)"/>
<mask id="path-205-inside-102_1418_35045" fill="white">
<path d="M67.5781 451.734H117.771V501.926H67.5781V451.734Z"/>
</mask>
<path d="M117.771 501.926V502.449H118.294V501.926H117.771ZM117.771 451.734H117.248V501.926H117.771H118.294V451.734H117.771ZM117.771 501.926V501.404H67.5781V501.926V502.449H117.771V501.926Z" fill="#43A2FF" mask="url(#path-205-inside-102_1418_35045)"/>
<mask id="path-207-inside-103_1418_35045" fill="white">
<path d="M117.773 451.734H167.966V501.926H117.773V451.734Z"/>
</mask>
<path d="M167.966 501.926V502.449H168.489V501.926H167.966ZM167.966 451.734H167.443V501.926H167.966H168.489V451.734H167.966ZM167.966 501.926V501.403H117.773V501.926V502.449H167.966V501.926Z" fill="#43A2FF" mask="url(#path-207-inside-103_1418_35045)"/>
<mask id="path-209-inside-104_1418_35045" fill="white">
<path d="M167.961 451.734H218.154V501.926H167.961V451.734Z"/>
</mask>
<path d="M218.154 501.926V502.449H218.676V501.926H218.154ZM218.154 451.734H217.631V501.926H218.154H218.676V451.734H218.154ZM218.154 501.926V501.404H167.961V501.926V502.449H218.154V501.926Z" fill="#43A2FF" mask="url(#path-209-inside-104_1418_35045)"/>
<mask id="path-211-inside-105_1418_35045" fill="white">
<path d="M218.156 451.734H268.349V501.926H218.156V451.734Z"/>
</mask>
<path d="M268.349 501.926V502.449H268.872V501.926H268.349ZM268.349 451.734H267.826V501.926H268.349H268.872V451.734H268.349ZM268.349 501.926V501.404H218.156V501.926V502.449H268.349V501.926Z" fill="#43A2FF" mask="url(#path-211-inside-105_1418_35045)"/>
<mask id="path-213-inside-106_1418_35045" fill="white">
<path d="M268.352 451.734H318.544V501.926H268.352V451.734Z"/>
</mask>
<path d="M318.544 501.926V502.449H319.067V501.926H318.544ZM318.544 451.734H318.021V501.926H318.544H319.067V451.734H318.544ZM318.544 501.926V501.404H268.352V501.926V502.449H318.544V501.926Z" fill="#43A2FF" mask="url(#path-213-inside-106_1418_35045)"/>
<mask id="path-215-inside-107_1418_35045" fill="white">
<path d="M318.539 451.734H368.732V501.926H318.539V451.734Z"/>
</mask>
<path d="M368.732 501.926V502.449H369.255V501.926H368.732ZM368.732 451.734H368.209V501.926H368.732H369.255V451.734H368.732ZM368.732 501.926V501.404H318.539V501.926V502.449H368.732V501.926Z" fill="#43A2FF" mask="url(#path-215-inside-107_1418_35045)"/>
<mask id="path-217-inside-108_1418_35045" fill="white">
<path d="M368.734 451.734H418.927V501.926H368.734V451.734Z"/>
</mask>
<path d="M418.927 501.926V502.449H419.45V501.926H418.927ZM418.927 451.734H418.404V501.926H418.927H419.45V451.734H418.927ZM418.927 501.926V501.403H368.734V501.926V502.449H418.927V501.926Z" fill="#43A2FF" mask="url(#path-217-inside-108_1418_35045)"/>
<mask id="path-219-inside-109_1418_35045" fill="white">
<path d="M418.93 451.734H469.122V501.926H418.93V451.734Z"/>
</mask>
<path d="M469.122 501.926V502.449H469.645V501.926H469.122ZM469.122 451.734H468.599V501.926H469.122H469.645V451.734H469.122ZM469.122 501.926V501.404H418.93V501.926V502.449H469.122V501.926Z" fill="#43A2FF" mask="url(#path-219-inside-109_1418_35045)"/>
<mask id="path-221-inside-110_1418_35045" fill="white">
<path d="M469.117 451.734H519.31V501.926H469.117V451.734Z"/>
</mask>
<path d="M519.31 501.926V502.449H519.833V501.926H519.31ZM519.31 451.734H518.787V501.926H519.31H519.833V451.734H519.31ZM519.31 501.926V501.404H469.117V501.926V502.449H519.31V501.926Z" fill="#43A2FF" mask="url(#path-221-inside-110_1418_35045)"/>
<mask id="path-223-inside-111_1418_35045" fill="white">
<path d="M-32.8047 501.926H17.388V552.119H-32.8047V501.926Z"/>
</mask>
<path d="M17.388 552.119V552.642H17.9108V552.119H17.388ZM17.388 501.926H16.8651V552.119H17.388H17.9108V501.926H17.388ZM17.388 552.119V551.596H-32.8047V552.119V552.642H17.388V552.119Z" fill="#43A2FF" mask="url(#path-223-inside-111_1418_35045)"/>
<mask id="path-225-inside-112_1418_35045" fill="white">
<path d="M17.3828 501.926H67.5755V552.119H17.3828V501.926Z"/>
</mask>
<path d="M67.5755 552.119V552.642H68.0983V552.119H67.5755ZM67.5755 501.926H67.0526V552.119H67.5755H68.0983V501.926H67.5755ZM67.5755 552.119V551.596H17.3828V552.119V552.642H67.5755V552.119Z" fill="#43A2FF" mask="url(#path-225-inside-112_1418_35045)"/>
<mask id="path-227-inside-113_1418_35045" fill="white">
<path d="M67.5781 501.926H117.771V552.119H67.5781V501.926Z"/>
</mask>
<path d="M117.771 552.119V552.642H118.294V552.119H117.771ZM117.771 501.926H117.248V552.119H117.771H118.294V501.926H117.771ZM117.771 552.119V551.596H67.5781V552.119V552.642H117.771V552.119Z" fill="#43A2FF" mask="url(#path-227-inside-113_1418_35045)"/>
<mask id="path-229-inside-114_1418_35045" fill="white">
<path d="M117.773 501.926H167.966V552.119H117.773V501.926Z"/>
</mask>
<path d="M167.966 552.119V552.642H168.489V552.119H167.966ZM167.966 501.926H167.443V552.119H167.966H168.489V501.926H167.966ZM167.966 552.119V551.596H117.773V552.119V552.642H167.966V552.119Z" fill="#43A2FF" mask="url(#path-229-inside-114_1418_35045)"/>
<mask id="path-231-inside-115_1418_35045" fill="white">
<path d="M167.961 501.926H218.154V552.119H167.961V501.926Z"/>
</mask>
<path d="M218.154 552.119V552.642H218.676V552.119H218.154ZM218.154 501.926H217.631V552.119H218.154H218.676V501.926H218.154ZM218.154 552.119V551.596H167.961V552.119V552.642H218.154V552.119Z" fill="#43A2FF" mask="url(#path-231-inside-115_1418_35045)"/>
<mask id="path-233-inside-116_1418_35045" fill="white">
<path d="M218.156 501.926H268.349V552.119H218.156V501.926Z"/>
</mask>
<path d="M218.156 501.926H268.349V552.119H218.156V501.926Z" fill="#43A2FF"/>
<path d="M268.349 552.119V552.642H268.872V552.119H268.349ZM268.349 501.926H267.826V552.119H268.349H268.872V501.926H268.349ZM268.349 552.119V551.596H218.156V552.119V552.642H268.349V552.119Z" fill="#43A2FF" mask="url(#path-233-inside-116_1418_35045)"/>
<mask id="path-235-inside-117_1418_35045" fill="white">
<path d="M268.352 501.926H318.544V552.119H268.352V501.926Z"/>
</mask>
<path d="M318.544 552.119V552.642H319.067V552.119H318.544ZM318.544 501.926H318.021V552.119H318.544H319.067V501.926H318.544ZM318.544 552.119V551.596H268.352V552.119V552.642H318.544V552.119Z" fill="#43A2FF" mask="url(#path-235-inside-117_1418_35045)"/>
<mask id="path-237-inside-118_1418_35045" fill="white">
<path d="M318.539 501.926H368.732V552.119H318.539V501.926Z"/>
</mask>
<path d="M368.732 552.119V552.642H369.255V552.119H368.732ZM368.732 501.926H368.209V552.119H368.732H369.255V501.926H368.732ZM368.732 552.119V551.596H318.539V552.119V552.642H368.732V552.119Z" fill="#43A2FF" mask="url(#path-237-inside-118_1418_35045)"/>
<mask id="path-239-inside-119_1418_35045" fill="white">
<path d="M368.734 501.926H418.927V552.119H368.734V501.926Z"/>
</mask>
<path d="M418.927 552.119V552.642H419.45V552.119H418.927ZM418.927 501.926H418.404V552.119H418.927H419.45V501.926H418.927ZM418.927 552.119V551.596H368.734V552.119V552.642H418.927V552.119Z" fill="#43A2FF" mask="url(#path-239-inside-119_1418_35045)"/>
<mask id="path-241-inside-120_1418_35045" fill="white">
<path d="M418.93 501.926H469.122V552.119H418.93V501.926Z"/>
</mask>
<path d="M418.93 501.926H469.122V552.119H418.93V501.926Z" fill="#43A2FF"/>
<path d="M469.122 552.119V552.642H469.645V552.119H469.122ZM469.122 501.926H468.599V552.119H469.122H469.645V501.926H469.122ZM469.122 552.119V551.596H418.93V552.119V552.642H469.122V552.119Z" fill="#43A2FF" mask="url(#path-241-inside-120_1418_35045)"/>
<mask id="path-243-inside-121_1418_35045" fill="white">
<path d="M469.117 501.926H519.31V552.119H469.117V501.926Z"/>
</mask>
<path d="M519.31 552.119V552.642H519.833V552.119H519.31ZM519.31 501.926H518.787V552.119H519.31H519.833V501.926H519.31ZM519.31 552.119V551.596H469.117V552.119V552.642H519.31V552.119Z" fill="#43A2FF" mask="url(#path-243-inside-121_1418_35045)"/>
<mask id="path-245-inside-122_1418_35045" fill="white">
<path d="M-32.8047 552.119H17.388V602.312H-32.8047V552.119Z"/>
</mask>
<path d="M17.388 602.312V602.835H17.9108V602.312H17.388ZM17.388 552.119H16.8651V602.312H17.388H17.9108V552.119H17.388ZM17.388 602.312V601.789H-32.8047V602.312V602.835H17.388V602.312Z" fill="#43A2FF" mask="url(#path-245-inside-122_1418_35045)"/>
<mask id="path-247-inside-123_1418_35045" fill="white">
<path d="M17.3828 552.119H67.5755V602.312H17.3828V552.119Z"/>
</mask>
<path d="M17.3828 552.119H67.5755V602.312H17.3828V552.119Z" fill="#43A2FF"/>
<path d="M67.5755 602.312V602.835H68.0983V602.312H67.5755ZM67.5755 552.119H67.0526V602.312H67.5755H68.0983V552.119H67.5755ZM67.5755 602.312V601.789H17.3828V602.312V602.835H67.5755V602.312Z" fill="#43A2FF" mask="url(#path-247-inside-123_1418_35045)"/>
<mask id="path-249-inside-124_1418_35045" fill="white">
<path d="M67.5781 552.119H117.771V602.312H67.5781V552.119Z"/>
</mask>
<path d="M117.771 602.312V602.835H118.294V602.312H117.771ZM117.771 552.119H117.248V602.312H117.771H118.294V552.119H117.771ZM117.771 602.312V601.789H67.5781V602.312V602.835H117.771V602.312Z" fill="#43A2FF" mask="url(#path-249-inside-124_1418_35045)"/>
<mask id="path-251-inside-125_1418_35045" fill="white">
<path d="M117.773 552.119H167.966V602.311H117.773V552.119Z"/>
</mask>
<path d="M167.966 602.311V602.834H168.489V602.311H167.966ZM167.966 552.119H167.443V602.311H167.966H168.489V552.119H167.966ZM167.966 602.311V601.789H117.773V602.311V602.834H167.966V602.311Z" fill="#43A2FF" mask="url(#path-251-inside-125_1418_35045)"/>
<mask id="path-253-inside-126_1418_35045" fill="white">
<path d="M167.961 552.119H218.154V602.312H167.961V552.119Z"/>
</mask>
<path d="M218.154 602.312V602.835H218.676V602.312H218.154ZM218.154 552.119H217.631V602.312H218.154H218.676V552.119H218.154ZM218.154 602.312V601.789H167.961V602.312V602.835H218.154V602.312Z" fill="#43A2FF" mask="url(#path-253-inside-126_1418_35045)"/>
<mask id="path-255-inside-127_1418_35045" fill="white">
<path d="M218.156 552.119H268.349V602.312H218.156V552.119Z"/>
</mask>
<path d="M268.349 602.312V602.835H268.872V602.312H268.349ZM268.349 552.119H267.826V602.312H268.349H268.872V552.119H268.349ZM268.349 602.312V601.789H218.156V602.312V602.835H268.349V602.312Z" fill="#43A2FF" mask="url(#path-255-inside-127_1418_35045)"/>
<mask id="path-257-inside-128_1418_35045" fill="white">
<path d="M268.352 552.119H318.544V602.312H268.352V552.119Z"/>
</mask>
<path d="M318.544 602.312V602.835H319.067V602.312H318.544ZM318.544 552.119H318.021V602.312H318.544H319.067V552.119H318.544ZM318.544 602.312V601.789H268.352V602.312V602.835H318.544V602.312Z" fill="#43A2FF" mask="url(#path-257-inside-128_1418_35045)"/>
<mask id="path-259-inside-129_1418_35045" fill="white">
<path d="M318.539 552.119H368.732V602.312H318.539V552.119Z"/>
</mask>
<path d="M368.732 602.312V602.835H369.255V602.312H368.732ZM368.732 552.119H368.209V602.312H368.732H369.255V552.119H368.732ZM368.732 602.312V601.789H318.539V602.312V602.835H368.732V602.312Z" fill="#43A2FF" mask="url(#path-259-inside-129_1418_35045)"/>
<mask id="path-261-inside-130_1418_35045" fill="white">
<path d="M368.734 552.119H418.927V602.311H368.734V552.119Z"/>
</mask>
<path d="M418.927 602.311V602.834H419.45V602.311H418.927ZM418.927 552.119H418.404V602.311H418.927H419.45V552.119H418.927ZM418.927 602.311V601.789H368.734V602.311V602.834H418.927V602.311Z" fill="#43A2FF" mask="url(#path-261-inside-130_1418_35045)"/>
<mask id="path-263-inside-131_1418_35045" fill="white">
<path d="M418.93 552.119H469.122V602.312H418.93V552.119Z"/>
</mask>
<path d="M469.122 602.312V602.835H469.645V602.312H469.122ZM469.122 552.119H468.599V602.312H469.122H469.645V552.119H469.122ZM469.122 602.312V601.789H418.93V602.312V602.835H469.122V602.312Z" fill="#43A2FF" mask="url(#path-263-inside-131_1418_35045)"/>
<mask id="path-265-inside-132_1418_35045" fill="white">
<path d="M469.117 552.119H519.31V602.312H469.117V552.119Z"/>
</mask>
<path d="M519.31 602.312V602.835H519.833V602.312H519.31ZM519.31 552.119H518.787V602.312H519.31H519.833V552.119H519.31ZM519.31 602.312V601.789H469.117V602.312V602.835H519.31V602.312Z" fill="#43A2FF" mask="url(#path-265-inside-132_1418_35045)"/>
</g>
<rect x="-82.7386" y="0.26142" width="593.477" height="591.477" stroke="#43A2FF" stroke-width="0.52284"/>
</g>
</g>
<defs>
<radialGradient id="paint0_radial_1418_35045" cx="0" cy="0" r="1" gradientUnits="userSpaceOnUse" gradientTransform="translate(376.445 -7.46059e-05) rotate(90) scale(625.84 392.96)">
<stop/>
<stop offset="0.953125" stop-opacity="0"/>
</radialGradient>
<clipPath id="clip0_1418_35045">
<rect width="528" height="567" fill="white"/>
</clipPath>
<clipPath id="clip1_1418_35045">
<rect x="-83" width="594" height="592" fill="white"/>
</clipPath>
</defs>
</svg>
