<svg width="25" height="25" viewBox="0 0 25 25" fill="none" xmlns="http://www.w3.org/2000/svg">
<path d="M22.4149 10.6506H21.6094V10.6091H12.6094V14.6091H18.2609C17.4364 16.9376 15.2209 18.6091 12.6094 18.6091C9.29588 18.6091 6.60938 15.9226 6.60938 12.6091C6.60938 9.29563 9.29588 6.60913 12.6094 6.60913C14.1389 6.60913 15.5304 7.18613 16.5899 8.12863L19.4184 5.30013C17.6324 3.63563 15.2434 2.60913 12.6094 2.60913C7.08687 2.60913 2.60938 7.08663 2.60938 12.6091C2.60938 18.1316 7.08687 22.6091 12.6094 22.6091C18.1319 22.6091 22.6094 18.1316 22.6094 12.6091C22.6094 11.9386 22.5404 11.2841 22.4149 10.6506Z" fill="#FFC107"/>
<path d="M3.76562 7.95463L7.05112 10.3641C7.94012 8.16313 10.0931 6.60913 12.6126 6.60913C14.1421 6.60913 15.5336 7.18613 16.5931 8.12863L19.4216 5.30013C17.6356 3.63563 15.2466 2.60913 12.6126 2.60913C8.77163 2.60913 5.44062 4.77763 3.76562 7.95463Z" fill="#FF3D00"/>
<path d="M12.6056 22.6091C15.1886 22.6091 17.5356 21.6206 19.3101 20.0131L16.2151 17.3941C15.1776 18.1836 13.9094 18.6105 12.6056 18.6091C10.0046 18.6091 7.79612 16.9506 6.96412 14.6361L3.70312 17.1486C5.35812 20.3871 8.71913 22.6091 12.6056 22.6091Z" fill="#4CAF50"/>
<path d="M22.4149 10.6506H21.6094V10.6091H12.6094V14.6091H18.2609C17.8665 15.7173 17.1561 16.6857 16.2174 17.3946L16.2189 17.3936L19.3139 20.0126C19.0949 20.2116 22.6094 17.6091 22.6094 12.6091C22.6094 11.9386 22.5404 11.2841 22.4149 10.6506Z" fill="#1976D2"/>
</svg>
