<svg width="16" height="16" viewBox="0 0 16 16" fill="none" xmlns="http://www.w3.org/2000/svg">
<path fill-rule="evenodd" clip-rule="evenodd" d="M9.63828 1.97965C9.83335 1.78419 10.1499 1.78388 10.3454 1.97895L13.6921 5.31895C13.8875 5.51401 13.8878 5.8306 13.6928 6.02605C13.4977 6.22151 13.1811 6.22182 12.9857 6.02676L9.63899 2.68676C9.44353 2.49169 9.44321 2.17511 9.63828 1.97965Z" fill="white"/>
<path fill-rule="evenodd" clip-rule="evenodd" d="M9.99219 14.167C9.71605 14.167 9.49219 13.9431 9.49219 13.667L9.49219 2.33366C9.49219 2.05752 9.71604 1.83366 9.99219 1.83366C10.2683 1.83366 10.4922 2.05752 10.4922 2.33366L10.4922 13.667C10.4922 13.9431 10.2683 14.167 9.99219 14.167Z" fill="white"/>
<path fill-rule="evenodd" clip-rule="evenodd" d="M2.30625 9.97379C2.50132 9.77833 2.8179 9.77802 3.01336 9.97309L6.36002 13.3131C6.55548 13.5082 6.5558 13.8247 6.36073 14.0202C6.16566 14.2156 5.84908 14.216 5.65362 14.0209L2.30696 10.6809C2.1115 10.4858 2.11118 10.1692 2.30625 9.97379Z" fill="white"/>
<path fill-rule="evenodd" clip-rule="evenodd" d="M6.00781 14.167C5.73167 14.167 5.50781 13.9431 5.50781 13.667L5.50781 2.33366C5.50781 2.05752 5.73167 1.83366 6.00781 1.83366C6.28395 1.83366 6.50781 2.05752 6.50781 2.33366L6.50781 13.667C6.50781 13.9431 6.28395 14.167 6.00781 14.167Z" fill="white"/>
</svg>
