<svg width="528" height="567" viewBox="0 0 528 567" fill="none" xmlns="http://www.w3.org/2000/svg">
<g opacity="0.5" clip-path="url(#clip0_1454_18750)">
<mask id="mask0_1454_18750" style="mask-type:alpha" maskUnits="userSpaceOnUse" x="-113" y="0" width="754" height="753">
<rect width="752.89" height="625.84" transform="translate(-112.047)" fill="url(#paint0_radial_1454_18750)"/>
</mask>
<g mask="url(#mask0_1454_18750)">
<g clip-path="url(#clip1_1454_18750)">
<mask id="path-3-inside-1_1454_18750" fill="white">
<path d="M-47.0352 -47.4219H3.15749V2.77077H-47.0352V-47.4219Z"/>
</mask>
<path d="M3.15749 2.77077V3.29361H3.68033V2.77077H3.15749ZM3.15749 -47.4219H2.63465V2.77077H3.15749H3.68033V-47.4219H3.15749ZM3.15749 2.77077V2.24793H-47.0352V2.77077V3.29361H3.15749V2.77077Z" fill="#43A2FF" mask="url(#path-3-inside-1_1454_18750)"/>
<mask id="path-5-inside-2_1454_18750" fill="white">
<path d="M3.15625 -47.4219H53.3489V2.77077H3.15625V-47.4219Z"/>
</mask>
<path d="M53.3489 2.77077V3.29361H53.8717V2.77077H53.3489ZM53.3489 -47.4219H52.8261V2.77077H53.3489H53.8717V-47.4219H53.3489ZM53.3489 2.77077V2.24793H3.15625V2.77077V3.29361H53.3489V2.77077Z" fill="#43A2FF" mask="url(#path-5-inside-2_1454_18750)"/>
<mask id="path-7-inside-3_1454_18750" fill="white">
<path d="M53.3477 -47.4219H103.54V2.77077H53.3477V-47.4219Z"/>
</mask>
<path d="M103.54 2.77077V3.29361H104.063V2.77077H103.54ZM103.54 -47.4219H103.017V2.77077H103.54H104.063V-47.4219H103.54ZM103.54 2.77077V2.24793H53.3477V2.77077V3.29361H103.54V2.77077Z" fill="#43A2FF" mask="url(#path-7-inside-3_1454_18750)"/>
<mask id="path-9-inside-4_1454_18750" fill="white">
<path d="M103.543 -47.4219H153.736V2.77077H103.543V-47.4219Z"/>
</mask>
<path d="M153.736 2.77077V3.29361H154.258V2.77077H153.736ZM153.736 -47.4219H153.213V2.77077H153.736H154.258V-47.4219H153.736ZM153.736 2.77077V2.24793H103.543V2.77077V3.29361H153.736V2.77077Z" fill="#43A2FF" mask="url(#path-9-inside-4_1454_18750)"/>
<mask id="path-11-inside-5_1454_18750" fill="white">
<path d="M153.734 -47.4219H203.927V2.77077H153.734V-47.4219Z"/>
</mask>
<path d="M203.927 2.77077V3.29361H204.45V2.77077H203.927ZM203.927 -47.4219H203.404V2.77077H203.927H204.45V-47.4219H203.927ZM203.927 2.77077V2.24793H153.734V2.77077V3.29361H203.927V2.77077Z" fill="#43A2FF" mask="url(#path-11-inside-5_1454_18750)"/>
<mask id="path-13-inside-6_1454_18750" fill="white">
<path d="M203.926 -47.4219H254.118V2.77077H203.926V-47.4219Z"/>
</mask>
<path d="M254.118 2.77077V3.29361H254.641V2.77077H254.118ZM254.118 -47.4219H253.596V2.77077H254.118H254.641V-47.4219H254.118ZM254.118 2.77077V2.24793H203.926V2.77077V3.29361H254.118V2.77077Z" fill="#43A2FF" mask="url(#path-13-inside-6_1454_18750)"/>
<mask id="path-15-inside-7_1454_18750" fill="white">
<path d="M254.117 -47.4219H304.31V2.77077H254.117V-47.4219Z"/>
</mask>
<path d="M304.31 2.77077V3.29361H304.833V2.77077H304.31ZM304.31 -47.4219H303.787V2.77077H304.31H304.833V-47.4219H304.31ZM304.31 2.77077V2.24793H254.117V2.77077V3.29361H304.31V2.77077Z" fill="#43A2FF" mask="url(#path-15-inside-7_1454_18750)"/>
<mask id="path-17-inside-8_1454_18750" fill="white">
<path d="M304.312 -47.4219H354.505V2.77077H304.312V-47.4219Z"/>
</mask>
<path d="M354.505 2.77077V3.29361H355.028V2.77077H354.505ZM354.505 -47.4219H353.982V2.77077H354.505H355.028V-47.4219H354.505ZM354.505 2.77077V2.24793H304.312V2.77077V3.29361H354.505V2.77077Z" fill="#43A2FF" mask="url(#path-17-inside-8_1454_18750)"/>
<mask id="path-19-inside-9_1454_18750" fill="white">
<path d="M354.504 -47.4219H404.697V2.77077H354.504V-47.4219Z"/>
</mask>
<path d="M404.697 2.77077V3.29361H405.219V2.77077H404.697ZM404.697 -47.4219H404.174V2.77077H404.697H405.219V-47.4219H404.697ZM404.697 2.77077V2.24793H354.504V2.77077V3.29361H404.697V2.77077Z" fill="#43A2FF" mask="url(#path-19-inside-9_1454_18750)"/>
<mask id="path-21-inside-10_1454_18750" fill="white">
<path d="M404.695 -47.4219H454.888V2.77077H404.695V-47.4219Z"/>
</mask>
<path d="M404.695 -47.4219H454.888V2.77077H404.695V-47.4219Z" fill="#43A2FF"/>
<path d="M454.888 2.77077V3.29361H455.411V2.77077H454.888ZM454.888 -47.4219H454.365V2.77077H454.888H455.411V-47.4219H454.888ZM454.888 2.77077V2.24793H404.695V2.77077V3.29361H454.888V2.77077Z" fill="#43A2FF" mask="url(#path-21-inside-10_1454_18750)"/>
<mask id="path-23-inside-11_1454_18750" fill="white">
<path d="M454.891 -47.4219H505.083V2.77077H454.891V-47.4219Z"/>
</mask>
<path d="M505.083 2.77077V3.29361H505.606V2.77077H505.083ZM505.083 -47.4219H504.56V2.77077H505.083H505.606V-47.4219H505.083ZM505.083 2.77077V2.24793H454.891V2.77077V3.29361H505.083V2.77077Z" fill="#43A2FF" mask="url(#path-23-inside-11_1454_18750)"/>
<mask id="path-25-inside-12_1454_18750" fill="white">
<path d="M505.082 -47.4219H555.275V2.77077H505.082V-47.4219Z"/>
</mask>
<path d="M555.275 2.77077V3.29361H555.798V2.77077H555.275ZM555.275 -47.4219H554.752V2.77077H555.275H555.798V-47.4219H555.275ZM555.275 2.77077V2.24793H505.082V2.77077V3.29361H555.275V2.77077Z" fill="#43A2FF" mask="url(#path-25-inside-12_1454_18750)"/>
<mask id="path-27-inside-13_1454_18750" fill="white">
<path d="M-47.0352 2.77051H3.15749V52.9632H-47.0352V2.77051Z"/>
</mask>
<path d="M3.15749 52.9632V53.486H3.68033V52.9632H3.15749ZM3.15749 2.77051H2.63465V52.9632H3.15749H3.68033V2.77051H3.15749ZM3.15749 52.9632V52.4403H-47.0352V52.9632V53.486H3.15749V52.9632Z" fill="#43A2FF" mask="url(#path-27-inside-13_1454_18750)"/>
<mask id="path-29-inside-14_1454_18750" fill="white">
<path d="M3.15625 2.77051H53.3489V52.9632H3.15625V2.77051Z"/>
</mask>
<path d="M53.3489 52.9632V53.486H53.8717V52.9632H53.3489ZM53.3489 2.77051H52.8261V52.9632H53.3489H53.8717V2.77051H53.3489ZM53.3489 52.9632V52.4403H3.15625V52.9632V53.486H53.3489V52.9632Z" fill="#43A2FF" mask="url(#path-29-inside-14_1454_18750)"/>
<mask id="path-31-inside-15_1454_18750" fill="white">
<path d="M53.3477 2.77051H103.54V52.9632H53.3477V2.77051Z"/>
</mask>
<path d="M103.54 52.9632V53.486H104.063V52.9632H103.54ZM103.54 2.77051H103.017V52.9632H103.54H104.063V2.77051H103.54ZM103.54 52.9632V52.4403H53.3477V52.9632V53.486H103.54V52.9632Z" fill="#43A2FF" mask="url(#path-31-inside-15_1454_18750)"/>
<mask id="path-33-inside-16_1454_18750" fill="white">
<path d="M103.543 2.77051H153.736V52.9632H103.543V2.77051Z"/>
</mask>
<path d="M103.543 2.77051H153.736V52.9632H103.543V2.77051Z" fill="#43A2FF"/>
<path d="M153.736 52.9632V53.486H154.258V52.9632H153.736ZM153.736 2.77051H153.213V52.9632H153.736H154.258V2.77051H153.736ZM153.736 52.9632V52.4403H103.543V52.9632V53.486H153.736V52.9632Z" fill="#43A2FF" mask="url(#path-33-inside-16_1454_18750)"/>
<mask id="path-35-inside-17_1454_18750" fill="white">
<path d="M153.734 2.77051H203.927V52.9632H153.734V2.77051Z"/>
</mask>
<path d="M203.927 52.9632V53.486H204.45V52.9632H203.927ZM203.927 2.77051H203.404V52.9632H203.927H204.45V2.77051H203.927ZM203.927 52.9632V52.4403H153.734V52.9632V53.486H203.927V52.9632Z" fill="#43A2FF" mask="url(#path-35-inside-17_1454_18750)"/>
<mask id="path-37-inside-18_1454_18750" fill="white">
<path d="M203.926 2.77051H254.118V52.9632H203.926V2.77051Z"/>
</mask>
<path d="M254.118 52.9632V53.486H254.641V52.9632H254.118ZM254.118 2.77051H253.596V52.9632H254.118H254.641V2.77051H254.118ZM254.118 52.9632V52.4403H203.926V52.9632V53.486H254.118V52.9632Z" fill="#43A2FF" mask="url(#path-37-inside-18_1454_18750)"/>
<mask id="path-39-inside-19_1454_18750" fill="white">
<path d="M254.117 2.77051H304.31V52.9632H254.117V2.77051Z"/>
</mask>
<path d="M304.31 52.9632V53.486H304.833V52.9632H304.31ZM304.31 2.77051H303.787V52.9632H304.31H304.833V2.77051H304.31ZM304.31 52.9632V52.4403H254.117V52.9632V53.486H304.31V52.9632Z" fill="#43A2FF" mask="url(#path-39-inside-19_1454_18750)"/>
<mask id="path-41-inside-20_1454_18750" fill="white">
<path d="M304.312 2.77051H354.505V52.9632H304.312V2.77051Z"/>
</mask>
<path d="M354.505 52.9632V53.486H355.028V52.9632H354.505ZM354.505 2.77051H353.982V52.9632H354.505H355.028V2.77051H354.505ZM354.505 52.9632V52.4403H304.312V52.9632V53.486H354.505V52.9632Z" fill="#43A2FF" mask="url(#path-41-inside-20_1454_18750)"/>
<mask id="path-43-inside-21_1454_18750" fill="white">
<path d="M354.504 2.77051H404.697V52.9632H354.504V2.77051Z"/>
</mask>
<path d="M404.697 52.9632V53.486H405.219V52.9632H404.697ZM404.697 2.77051H404.174V52.9632H404.697H405.219V2.77051H404.697ZM404.697 52.9632V52.4403H354.504V52.9632V53.486H404.697V52.9632Z" fill="#43A2FF" mask="url(#path-43-inside-21_1454_18750)"/>
<mask id="path-45-inside-22_1454_18750" fill="white">
<path d="M404.695 2.77051H454.888V52.9632H404.695V2.77051Z"/>
</mask>
<path d="M454.888 52.9632V53.486H455.411V52.9632H454.888ZM454.888 2.77051H454.365V52.9632H454.888H455.411V2.77051H454.888ZM454.888 52.9632V52.4403H404.695V52.9632V53.486H454.888V52.9632Z" fill="#43A2FF" mask="url(#path-45-inside-22_1454_18750)"/>
<mask id="path-47-inside-23_1454_18750" fill="white">
<path d="M454.891 2.77051H505.083V52.9632H454.891V2.77051Z"/>
</mask>
<path d="M505.083 52.9632V53.486H505.606V52.9632H505.083ZM505.083 2.77051H504.56V52.9632H505.083H505.606V2.77051H505.083ZM505.083 52.9632V52.4403H454.891V52.9632V53.486H505.083V52.9632Z" fill="#43A2FF" mask="url(#path-47-inside-23_1454_18750)"/>
<mask id="path-49-inside-24_1454_18750" fill="white">
<path d="M505.082 2.77051H555.275V52.9632H505.082V2.77051Z"/>
</mask>
<path d="M555.275 52.9632V53.486H555.798V52.9632H555.275ZM555.275 2.77051H554.752V52.9632H555.275H555.798V2.77051H555.275ZM555.275 52.9632V52.4403H505.082V52.9632V53.486H555.275V52.9632Z" fill="#43A2FF" mask="url(#path-49-inside-24_1454_18750)"/>
<mask id="path-51-inside-25_1454_18750" fill="white">
<path d="M-47.0352 52.9634H3.15749V103.156H-47.0352V52.9634Z"/>
</mask>
<path d="M-47.0352 52.9634H3.15749V103.156H-47.0352V52.9634Z" fill="#43A2FF"/>
<path d="M3.15749 103.156V103.679H3.68033V103.156H3.15749ZM3.15749 52.9634H2.63465V103.156H3.15749H3.68033V52.9634H3.15749ZM3.15749 103.156V102.633H-47.0352V103.156V103.679H3.15749V103.156Z" fill="#43A2FF" mask="url(#path-51-inside-25_1454_18750)"/>
<mask id="path-53-inside-26_1454_18750" fill="white">
<path d="M3.15625 52.9634H53.3489V103.156H3.15625V52.9634Z"/>
</mask>
<path d="M53.3489 103.156V103.679H53.8717V103.156H53.3489ZM53.3489 52.9634H52.8261V103.156H53.3489H53.8717V52.9634H53.3489ZM53.3489 103.156V102.633H3.15625V103.156V103.679H53.3489V103.156Z" fill="#43A2FF" mask="url(#path-53-inside-26_1454_18750)"/>
<mask id="path-55-inside-27_1454_18750" fill="white">
<path d="M53.3477 52.9634H103.54V103.156H53.3477V52.9634Z"/>
</mask>
<path d="M103.54 103.156V103.679H104.063V103.156H103.54ZM103.54 52.9634H103.017V103.156H103.54H104.063V52.9634H103.54ZM103.54 103.156V102.633H53.3477V103.156V103.679H103.54V103.156Z" fill="#43A2FF" mask="url(#path-55-inside-27_1454_18750)"/>
<mask id="path-57-inside-28_1454_18750" fill="white">
<path d="M103.543 52.9634H153.736V103.156H103.543V52.9634Z"/>
</mask>
<path d="M153.736 103.156V103.679H154.258V103.156H153.736ZM153.736 52.9634H153.213V103.156H153.736H154.258V52.9634H153.736ZM153.736 103.156V102.633H103.543V103.156V103.679H153.736V103.156Z" fill="#43A2FF" mask="url(#path-57-inside-28_1454_18750)"/>
<mask id="path-59-inside-29_1454_18750" fill="white">
<path d="M153.734 52.9634H203.927V103.156H153.734V52.9634Z"/>
</mask>
<path d="M203.927 103.156V103.679H204.45V103.156H203.927ZM203.927 52.9634H203.404V103.156H203.927H204.45V52.9634H203.927ZM203.927 103.156V102.633H153.734V103.156V103.679H203.927V103.156Z" fill="#43A2FF" mask="url(#path-59-inside-29_1454_18750)"/>
<mask id="path-61-inside-30_1454_18750" fill="white">
<path d="M203.926 52.9634H254.118V103.156H203.926V52.9634Z"/>
</mask>
<path d="M254.118 103.156V103.679H254.641V103.156H254.118ZM254.118 52.9634H253.596V103.156H254.118H254.641V52.9634H254.118ZM254.118 103.156V102.633H203.926V103.156V103.679H254.118V103.156Z" fill="#43A2FF" mask="url(#path-61-inside-30_1454_18750)"/>
<mask id="path-63-inside-31_1454_18750" fill="white">
<path d="M254.117 52.9634H304.31V103.156H254.117V52.9634Z"/>
</mask>
<path d="M254.117 52.9634H304.31V103.156H254.117V52.9634Z" fill="#43A2FF"/>
<path d="M304.31 103.156V103.679H304.833V103.156H304.31ZM304.31 52.9634H303.787V103.156H304.31H304.833V52.9634H304.31ZM304.31 103.156V102.633H254.117V103.156V103.679H304.31V103.156Z" fill="#43A2FF" mask="url(#path-63-inside-31_1454_18750)"/>
<mask id="path-65-inside-32_1454_18750" fill="white">
<path d="M304.312 52.9634H354.505V103.156H304.312V52.9634Z"/>
</mask>
<path d="M354.505 103.156V103.679H355.028V103.156H354.505ZM354.505 52.9634H353.982V103.156H354.505H355.028V52.9634H354.505ZM354.505 103.156V102.633H304.312V103.156V103.679H354.505V103.156Z" fill="#43A2FF" mask="url(#path-65-inside-32_1454_18750)"/>
<mask id="path-67-inside-33_1454_18750" fill="white">
<path d="M354.504 52.9634H404.697V103.156H354.504V52.9634Z"/>
</mask>
<path d="M404.697 103.156V103.679H405.219V103.156H404.697ZM404.697 52.9634H404.174V103.156H404.697H405.219V52.9634H404.697ZM404.697 103.156V102.633H354.504V103.156V103.679H404.697V103.156Z" fill="#43A2FF" mask="url(#path-67-inside-33_1454_18750)"/>
<mask id="path-69-inside-34_1454_18750" fill="white">
<path d="M404.695 52.9634H454.888V103.156H404.695V52.9634Z"/>
</mask>
<path d="M454.888 103.156V103.679H455.411V103.156H454.888ZM454.888 52.9634H454.365V103.156H454.888H455.411V52.9634H454.888ZM454.888 103.156V102.633H404.695V103.156V103.679H454.888V103.156Z" fill="#43A2FF" mask="url(#path-69-inside-34_1454_18750)"/>
<mask id="path-71-inside-35_1454_18750" fill="white">
<path d="M454.891 52.9634H505.083V103.156H454.891V52.9634Z"/>
</mask>
<path d="M505.083 103.156V103.679H505.606V103.156H505.083ZM505.083 52.9634H504.56V103.156H505.083H505.606V52.9634H505.083ZM505.083 103.156V102.633H454.891V103.156V103.679H505.083V103.156Z" fill="#43A2FF" mask="url(#path-71-inside-35_1454_18750)"/>
<mask id="path-73-inside-36_1454_18750" fill="white">
<path d="M505.082 52.9634H555.275V103.156H505.082V52.9634Z"/>
</mask>
<path d="M555.275 103.156V103.679H555.798V103.156H555.275ZM555.275 52.9634H554.752V103.156H555.275H555.798V52.9634H555.275ZM555.275 103.156V102.633H505.082V103.156V103.679H555.275V103.156Z" fill="#43A2FF" mask="url(#path-73-inside-36_1454_18750)"/>
<mask id="path-75-inside-37_1454_18750" fill="white">
<path d="M-47.0352 103.156H3.15749V153.348H-47.0352V103.156Z"/>
</mask>
<path d="M3.15749 153.348V153.871H3.68033V153.348H3.15749ZM3.15749 103.156H2.63465V153.348H3.15749H3.68033V103.156H3.15749ZM3.15749 153.348V152.826H-47.0352V153.348V153.871H3.15749V153.348Z" fill="#43A2FF" mask="url(#path-75-inside-37_1454_18750)"/>
<mask id="path-77-inside-38_1454_18750" fill="white">
<path d="M3.15625 103.156H53.3489V153.348H3.15625V103.156Z"/>
</mask>
<path d="M53.3489 153.348V153.871H53.8717V153.348H53.3489ZM53.3489 103.156H52.8261V153.348H53.3489H53.8717V103.156H53.3489ZM53.3489 153.348V152.826H3.15625V153.348V153.871H53.3489V153.348Z" fill="#43A2FF" mask="url(#path-77-inside-38_1454_18750)"/>
<mask id="path-79-inside-39_1454_18750" fill="white">
<path d="M53.3477 103.156H103.54V153.348H53.3477V103.156Z"/>
</mask>
<path d="M103.54 153.348V153.871H104.063V153.348H103.54ZM103.54 103.156H103.017V153.348H103.54H104.063V103.156H103.54ZM103.54 153.348V152.826H53.3477V153.348V153.871H103.54V153.348Z" fill="#43A2FF" mask="url(#path-79-inside-39_1454_18750)"/>
<mask id="path-81-inside-40_1454_18750" fill="white">
<path d="M103.543 103.156H153.736V153.348H103.543V103.156Z"/>
</mask>
<path d="M153.736 153.348V153.871H154.258V153.348H153.736ZM153.736 103.156H153.213V153.348H153.736H154.258V103.156H153.736ZM153.736 153.348V152.826H103.543V153.348V153.871H153.736V153.348Z" fill="#43A2FF" mask="url(#path-81-inside-40_1454_18750)"/>
<mask id="path-83-inside-41_1454_18750" fill="white">
<path d="M153.734 103.156H203.927V153.348H153.734V103.156Z"/>
</mask>
<path d="M203.927 153.348V153.871H204.45V153.348H203.927ZM203.927 103.156H203.404V153.348H203.927H204.45V103.156H203.927ZM203.927 153.348V152.826H153.734V153.348V153.871H203.927V153.348Z" fill="#43A2FF" mask="url(#path-83-inside-41_1454_18750)"/>
<mask id="path-85-inside-42_1454_18750" fill="white">
<path d="M203.926 103.156H254.118V153.348H203.926V103.156Z"/>
</mask>
<path d="M254.118 153.348V153.871H254.641V153.348H254.118ZM254.118 103.156H253.596V153.348H254.118H254.641V103.156H254.118ZM254.118 153.348V152.826H203.926V153.348V153.871H254.118V153.348Z" fill="#43A2FF" mask="url(#path-85-inside-42_1454_18750)"/>
<mask id="path-87-inside-43_1454_18750" fill="white">
<path d="M254.117 103.156H304.31V153.348H254.117V103.156Z"/>
</mask>
<path d="M304.31 153.348V153.871H304.833V153.348H304.31ZM304.31 103.156H303.787V153.348H304.31H304.833V103.156H304.31ZM304.31 153.348V152.826H254.117V153.348V153.871H304.31V153.348Z" fill="#43A2FF" mask="url(#path-87-inside-43_1454_18750)"/>
<mask id="path-89-inside-44_1454_18750" fill="white">
<path d="M304.312 103.156H354.505V153.348H304.312V103.156Z"/>
</mask>
<path d="M354.505 153.348V153.871H355.028V153.348H354.505ZM354.505 103.156H353.982V153.348H354.505H355.028V103.156H354.505ZM354.505 153.348V152.826H304.312V153.348V153.871H354.505V153.348Z" fill="#43A2FF" mask="url(#path-89-inside-44_1454_18750)"/>
<mask id="path-91-inside-45_1454_18750" fill="white">
<path d="M354.504 103.156H404.697V153.348H354.504V103.156Z"/>
</mask>
<path d="M404.697 153.348V153.871H405.219V153.348H404.697ZM404.697 103.156H404.174V153.348H404.697H405.219V103.156H404.697ZM404.697 153.348V152.826H354.504V153.348V153.871H404.697V153.348Z" fill="#43A2FF" mask="url(#path-91-inside-45_1454_18750)"/>
<mask id="path-93-inside-46_1454_18750" fill="white">
<path d="M404.695 103.156H454.888V153.348H404.695V103.156Z"/>
</mask>
<path d="M454.888 153.348V153.871H455.411V153.348H454.888ZM454.888 103.156H454.365V153.348H454.888H455.411V103.156H454.888ZM454.888 153.348V152.826H404.695V153.348V153.871H454.888V153.348Z" fill="#43A2FF" mask="url(#path-93-inside-46_1454_18750)"/>
<mask id="path-95-inside-47_1454_18750" fill="white">
<path d="M454.891 103.156H505.083V153.348H454.891V103.156Z"/>
</mask>
<path d="M505.083 153.348V153.871H505.606V153.348H505.083ZM505.083 103.156H504.56V153.348H505.083H505.606V103.156H505.083ZM505.083 153.348V152.826H454.891V153.348V153.871H505.083V153.348Z" fill="#43A2FF" mask="url(#path-95-inside-47_1454_18750)"/>
<mask id="path-97-inside-48_1454_18750" fill="white">
<path d="M505.082 103.156H555.275V153.348H505.082V103.156Z"/>
</mask>
<path d="M505.082 103.156H555.275V153.348H505.082V103.156Z" fill="#43A2FF"/>
<path d="M555.275 153.348V153.871H555.798V153.348H555.275ZM555.275 103.156H554.752V153.348H555.275H555.798V103.156H555.275ZM555.275 153.348V152.826H505.082V153.348V153.871H555.275V153.348Z" fill="#43A2FF" mask="url(#path-97-inside-48_1454_18750)"/>
<mask id="path-99-inside-49_1454_18750" fill="white">
<path d="M-47.0352 153.349H3.15749V203.541H-47.0352V153.349Z"/>
</mask>
<path d="M3.15749 203.541V204.064H3.68033V203.541H3.15749ZM3.15749 153.349H2.63465V203.541H3.15749H3.68033V153.349H3.15749ZM3.15749 203.541V203.018H-47.0352V203.541V204.064H3.15749V203.541Z" fill="#43A2FF" mask="url(#path-99-inside-49_1454_18750)"/>
<mask id="path-101-inside-50_1454_18750" fill="white">
<path d="M3.15625 153.349H53.3489V203.541H3.15625V153.349Z"/>
</mask>
<path d="M53.3489 203.541V204.064H53.8717V203.541H53.3489ZM53.3489 153.349H52.8261V203.541H53.3489H53.8717V153.349H53.3489ZM53.3489 203.541V203.018H3.15625V203.541V204.064H53.3489V203.541Z" fill="#43A2FF" mask="url(#path-101-inside-50_1454_18750)"/>
<mask id="path-103-inside-51_1454_18750" fill="white">
<path d="M53.3477 153.349H103.54V203.541H53.3477V153.349Z"/>
</mask>
<path d="M103.54 203.541V204.064H104.063V203.541H103.54ZM103.54 153.349H103.017V203.541H103.54H104.063V153.349H103.54ZM103.54 203.541V203.018H53.3477V203.541V204.064H103.54V203.541Z" fill="#43A2FF" mask="url(#path-103-inside-51_1454_18750)"/>
<mask id="path-105-inside-52_1454_18750" fill="white">
<path d="M103.543 153.349H153.736V203.541H103.543V153.349Z"/>
</mask>
<path d="M103.543 153.349H153.736V203.541H103.543V153.349Z" fill="#43A2FF"/>
<path d="M153.736 203.541V204.064H154.258V203.541H153.736ZM153.736 153.349H153.213V203.541H153.736H154.258V153.349H153.736ZM153.736 203.541V203.018H103.543V203.541V204.064H153.736V203.541Z" fill="#43A2FF" mask="url(#path-105-inside-52_1454_18750)"/>
<mask id="path-107-inside-53_1454_18750" fill="white">
<path d="M153.734 153.349H203.927V203.541H153.734V153.349Z"/>
</mask>
<path d="M203.927 203.541V204.064H204.45V203.541H203.927ZM203.927 153.349H203.404V203.541H203.927H204.45V153.349H203.927ZM203.927 203.541V203.018H153.734V203.541V204.064H203.927V203.541Z" fill="#43A2FF" mask="url(#path-107-inside-53_1454_18750)"/>
<mask id="path-109-inside-54_1454_18750" fill="white">
<path d="M203.926 153.349H254.118V203.541H203.926V153.349Z"/>
</mask>
<path d="M254.118 203.541V204.064H254.641V203.541H254.118ZM254.118 153.349H253.596V203.541H254.118H254.641V153.349H254.118ZM254.118 203.541V203.018H203.926V203.541V204.064H254.118V203.541Z" fill="#43A2FF" mask="url(#path-109-inside-54_1454_18750)"/>
<mask id="path-111-inside-55_1454_18750" fill="white">
<path d="M254.117 153.349H304.31V203.541H254.117V153.349Z"/>
</mask>
<path d="M304.31 203.541V204.064H304.833V203.541H304.31ZM304.31 153.349H303.787V203.541H304.31H304.833V153.349H304.31ZM304.31 203.541V203.018H254.117V203.541V204.064H304.31V203.541Z" fill="#43A2FF" mask="url(#path-111-inside-55_1454_18750)"/>
<mask id="path-113-inside-56_1454_18750" fill="white">
<path d="M304.312 153.349H354.505V203.541H304.312V153.349Z"/>
</mask>
<path d="M354.505 203.541V204.064H355.028V203.541H354.505ZM354.505 153.349H353.982V203.541H354.505H355.028V153.349H354.505ZM354.505 203.541V203.018H304.312V203.541V204.064H354.505V203.541Z" fill="#43A2FF" mask="url(#path-113-inside-56_1454_18750)"/>
<mask id="path-115-inside-57_1454_18750" fill="white">
<path d="M354.504 153.349H404.697V203.541H354.504V153.349Z"/>
</mask>
<path d="M404.697 203.541V204.064H405.219V203.541H404.697ZM404.697 153.349H404.174V203.541H404.697H405.219V153.349H404.697ZM404.697 203.541V203.018H354.504V203.541V204.064H404.697V203.541Z" fill="#43A2FF" mask="url(#path-115-inside-57_1454_18750)"/>
<mask id="path-117-inside-58_1454_18750" fill="white">
<path d="M404.695 153.349H454.888V203.541H404.695V153.349Z"/>
</mask>
<path d="M404.695 153.349H454.888V203.541H404.695V153.349Z" fill="#43A2FF"/>
<path d="M454.888 203.541V204.064H455.411V203.541H454.888ZM454.888 153.349H454.365V203.541H454.888H455.411V153.349H454.888ZM454.888 203.541V203.018H404.695V203.541V204.064H454.888V203.541Z" fill="#43A2FF" mask="url(#path-117-inside-58_1454_18750)"/>
<mask id="path-119-inside-59_1454_18750" fill="white">
<path d="M454.891 153.349H505.083V203.541H454.891V153.349Z"/>
</mask>
<path d="M505.083 203.541V204.064H505.606V203.541H505.083ZM505.083 153.349H504.56V203.541H505.083H505.606V153.349H505.083ZM505.083 203.541V203.018H454.891V203.541V204.064H505.083V203.541Z" fill="#43A2FF" mask="url(#path-119-inside-59_1454_18750)"/>
<mask id="path-121-inside-60_1454_18750" fill="white">
<path d="M505.082 153.349H555.275V203.541H505.082V153.349Z"/>
</mask>
<path d="M555.275 203.541V204.064H555.798V203.541H555.275ZM555.275 153.349H554.752V203.541H555.275H555.798V153.349H555.275ZM555.275 203.541V203.018H505.082V203.541V204.064H555.275V203.541Z" fill="#43A2FF" mask="url(#path-121-inside-60_1454_18750)"/>
<mask id="path-123-inside-61_1454_18750" fill="white">
<path d="M-47.0352 203.541H3.15749V253.734H-47.0352V203.541Z"/>
</mask>
<path d="M-47.0352 203.541H3.15749V253.734H-47.0352V203.541Z" fill="#43A2FF"/>
<path d="M3.15749 253.734V254.256H3.68033V253.734H3.15749ZM3.15749 203.541H2.63465V253.734H3.15749H3.68033V203.541H3.15749ZM3.15749 253.734V253.211H-47.0352V253.734V254.256H3.15749V253.734Z" fill="#43A2FF" mask="url(#path-123-inside-61_1454_18750)"/>
<mask id="path-125-inside-62_1454_18750" fill="white">
<path d="M3.15625 203.541H53.3489V253.734H3.15625V203.541Z"/>
</mask>
<path d="M53.3489 253.734V254.256H53.8717V253.734H53.3489ZM53.3489 203.541H52.8261V253.734H53.3489H53.8717V203.541H53.3489ZM53.3489 253.734V253.211H3.15625V253.734V254.256H53.3489V253.734Z" fill="#43A2FF" mask="url(#path-125-inside-62_1454_18750)"/>
<mask id="path-127-inside-63_1454_18750" fill="white">
<path d="M53.3477 203.541H103.54V253.734H53.3477V203.541Z"/>
</mask>
<path d="M103.54 253.734V254.256H104.063V253.734H103.54ZM103.54 203.541H103.017V253.734H103.54H104.063V203.541H103.54ZM103.54 253.734V253.211H53.3477V253.734V254.256H103.54V253.734Z" fill="#43A2FF" mask="url(#path-127-inside-63_1454_18750)"/>
<mask id="path-129-inside-64_1454_18750" fill="white">
<path d="M103.543 203.541H153.736V253.734H103.543V203.541Z"/>
</mask>
<path d="M153.736 253.734V254.256H154.258V253.734H153.736ZM153.736 203.541H153.213V253.734H153.736H154.258V203.541H153.736ZM153.736 253.734V253.211H103.543V253.734V254.256H153.736V253.734Z" fill="#43A2FF" mask="url(#path-129-inside-64_1454_18750)"/>
<mask id="path-131-inside-65_1454_18750" fill="white">
<path d="M153.734 203.541H203.927V253.734H153.734V203.541Z"/>
</mask>
<path d="M203.927 253.734V254.256H204.45V253.734H203.927ZM203.927 203.541H203.404V253.734H203.927H204.45V203.541H203.927ZM203.927 253.734V253.211H153.734V253.734V254.256H203.927V253.734Z" fill="#43A2FF" mask="url(#path-131-inside-65_1454_18750)"/>
<mask id="path-133-inside-66_1454_18750" fill="white">
<path d="M203.926 203.541H254.118V253.734H203.926V203.541Z"/>
</mask>
<path d="M254.118 253.734V254.256H254.641V253.734H254.118ZM254.118 203.541H253.596V253.734H254.118H254.641V203.541H254.118ZM254.118 253.734V253.211H203.926V253.734V254.256H254.118V253.734Z" fill="#43A2FF" mask="url(#path-133-inside-66_1454_18750)"/>
<mask id="path-135-inside-67_1454_18750" fill="white">
<path d="M254.117 203.541H304.31V253.734H254.117V203.541Z"/>
</mask>
<path d="M254.117 203.541H304.31V253.734H254.117V203.541Z" fill="#43A2FF"/>
<path d="M304.31 253.734V254.256H304.833V253.734H304.31ZM304.31 203.541H303.787V253.734H304.31H304.833V203.541H304.31ZM304.31 253.734V253.211H254.117V253.734V254.256H304.31V253.734Z" fill="#43A2FF" mask="url(#path-135-inside-67_1454_18750)"/>
<mask id="path-137-inside-68_1454_18750" fill="white">
<path d="M304.312 203.541H354.505V253.734H304.312V203.541Z"/>
</mask>
<path d="M354.505 253.734V254.256H355.028V253.734H354.505ZM354.505 203.541H353.982V253.734H354.505H355.028V203.541H354.505ZM354.505 253.734V253.211H304.312V253.734V254.256H354.505V253.734Z" fill="#43A2FF" mask="url(#path-137-inside-68_1454_18750)"/>
<mask id="path-139-inside-69_1454_18750" fill="white">
<path d="M354.504 203.541H404.697V253.734H354.504V203.541Z"/>
</mask>
<path d="M404.697 253.734V254.256H405.219V253.734H404.697ZM404.697 203.541H404.174V253.734H404.697H405.219V203.541H404.697ZM404.697 253.734V253.211H354.504V253.734V254.256H404.697V253.734Z" fill="#43A2FF" mask="url(#path-139-inside-69_1454_18750)"/>
<mask id="path-141-inside-70_1454_18750" fill="white">
<path d="M404.695 203.541H454.888V253.734H404.695V203.541Z"/>
</mask>
<path d="M454.888 253.734V254.256H455.411V253.734H454.888ZM454.888 203.541H454.365V253.734H454.888H455.411V203.541H454.888ZM454.888 253.734V253.211H404.695V253.734V254.256H454.888V253.734Z" fill="#43A2FF" mask="url(#path-141-inside-70_1454_18750)"/>
<mask id="path-143-inside-71_1454_18750" fill="white">
<path d="M454.891 203.541H505.083V253.734H454.891V203.541Z"/>
</mask>
<path d="M505.083 253.734V254.256H505.606V253.734H505.083ZM505.083 203.541H504.56V253.734H505.083H505.606V203.541H505.083ZM505.083 253.734V253.211H454.891V253.734V254.256H505.083V253.734Z" fill="#43A2FF" mask="url(#path-143-inside-71_1454_18750)"/>
<mask id="path-145-inside-72_1454_18750" fill="white">
<path d="M505.082 203.541H555.275V253.734H505.082V203.541Z"/>
</mask>
<path d="M555.275 253.734V254.256H555.798V253.734H555.275ZM555.275 203.541H554.752V253.734H555.275H555.798V203.541H555.275ZM555.275 253.734V253.211H505.082V253.734V254.256H555.275V253.734Z" fill="#43A2FF" mask="url(#path-145-inside-72_1454_18750)"/>
<mask id="path-147-inside-73_1454_18750" fill="white">
<path d="M-47.0352 253.734H3.15749V303.927H-47.0352V253.734Z"/>
</mask>
<path d="M3.15749 303.927V304.449H3.68033V303.927H3.15749ZM3.15749 253.734H2.63465V303.927H3.15749H3.68033V253.734H3.15749ZM3.15749 303.927V303.404H-47.0352V303.927V304.449H3.15749V303.927Z" fill="#43A2FF" mask="url(#path-147-inside-73_1454_18750)"/>
<mask id="path-149-inside-74_1454_18750" fill="white">
<path d="M3.15625 253.734H53.3489V303.927H3.15625V253.734Z"/>
</mask>
<path d="M53.3489 303.927V304.449H53.8717V303.927H53.3489ZM53.3489 253.734H52.8261V303.927H53.3489H53.8717V253.734H53.3489ZM53.3489 303.927V303.404H3.15625V303.927V304.449H53.3489V303.927Z" fill="#43A2FF" mask="url(#path-149-inside-74_1454_18750)"/>
<mask id="path-151-inside-75_1454_18750" fill="white">
<path d="M53.3477 253.734H103.54V303.927H53.3477V253.734Z"/>
</mask>
<path d="M103.54 303.927V304.449H104.063V303.927H103.54ZM103.54 253.734H103.017V303.927H103.54H104.063V253.734H103.54ZM103.54 303.927V303.404H53.3477V303.927V304.449H103.54V303.927Z" fill="#43A2FF" mask="url(#path-151-inside-75_1454_18750)"/>
<mask id="path-153-inside-76_1454_18750" fill="white">
<path d="M103.543 253.734H153.736V303.927H103.543V253.734Z"/>
</mask>
<path d="M153.736 303.927V304.449H154.258V303.927H153.736ZM153.736 253.734H153.213V303.927H153.736H154.258V253.734H153.736ZM153.736 303.927V303.404H103.543V303.927V304.449H153.736V303.927Z" fill="#43A2FF" mask="url(#path-153-inside-76_1454_18750)"/>
<mask id="path-155-inside-77_1454_18750" fill="white">
<path d="M153.734 253.734H203.927V303.927H153.734V253.734Z"/>
</mask>
<path d="M203.927 303.927V304.449H204.45V303.927H203.927ZM203.927 253.734H203.404V303.927H203.927H204.45V253.734H203.927ZM203.927 303.927V303.404H153.734V303.927V304.449H203.927V303.927Z" fill="#43A2FF" mask="url(#path-155-inside-77_1454_18750)"/>
<mask id="path-157-inside-78_1454_18750" fill="white">
<path d="M203.926 253.734H254.118V303.927H203.926V253.734Z"/>
</mask>
<path d="M254.118 303.927V304.449H254.641V303.927H254.118ZM254.118 253.734H253.596V303.927H254.118H254.641V253.734H254.118ZM254.118 303.927V303.404H203.926V303.927V304.449H254.118V303.927Z" fill="#43A2FF" mask="url(#path-157-inside-78_1454_18750)"/>
<mask id="path-159-inside-79_1454_18750" fill="white">
<path d="M254.117 253.734H304.31V303.927H254.117V253.734Z"/>
</mask>
<path d="M304.31 303.927V304.449H304.833V303.927H304.31ZM304.31 253.734H303.787V303.927H304.31H304.833V253.734H304.31ZM304.31 303.927V303.404H254.117V303.927V304.449H304.31V303.927Z" fill="#43A2FF" mask="url(#path-159-inside-79_1454_18750)"/>
<mask id="path-161-inside-80_1454_18750" fill="white">
<path d="M304.312 253.734H354.505V303.927H304.312V253.734Z"/>
</mask>
<path d="M354.505 303.927V304.449H355.028V303.927H354.505ZM354.505 253.734H353.982V303.927H354.505H355.028V253.734H354.505ZM354.505 303.927V303.404H304.312V303.927V304.449H354.505V303.927Z" fill="#43A2FF" mask="url(#path-161-inside-80_1454_18750)"/>
<mask id="path-163-inside-81_1454_18750" fill="white">
<path d="M354.504 253.734H404.697V303.927H354.504V253.734Z"/>
</mask>
<path d="M404.697 303.927V304.449H405.219V303.927H404.697ZM404.697 253.734H404.174V303.927H404.697H405.219V253.734H404.697ZM404.697 303.927V303.404H354.504V303.927V304.449H404.697V303.927Z" fill="#43A2FF" mask="url(#path-163-inside-81_1454_18750)"/>
<mask id="path-165-inside-82_1454_18750" fill="white">
<path d="M404.695 253.734H454.888V303.927H404.695V253.734Z"/>
</mask>
<path d="M454.888 303.927V304.449H455.411V303.927H454.888ZM454.888 253.734H454.365V303.927H454.888H455.411V253.734H454.888ZM454.888 303.927V303.404H404.695V303.927V304.449H454.888V303.927Z" fill="#43A2FF" mask="url(#path-165-inside-82_1454_18750)"/>
<mask id="path-167-inside-83_1454_18750" fill="white">
<path d="M454.891 253.734H505.083V303.927H454.891V253.734Z"/>
</mask>
<path d="M505.083 303.927V304.449H505.606V303.927H505.083ZM505.083 253.734H504.56V303.927H505.083H505.606V253.734H505.083ZM505.083 303.927V303.404H454.891V303.927V304.449H505.083V303.927Z" fill="#43A2FF" mask="url(#path-167-inside-83_1454_18750)"/>
<mask id="path-169-inside-84_1454_18750" fill="white">
<path d="M505.082 253.734H555.275V303.927H505.082V253.734Z"/>
</mask>
<path d="M555.275 303.927V304.449H555.798V303.927H555.275ZM555.275 253.734H554.752V303.927H555.275H555.798V253.734H555.275ZM555.275 303.927V303.404H505.082V303.927V304.449H555.275V303.927Z" fill="#43A2FF" mask="url(#path-169-inside-84_1454_18750)"/>
<mask id="path-171-inside-85_1454_18750" fill="white">
<path d="M-47.0352 303.926H3.15749V354.119H-47.0352V303.926Z"/>
</mask>
<path d="M3.15749 354.119V354.642H3.68033V354.119H3.15749ZM3.15749 303.926H2.63465V354.119H3.15749H3.68033V303.926H3.15749ZM3.15749 354.119V353.596H-47.0352V354.119V354.642H3.15749V354.119Z" fill="#43A2FF" mask="url(#path-171-inside-85_1454_18750)"/>
<mask id="path-173-inside-86_1454_18750" fill="white">
<path d="M3.15625 303.926H53.3489V354.119H3.15625V303.926Z"/>
</mask>
<path d="M3.15625 303.926H53.3489V354.119H3.15625V303.926Z" fill="#43A2FF"/>
<path d="M53.3489 354.119V354.642H53.8717V354.119H53.3489ZM53.3489 303.926H52.8261V354.119H53.3489H53.8717V303.926H53.3489ZM53.3489 354.119V353.596H3.15625V354.119V354.642H53.3489V354.119Z" fill="#43A2FF" mask="url(#path-173-inside-86_1454_18750)"/>
<mask id="path-175-inside-87_1454_18750" fill="white">
<path d="M53.3477 303.926H103.54V354.119H53.3477V303.926Z"/>
</mask>
<path d="M103.54 354.119V354.642H104.063V354.119H103.54ZM103.54 303.926H103.017V354.119H103.54H104.063V303.926H103.54ZM103.54 354.119V353.596H53.3477V354.119V354.642H103.54V354.119Z" fill="#43A2FF" mask="url(#path-175-inside-87_1454_18750)"/>
<mask id="path-177-inside-88_1454_18750" fill="white">
<path d="M103.543 303.926H153.736V354.119H103.543V303.926Z"/>
</mask>
<path d="M153.736 354.119V354.642H154.258V354.119H153.736ZM153.736 303.926H153.213V354.119H153.736H154.258V303.926H153.736ZM153.736 354.119V353.596H103.543V354.119V354.642H153.736V354.119Z" fill="#43A2FF" mask="url(#path-177-inside-88_1454_18750)"/>
<mask id="path-179-inside-89_1454_18750" fill="white">
<path d="M153.734 303.926H203.927V354.119H153.734V303.926Z"/>
</mask>
<path d="M203.927 354.119V354.642H204.45V354.119H203.927ZM203.927 303.926H203.404V354.119H203.927H204.45V303.926H203.927ZM203.927 354.119V353.596H153.734V354.119V354.642H203.927V354.119Z" fill="#43A2FF" mask="url(#path-179-inside-89_1454_18750)"/>
<mask id="path-181-inside-90_1454_18750" fill="white">
<path d="M203.926 303.926H254.118V354.119H203.926V303.926Z"/>
</mask>
<path d="M203.926 303.926H254.118V354.119H203.926V303.926Z" fill="#43A2FF"/>
<path d="M254.118 354.119V354.642H254.641V354.119H254.118ZM254.118 303.926H253.596V354.119H254.118H254.641V303.926H254.118ZM254.118 354.119V353.596H203.926V354.119V354.642H254.118V354.119Z" fill="#43A2FF" mask="url(#path-181-inside-90_1454_18750)"/>
<mask id="path-183-inside-91_1454_18750" fill="white">
<path d="M254.117 303.926H304.31V354.119H254.117V303.926Z"/>
</mask>
<path d="M304.31 354.119V354.642H304.833V354.119H304.31ZM304.31 303.926H303.787V354.119H304.31H304.833V303.926H304.31ZM304.31 354.119V353.596H254.117V354.119V354.642H304.31V354.119Z" fill="#43A2FF" mask="url(#path-183-inside-91_1454_18750)"/>
<mask id="path-185-inside-92_1454_18750" fill="white">
<path d="M304.312 303.926H354.505V354.119H304.312V303.926Z"/>
</mask>
<path d="M354.505 354.119V354.642H355.028V354.119H354.505ZM354.505 303.926H353.982V354.119H354.505H355.028V303.926H354.505ZM354.505 354.119V353.596H304.312V354.119V354.642H354.505V354.119Z" fill="#43A2FF" mask="url(#path-185-inside-92_1454_18750)"/>
<mask id="path-187-inside-93_1454_18750" fill="white">
<path d="M354.504 303.926H404.697V354.119H354.504V303.926Z"/>
</mask>
<path d="M404.697 354.119V354.642H405.219V354.119H404.697ZM404.697 303.926H404.174V354.119H404.697H405.219V303.926H404.697ZM404.697 354.119V353.596H354.504V354.119V354.642H404.697V354.119Z" fill="#43A2FF" mask="url(#path-187-inside-93_1454_18750)"/>
<mask id="path-189-inside-94_1454_18750" fill="white">
<path d="M404.695 303.926H454.888V354.119H404.695V303.926Z"/>
</mask>
<path d="M454.888 354.119V354.642H455.411V354.119H454.888ZM454.888 303.926H454.365V354.119H454.888H455.411V303.926H454.888ZM454.888 354.119V353.596H404.695V354.119V354.642H454.888V354.119Z" fill="#43A2FF" mask="url(#path-189-inside-94_1454_18750)"/>
<mask id="path-191-inside-95_1454_18750" fill="white">
<path d="M454.891 303.926H505.083V354.119H454.891V303.926Z"/>
</mask>
<path d="M505.083 354.119V354.642H505.606V354.119H505.083ZM505.083 303.926H504.56V354.119H505.083H505.606V303.926H505.083ZM505.083 354.119V353.596H454.891V354.119V354.642H505.083V354.119Z" fill="#43A2FF" mask="url(#path-191-inside-95_1454_18750)"/>
<mask id="path-193-inside-96_1454_18750" fill="white">
<path d="M505.082 303.926H555.275V354.119H505.082V303.926Z"/>
</mask>
<path d="M555.275 354.119V354.642H555.798V354.119H555.275ZM555.275 303.926H554.752V354.119H555.275H555.798V303.926H555.275ZM555.275 354.119V353.596H505.082V354.119V354.642H555.275V354.119Z" fill="#43A2FF" mask="url(#path-193-inside-96_1454_18750)"/>
<mask id="path-195-inside-97_1454_18750" fill="white">
<path d="M-47.0352 354.119H3.15749V404.312H-47.0352V354.119Z"/>
</mask>
<path d="M3.15749 404.312V404.835H3.68033V404.312H3.15749ZM3.15749 354.119H2.63465V404.312H3.15749H3.68033V354.119H3.15749ZM3.15749 404.312V403.789H-47.0352V404.312V404.835H3.15749V404.312Z" fill="#43A2FF" mask="url(#path-195-inside-97_1454_18750)"/>
<mask id="path-197-inside-98_1454_18750" fill="white">
<path d="M3.15625 354.119H53.3489V404.312H3.15625V354.119Z"/>
</mask>
<path d="M53.3489 404.312V404.835H53.8717V404.312H53.3489ZM53.3489 354.119H52.8261V404.312H53.3489H53.8717V354.119H53.3489ZM53.3489 404.312V403.789H3.15625V404.312V404.835H53.3489V404.312Z" fill="#43A2FF" mask="url(#path-197-inside-98_1454_18750)"/>
<mask id="path-199-inside-99_1454_18750" fill="white">
<path d="M53.3477 354.119H103.54V404.312H53.3477V354.119Z"/>
</mask>
<path d="M103.54 404.312V404.835H104.063V404.312H103.54ZM103.54 354.119H103.017V404.312H103.54H104.063V354.119H103.54ZM103.54 404.312V403.789H53.3477V404.312V404.835H103.54V404.312Z" fill="#43A2FF" mask="url(#path-199-inside-99_1454_18750)"/>
<mask id="path-201-inside-100_1454_18750" fill="white">
<path d="M103.543 354.119H153.736V404.312H103.543V354.119Z"/>
</mask>
<path d="M153.736 404.312V404.835H154.258V404.312H153.736ZM153.736 354.119H153.213V404.312H153.736H154.258V354.119H153.736ZM153.736 404.312V403.789H103.543V404.312V404.835H153.736V404.312Z" fill="#43A2FF" mask="url(#path-201-inside-100_1454_18750)"/>
<mask id="path-203-inside-101_1454_18750" fill="white">
<path d="M153.734 354.119H203.927V404.312H153.734V354.119Z"/>
</mask>
<path d="M203.927 404.312V404.835H204.45V404.312H203.927ZM203.927 354.119H203.404V404.312H203.927H204.45V354.119H203.927ZM203.927 404.312V403.789H153.734V404.312V404.835H203.927V404.312Z" fill="#43A2FF" mask="url(#path-203-inside-101_1454_18750)"/>
<mask id="path-205-inside-102_1454_18750" fill="white">
<path d="M203.926 354.119H254.118V404.312H203.926V354.119Z"/>
</mask>
<path d="M254.118 404.312V404.835H254.641V404.312H254.118ZM254.118 354.119H253.596V404.312H254.118H254.641V354.119H254.118ZM254.118 404.312V403.789H203.926V404.312V404.835H254.118V404.312Z" fill="#43A2FF" mask="url(#path-205-inside-102_1454_18750)"/>
<mask id="path-207-inside-103_1454_18750" fill="white">
<path d="M254.117 354.119H304.31V404.312H254.117V354.119Z"/>
</mask>
<path d="M304.31 404.312V404.835H304.833V404.312H304.31ZM304.31 354.119H303.787V404.312H304.31H304.833V354.119H304.31ZM304.31 404.312V403.789H254.117V404.312V404.835H304.31V404.312Z" fill="#43A2FF" mask="url(#path-207-inside-103_1454_18750)"/>
<mask id="path-209-inside-104_1454_18750" fill="white">
<path d="M304.312 354.119H354.505V404.312H304.312V354.119Z"/>
</mask>
<path d="M354.505 404.312V404.835H355.028V404.312H354.505ZM354.505 354.119H353.982V404.312H354.505H355.028V354.119H354.505ZM354.505 404.312V403.789H304.312V404.312V404.835H354.505V404.312Z" fill="#43A2FF" mask="url(#path-209-inside-104_1454_18750)"/>
<mask id="path-211-inside-105_1454_18750" fill="white">
<path d="M354.504 354.119H404.697V404.312H354.504V354.119Z"/>
</mask>
<path d="M404.697 404.312V404.835H405.219V404.312H404.697ZM404.697 354.119H404.174V404.312H404.697H405.219V354.119H404.697ZM404.697 404.312V403.789H354.504V404.312V404.835H404.697V404.312Z" fill="#43A2FF" mask="url(#path-211-inside-105_1454_18750)"/>
<mask id="path-213-inside-106_1454_18750" fill="white">
<path d="M404.695 354.119H454.888V404.312H404.695V354.119Z"/>
</mask>
<path d="M404.695 354.119H454.888V404.312H404.695V354.119Z" fill="#43A2FF"/>
<path d="M454.888 404.312V404.835H455.411V404.312H454.888ZM454.888 354.119H454.365V404.312H454.888H455.411V354.119H454.888ZM454.888 404.312V403.789H404.695V404.312V404.835H454.888V404.312Z" fill="#43A2FF" mask="url(#path-213-inside-106_1454_18750)"/>
<mask id="path-215-inside-107_1454_18750" fill="white">
<path d="M454.891 354.119H505.083V404.312H454.891V354.119Z"/>
</mask>
<path d="M505.083 404.312V404.835H505.606V404.312H505.083ZM505.083 354.119H504.56V404.312H505.083H505.606V354.119H505.083ZM505.083 404.312V403.789H454.891V404.312V404.835H505.083V404.312Z" fill="#43A2FF" mask="url(#path-215-inside-107_1454_18750)"/>
<mask id="path-217-inside-108_1454_18750" fill="white">
<path d="M505.082 354.119H555.275V404.312H505.082V354.119Z"/>
</mask>
<path d="M555.275 404.312V404.835H555.798V404.312H555.275ZM555.275 354.119H554.752V404.312H555.275H555.798V354.119H555.275ZM555.275 404.312V403.789H505.082V404.312V404.835H555.275V404.312Z" fill="#43A2FF" mask="url(#path-217-inside-108_1454_18750)"/>
<mask id="path-219-inside-109_1454_18750" fill="white">
<path d="M-47.0352 404.312H3.15749V454.504H-47.0352V404.312Z"/>
</mask>
<path d="M3.15749 454.504V455.027H3.68033V454.504H3.15749ZM3.15749 404.312H2.63465V454.504H3.15749H3.68033V404.312H3.15749ZM3.15749 454.504V453.981H-47.0352V454.504V455.027H3.15749V454.504Z" fill="#43A2FF" mask="url(#path-219-inside-109_1454_18750)"/>
<mask id="path-221-inside-110_1454_18750" fill="white">
<path d="M3.15625 404.312H53.3489V454.504H3.15625V404.312Z"/>
</mask>
<path d="M53.3489 454.504V455.027H53.8717V454.504H53.3489ZM53.3489 404.312H52.8261V454.504H53.3489H53.8717V404.312H53.3489ZM53.3489 454.504V453.981H3.15625V454.504V455.027H53.3489V454.504Z" fill="#43A2FF" mask="url(#path-221-inside-110_1454_18750)"/>
<mask id="path-223-inside-111_1454_18750" fill="white">
<path d="M53.3477 404.312H103.54V454.504H53.3477V404.312Z"/>
</mask>
<path d="M103.54 454.504V455.027H104.063V454.504H103.54ZM103.54 404.312H103.017V454.504H103.54H104.063V404.312H103.54ZM103.54 454.504V453.981H53.3477V454.504V455.027H103.54V454.504Z" fill="#43A2FF" mask="url(#path-223-inside-111_1454_18750)"/>
<mask id="path-225-inside-112_1454_18750" fill="white">
<path d="M103.543 404.312H153.736V454.504H103.543V404.312Z"/>
</mask>
<path d="M103.543 404.312H153.736V454.504H103.543V404.312Z" fill="#43A2FF"/>
<path d="M153.736 454.504V455.027H154.258V454.504H153.736ZM153.736 404.312H153.213V454.504H153.736H154.258V404.312H153.736ZM153.736 454.504V453.981H103.543V454.504V455.027H153.736V454.504Z" fill="#43A2FF" mask="url(#path-225-inside-112_1454_18750)"/>
<mask id="path-227-inside-113_1454_18750" fill="white">
<path d="M153.734 404.312H203.927V454.504H153.734V404.312Z"/>
</mask>
<path d="M203.927 454.504V455.027H204.45V454.504H203.927ZM203.927 404.312H203.404V454.504H203.927H204.45V404.312H203.927ZM203.927 454.504V453.981H153.734V454.504V455.027H203.927V454.504Z" fill="#43A2FF" mask="url(#path-227-inside-113_1454_18750)"/>
<mask id="path-229-inside-114_1454_18750" fill="white">
<path d="M203.926 404.312H254.118V454.504H203.926V404.312Z"/>
</mask>
<path d="M254.118 454.504V455.027H254.641V454.504H254.118ZM254.118 404.312H253.596V454.504H254.118H254.641V404.312H254.118ZM254.118 454.504V453.981H203.926V454.504V455.027H254.118V454.504Z" fill="#43A2FF" mask="url(#path-229-inside-114_1454_18750)"/>
<mask id="path-231-inside-115_1454_18750" fill="white">
<path d="M254.117 404.312H304.31V454.504H254.117V404.312Z"/>
</mask>
<path d="M304.31 454.504V455.027H304.833V454.504H304.31ZM304.31 404.312H303.787V454.504H304.31H304.833V404.312H304.31ZM304.31 454.504V453.981H254.117V454.504V455.027H304.31V454.504Z" fill="#43A2FF" mask="url(#path-231-inside-115_1454_18750)"/>
<mask id="path-233-inside-116_1454_18750" fill="white">
<path d="M304.312 404.312H354.505V454.504H304.312V404.312Z"/>
</mask>
<path d="M354.505 454.504V455.027H355.028V454.504H354.505ZM354.505 404.312H353.982V454.504H354.505H355.028V404.312H354.505ZM354.505 454.504V453.981H304.312V454.504V455.027H354.505V454.504Z" fill="#43A2FF" mask="url(#path-233-inside-116_1454_18750)"/>
<mask id="path-235-inside-117_1454_18750" fill="white">
<path d="M354.504 404.312H404.697V454.504H354.504V404.312Z"/>
</mask>
<path d="M404.697 454.504V455.027H405.219V454.504H404.697ZM404.697 404.312H404.174V454.504H404.697H405.219V404.312H404.697ZM404.697 454.504V453.981H354.504V454.504V455.027H404.697V454.504Z" fill="#43A2FF" mask="url(#path-235-inside-117_1454_18750)"/>
<mask id="path-237-inside-118_1454_18750" fill="white">
<path d="M404.695 404.312H454.888V454.504H404.695V404.312Z"/>
</mask>
<path d="M454.888 454.504V455.027H455.411V454.504H454.888ZM454.888 404.312H454.365V454.504H454.888H455.411V404.312H454.888ZM454.888 454.504V453.981H404.695V454.504V455.027H454.888V454.504Z" fill="#43A2FF" mask="url(#path-237-inside-118_1454_18750)"/>
<mask id="path-239-inside-119_1454_18750" fill="white">
<path d="M454.891 404.312H505.083V454.504H454.891V404.312Z"/>
</mask>
<path d="M505.083 454.504V455.027H505.606V454.504H505.083ZM505.083 404.312H504.56V454.504H505.083H505.606V404.312H505.083ZM505.083 454.504V453.981H454.891V454.504V455.027H505.083V454.504Z" fill="#43A2FF" mask="url(#path-239-inside-119_1454_18750)"/>
<mask id="path-241-inside-120_1454_18750" fill="white">
<path d="M505.082 404.312H555.275V454.504H505.082V404.312Z"/>
</mask>
<path d="M555.275 454.504V455.027H555.798V454.504H555.275ZM555.275 404.312H554.752V454.504H555.275H555.798V404.312H555.275ZM555.275 454.504V453.981H505.082V454.504V455.027H555.275V454.504Z" fill="#43A2FF" mask="url(#path-241-inside-120_1454_18750)"/>
<mask id="path-243-inside-121_1454_18750" fill="white">
<path d="M-47.0352 454.504H3.15749V504.697H-47.0352V454.504Z"/>
</mask>
<path d="M-47.0352 454.504H3.15749V504.697H-47.0352V454.504Z" fill="#43A2FF"/>
<path d="M3.15749 504.697V505.22H3.68033V504.697H3.15749ZM3.15749 454.504H2.63465V504.697H3.15749H3.68033V454.504H3.15749ZM3.15749 504.697V504.174H-47.0352V504.697V505.22H3.15749V504.697Z" fill="#43A2FF" mask="url(#path-243-inside-121_1454_18750)"/>
<mask id="path-245-inside-122_1454_18750" fill="white">
<path d="M3.15625 454.504H53.3489V504.697H3.15625V454.504Z"/>
</mask>
<path d="M53.3489 504.697V505.22H53.8717V504.697H53.3489ZM53.3489 454.504H52.8261V504.697H53.3489H53.8717V454.504H53.3489ZM53.3489 504.697V504.174H3.15625V504.697V505.22H53.3489V504.697Z" fill="#43A2FF" mask="url(#path-245-inside-122_1454_18750)"/>
<mask id="path-247-inside-123_1454_18750" fill="white">
<path d="M53.3477 454.504H103.54V504.697H53.3477V454.504Z"/>
</mask>
<path d="M103.54 504.697V505.22H104.063V504.697H103.54ZM103.54 454.504H103.017V504.697H103.54H104.063V454.504H103.54ZM103.54 504.697V504.174H53.3477V504.697V505.22H103.54V504.697Z" fill="#43A2FF" mask="url(#path-247-inside-123_1454_18750)"/>
<mask id="path-249-inside-124_1454_18750" fill="white">
<path d="M103.543 454.504H153.736V504.697H103.543V454.504Z"/>
</mask>
<path d="M153.736 504.697V505.22H154.258V504.697H153.736ZM153.736 454.504H153.213V504.697H153.736H154.258V454.504H153.736ZM153.736 504.697V504.174H103.543V504.697V505.22H153.736V504.697Z" fill="#43A2FF" mask="url(#path-249-inside-124_1454_18750)"/>
<mask id="path-251-inside-125_1454_18750" fill="white">
<path d="M153.734 454.504H203.927V504.697H153.734V454.504Z"/>
</mask>
<path d="M203.927 504.697V505.22H204.45V504.697H203.927ZM203.927 454.504H203.404V504.697H203.927H204.45V454.504H203.927ZM203.927 504.697V504.174H153.734V504.697V505.22H203.927V504.697Z" fill="#43A2FF" mask="url(#path-251-inside-125_1454_18750)"/>
<mask id="path-253-inside-126_1454_18750" fill="white">
<path d="M203.926 454.504H254.118V504.697H203.926V454.504Z"/>
</mask>
<path d="M254.118 504.697V505.22H254.641V504.697H254.118ZM254.118 454.504H253.596V504.697H254.118H254.641V454.504H254.118ZM254.118 504.697V504.174H203.926V504.697V505.22H254.118V504.697Z" fill="#43A2FF" mask="url(#path-253-inside-126_1454_18750)"/>
<mask id="path-255-inside-127_1454_18750" fill="white">
<path d="M254.117 454.504H304.31V504.697H254.117V454.504Z"/>
</mask>
<path d="M254.117 454.504H304.31V504.697H254.117V454.504Z" fill="#43A2FF"/>
<path d="M304.31 504.697V505.22H304.833V504.697H304.31ZM304.31 454.504H303.787V504.697H304.31H304.833V454.504H304.31ZM304.31 504.697V504.174H254.117V504.697V505.22H304.31V504.697Z" fill="#43A2FF" mask="url(#path-255-inside-127_1454_18750)"/>
<mask id="path-257-inside-128_1454_18750" fill="white">
<path d="M304.312 454.504H354.505V504.697H304.312V454.504Z"/>
</mask>
<path d="M354.505 504.697V505.22H355.028V504.697H354.505ZM354.505 454.504H353.982V504.697H354.505H355.028V454.504H354.505ZM354.505 504.697V504.174H304.312V504.697V505.22H354.505V504.697Z" fill="#43A2FF" mask="url(#path-257-inside-128_1454_18750)"/>
<mask id="path-259-inside-129_1454_18750" fill="white">
<path d="M354.504 454.504H404.697V504.697H354.504V454.504Z"/>
</mask>
<path d="M404.697 504.697V505.22H405.219V504.697H404.697ZM404.697 454.504H404.174V504.697H404.697H405.219V454.504H404.697ZM404.697 504.697V504.174H354.504V504.697V505.22H404.697V504.697Z" fill="#43A2FF" mask="url(#path-259-inside-129_1454_18750)"/>
<mask id="path-261-inside-130_1454_18750" fill="white">
<path d="M404.695 454.504H454.888V504.697H404.695V454.504Z"/>
</mask>
<path d="M454.888 504.697V505.22H455.411V504.697H454.888ZM454.888 454.504H454.365V504.697H454.888H455.411V454.504H454.888ZM454.888 504.697V504.174H404.695V504.697V505.22H454.888V504.697Z" fill="#43A2FF" mask="url(#path-261-inside-130_1454_18750)"/>
<mask id="path-263-inside-131_1454_18750" fill="white">
<path d="M454.891 454.504H505.083V504.697H454.891V454.504Z"/>
</mask>
<path d="M505.083 504.697V505.22H505.606V504.697H505.083ZM505.083 454.504H504.56V504.697H505.083H505.606V454.504H505.083ZM505.083 504.697V504.174H454.891V504.697V505.22H505.083V504.697Z" fill="#43A2FF" mask="url(#path-263-inside-131_1454_18750)"/>
<mask id="path-265-inside-132_1454_18750" fill="white">
<path d="M505.082 454.504H555.275V504.697H505.082V454.504Z"/>
</mask>
<path d="M555.275 504.697V505.22H555.798V504.697H555.275ZM555.275 454.504H554.752V504.697H555.275H555.798V454.504H555.275ZM555.275 504.697V504.174H505.082V504.697V505.22H555.275V504.697Z" fill="#43A2FF" mask="url(#path-265-inside-132_1454_18750)"/>
<mask id="path-267-inside-133_1454_18750" fill="white">
<path d="M-47.0352 504.697H3.15749V554.889H-47.0352V504.697Z"/>
</mask>
<path d="M3.15749 554.889V555.412H3.68033V554.889H3.15749ZM3.15749 504.697H2.63465V554.889H3.15749H3.68033V504.697H3.15749ZM3.15749 554.889V554.367H-47.0352V554.889V555.412H3.15749V554.889Z" fill="#43A2FF" mask="url(#path-267-inside-133_1454_18750)"/>
<mask id="path-269-inside-134_1454_18750" fill="white">
<path d="M3.15625 504.697H53.3489V554.889H3.15625V504.697Z"/>
</mask>
<path d="M53.3489 554.889V555.412H53.8717V554.889H53.3489ZM53.3489 504.697H52.8261V554.889H53.3489H53.8717V504.697H53.3489ZM53.3489 554.889V554.367H3.15625V554.889V555.412H53.3489V554.889Z" fill="#43A2FF" mask="url(#path-269-inside-134_1454_18750)"/>
<mask id="path-271-inside-135_1454_18750" fill="white">
<path d="M53.3477 504.697H103.54V554.889H53.3477V504.697Z"/>
</mask>
<path d="M103.54 554.889V555.412H104.063V554.889H103.54ZM103.54 504.697H103.017V554.889H103.54H104.063V504.697H103.54ZM103.54 554.889V554.367H53.3477V554.889V555.412H103.54V554.889Z" fill="#43A2FF" mask="url(#path-271-inside-135_1454_18750)"/>
<mask id="path-273-inside-136_1454_18750" fill="white">
<path d="M103.543 504.697H153.736V554.889H103.543V504.697Z"/>
</mask>
<path d="M153.736 554.889V555.412H154.258V554.889H153.736ZM153.736 504.697H153.213V554.889H153.736H154.258V504.697H153.736ZM153.736 554.889V554.367H103.543V554.889V555.412H153.736V554.889Z" fill="#43A2FF" mask="url(#path-273-inside-136_1454_18750)"/>
<mask id="path-275-inside-137_1454_18750" fill="white">
<path d="M153.734 504.697H203.927V554.889H153.734V504.697Z"/>
</mask>
<path d="M203.927 554.889V555.412H204.45V554.889H203.927ZM203.927 504.697H203.404V554.889H203.927H204.45V504.697H203.927ZM203.927 554.889V554.367H153.734V554.889V555.412H203.927V554.889Z" fill="#43A2FF" mask="url(#path-275-inside-137_1454_18750)"/>
<mask id="path-277-inside-138_1454_18750" fill="white">
<path d="M203.926 504.697H254.118V554.889H203.926V504.697Z"/>
</mask>
<path d="M254.118 554.889V555.412H254.641V554.889H254.118ZM254.118 504.697H253.596V554.889H254.118H254.641V504.697H254.118ZM254.118 554.889V554.367H203.926V554.889V555.412H254.118V554.889Z" fill="#43A2FF" mask="url(#path-277-inside-138_1454_18750)"/>
<mask id="path-279-inside-139_1454_18750" fill="white">
<path d="M254.117 504.697H304.31V554.889H254.117V504.697Z"/>
</mask>
<path d="M304.31 554.889V555.412H304.833V554.889H304.31ZM304.31 504.697H303.787V554.889H304.31H304.833V504.697H304.31ZM304.31 554.889V554.367H254.117V554.889V555.412H304.31V554.889Z" fill="#43A2FF" mask="url(#path-279-inside-139_1454_18750)"/>
<mask id="path-281-inside-140_1454_18750" fill="white">
<path d="M304.312 504.697H354.505V554.889H304.312V504.697Z"/>
</mask>
<path d="M354.505 554.889V555.412H355.028V554.889H354.505ZM354.505 504.697H353.982V554.889H354.505H355.028V504.697H354.505ZM354.505 554.889V554.367H304.312V554.889V555.412H354.505V554.889Z" fill="#43A2FF" mask="url(#path-281-inside-140_1454_18750)"/>
<mask id="path-283-inside-141_1454_18750" fill="white">
<path d="M354.504 504.697H404.697V554.889H354.504V504.697Z"/>
</mask>
<path d="M404.697 554.889V555.412H405.219V554.889H404.697ZM404.697 504.697H404.174V554.889H404.697H405.219V504.697H404.697ZM404.697 554.889V554.367H354.504V554.889V555.412H404.697V554.889Z" fill="#43A2FF" mask="url(#path-283-inside-141_1454_18750)"/>
<mask id="path-285-inside-142_1454_18750" fill="white">
<path d="M404.695 504.697H454.888V554.889H404.695V504.697Z"/>
</mask>
<path d="M454.888 554.889V555.412H455.411V554.889H454.888ZM454.888 504.697H454.365V554.889H454.888H455.411V504.697H454.888ZM454.888 554.889V554.367H404.695V554.889V555.412H454.888V554.889Z" fill="#43A2FF" mask="url(#path-285-inside-142_1454_18750)"/>
<mask id="path-287-inside-143_1454_18750" fill="white">
<path d="M454.891 504.697H505.083V554.889H454.891V504.697Z"/>
</mask>
<path d="M505.083 554.889V555.412H505.606V554.889H505.083ZM505.083 504.697H504.56V554.889H505.083H505.606V504.697H505.083ZM505.083 554.889V554.367H454.891V554.889V555.412H505.083V554.889Z" fill="#43A2FF" mask="url(#path-287-inside-143_1454_18750)"/>
<mask id="path-289-inside-144_1454_18750" fill="white">
<path d="M505.082 504.697H555.275V554.889H505.082V504.697Z"/>
</mask>
<path d="M505.082 504.697H555.275V554.889H505.082V504.697Z" fill="#43A2FF"/>
<path d="M555.275 554.889V555.412H555.798V554.889H555.275ZM555.275 504.697H554.752V554.889H555.275H555.798V504.697H555.275ZM555.275 554.889V554.367H505.082V554.889V555.412H555.275V554.889Z" fill="#43A2FF" mask="url(#path-289-inside-144_1454_18750)"/>
</g>
<rect x="-297.739" y="-197.739" width="1003.33" height="752.367" stroke="#43A2FF" stroke-width="0.52284"/>
</g>
</g>
<defs>
<radialGradient id="paint0_radial_1454_18750" cx="0" cy="0" r="1" gradientUnits="userSpaceOnUse" gradientTransform="translate(376.445 -7.46059e-05) rotate(90) scale(625.84 392.96)">
<stop/>
<stop offset="0.953125" stop-opacity="0"/>
</radialGradient>
<clipPath id="clip0_1454_18750">
<rect width="528" height="567" fill="white"/>
</clipPath>
<clipPath id="clip1_1454_18750">
<rect x="-298" y="-198" width="1003.85" height="752.89" fill="white"/>
</clipPath>
</defs>
</svg>
