<svg width="19" height="20" viewBox="0 0 19 20" fill="none" xmlns="http://www.w3.org/2000/svg">
<path fill-rule="evenodd" clip-rule="evenodd" d="M6.17257 7.93955C6.02285 7.70753 6.08955 7.3981 6.32157 7.24836L10.2825 4.69228C10.5145 4.54255 10.8239 4.60925 10.9737 4.84128L13.5298 8.80217C13.6795 9.03419 13.6128 9.34362 13.3808 9.49336C13.1487 9.64309 12.8393 9.57639 12.6896 9.34436L10.788 6.39776L9.63754 11.7347C9.53734 12.1996 9.52818 12.9387 9.81972 13.6063C10.0986 14.2451 10.6661 14.8548 11.8102 15.1015C12.0802 15.1597 12.2518 15.4257 12.1936 15.6956C12.1354 15.9655 11.8694 16.1372 11.5995 16.079C10.1368 15.7637 9.30918 14.9361 8.90322 14.0065C8.50987 13.1057 8.52607 12.1453 8.66 11.524L9.81044 6.18704L6.8638 8.08856C6.63178 8.23829 6.3223 8.17158 6.17257 7.93955Z" fill="white"/>
</svg>
