<svg width="56" height="57" viewBox="0 0 56 57" fill="none" xmlns="http://www.w3.org/2000/svg">
<path d="M41.2301 37.6981L42.9566 39.4263C43.1774 39.6477 43.4397 39.8233 43.7286 39.9432C44.0174 40.063 44.327 40.1247 44.6397 40.1247C44.9524 40.1247 45.262 40.063 45.5508 39.9432C45.8396 39.8233 46.1019 39.6477 46.3228 39.4263L51.7763 33.9658C51.9405 33.8029 52.0708 33.6091 52.1598 33.3956C52.2487 33.1821 52.2945 32.953 52.2945 32.7217C52.2945 32.4904 52.2487 32.2614 52.1598 32.0479C52.0708 31.8344 51.9405 31.6406 51.7763 31.4776L41.6605 21.3497C41.5867 21.2777 41.5282 21.1918 41.4882 21.0969C41.4482 21.002 41.4276 20.9 41.4276 20.797C41.4276 20.694 41.4482 20.5921 41.4882 20.4972C41.5282 20.4023 41.5867 20.3163 41.6605 20.2444C41.8513 20.0535 42.1116 19.9841 42.3528 20.0362C43.9925 20.3138 45.7363 19.8279 46.996 18.5682C47.4926 18.0695 47.8854 17.4774 48.1518 16.826C48.4182 16.1745 48.5528 15.4768 48.548 14.7731C48.5431 14.0693 48.3989 13.3735 48.1236 12.7258C47.8483 12.0781 47.4473 11.4914 46.9439 10.9996L45.4587 9.49522L44.7854 9.72078C43.9266 9.46234 43.0161 9.42641 42.1395 9.61639C41.263 9.80637 40.4491 10.216 39.7743 10.8069C39.0995 11.3977 38.5859 12.1504 38.2818 12.9941C37.9777 13.8379 37.893 14.7452 38.0358 15.6307C38.0705 15.8909 38.0011 16.1321 37.8119 16.3212L37.7772 16.3559C37.7054 16.4296 37.6196 16.4882 37.5249 16.5281C37.4301 16.5681 37.3283 16.5887 37.2255 16.5887C37.1226 16.5887 37.0208 16.5681 36.926 16.5281C36.8313 16.4882 36.7455 16.4296 36.6737 16.3559L26.5578 6.24878C26.395 6.08483 26.2013 5.95473 25.9879 5.86594C25.7745 5.77715 25.5457 5.73145 25.3146 5.73145C25.0835 5.73145 24.8547 5.77715 24.6413 5.86594C24.428 5.95473 24.2343 6.08483 24.0714 6.24878L18.6699 11.6572C18.5311 11.796 18.427 11.9522 18.3229 12.1066L17.962 11.7422L16.6832 13.0227L18.6682 15.0095L18.7029 15.0442C19.187 15.5283 19.8429 15.7868 20.5161 15.7521C21.3191 15.7149 22.12 15.8605 22.8585 16.1779C23.597 16.4953 24.2538 16.9762 24.7793 17.5844C25.6106 18.5509 26.0678 19.7834 26.0678 21.0582C26.0678 22.3329 25.6106 23.5655 24.7793 24.5319C24.3031 25.0843 23.7181 25.5327 23.0609 25.8491C22.4037 26.1654 21.6883 26.343 20.9594 26.3706C20.2306 26.3983 19.5038 26.2755 18.8245 26.0099C18.1452 25.7443 17.5279 25.3416 17.0111 24.8269C16.4765 24.2976 16.0625 23.6591 15.7974 22.9551C15.5324 22.251 15.4226 21.498 15.4755 20.7476C15.5102 20.0726 15.2673 19.4167 14.7849 18.9326C14.7738 18.9054 14.7558 18.8816 14.7329 18.8632L13.0411 17.1697L12.3002 17.9297L12.6282 18.2594C12.1681 18.351 11.7465 18.5796 11.4188 18.9153L5.96352 24.3757C5.79931 24.5386 5.66898 24.7325 5.58004 24.946C5.4911 25.1595 5.44531 25.3885 5.44531 25.6198C5.44531 25.8511 5.4911 26.0802 5.58004 26.2937C5.66898 26.5072 5.79931 26.701 5.96352 26.8639L16.0967 37.0093C16.409 37.3198 16.409 37.8039 16.0967 38.1145C16.0086 38.2048 15.899 38.2712 15.7782 38.3076C15.6575 38.3441 15.5294 38.3493 15.4061 38.3228C14.5123 38.1694 13.5941 38.2476 12.7391 38.5498C11.884 38.8521 11.1207 39.3683 10.5217 40.0492C9.68334 41.0148 9.22027 42.2497 9.21709 43.5284C9.2139 44.8071 9.67081 46.0443 10.5044 47.014C10.9804 47.5676 11.5658 48.0166 12.2238 48.3329C12.8818 48.6492 13.5981 48.826 14.3277 48.8521C15.0573 48.8781 15.7845 48.753 16.4633 48.4844C17.1422 48.2159 17.7582 47.8098 18.2726 47.2917C18.8633 46.699 19.3056 45.9752 19.5634 45.1791C19.8213 44.3831 19.8873 43.5373 19.7561 42.7109C19.7364 42.5862 19.7466 42.4585 19.7858 42.3385C19.825 42.2184 19.8921 42.1094 19.9817 42.0203L20.0164 41.9856C20.0882 41.912 20.174 41.8534 20.2687 41.8134C20.3635 41.7735 20.4653 41.7529 20.5682 41.7529C20.671 41.7529 20.7728 41.7735 20.8676 41.8134C20.9623 41.8534 21.0481 41.912 21.1199 41.9856L31.1837 52.0598C31.3466 52.2238 31.5403 52.3539 31.7536 52.4427C31.967 52.5314 32.1958 52.5772 32.4269 52.5772C32.658 52.5772 32.8868 52.5314 33.1002 52.4427C33.3136 52.3539 33.5073 52.2238 33.6702 52.0598L39.0734 46.6514C39.2953 46.4305 39.4714 46.168 39.5915 45.8788C39.7117 45.5897 39.7736 45.2797 39.7736 44.9666C39.7736 44.6535 39.7117 44.3435 39.5915 44.0543C39.4714 43.7652 39.2953 43.5026 39.0734 43.2818L39.0387 43.2471L37.5013 41.708L36.8281 42.383L37.019 42.5738C36.2536 42.5766 35.4965 42.4143 34.7995 42.0981C34.1024 41.7819 33.4817 41.3192 32.9796 40.7415C32.1483 39.7751 31.6911 38.5426 31.6911 37.2678C31.6911 35.993 32.1483 34.7605 32.9796 33.794C33.4558 33.2416 34.0408 32.7932 34.698 32.4769C35.3552 32.1605 36.0706 31.983 36.7995 31.9553C37.5283 31.9276 38.2551 32.0504 38.9344 32.316C39.6137 32.5816 40.231 32.9844 40.7478 33.4991C41.6448 34.3996 42.1619 35.5569 42.266 36.7316L42.2313 36.6969L41.2301 37.6981Z" fill="#D3D3D3"/>
<path d="M38.0109 9.04237C37.3299 9.63248 36.8109 10.3867 36.503 11.2336C36.1951 12.0805 36.1085 12.992 36.2515 13.8817C36.2862 14.1419 36.2168 14.3831 36.0259 14.5722L35.9912 14.6069C35.9195 14.6806 35.8337 14.7392 35.7389 14.7791C35.6441 14.8191 35.5423 14.8397 35.4395 14.8397C35.3366 14.8397 35.2348 14.8191 35.14 14.7791C35.0453 14.7392 34.9595 14.6806 34.8877 14.6069L24.7944 4.51367C24.6319 4.34909 24.4383 4.21843 24.2249 4.12925C24.0115 4.04006 23.7825 3.99414 23.5512 3.99414C23.3199 3.99414 23.0909 4.04006 22.8775 4.12925C22.6641 4.21843 22.4705 4.34909 22.308 4.51367L16.9082 9.92208C16.6867 10.1433 16.5109 10.4061 16.391 10.6954C16.2711 10.9846 16.2093 11.2946 16.2093 11.6078C16.2093 11.9209 16.2711 12.2309 16.391 12.5202C16.5109 12.8094 16.6867 13.0722 16.9082 13.2935L16.9603 13.3282C17.4253 13.7966 18.0812 14.0552 18.7544 14.0205C19.5572 13.9822 20.3582 14.1274 21.0966 14.4448C21.835 14.7623 22.4913 15.2438 23.0159 15.8528C23.8477 16.8193 24.3051 18.0522 24.3051 19.3274C24.3051 20.6026 23.8477 21.8354 23.0159 22.802C22.5396 23.3539 21.9549 23.8018 21.298 24.1178C20.6411 24.4338 19.9261 24.6112 19.1977 24.6389C18.4693 24.6665 17.7429 24.5439 17.064 24.2786C16.385 24.0134 15.7679 23.6111 15.2512 23.097C14.724 22.5583 14.3152 21.9156 14.0507 21.2099C13.7863 20.5041 13.6722 19.751 13.7156 18.9986C13.7676 18.3236 13.5074 17.6504 13.025 17.1836C12.8045 16.9616 12.5423 16.7854 12.2534 16.6652C11.9646 16.5449 11.6548 16.483 11.3419 16.483C11.029 16.483 10.7192 16.5449 10.4304 16.6652C10.1415 16.7854 9.87929 16.9616 9.65882 17.1836L4.22611 22.6285C4.06165 22.7914 3.93109 22.9853 3.842 23.199C3.7529 23.4127 3.70703 23.6419 3.70703 23.8734C3.70703 24.105 3.7529 24.3342 3.842 24.5479C3.93109 24.7615 4.06165 24.9555 4.22611 25.1184L14.3558 35.2655C14.4296 35.3375 14.4882 35.4236 14.5282 35.5187C14.5683 35.6137 14.5889 35.7158 14.5889 35.819C14.5889 35.9221 14.5683 36.0242 14.5282 36.1193C14.4882 36.2143 14.4296 36.3004 14.3558 36.3725C14.2677 36.4627 14.1581 36.5292 14.0374 36.5656C13.9166 36.602 13.7886 36.6072 13.6652 36.5807C12.7715 36.4279 11.8536 36.5065 10.9989 36.809C10.1442 37.1116 9.38117 37.6279 8.78258 38.3089C7.94542 39.2754 7.48317 40.5103 7.47998 41.789C7.4768 43.0676 7.93289 44.3048 8.76523 45.2755C9.24125 45.8284 9.82648 46.277 10.4841 46.593C11.1418 46.909 11.8577 47.0855 12.5869 47.1116C13.3161 47.1377 14.0428 47.0127 14.7213 46.7445C15.3999 46.4763 16.0157 46.0706 16.53 45.5531C17.1207 44.9605 17.563 44.2366 17.8208 43.4405C18.0787 42.6445 18.1447 41.7988 18.0135 40.9723C17.9932 40.847 18.0031 40.7187 18.0423 40.598C18.0815 40.4773 18.149 40.3677 18.2391 40.2783L18.2738 40.2436C18.3455 40.1699 18.4313 40.1114 18.5261 40.0714C18.6209 40.0314 18.7227 40.0108 18.8255 40.0108C18.9284 40.0108 19.0302 40.0314 19.125 40.0714C19.2197 40.1114 19.3055 40.1699 19.3773 40.2436L29.4376 50.3247C29.6001 50.489 29.7936 50.6195 30.0069 50.7085C30.2201 50.7975 30.4489 50.8434 30.68 50.8434C30.9111 50.8434 31.1399 50.7975 31.3531 50.7085C31.5664 50.6195 31.7598 50.489 31.9223 50.3247L37.3221 44.9111C37.5434 44.6899 37.7189 44.4272 37.8387 44.1381C37.9585 43.849 38.0201 43.5392 38.0201 43.2263C38.0201 42.9134 37.9585 42.6035 37.8387 42.3144C37.7189 42.0253 37.5434 41.7627 37.3221 41.5414L37.2874 41.5067C37.053 41.2727 36.7724 41.0903 36.4634 40.9711C36.1545 40.8518 35.824 40.7985 35.4932 40.8144C34.6904 40.8527 33.8894 40.7075 33.1511 40.3901C32.4127 40.0726 31.7563 39.5911 31.2318 38.9821C30.4 38.0156 29.9425 36.7827 29.9425 35.5075C29.9425 34.2323 30.4 32.9995 31.2318 32.0329C31.708 31.481 32.2928 31.0331 32.9497 30.7171C33.6066 30.4011 34.3215 30.2237 35.0499 30.196C35.7784 30.1684 36.5047 30.291 37.1837 30.5562C37.8627 30.8215 38.4797 31.2238 38.9965 31.7379C40.1174 32.8623 40.6362 34.3493 40.5321 35.819C40.4974 36.4939 40.7403 37.1498 41.2227 37.6339C41.4431 37.8559 41.7053 38.0322 41.9942 38.1524C42.2831 38.2726 42.5929 38.3345 42.9057 38.3345C43.2186 38.3345 43.5284 38.2726 43.8173 38.1524C44.1061 38.0322 44.3684 37.8559 44.5888 37.6339L50.0406 32.1717C50.2051 32.0088 50.3356 31.8149 50.4247 31.6012C50.5138 31.3875 50.5597 31.1583 50.5597 30.9268C50.5597 30.6952 50.5138 30.466 50.4247 30.2523C50.3356 30.0387 50.2051 29.8447 50.0406 29.6818L39.9283 19.5521C39.8545 19.48 39.7959 19.3939 39.7559 19.2989C39.7158 19.2038 39.6952 19.1017 39.6952 18.9986C39.6952 18.8954 39.7158 18.7933 39.7559 18.6983C39.7959 18.6032 39.8545 18.5171 39.9283 18.4451C40.1191 18.2542 40.3777 18.1848 40.6188 18.2368C41.4535 18.3815 42.3107 18.3237 43.1184 18.0683C43.9261 17.8128 44.6606 17.3672 45.2603 16.7689C45.7763 16.2516 46.1801 15.6334 46.4464 14.953C46.7127 14.2726 46.8359 13.5446 46.8082 12.8145C46.7805 12.0843 46.6026 11.3678 46.2855 10.7095C45.9684 10.0512 45.519 9.46537 44.9654 8.98858C42.9647 7.32979 39.9803 7.32979 38.0127 9.04063" fill="#C3EF3C"/>
</svg>
