<svg width="86" height="15" viewBox="0 0 86 15" fill="none" xmlns="http://www.w3.org/2000/svg">
<g clip-path="url(#clip0_1418_35795)">
<path d="M13.7362 5.33578C13.6334 5.02975 13.3685 4.80662 13.0495 4.75784L9.33756 4.19062L7.67024 0.638779C7.52805 0.336029 7.22421 0.143311 6.8904 0.143311C6.55637 0.143311 6.25274 0.336029 6.11055 0.638779L4.44302 4.19084L0.731054 4.75806C0.412117 4.80684 0.147211 5.02975 0.0446169 5.336C-0.0579769 5.64225 0.0194606 5.97956 0.244992 6.211L2.95574 8.99065L2.31371 12.9231C2.26077 13.2486 2.3988 13.5759 2.66809 13.7662C2.93715 13.9565 3.2924 13.9757 3.5818 13.8161L6.89062 11.9862L10.1994 13.8161C10.33 13.8882 10.4737 13.9237 10.6168 13.9237C10.7909 13.9237 10.9651 13.8707 11.1131 13.7662C11.3824 13.5761 11.5202 13.2488 11.4673 12.9231L10.8253 8.99065L13.5362 6.211C13.7613 5.97956 13.8388 5.64225 13.7362 5.33578Z" fill="#F7B50D"/>
</g>
<g clip-path="url(#clip1_1418_35795)">
<path d="M31.7362 5.33578C31.6334 5.02975 31.3685 4.80662 31.0495 4.75784L27.3376 4.19062L25.6702 0.638779C25.5281 0.336029 25.2242 0.143311 24.8904 0.143311C24.5564 0.143311 24.2527 0.336029 24.1106 0.638779L22.443 4.19084L18.7311 4.75806C18.4121 4.80684 18.1472 5.02975 18.0446 5.336C17.942 5.64225 18.0195 5.97956 18.245 6.211L20.9557 8.99065L20.3137 12.9231C20.2608 13.2486 20.3988 13.5759 20.6681 13.7662C20.9371 13.9565 21.2924 13.9757 21.5818 13.8161L24.8906 11.9862L28.1994 13.8161C28.33 13.8882 28.4737 13.9237 28.6168 13.9237C28.7909 13.9237 28.9651 13.8707 29.1131 13.7662C29.3824 13.5761 29.5202 13.2488 29.4673 12.9231L28.8253 8.99065L31.5362 6.211C31.7613 5.97956 31.8388 5.64225 31.7362 5.33578Z" fill="#F7B50D"/>
</g>
<g clip-path="url(#clip2_1418_35795)">
<path d="M49.7362 5.33578C49.6334 5.02975 49.3685 4.80662 49.0495 4.75784L45.3376 4.19062L43.6702 0.638779C43.5281 0.336029 43.2242 0.143311 42.8904 0.143311C42.5564 0.143311 42.2527 0.336029 42.1106 0.638779L40.443 4.19084L36.7311 4.75806C36.4121 4.80684 36.1472 5.02975 36.0446 5.336C35.942 5.64225 36.0195 5.97956 36.245 6.211L38.9557 8.99065L38.3137 12.9231C38.2608 13.2486 38.3988 13.5759 38.6681 13.7662C38.9371 13.9565 39.2924 13.9757 39.5818 13.8161L42.8906 11.9862L46.1994 13.8161C46.33 13.8882 46.4737 13.9237 46.6168 13.9237C46.7909 13.9237 46.9651 13.8707 47.1131 13.7662C47.3824 13.5761 47.5202 13.2488 47.4673 12.9231L46.8253 8.99065L49.5362 6.211C49.7613 5.97956 49.8388 5.64225 49.7362 5.33578Z" fill="#F7B50D"/>
</g>
<g clip-path="url(#clip3_1418_35795)">
<path d="M67.7362 5.33578C67.6334 5.02975 67.3685 4.80662 67.0495 4.75784L63.3376 4.19062L61.6702 0.638779C61.5281 0.336029 61.2242 0.143311 60.8904 0.143311C60.5564 0.143311 60.2527 0.336029 60.1106 0.638779L58.443 4.19084L54.7311 4.75806C54.4121 4.80684 54.1472 5.02975 54.0446 5.336C53.942 5.64225 54.0195 5.97956 54.245 6.211L56.9557 8.99065L56.3137 12.9231C56.2608 13.2486 56.3988 13.5759 56.6681 13.7662C56.9371 13.9565 57.2924 13.9757 57.5818 13.8161L60.8906 11.9862L64.1994 13.8161C64.33 13.8882 64.4737 13.9237 64.6168 13.9237C64.7909 13.9237 64.9651 13.8707 65.1131 13.7662C65.3824 13.5761 65.5202 13.2488 65.4673 12.9231L64.8253 8.99065L67.5362 6.211C67.7613 5.97956 67.8388 5.64225 67.7362 5.33578Z" fill="#F7B50D"/>
</g>
<g clip-path="url(#clip4_1418_35795)">
<path d="M85.7362 5.33578C85.6334 5.02975 85.3685 4.80662 85.0495 4.75784L81.3376 4.19062L79.6702 0.638779C79.5281 0.336029 79.2242 0.143311 78.8904 0.143311C78.5564 0.143311 78.2527 0.336029 78.1106 0.638779L76.443 4.19084L72.7311 4.75806C72.4121 4.80684 72.1472 5.02975 72.0446 5.336C71.942 5.64225 72.0195 5.97956 72.245 6.211L74.9557 8.99065L74.3137 12.9231C74.2608 13.2486 74.3988 13.5759 74.6681 13.7662C74.9371 13.9565 75.2924 13.9757 75.5818 13.8161L78.8906 11.9862L82.1994 13.8161C82.33 13.8882 82.4737 13.9237 82.6168 13.9237C82.7909 13.9237 82.9651 13.8707 83.1131 13.7662C83.3824 13.5761 83.5202 13.2488 83.4673 12.9231L82.8253 8.99065L85.5362 6.211C85.7613 5.97956 85.8388 5.64225 85.7362 5.33578Z" fill="#F7B50D"/>
</g>
<defs>
<clipPath id="clip0_1418_35795">
<rect width="14" height="14" fill="white" transform="translate(0 0.143311)"/>
</clipPath>
<clipPath id="clip1_1418_35795">
<rect width="14" height="14" fill="white" transform="translate(18 0.143311)"/>
</clipPath>
<clipPath id="clip2_1418_35795">
<rect width="14" height="14" fill="white" transform="translate(36 0.143311)"/>
</clipPath>
<clipPath id="clip3_1418_35795">
<rect width="14" height="14" fill="white" transform="translate(54 0.143311)"/>
</clipPath>
<clipPath id="clip4_1418_35795">
<rect width="14" height="14" fill="white" transform="translate(72 0.143311)"/>
</clipPath>
</defs>
</svg>
