<svg width="58" height="57" viewBox="0 0 58 57" fill="none" xmlns="http://www.w3.org/2000/svg">
<path d="M0.851562 28.4053C0.851562 12.7175 13.569 0 29.2568 0V0C44.9446 0 57.6621 12.7175 57.6621 28.4053V28.4053C57.6621 44.0931 44.9446 56.8106 29.2568 56.8106V56.8106C13.569 56.8106 0.851562 44.0931 0.851562 28.4053V28.4053Z" fill="#00B45C"/>
<path fill-rule="evenodd" clip-rule="evenodd" d="M29.2556 13.4294C20.9848 13.4294 14.28 20.1342 14.28 28.405C14.28 36.6757 20.9848 43.3805 29.2556 43.3805C37.5263 43.3805 44.2311 36.6757 44.2311 28.405C44.2311 20.1342 37.5263 13.4294 29.2556 13.4294ZM11.8516 28.405C11.8516 18.793 19.6436 11.001 29.2556 11.001C38.8675 11.001 46.6596 18.793 46.6596 28.405C46.6596 38.017 38.8675 45.809 29.2556 45.809C19.6436 45.809 11.8516 38.017 11.8516 28.405Z" fill="white"/>
<path fill-rule="evenodd" clip-rule="evenodd" d="M29.2572 35.2861C29.9278 35.2861 30.4714 35.8298 30.4714 36.5004V38.1193C30.4714 38.7899 29.9278 39.3336 29.2572 39.3336C28.5866 39.3336 28.043 38.7899 28.043 38.1193V36.5004C28.043 35.8298 28.5866 35.2861 29.2572 35.2861Z" fill="white"/>
<path fill-rule="evenodd" clip-rule="evenodd" d="M29.2572 17.4775C29.9278 17.4775 30.4714 18.0212 30.4714 18.6918V20.3108C30.4714 20.9814 29.9278 21.525 29.2572 21.525C28.5866 21.525 28.043 20.9814 28.043 20.3108V18.6918C28.043 18.0212 28.5866 17.4775 29.2572 17.4775Z" fill="white"/>
<path fill-rule="evenodd" clip-rule="evenodd" d="M23.1875 24.3584C23.1875 21.2545 26.1223 19.0967 29.2587 19.0967C32.3951 19.0967 35.3298 21.2545 35.3298 24.3584C35.3298 25.029 34.7862 25.5726 34.1156 25.5726C33.445 25.5726 32.9014 25.029 32.9014 24.3584C32.9014 22.9915 31.4872 21.5251 29.2587 21.5251C27.0301 21.5251 25.616 22.9915 25.616 24.3584C25.616 25.7252 27.0301 27.1916 29.2587 27.1916C32.3951 27.1916 35.3298 29.3494 35.3298 32.4532C35.3298 35.557 32.3951 37.7149 29.2587 37.7149C26.1223 37.7149 23.1875 35.557 23.1875 32.4532C23.1875 31.7826 23.7311 31.239 24.4017 31.239C25.0723 31.239 25.616 31.7826 25.616 32.4532C25.616 33.8201 27.0301 35.2865 29.2587 35.2865C31.4872 35.2865 32.9014 33.8201 32.9014 32.4532C32.9014 31.0864 31.4872 29.62 29.2587 29.62C26.1223 29.62 23.1875 27.4622 23.1875 24.3584Z" fill="white"/>
</svg>
