<svg width="24" height="24" viewBox="0 0 24 24" fill="none" xmlns="http://www.w3.org/2000/svg">
<path fill-rule="evenodd" clip-rule="evenodd" d="M19.4944 3.13284C19.716 2.99955 19.9806 2.95727 20.2327 3.01489C20.4848 3.0725 20.7047 3.22552 20.8464 3.44184L21.8364 4.95184C21.9655 5.1491 22.0207 5.38561 21.9923 5.61963C21.964 5.85364 21.8539 6.07011 21.6814 6.23084L21.6784 6.23484L21.6644 6.24784L21.6074 6.30084L21.3824 6.51584C20.1375 7.7235 18.9302 8.96943 17.7624 10.2518C15.5654 12.6678 12.9564 15.8298 11.2004 18.8978C10.7104 19.7538 9.51342 19.9378 8.80342 19.1988L2.31842 12.4608C2.22549 12.3642 2.15292 12.2499 2.10504 12.1247C2.05716 11.9995 2.03493 11.866 2.03969 11.732C2.04445 11.5981 2.07609 11.4664 2.13274 11.3449C2.18938 11.2235 2.26987 11.1146 2.36942 11.0248L4.32942 9.25684C4.50167 9.10155 4.72253 9.01095 4.9542 9.00055C5.18588 8.99015 5.41396 9.0606 5.59942 9.19984L8.90843 11.6808C14.0774 6.58384 17.0084 4.62784 19.4944 3.13284ZM19.7044 5.34884C17.4144 6.78084 14.5564 8.85784 9.70642 13.7068C9.53623 13.877 9.31036 13.9801 9.07028 13.9972C8.83019 14.0143 8.592 13.9442 8.39942 13.7998L5.05743 11.2938L4.47643 11.8178L9.79342 17.3438C11.6394 14.2738 14.1804 11.2178 16.2834 8.90584C17.3909 7.68932 18.533 6.50484 19.7084 5.35384L19.7044 5.34884Z" fill="#FCD097"/>
</svg>
