<svg width="56" height="56" viewBox="0 0 56 56" fill="none" xmlns="http://www.w3.org/2000/svg">
<path d="M27.9267 48.6211C39.4411 48.6211 48.7754 39.2868 48.7754 27.7724C48.7754 16.2581 39.4411 6.92383 27.9267 6.92383C16.4124 6.92383 7.07812 16.2581 7.07812 27.7724C7.07812 39.2868 16.4124 48.6211 27.9267 48.6211Z" fill="#FCEA2B"/>
<path d="M28.003 44.6554C37.318 44.6554 44.8693 37.1041 44.8693 27.7891C44.8693 18.4741 37.318 10.9229 28.003 10.9229C18.688 10.9229 11.1367 18.4741 11.1367 27.7891C11.1367 37.1041 18.688 44.6554 28.003 44.6554Z" fill="white"/>
<path d="M42.7409 19.573C44.7294 23.1381 45.357 27.3037 44.507 31.2965C43.657 35.2892 41.3872 38.838 38.119 41.2841C34.8508 43.7302 30.8061 44.9074 26.7356 44.5973C22.6652 44.2872 18.8455 42.5108 15.9855 39.5979C13.1256 36.6849 11.4196 32.8333 11.1843 28.7578C10.949 24.6824 12.2003 20.66 14.706 17.4372C17.2116 14.2144 20.8015 12.0102 24.8092 11.2337C28.8169 10.4571 32.9702 11.161 36.4983 13.2147" stroke="black" stroke-width="1.54234" stroke-linecap="round" stroke-linejoin="round"/>
<path d="M48.7767 27.7589C48.7761 32.7193 47.0077 37.5171 43.7888 41.2912C40.5699 45.0654 36.1112 47.5687 31.2131 48.352C26.3149 49.1352 21.298 48.1472 17.0626 45.5651C12.8272 42.983 9.6508 38.9759 8.10337 34.2631C6.55593 29.5503 6.73881 24.4402 8.61919 19.85C10.4996 15.2599 13.9543 11.4902 18.3634 9.21744C22.7725 6.94473 27.8473 6.31782 32.6769 7.44924C37.5065 8.58066 41.7748 11.3963 44.7157 15.3909" stroke="black" stroke-width="1.54234" stroke-linecap="round" stroke-linejoin="round"/>
<path d="M36.7851 16.6401L45.2973 15.7456L44.4027 7.2334M38.7755 28.035H27.9143V14.2819M27.9143 41.5744V38.6093M16.5411 28.035H14.1836" stroke="black" stroke-width="1.54234" stroke-linecap="round" stroke-linejoin="round"/>
<path d="M27.917 30.9161C29.5086 30.9161 30.7989 29.6258 30.7989 28.0342C30.7989 26.4426 29.5086 25.1523 27.917 25.1523C26.3254 25.1523 25.0352 26.4426 25.0352 28.0342C25.0352 29.6258 26.3254 30.9161 27.917 30.9161Z" fill="black"/>
<path d="M37.7898 38.1079C38.4201 38.1079 38.9311 37.5969 38.9311 36.9665C38.9311 36.3362 38.4201 35.8252 37.7898 35.8252C37.1594 35.8252 36.6484 36.3362 36.6484 36.9665C36.6484 37.5969 37.1594 38.1079 37.7898 38.1079Z" fill="black"/>
<path d="M18.0437 20.2026C18.674 20.2026 19.185 19.6916 19.185 19.0613C19.185 18.4309 18.674 17.9199 18.0437 17.9199C17.4133 17.9199 16.9023 18.4309 16.9023 19.0613C16.9023 19.6916 17.4133 20.2026 18.0437 20.2026Z" fill="black"/>
<path d="M18.0437 38.1079C18.674 38.1079 19.185 37.5969 19.185 36.9665C19.185 36.3362 18.674 35.8252 18.0437 35.8252C17.4133 35.8252 16.9023 36.3362 16.9023 36.9665C16.9023 37.5969 17.4133 38.1079 18.0437 38.1079Z" fill="black"/>
</svg>
