<svg width="56" height="57" viewBox="0 0 56 57" fill="none" xmlns="http://www.w3.org/2000/svg">
<path d="M30.6874 53.9715C43.4007 53.9715 53.7069 43.6654 53.7069 30.9521C53.7069 18.2388 43.4007 7.93262 30.6874 7.93262C17.9741 7.93262 7.66797 18.2388 7.66797 30.9521C7.66797 43.6654 17.9741 53.9715 30.6874 53.9715Z" fill="#EA5A47"/>
<path d="M30.6854 49.3444C40.8433 49.3444 49.0778 41.1099 49.0778 30.952C49.0778 20.7941 40.8433 12.5596 30.6854 12.5596C20.5275 12.5596 12.293 20.7941 12.293 30.952C12.293 41.1099 20.5275 49.3444 30.6854 49.3444Z" fill="white"/>
<path d="M30.6879 43.1737C37.4385 43.1737 42.911 37.7012 42.911 30.9506C42.911 24.2 37.4385 18.7275 30.6879 18.7275C23.9373 18.7275 18.4648 24.2 18.4648 30.9506C18.4648 37.7012 23.9373 43.1737 30.6879 43.1737Z" fill="#EA5A47"/>
<path d="M30.6948 39.3565C35.3372 39.3565 39.1006 35.5931 39.1006 30.9507C39.1006 26.3083 35.3372 22.5449 30.6948 22.5449C26.0525 22.5449 22.2891 26.3083 22.2891 30.9507C22.2891 35.5931 26.0525 39.3565 30.6948 39.3565Z" fill="white"/>
<path d="M30.6905 35.4992C33.2034 35.4992 35.2404 33.4622 35.2404 30.9493C35.2404 28.4365 33.2034 26.3994 30.6905 26.3994C28.1777 26.3994 26.1406 28.4365 26.1406 30.9493C26.1406 33.4622 28.1777 35.4992 30.6905 35.4992Z" fill="#EA5A47"/>
<path d="M2.17188 9.3916H9.07617V2.4873M12.1925 12.5133H5.28818M12.194 12.5118V5.60823M30.6844 30.9574L6.00074 6.32234M17.1758 13.1302C21.0643 10.1845 25.8084 8.58909 30.6867 8.5865C43.0378 8.5865 53.0507 18.5994 53.0507 30.9505C53.0507 43.3015 43.0378 53.3144 30.6867 53.3144C18.3356 53.3144 8.32274 43.3015 8.32274 30.9505C8.31497 26.0974 9.89318 21.3746 12.8171 17.5012" stroke="black" stroke-width="1.54234" stroke-miterlimit="10" stroke-linecap="round" stroke-linejoin="round"/>
<path d="M20.4867 16.4422C23.4722 14.337 27.037 13.2094 30.6901 13.2149C40.4863 13.2149 48.427 21.1564 48.427 30.9518C48.427 40.7472 40.4863 48.6887 30.6901 48.6887C20.8939 48.6887 12.9531 40.748 12.9531 30.9518C12.9478 27.3392 14.0506 23.8119 16.1126 20.8456" stroke="black" stroke-width="1.54234" stroke-miterlimit="10" stroke-linecap="round" stroke-linejoin="round"/>
<path d="M24.9411 20.9065C26.6892 19.9044 28.6698 19.3787 30.6848 19.3819C37.0739 19.3819 42.2523 24.561 42.2523 30.9494C42.2523 37.3378 37.0731 42.517 30.6848 42.517C24.2964 42.517 19.1172 37.3378 19.1172 30.9494C19.1172 28.932 19.6801 26.9956 20.5886 25.3445" stroke="black" stroke-width="1.54234" stroke-miterlimit="10" stroke-linecap="round" stroke-linejoin="round"/>
<path d="M31.1362 27.1094C31.8457 27.1986 32.5164 27.4833 33.0734 27.9318C33.6304 28.3803 34.0517 28.9748 34.2902 29.6489C34.5288 30.3231 34.5751 31.0502 34.4241 31.7492C34.2732 32.4482 33.9308 33.0914 33.4353 33.607C32.9398 34.1226 32.3106 34.4902 31.6182 34.6688C30.9258 34.8474 30.1973 34.8299 29.5143 34.6183C28.8312 34.4067 28.2204 34.0093 27.7502 33.4706C27.28 32.9318 26.9688 32.2729 26.8516 31.5675" stroke="black" stroke-width="1.54234" stroke-miterlimit="10" stroke-linecap="round" stroke-linejoin="round"/>
<path d="M27.8272 23.7868C28.7375 23.4242 29.7085 23.2384 30.6883 23.2393C34.9475 23.2393 38.4 26.691 38.4 30.951C38.4 35.2109 34.9475 38.6627 30.6883 38.6627C26.4291 38.6627 22.9766 35.2094 22.9766 30.951C22.9795 30.0033 23.1589 29.0645 23.5056 28.1825" stroke="black" stroke-width="1.54234" stroke-miterlimit="10" stroke-linecap="round" stroke-linejoin="round"/>
</svg>
