<svg width="26" height="26" viewBox="0 0 26 26" fill="none" xmlns="http://www.w3.org/2000/svg">
<g clip-path="url(#clip0_1734_4361)">
<path d="M21.7558 3.30938L21.2587 3.80646L17.2018 7.8633L16.8437 8.22141L15.9565 9.10868L12.5891 12.476L12.4662 12.599L12.2631 12.3958L9.3661 9.49886C8.87436 10.1777 8.57504 11.0008 8.54297 11.8881L10.6542 13.9993L11.5415 14.8866L11.782 15.1271C11.9691 15.3142 12.2203 15.4104 12.4662 15.4104C12.5089 15.4104 12.5464 15.4051 12.5891 15.3997C12.7922 15.373 12.9953 15.2821 13.1503 15.1271L13.3909 14.8866L17.5653 10.7122L18.4526 9.82491L18.8107 9.46679L22.8675 5.40996L23.3592 4.91822L24.6848 6.23308C24.8077 6.35602 24.9307 6.48964 25.1017 6.48964C25.1658 6.48964 25.2407 6.47361 25.3209 6.4255C25.5881 6.28119 25.6416 6.05135 25.6576 5.78945C25.7217 4.36234 25.7912 2.92989 25.8554 1.50278C25.8767 1.06983 25.695 0.87207 25.2781 0.87207C25.2567 0.87207 25.2353 0.87207 25.2086 0.87207C23.7441 0.941555 22.2796 1.01104 20.815 1.08052C20.5852 1.09121 20.3607 1.1019 20.2378 1.3745C20.1095 1.64709 20.2538 1.8021 20.4088 1.9571C20.8525 2.41142 21.2961 2.86575 21.7558 3.30938Z" fill="white"/>
<path d="M0.28462 12.396C-0.0948734 12.7755 -0.0948734 13.3849 0.28462 13.7644L0.525144 14.0049C0.712218 14.192 0.963432 14.2882 1.2093 14.2882C1.45517 14.2882 1.70638 14.192 1.89346 14.0049L3.73213 12.1662C3.73213 12.1288 3.73213 12.0967 3.73213 12.0593C3.73213 10.6055 4.06886 9.23181 4.67285 8.00781L0.28462 12.396Z" fill="white"/>
<path d="M25.5362 22.4071L20.0416 16.9125L19.7423 17.2118L19.3307 16.8003C20.3088 15.4747 20.8914 13.8391 20.8914 12.0646C20.8914 11.1827 20.7471 10.3328 20.4852 9.54177L18.4969 11.5301C18.5129 11.7065 18.5236 11.8829 18.5236 12.0646C18.5236 15.154 16.0168 17.6554 12.9328 17.6554C9.84337 17.6554 7.34192 15.1487 7.34192 12.0646C7.34192 8.97521 9.84871 6.47376 12.9328 6.47376C14.0499 6.47376 15.0921 6.80514 15.9634 7.36637L17.6684 5.66132C16.3429 4.68319 14.7073 4.10059 12.9328 4.10059C8.53385 4.10059 4.96875 7.66569 4.96875 12.0646C4.96875 16.4635 8.53385 20.0286 12.9328 20.0286C14.7126 20.0286 16.3589 19.446 17.6845 18.4572L18.096 18.8688L17.7967 19.1681L23.2913 24.6627C23.9113 25.2827 24.9216 25.2827 25.5416 24.6627C26.1562 24.0374 26.1562 23.0272 25.5362 22.4071Z" fill="white"/>
</g>
<defs>
<clipPath id="clip0_1734_4361">
<rect width="26" height="26" fill="white"/>
</clipPath>
</defs>
</svg>
