<svg width="56" height="56" viewBox="0 0 56 56" fill="none" xmlns="http://www.w3.org/2000/svg">
<path d="M14.4399 30.9953C13.8152 29.6072 10.5809 29.6072 8.15176 29.6072C5.72257 29.6072 2.48827 29.6072 1.86363 30.9953C1.23898 31.7032 0.933594 35.465 0.933594 38.5882C0.933594 41.7115 1.23898 45.5288 1.86363 46.1812C2.48827 47.5693 5.72257 47.5693 8.15176 47.5693C10.5809 47.5693 13.8152 47.5693 14.4399 46.1812C15.0645 45.4732 15.3699 41.7115 15.3699 38.5882C15.3699 35.465 15.0645 31.7032 14.4399 30.9953ZM34.2898 21.0148C33.6652 18.7522 30.4309 18.7383 28.0017 18.7383C25.5725 18.7383 22.3382 18.7383 21.7136 21.0148C21.0612 22.2086 20.7835 28.1774 20.7835 33.1746C20.7835 38.1718 21.0889 44.1962 21.7136 45.3344C22.3382 47.5971 25.5725 47.6109 28.0017 47.6109C30.4309 47.6109 33.6652 47.6109 34.2898 45.3344C34.9145 44.1962 35.2199 38.1718 35.2199 33.1746C35.2199 28.1774 34.9422 22.2086 34.2898 21.0148Z" fill="#FF52A1" stroke="#231F20" stroke-width="1.38811" stroke-miterlimit="10"/>
<path d="M54.1391 11.1038C53.5145 7.9389 50.2802 7.91113 47.851 7.91113C45.4218 7.91113 42.1875 7.91113 41.5628 11.0483C40.9382 12.6029 40.6328 20.8899 40.6328 27.7056C40.6328 34.5212 40.9382 42.8637 41.5628 44.3629C42.1875 47.4722 45.4218 47.5 47.851 47.5C50.2802 47.5 53.5145 47.5 54.1391 44.3629C54.7638 42.8082 55.0691 34.5212 55.0691 27.7056C55.0691 20.8899 54.7638 12.6029 54.1391 11.1038Z" fill="#FFE236" stroke="#231F20" stroke-width="1.38811" stroke-miterlimit="10"/>
<path d="M49.7975 11.1035C50.9497 11.1035 51.1857 11.3673 51.4633 13.6299M30.3085 22.2084C31.4468 22.2084 31.766 22.4721 31.9742 24.7347M10.0977 32.7996C11.2359 32.7996 11.5552 33.0634 11.7634 35.326" stroke="white" stroke-width="1.38811" stroke-miterlimit="10" stroke-linecap="round"/>
</svg>
