<svg width="56" height="56" viewBox="0 0 56 56" fill="none" xmlns="http://www.w3.org/2000/svg">
<mask id="mask0_1454_19118" style="mask-type:luminance" maskUnits="userSpaceOnUse" x="0" y="0" width="56" height="56">
<path d="M0.238281 0H55.7626V55.5243H0.238281V0Z" fill="white"/>
</mask>
<g mask="url(#mask0_1454_19118)">
<path d="M44.0147 4.63065C40.8845 2.64427 36.9423 1.45188 32.1825 1.21174C31.9491 1.20464 31.7168 1.24468 31.4993 1.32948C31.2818 1.41428 31.0837 1.54209 30.9168 1.70526C30.7499 1.86842 30.6176 2.06359 30.5278 2.27908C30.4381 2.49457 30.3928 2.72595 30.3946 2.95937V23.8518L32.3449 24.9345H53.2373C53.4766 24.933 53.7132 24.8828 53.9325 24.787C54.1519 24.6911 54.3494 24.5516 54.513 24.3769C54.6767 24.2022 54.803 23.996 54.8844 23.7709C54.9658 23.5458 55.0004 23.3065 54.9863 23.0675C54.5102 14.4987 50.8636 7.93851 44.0147 4.63065Z" fill="#00034A" stroke="#00034A" stroke-width="1.38811" stroke-linejoin="round"/>
<path d="M47.0375 29.2689C43.1716 29.1953 34.1114 29.044 26.9377 29.2217C27.021 23.7151 26.9752 17.4006 26.9432 12.8212C26.9293 11.3128 26.9215 9.80482 26.9196 8.29734C26.9145 8.05034 26.8595 7.80692 26.7578 7.58174C26.6562 7.35655 26.5101 7.15424 26.3283 6.98696C25.6065 6.32345 23.9602 5.36427 23.0218 5.42673C8.34674 6.14716 1.00781 15.5266 1.00781 29.3077C1.00781 44.4714 12.1987 54.3256 26.8933 54.3131C42.1152 54.3131 50.0802 45.6541 50.7743 32.3116C50.7849 32.0655 50.7486 31.8196 50.6674 31.587C50.2121 30.3169 48.2882 29.3202 47.0375 29.2689Z" fill="#00034A" stroke="#00034A" stroke-width="1.38811" stroke-linejoin="round"/>
<path d="M47.0375 29.2679C47.284 29.2782 47.5261 29.3372 47.7497 29.4416C47.9733 29.546 48.174 29.6936 48.3402 29.876C48.5064 30.0583 48.6349 30.2718 48.7181 30.5041C48.8014 30.7363 48.8379 30.9828 48.8254 31.2293C48.1313 44.5717 40.1663 53.2308 24.943 53.2308C8.98666 53.2433 1.00781 43.6764 1.00781 29.3067C1.00781 15.5256 8.34674 6.14614 23.0232 5.42571C23.2697 5.40972 23.5168 5.44384 23.7497 5.526C23.9826 5.60816 24.1965 5.73666 24.3784 5.90375C24.5602 6.07084 24.7064 6.27305 24.8079 6.49817C24.9095 6.72329 24.9644 6.96667 24.9693 7.21359C24.9693 11.296 25.1165 21.3556 24.9693 29.2803C32.361 29.0138 42.8065 29.1887 47.0375 29.2679Z" fill="#9BFF00" stroke="#00034A" stroke-width="1.38811" stroke-miterlimit="10"/>
<path d="M53.036 21.9848C52.3697 9.94988 45.4445 1.87803 32.1825 1.21174C31.9491 1.20464 31.7168 1.24468 31.4993 1.32948C31.2818 1.41428 31.0837 1.54209 30.9168 1.70526C30.7499 1.86842 30.6176 2.06359 30.5278 2.27908C30.4381 2.49457 30.3928 2.72595 30.3946 2.95937V23.8518H51.2884C51.5276 23.8501 51.764 23.7998 51.9832 23.7038C52.2024 23.6079 52.3997 23.4683 52.5632 23.2937C52.7267 23.119 52.853 22.9129 52.9342 22.6878C53.0155 22.4628 53.0501 22.2236 53.036 21.9848Z" fill="white" stroke="#00034A" stroke-width="1.38811" stroke-linejoin="round"/>
</g>
</svg>
