<svg width="56" height="57" viewBox="0 0 56 57" fill="none" xmlns="http://www.w3.org/2000/svg">
<path d="M45.6139 14.0993C46.0067 14.4754 46.3232 15.175 46.5161 16.2966C47.0908 16.4299 47.5308 16.602 47.8543 16.8047C48.5692 17.2503 49.9878 18.0651 49.9878 18.9729C49.9878 19.8599 49.0869 20.6012 46.6244 20.8524C46.3732 23.3149 45.6444 24.2158 44.7574 24.2158C44.4381 24.2158 42.8724 23.1803 42.5281 22.8693C42.12 22.4987 41.7882 21.7935 41.5911 20.647C41.1404 20.552 40.7066 20.3896 40.3044 20.1653C39.5742 19.7266 38.1195 18.8688 38.1195 17.9582C38.1195 17.0837 39.0204 16.3424 41.4815 16.0912C41.7341 13.6287 42.4754 12.7278 43.361 12.7278C43.6747 12.7278 45.2835 13.7828 45.6139 14.0993ZM35.0601 4.38805C34.3591 4.38805 33.7372 5.10292 33.5651 7.03656C31.594 7.23506 30.918 7.83056 30.918 8.53155C30.918 9.38246 32.903 10.5915 33.6775 10.8192C33.8163 11.534 34.0204 12.0088 34.2716 12.2989C34.5576 12.6265 36.1636 13.6911 36.4565 13.6911C37.1728 13.6911 37.7822 12.9624 37.9543 11.0426C39.8477 10.858 40.6014 10.2625 40.6014 9.54765C40.6014 8.69396 38.6206 7.48353 37.8391 7.26004C37.6614 6.32724 37.3602 5.80253 36.9979 5.56378C36.5579 5.27505 35.4696 4.38805 35.0601 4.38805ZM45.9692 5.39443C45.9692 4.52408 46.6758 3.82031 47.5447 3.82031C48.5358 3.82031 49.9878 4.96134 49.9878 5.97188C49.9878 6.84222 49.2813 7.54738 48.4123 7.54738C47.4212 7.54738 45.9692 6.40497 45.9692 5.39582V5.39443Z" fill="#00034A" stroke="#00034A" stroke-width="1.38811" stroke-miterlimit="10" stroke-linecap="round"/>
<path d="M27.2885 13.7737C25.6089 13.6668 19.2402 16.264 14.0501 18.8569C8.86133 21.4527 3.00907 24.9605 2.13595 26.3638C0.547952 28.7472 2.13595 33.6167 3.97658 37.2716C5.57846 40.4517 9.16533 46.4276 13.3685 46.7052C15.0495 46.8246 21.4029 44.2302 26.6069 41.6358C31.8081 39.04 37.6743 35.5198 38.5863 34.1025C40.1229 31.733 38.5197 26.876 36.6943 23.2087C35.091 19.9938 31.5097 14.068 27.2885 13.7737Z" fill="#00034A" stroke="#00034A" stroke-width="1.38811" stroke-miterlimit="10"/>
<path d="M36.7804 32.7172C38.3156 30.3477 36.7137 25.4907 34.887 21.8219C33.0602 18.156 30.1341 13.9722 27.2885 13.7737C25.6089 13.6668 19.2402 16.264 14.0501 18.8569C8.86133 21.4527 3.00907 24.9605 2.13595 26.3638C0.547952 28.7472 2.13595 33.6167 3.97658 37.2716C5.81582 40.9237 8.75445 45.1338 11.5612 45.3198C13.2436 45.4392 19.597 42.8435 24.7996 40.2505C30.0022 37.6547 35.8684 34.1345 36.7804 32.7172Z" fill="#9BFF00" stroke="#00034A" stroke-width="1.38811" stroke-miterlimit="10"/>
<path d="M23.5401 19.7441C24.0463 20.6223 24.8536 21.2873 25.8124 21.616C26.7712 21.9447 27.8167 21.9149 28.7552 21.532C30.0129 23.1673 30.9476 25.0272 31.5092 27.0123C30.6247 27.5321 29.9613 28.358 29.6444 29.3338C29.3275 30.3095 29.3791 31.3676 29.7893 32.3079C25.1799 35.0597 20.3591 37.4409 15.3724 39.4289C14.8635 38.5325 14.0423 37.8547 13.0656 37.525C12.0889 37.1952 11.025 37.2365 10.0768 37.641C8.81153 36.0258 7.90872 34.1572 7.42969 32.1622C8.31197 31.6403 8.97273 30.8136 9.28727 29.838C9.60181 28.8624 9.54838 27.8054 9.13706 26.8665C13.7392 24.1102 18.5557 21.7288 23.5401 19.7455" fill="white"/>
<path d="M23.5401 19.7441C24.0463 20.6223 24.8536 21.2873 25.8124 21.616C26.7712 21.9447 27.8167 21.9149 28.7552 21.532C30.0129 23.1673 30.9476 25.0272 31.5092 27.0123C30.6247 27.5321 29.9613 28.358 29.6444 29.3338C29.3275 30.3095 29.3791 31.3676 29.7893 32.3079C25.1799 35.0597 20.3591 37.4409 15.3724 39.4289C14.8635 38.5325 14.0423 37.8547 13.0656 37.525C12.0889 37.1952 11.025 37.2365 10.0768 37.641C8.81153 36.0258 7.90872 34.1572 7.42969 32.1622C8.31197 31.6403 8.97273 30.8136 9.28727 29.838C9.60181 28.8624 9.54838 27.8054 9.13706 26.8665C13.7392 24.1102 18.5557 21.7288 23.5401 19.7455" stroke="#00034A" stroke-width="1.38811" stroke-linecap="round" stroke-linejoin="round"/>
<path d="M19.4456 33.9083C22.7979 33.968 24.9578 30.3756 23.3323 27.4425C22.949 26.751 22.3848 26.1768 21.7001 25.7815C21.0154 25.3861 20.2361 25.1844 19.4456 25.1979C16.0934 25.2576 14.0612 28.925 15.7894 31.7984C16.1702 32.431 16.7055 32.9564 17.345 33.3255C17.9846 33.6945 18.7074 33.8951 19.4456 33.9083Z" fill="#9BFF00" stroke="#00034A" stroke-width="1.38811" stroke-miterlimit="10"/>
<path d="M42.6281 27.3799C35.9222 27.3799 33.5541 30.256 33.2556 30.6183C33.2436 30.6341 33.2343 30.6447 33.2279 30.6503C32.4366 31.6164 32.1562 35.8404 32.1562 39.4675C32.1562 43.0947 32.4353 47.3173 33.2293 48.2834L33.2431 48.2987C35.782 51.5135 40.1087 52.7517 44.0482 52.7517C50.7583 52.7517 53.1236 49.8853 53.4207 49.5258L53.4484 49.4952C54.2411 48.5277 54.5187 44.3065 54.5187 40.6793C54.5187 37.0522 54.2411 32.8685 53.4457 31.8621L53.4332 31.8468C50.8971 28.6264 46.5704 27.3799 42.6281 27.3799Z" fill="#00034A" stroke="#00034A" stroke-width="1.38811" stroke-miterlimit="10"/>
<path d="M52.0284 30.6503C51.9076 30.5045 49.6187 27.3799 42.6281 27.3799C35.639 27.3799 33.3611 30.5045 33.2306 30.6503C32.4353 31.6164 32.1562 35.8404 32.1562 39.4675C32.1562 43.0947 32.4353 47.3173 33.2293 48.2834C33.3486 48.4292 35.639 51.5399 42.6268 51.5399C49.6145 51.5399 51.8951 48.4305 52.027 48.2834C52.821 47.3173 53.1 43.0947 53.1 39.4675C53.1 35.8404 52.8224 31.6566 52.027 30.6503H52.0284Z" fill="white" stroke="#00034A" stroke-width="1.38811" stroke-miterlimit="10"/>
<path d="M50.9885 33.8281C49.4921 35.337 46.7131 36.2365 42.6349 36.2365C38.5566 36.2365 35.7776 35.337 34.2812 33.8295M50.9885 39.468C49.4921 40.9769 46.7131 41.8764 42.6349 41.8764C38.5566 41.8764 35.7776 40.9241 34.2812 39.4694M50.9885 44.3C49.4921 45.8089 46.7131 46.7084 42.6349 46.7084C38.5566 46.7084 35.7776 45.8089 34.2812 44.3" stroke="#00034A" stroke-width="1.38811" stroke-miterlimit="10" stroke-linecap="round"/>
<path d="M42.6365 33.2331C44.9907 33.2331 46.8994 32.5112 46.8994 31.6173C46.8994 30.7261 44.9907 30.0029 42.6365 30.0029C40.2836 30.0029 38.375 30.7247 38.375 31.6173C38.375 32.5099 40.2823 33.2331 42.6365 33.2331Z" fill="white" stroke="#00034A" stroke-width="1.38811" stroke-miterlimit="10"/>
<path d="M48.5914 17.9578C48.5914 17.0833 47.6905 16.3421 45.228 16.0908C44.9767 13.6283 44.248 12.7274 43.3624 12.7274C42.474 12.7274 41.7341 13.6283 41.4815 16.0908C39.019 16.3421 38.1195 17.0833 38.1195 17.9578C38.1195 18.8323 39.0204 19.5847 41.4815 19.8373C41.7341 22.2998 42.4754 23.1993 43.361 23.1993C44.2494 23.1993 44.9767 22.2998 45.228 19.8373C47.6905 19.5847 48.5914 18.8435 48.5914 17.9578ZM39.205 8.5312C39.205 7.8302 38.4887 7.20833 36.5579 7.03621C36.3594 5.0637 35.7639 4.3877 35.0615 4.3877C34.3591 4.3877 33.7372 5.10257 33.5651 7.03621C31.594 7.23471 30.918 7.8302 30.918 8.5312C30.918 9.23219 31.6467 9.85545 33.5651 10.0276C33.765 12.0001 34.3466 12.6761 35.0615 12.6761C35.7763 12.6761 36.3857 11.9459 36.5579 10.0276C38.4512 9.84296 39.205 9.24746 39.205 8.5312Z" fill="#9BFF00" stroke="#00034A" stroke-width="1.38811" stroke-miterlimit="10"/>
<path d="M47.5403 6.96937C47.9582 6.96937 48.3589 6.80338 48.6544 6.50791C48.9499 6.21245 49.1158 5.81171 49.1158 5.39386C49.1158 4.97601 48.9499 4.57528 48.6544 4.27981C48.3589 3.98435 47.9582 3.81836 47.5403 3.81836C47.1225 3.81836 46.7218 3.98435 46.4263 4.27981C46.1308 4.57528 45.9648 4.97601 45.9648 5.39386C45.9648 5.81171 46.1308 6.21245 46.4263 6.50791C46.7218 6.80338 47.1225 6.96937 47.5403 6.96937Z" fill="#9BFF00" stroke="#00034A" stroke-width="1.38811" stroke-miterlimit="10" stroke-linecap="round"/>
</svg>
