<svg width="21" height="20" viewBox="0 0 21 20" fill="none" xmlns="http://www.w3.org/2000/svg">
<g clip-path="url(#clip0_1434_38482)">
<path d="M14.6654 17.5V15.8333C14.6654 14.9493 14.3142 14.1014 13.6891 13.4763C13.0639 12.8512 12.2161 12.5 11.332 12.5H4.66536C3.78131 12.5 2.93346 12.8512 2.30834 13.4763C1.68322 14.1014 1.33203 14.9493 1.33203 15.8333V17.5M19.6654 17.5V15.8333C19.6648 15.0948 19.419 14.3773 18.9665 13.7936C18.514 13.2099 17.8805 12.793 17.1654 12.6083M13.832 2.60833C14.549 2.79192 15.1846 3.20892 15.6384 3.79359C16.0922 4.37827 16.3386 5.09736 16.3386 5.8375C16.3386 6.57764 16.0922 7.29673 15.6384 7.88141C15.1846 8.46608 14.549 8.88308 13.832 9.06667M11.332 5.83333C11.332 7.67428 9.83965 9.16667 7.9987 9.16667C6.15775 9.16667 4.66536 7.67428 4.66536 5.83333C4.66536 3.99238 6.15775 2.5 7.9987 2.5C9.83965 2.5 11.332 3.99238 11.332 5.83333Z" stroke="#1D8FFF" stroke-width="1.66667" stroke-linecap="round" stroke-linejoin="round"/>
</g>
<defs>
<clipPath id="clip0_1434_38482">
<rect width="20" height="20" fill="white" transform="translate(0.5)"/>
</clipPath>
</defs>
</svg>
