<svg width="19" height="19" viewBox="0 0 19 19" fill="none" xmlns="http://www.w3.org/2000/svg">
<g clip-path="url(#clip0_1481_130592)">
<path d="M17.4154 8.77197V9.5003C17.4144 11.2075 16.8616 12.8686 15.8394 14.2359C14.8172 15.6032 13.3805 16.6035 11.7434 17.0876C10.1062 17.5716 8.35653 17.5135 6.75515 16.9218C5.15378 16.3302 3.78655 15.2368 2.85737 13.8046C1.9282 12.3725 1.48687 10.6783 1.59919 8.97488C1.71152 7.27141 2.37149 5.64989 3.48067 4.35215C4.58985 3.05441 6.08882 2.14998 7.75401 1.77375C9.41921 1.39752 11.1614 1.56965 12.7208 2.26447M17.4154 3.16697L9.4987 11.0915L7.1237 8.71655" stroke="#00B45C" stroke-width="1.58333" stroke-linecap="round" stroke-linejoin="round"/>
</g>
<defs>
<clipPath id="clip0_1481_130592">
<rect width="19" height="19" fill="white"/>
</clipPath>
</defs>
</svg>
