<svg width="17" height="17" viewBox="0 0 17 17" fill="none" xmlns="http://www.w3.org/2000/svg">
<path d="M16.293 2.8335V7.0835H12.043" stroke="#F78C01" stroke-width="1.41667" stroke-linecap="round" stroke-linejoin="round"/>
<path d="M0.707031 14.1665V9.9165H4.95703" stroke="#F78C01" stroke-width="1.41667" stroke-linecap="round" stroke-linejoin="round"/>
<path d="M2.48495 6.37528C2.84419 5.36008 3.45475 4.45244 4.25965 3.73703C5.06456 3.02163 6.03757 2.52178 7.0879 2.28413C8.13823 2.04648 9.23165 2.07877 10.2661 2.37799C11.3006 2.67722 12.2424 3.23362 13.0037 3.99528L16.2904 7.08361M0.707031 9.91694L3.9937 13.0053C4.75498 13.7669 5.6968 14.3233 6.73127 14.6226C7.76575 14.9218 8.85916 14.9541 9.90949 14.7164C10.9598 14.4788 11.9328 13.9789 12.7377 13.2635C13.5426 12.5481 14.1532 11.6405 14.5124 10.6253" stroke="#F78C01" stroke-width="1.41667" stroke-linecap="round" stroke-linejoin="round"/>
</svg>
