<svg width="17" height="17" viewBox="0 0 17 17" fill="none" xmlns="http://www.w3.org/2000/svg">
<g clip-path="url(#clip0_1481_130583)">
<path d="M8.5013 15.5832C12.4133 15.5832 15.5846 12.4119 15.5846 8.49984C15.5846 4.58782 12.4133 1.4165 8.5013 1.4165C4.58928 1.4165 1.41797 4.58782 1.41797 8.49984C1.41797 12.4119 4.58928 15.5832 8.5013 15.5832Z" stroke="#F78C01" stroke-width="1.41667" stroke-linecap="round" stroke-linejoin="round"/>
<path d="M8.5 12.75C10.8472 12.75 12.75 10.8472 12.75 8.5C12.75 6.15279 10.8472 4.25 8.5 4.25C6.15279 4.25 4.25 6.15279 4.25 8.5C4.25 10.8472 6.15279 12.75 8.5 12.75Z" stroke="#F78C01" stroke-width="1.41667" stroke-linecap="round" stroke-linejoin="round"/>
<path d="M8.4987 9.91683C9.2811 9.91683 9.91536 9.28257 9.91536 8.50016C9.91536 7.71776 9.2811 7.0835 8.4987 7.0835C7.71629 7.0835 7.08203 7.71776 7.08203 8.50016C7.08203 9.28257 7.71629 9.91683 8.4987 9.91683Z" stroke="#F78C01" stroke-width="1.41667" stroke-linecap="round" stroke-linejoin="round"/>
</g>
<defs>
<clipPath id="clip0_1481_130583">
<rect width="17" height="17" fill="white"/>
</clipPath>
</defs>
</svg>
