<svg width="49" height="49" viewBox="0 0 49 49" fill="none" xmlns="http://www.w3.org/2000/svg">
<g clip-path="url(#clip0_1266_21932)">
<path d="M24.7578 2.23975V46.2397M34.7578 10.2397H19.7578C17.9013 10.2397 16.1208 10.9772 14.8081 12.29C13.4953 13.6028 12.7578 15.3832 12.7578 17.2397C12.7578 19.0963 13.4953 20.8767 14.8081 22.1895C16.1208 23.5022 17.9013 24.2397 19.7578 24.2397H29.7578C31.6143 24.2397 33.3948 24.9772 34.7076 26.29C36.0203 27.6028 36.7578 29.3832 36.7578 31.2397C36.7578 33.0963 36.0203 34.8767 34.7076 36.1895C33.3948 37.5022 31.6143 38.2397 29.7578 38.2397H12.7578" stroke="#1D8FFF" stroke-width="4" stroke-linecap="round" stroke-linejoin="round"/>
</g>
<defs>
<clipPath id="clip0_1266_21932">
<rect width="48" height="48" fill="white" transform="translate(0.757812 0.239746)"/>
</clipPath>
</defs>
</svg>
