<svg width="55" height="55" viewBox="0 0 55 55" fill="none" xmlns="http://www.w3.org/2000/svg">
<g clip-path="url(#clip0_1266_21927)">
<path d="M44.1827 34.15C40.7049 43.1676 30.5754 47.6585 21.5578 44.1807M44.1827 34.15C47.6605 25.1324 43.1696 15.0029 34.152 11.5251M44.1827 34.15L11.5271 21.5558M21.5578 44.1807C12.5402 40.7029 8.04933 30.5734 11.5271 21.5558M21.5578 44.1807C27.3662 41.2847 31.925 36.3774 34.386 30.3717C36.5948 24.2688 36.5117 17.5713 34.152 11.5251M21.5578 44.1807C19.1981 38.1345 19.115 31.437 21.3238 25.3341C23.7849 19.3284 28.3436 14.4212 34.152 11.5251M11.5271 21.5558C15.0049 12.5382 25.1344 8.04733 34.152 11.5251" stroke="white" stroke-width="3.5" stroke-linecap="round" stroke-linejoin="round"/>
</g>
<defs>
<clipPath id="clip0_1266_21927">
<rect width="42" height="42" fill="white" transform="translate(15.8164 0.703125) rotate(21.09)"/>
</clipPath>
</defs>
</svg>
