<svg width="51" height="51" viewBox="0 0 51 51" fill="none" xmlns="http://www.w3.org/2000/svg">
<rect x="0.875" y="0.966797" width="49.7605" height="49.7605" rx="24.8802" fill="#1D8FFF"/>
<path d="M27.8316 15.48H19.5382C18.9883 15.48 18.4609 15.6984 18.0721 16.0873C17.6833 16.4761 17.4648 17.0034 17.4648 17.5533V34.1402C17.4648 34.69 17.6833 35.2174 18.0721 35.6062C18.4609 35.9951 18.9883 36.2135 19.5382 36.2135H31.9783C32.5282 36.2135 33.0556 35.9951 33.4444 35.6062C33.8332 35.2174 34.0517 34.69 34.0517 34.1402V21.7L27.8316 15.48Z" stroke="white" stroke-width="2.55182" stroke-linecap="round" stroke-linejoin="round"/>
<path d="M27.8281 15.48V21.7H34.0482" stroke="white" stroke-width="2.55182" stroke-linecap="round" stroke-linejoin="round"/>
<path d="M29.9028 26.8833H21.6094" stroke="white" stroke-width="2.55182" stroke-linecap="round" stroke-linejoin="round"/>
<path d="M29.9028 31.0303H21.6094" stroke="white" stroke-width="2.55182" stroke-linecap="round" stroke-linejoin="round"/>
<path d="M23.6827 22.7368H22.6461H21.6094" stroke="white" stroke-width="2.55182" stroke-linecap="round" stroke-linejoin="round"/>
</svg>
