<svg width="50" height="51" viewBox="0 0 50 51" fill="none" xmlns="http://www.w3.org/2000/svg">
<rect x="0.207031" y="0.825195" width="49.7605" height="49.7605" rx="24.8802" fill="#7B7B7B"/>
<g clip-path="url(#clip0_1402_29258)">
<path d="M25.0905 28.8153C26.8081 28.8153 28.2005 27.4229 28.2005 25.7052C28.2005 23.9876 26.8081 22.5952 25.0905 22.5952C23.3729 22.5952 21.9805 23.9876 21.9805 25.7052C21.9805 27.4229 23.3729 28.8153 25.0905 28.8153Z" stroke="white" stroke-width="2.55182" stroke-linecap="round" stroke-linejoin="round"/>
<path d="M32.7584 28.8152C32.6204 29.1279 32.5793 29.4748 32.6403 29.811C32.7012 30.1473 32.8616 30.4577 33.1005 30.702L33.1627 30.7642C33.3555 30.9567 33.5084 31.1854 33.6128 31.4371C33.7171 31.6888 33.7708 31.9586 33.7708 32.2311C33.7708 32.5035 33.7171 32.7733 33.6128 33.025C33.5084 33.2767 33.3555 33.5054 33.1627 33.698C32.9702 33.8907 32.7415 34.0437 32.4898 34.148C32.2381 34.2524 31.9683 34.3061 31.6958 34.3061C31.4234 34.3061 31.1536 34.2524 30.9019 34.148C30.6502 34.0437 30.4215 33.8907 30.229 33.698L30.1668 33.6358C29.9224 33.3968 29.6121 33.2365 29.2758 33.1755C28.9395 33.1145 28.5927 33.1557 28.28 33.2937C27.9734 33.4251 27.7119 33.6433 27.5277 33.9214C27.3435 34.1995 27.2447 34.5255 27.2433 34.8591V35.0353C27.2433 35.5852 27.0249 36.1125 26.6361 36.5014C26.2472 36.8902 25.7199 37.1086 25.17 37.1086C24.6201 37.1086 24.0927 36.8902 23.7039 36.5014C23.3151 36.1125 23.0966 35.5852 23.0966 35.0353V34.942C23.0886 34.5989 22.9775 34.2661 22.7778 33.9869C22.5782 33.7077 22.2991 33.4951 21.977 33.3766C21.6643 33.2386 21.3175 33.1974 20.9812 33.2584C20.6449 33.3194 20.3346 33.4797 20.0903 33.7187L20.0281 33.7809C19.8355 33.9737 19.6068 34.1266 19.3551 34.231C19.1034 34.3353 18.8336 34.389 18.5612 34.389C18.2887 34.389 18.0189 34.3353 17.7672 34.231C17.5155 34.1266 17.2868 33.9737 17.0943 33.7809C16.9015 33.5884 16.7486 33.3597 16.6442 33.108C16.5399 32.8563 16.4862 32.5865 16.4862 32.314C16.4862 32.0415 16.5399 31.7717 16.6442 31.52C16.7486 31.2683 16.9015 31.0397 17.0943 30.8471L17.1565 30.7849C17.3955 30.5406 17.5558 30.2303 17.6167 29.894C17.6777 29.5577 17.6366 29.2108 17.4986 28.8982C17.3672 28.5915 17.1489 28.33 16.8708 28.1459C16.5927 27.9617 16.2668 27.8628 15.9332 27.8615H15.7569C15.2071 27.8615 14.6797 27.643 14.2909 27.2542C13.902 26.8654 13.6836 26.338 13.6836 25.7881C13.6836 25.2382 13.902 24.7109 14.2909 24.3221C14.6797 23.9332 15.2071 23.7148 15.7569 23.7148H15.8502C16.1934 23.7068 16.5262 23.5957 16.8053 23.396C17.0845 23.1963 17.2972 22.9173 17.4156 22.5952C17.5536 22.2825 17.5948 21.9356 17.5338 21.5994C17.4728 21.2631 17.3125 20.9527 17.0735 20.7084L17.0113 20.6462C16.8186 20.4537 16.6656 20.225 16.5613 19.9733C16.4569 19.7216 16.4032 19.4518 16.4032 19.1793C16.4032 18.9069 16.4569 18.6371 16.5613 18.3854C16.6656 18.1336 16.8186 17.905 17.0113 17.7124C17.2039 17.5197 17.4326 17.3667 17.6843 17.2624C17.936 17.158 18.2058 17.1043 18.4782 17.1043C18.7507 17.1043 19.0205 17.158 19.2722 17.2624C19.5239 17.3667 19.7526 17.5197 19.9451 17.7124L20.0073 17.7746C20.2516 18.0136 20.562 18.1739 20.8983 18.2349C21.2345 18.2959 21.5814 18.2547 21.8941 18.1167H21.977C22.2836 17.9853 22.5451 17.7671 22.7293 17.489C22.9135 17.2109 23.0124 16.8849 23.0137 16.5513V16.3751C23.0137 15.8252 23.2321 15.2979 23.621 14.909C24.0098 14.5202 24.5371 14.3018 25.087 14.3018C25.6369 14.3018 26.1643 14.5202 26.5531 14.909C26.9419 15.2979 27.1604 15.8252 27.1604 16.3751V16.4684C27.1617 16.802 27.2606 17.1279 27.4448 17.406C27.6289 17.6842 27.8904 17.9024 28.1971 18.0338C28.5097 18.1718 28.8566 18.213 29.1929 18.152C29.5292 18.091 29.8395 17.9307 30.0838 17.6917L30.146 17.6295C30.3386 17.4367 30.5672 17.2838 30.8189 17.1794C31.0706 17.0751 31.3404 17.0214 31.6129 17.0214C31.8854 17.0214 32.1552 17.0751 32.4069 17.1794C32.6586 17.2838 32.8873 17.4367 33.0798 17.6295C33.2726 17.822 33.4255 18.0507 33.5299 18.3024C33.6342 18.5541 33.6879 18.8239 33.6879 19.0964C33.6879 19.3689 33.6342 19.6387 33.5299 19.8904C33.4255 20.1421 33.2726 20.3707 33.0798 20.5633L33.0176 20.6255C32.7786 20.8698 32.6183 21.1801 32.5573 21.5164C32.4963 21.8527 32.5375 22.1996 32.6755 22.5122V22.5952C32.8069 22.9018 33.0251 23.1633 33.3033 23.3475C33.5814 23.5317 33.9073 23.6305 34.2409 23.6318H34.4171C34.967 23.6318 35.4944 23.8503 35.8832 24.2391C36.272 24.6279 36.4905 25.1553 36.4905 25.7052C36.4905 26.2551 36.272 26.7825 35.8832 27.1713C35.4944 27.5601 34.967 27.7786 34.4171 27.7786H34.3238C33.9902 27.7799 33.6643 27.8787 33.3862 28.0629C33.1081 28.2471 32.8899 28.5086 32.7584 28.8152Z" stroke="white" stroke-width="2.55182" stroke-linecap="round" stroke-linejoin="round"/>
</g>
<defs>
<clipPath id="clip0_1402_29258">
<rect width="24.8802" height="24.8802" fill="white" transform="translate(12.6484 13.2651)"/>
</clipPath>
</defs>
</svg>
