<svg width="1128" height="640" viewBox="0 0 1128 640" fill="none" xmlns="http://www.w3.org/2000/svg">
<g opacity="0.12" clip-path="url(#clip0_1418_35471)">
<rect width="1128" height="640" transform="translate(0 -0.356689)" fill="#34475A"/>
<mask id="mask0_1418_35471" style="mask-type:luminance" maskUnits="userSpaceOnUse" x="-185" y="-1" width="1498" height="1498">
<rect width="1497.02" height="1244.4" transform="translate(-184.078 -0.356689)" fill="url(#paint0_radial_1418_35471)"/>
</mask>
<g mask="url(#mask0_1418_35471)">
<g clip-path="url(#clip1_1418_35471)">
<mask id="path-3-inside-1_1418_35471" fill="white">
<path d="M-34.375 -0.356689H65.4264V99.4447H-34.375V-0.356689Z"/>
</mask>
<path d="M65.4264 99.4447V100.484H66.466V99.4447H65.4264ZM65.4264 -0.356689H64.3868V99.4447H65.4264H66.466V-0.356689H65.4264ZM65.4264 99.4447V98.4051H-34.375V99.4447V100.484H65.4264V99.4447Z" fill="#4F6070" mask="url(#path-3-inside-1_1418_35471)"/>
<mask id="path-5-inside-2_1418_35471" fill="white">
<path d="M65.4258 -0.356689H165.227V99.4447H65.4258V-0.356689Z"/>
</mask>
<path d="M165.227 99.4447V100.484H166.267V99.4447H165.227ZM165.227 -0.356689H164.188V99.4447H165.227H166.267V-0.356689H165.227ZM165.227 99.4447V98.4051H65.4258V99.4447V100.484H165.227V99.4447Z" fill="#4F6070" mask="url(#path-5-inside-2_1418_35471)"/>
<mask id="path-7-inside-3_1418_35471" fill="white">
<path d="M165.227 -0.356689H265.028V99.4447H165.227V-0.356689Z"/>
</mask>
<path d="M265.028 99.4447V100.484H266.068V99.4447H265.028ZM265.028 -0.356689H263.988V99.4447H265.028H266.068V-0.356689H265.028ZM265.028 99.4447V98.4051H165.227V99.4447V100.484H265.028V99.4447Z" fill="#4F6070" mask="url(#path-7-inside-3_1418_35471)"/>
<mask id="path-9-inside-4_1418_35471" fill="white">
<path d="M265.031 -0.356689H364.833V99.4447H265.031V-0.356689Z"/>
</mask>
<path d="M364.833 99.4447V100.484H365.872V99.4447H364.833ZM364.833 -0.356689H363.793V99.4447H364.833H365.872V-0.356689H364.833ZM364.833 99.4447V98.4051H265.031V99.4447V100.484H364.833V99.4447Z" fill="#4F6070" mask="url(#path-9-inside-4_1418_35471)"/>
<mask id="path-11-inside-5_1418_35471" fill="white">
<path d="M364.828 -0.356689H464.63V99.4447H364.828V-0.356689Z"/>
</mask>
<path d="M464.63 99.4447V100.484H465.669V99.4447H464.63ZM464.63 -0.356689H463.59V99.4447H464.63H465.669V-0.356689H464.63ZM464.63 99.4447V98.4051H364.828V99.4447V100.484H464.63V99.4447Z" fill="#4F6070" mask="url(#path-11-inside-5_1418_35471)"/>
<mask id="path-13-inside-6_1418_35471" fill="white">
<path d="M464.633 -0.356689H564.434V99.4447H464.633V-0.356689Z"/>
</mask>
<path d="M564.434 99.4447V100.484H565.474V99.4447H564.434ZM564.434 -0.356689H563.395V99.4447H564.434H565.474V-0.356689H564.434ZM564.434 99.4447V98.4051H464.633V99.4447V100.484H564.434V99.4447Z" fill="#4F6070" mask="url(#path-13-inside-6_1418_35471)"/>
<mask id="path-15-inside-7_1418_35471" fill="white">
<path d="M564.43 -0.356689H664.231V99.4447H564.43V-0.356689Z"/>
</mask>
<path d="M664.231 99.4447V100.484H665.271V99.4447H664.231ZM664.231 -0.356689H663.191V99.4447H664.231H665.271V-0.356689H664.231ZM664.231 99.4447V98.4051H564.43V99.4447V100.484H664.231V99.4447Z" fill="#4F6070" mask="url(#path-15-inside-7_1418_35471)"/>
<mask id="path-17-inside-8_1418_35471" fill="white">
<path d="M664.234 -0.356689H764.036V99.4447H664.234V-0.356689Z"/>
</mask>
<path d="M764.036 99.4447V100.484H765.075V99.4447H764.036ZM764.036 -0.356689H762.996V99.4447H764.036H765.075V-0.356689H764.036ZM764.036 99.4447V98.4051H664.234V99.4447V100.484H764.036V99.4447Z" fill="#4F6070" mask="url(#path-17-inside-8_1418_35471)"/>
<mask id="path-19-inside-9_1418_35471" fill="white">
<path d="M764.031 -0.356689H863.833V99.4447H764.031V-0.356689Z"/>
</mask>
<path d="M863.833 99.4447V100.484H864.872V99.4447H863.833ZM863.833 -0.356689H862.793V99.4447H863.833H864.872V-0.356689H863.833ZM863.833 99.4447V98.4051H764.031V99.4447V100.484H863.833V99.4447Z" fill="#4F6070" mask="url(#path-19-inside-9_1418_35471)"/>
<mask id="path-21-inside-10_1418_35471" fill="white">
<path d="M863.836 -0.356689H963.637V99.4447H863.836V-0.356689Z"/>
</mask>
<path d="M963.637 99.4447V100.484H964.677V99.4447H963.637ZM963.637 -0.356689H962.598V99.4447H963.637H964.677V-0.356689H963.637ZM963.637 99.4447V98.4051H863.836V99.4447V100.484H963.637V99.4447Z" fill="#4F6070" mask="url(#path-21-inside-10_1418_35471)"/>
<mask id="path-23-inside-11_1418_35471" fill="white">
<path d="M963.641 -0.356689H1063.44V99.4447H963.641V-0.356689Z"/>
</mask>
<path d="M1063.44 99.4447V100.484H1064.48V99.4447H1063.44ZM1063.44 -0.356689H1062.4V99.4447H1063.44H1064.48V-0.356689H1063.44ZM1063.44 99.4447V98.4051H963.641V99.4447V100.484H1063.44V99.4447Z" fill="#4F6070" mask="url(#path-23-inside-11_1418_35471)"/>
<mask id="path-25-inside-12_1418_35471" fill="white">
<path d="M1063.44 -0.356689H1163.24V99.4447H1063.44V-0.356689Z"/>
</mask>
<path d="M1163.24 99.4447V100.484H1164.28V99.4447H1163.24ZM1163.24 -0.356689H1162.2V99.4447H1163.24H1164.28V-0.356689H1163.24ZM1163.24 99.4447V98.4051H1063.44V99.4447V100.484H1163.24V99.4447Z" fill="#4F6070" mask="url(#path-25-inside-12_1418_35471)"/>
<mask id="path-27-inside-13_1418_35471" fill="white">
<path d="M-34.375 99.4448H65.4264V199.246H-34.375V99.4448Z"/>
</mask>
<path d="M65.4264 199.246V200.286H66.466V199.246H65.4264ZM65.4264 99.4448H64.3868V199.246H65.4264H66.466V99.4448H65.4264ZM65.4264 199.246V198.207H-34.375V199.246V200.286H65.4264V199.246Z" fill="#4F6070" mask="url(#path-27-inside-13_1418_35471)"/>
<mask id="path-29-inside-14_1418_35471" fill="white">
<path d="M65.4258 99.4448H165.227V199.246H65.4258V99.4448Z"/>
</mask>
<path d="M65.4258 99.4448H165.227V199.246H65.4258V99.4448Z" fill="#4F6070"/>
<path d="M165.227 199.246V200.286H166.267V199.246H165.227ZM165.227 99.4448H164.188V199.246H165.227H166.267V99.4448H165.227ZM165.227 199.246V198.207H65.4258V199.246V200.286H165.227V199.246Z" fill="#4F6070" mask="url(#path-29-inside-14_1418_35471)"/>
<mask id="path-31-inside-15_1418_35471" fill="white">
<path d="M165.227 99.4448H265.028V199.246H165.227V99.4448Z"/>
</mask>
<path d="M265.028 199.246V200.286H266.068V199.246H265.028ZM265.028 99.4448H263.988V199.246H265.028H266.068V99.4448H265.028ZM265.028 199.246V198.207H165.227V199.246V200.286H265.028V199.246Z" fill="#4F6070" mask="url(#path-31-inside-15_1418_35471)"/>
<mask id="path-33-inside-16_1418_35471" fill="white">
<path d="M265.031 99.4448H364.833V199.246H265.031V99.4448Z"/>
</mask>
<path d="M364.833 199.246V200.286H365.872V199.246H364.833ZM364.833 99.4448H363.793V199.246H364.833H365.872V99.4448H364.833ZM364.833 199.246V198.207H265.031V199.246V200.286H364.833V199.246Z" fill="#4F6070" mask="url(#path-33-inside-16_1418_35471)"/>
<mask id="path-35-inside-17_1418_35471" fill="white">
<path d="M364.828 99.4448H464.63V199.246H364.828V99.4448Z"/>
</mask>
<path d="M464.63 199.246V200.286H465.669V199.246H464.63ZM464.63 99.4448H463.59V199.246H464.63H465.669V99.4448H464.63ZM464.63 199.246V198.207H364.828V199.246V200.286H464.63V199.246Z" fill="#4F6070" mask="url(#path-35-inside-17_1418_35471)"/>
<mask id="path-37-inside-18_1418_35471" fill="white">
<path d="M464.633 99.4448H564.434V199.246H464.633V99.4448Z"/>
</mask>
<path d="M564.434 199.246V200.286H565.474V199.246H564.434ZM564.434 99.4448H563.395V199.246H564.434H565.474V99.4448H564.434ZM564.434 199.246V198.207H464.633V199.246V200.286H564.434V199.246Z" fill="#4F6070" mask="url(#path-37-inside-18_1418_35471)"/>
<mask id="path-39-inside-19_1418_35471" fill="white">
<path d="M564.43 99.4448H664.231V199.246H564.43V99.4448Z"/>
</mask>
<path d="M664.231 199.246V200.286H665.271V199.246H664.231ZM664.231 99.4448H663.191V199.246H664.231H665.271V99.4448H664.231ZM664.231 199.246V198.207H564.43V199.246V200.286H664.231V199.246Z" fill="#4F6070" mask="url(#path-39-inside-19_1418_35471)"/>
<mask id="path-41-inside-20_1418_35471" fill="white">
<path d="M664.234 99.4448H764.036V199.246H664.234V99.4448Z"/>
</mask>
<path d="M764.036 199.246V200.286H765.075V199.246H764.036ZM764.036 99.4448H762.996V199.246H764.036H765.075V99.4448H764.036ZM764.036 199.246V198.207H664.234V199.246V200.286H764.036V199.246Z" fill="#4F6070" mask="url(#path-41-inside-20_1418_35471)"/>
<mask id="path-43-inside-21_1418_35471" fill="white">
<path d="M764.031 99.4448H863.833V199.246H764.031V99.4448Z"/>
</mask>
<path d="M863.833 199.246V200.286H864.872V199.246H863.833ZM863.833 99.4448H862.793V199.246H863.833H864.872V99.4448H863.833ZM863.833 199.246V198.207H764.031V199.246V200.286H863.833V199.246Z" fill="#4F6070" mask="url(#path-43-inside-21_1418_35471)"/>
<mask id="path-45-inside-22_1418_35471" fill="white">
<path d="M863.836 99.4448H963.637V199.246H863.836V99.4448Z"/>
</mask>
<path d="M963.637 199.246V200.286H964.677V199.246H963.637ZM963.637 99.4448H962.598V199.246H963.637H964.677V99.4448H963.637ZM963.637 199.246V198.207H863.836V199.246V200.286H963.637V199.246Z" fill="#4F6070" mask="url(#path-45-inside-22_1418_35471)"/>
<mask id="path-47-inside-23_1418_35471" fill="white">
<path d="M963.641 99.4448H1063.44V199.246H963.641V99.4448Z"/>
</mask>
<path d="M963.641 99.4448H1063.44V199.246H963.641V99.4448Z" fill="#4F6070"/>
<path d="M1063.44 199.246V200.286H1064.48V199.246H1063.44ZM1063.44 99.4448H1062.4V199.246H1063.44H1064.48V99.4448H1063.44ZM1063.44 199.246V198.207H963.641V199.246V200.286H1063.44V199.246Z" fill="#4F6070" mask="url(#path-47-inside-23_1418_35471)"/>
<mask id="path-49-inside-24_1418_35471" fill="white">
<path d="M1063.44 99.4448H1163.24V199.246H1063.44V99.4448Z"/>
</mask>
<path d="M1163.24 199.246V200.286H1164.28V199.246H1163.24ZM1163.24 99.4448H1162.2V199.246H1163.24H1164.28V99.4448H1163.24ZM1163.24 199.246V198.207H1063.44V199.246V200.286H1163.24V199.246Z" fill="#4F6070" mask="url(#path-49-inside-24_1418_35471)"/>
<mask id="path-51-inside-25_1418_35471" fill="white">
<path d="M-34.375 199.246H65.4264V299.047H-34.375V199.246Z"/>
</mask>
<path d="M65.4264 299.047V300.087H66.466V299.047H65.4264ZM65.4264 199.246H64.3868V299.047H65.4264H66.466V199.246H65.4264ZM65.4264 299.047V298.008H-34.375V299.047V300.087H65.4264V299.047Z" fill="#4F6070" mask="url(#path-51-inside-25_1418_35471)"/>
<mask id="path-53-inside-26_1418_35471" fill="white">
<path d="M65.4258 199.246H165.227V299.047H65.4258V199.246Z"/>
</mask>
<path d="M165.227 299.047V300.087H166.267V299.047H165.227ZM165.227 199.246H164.188V299.047H165.227H166.267V199.246H165.227ZM165.227 299.047V298.008H65.4258V299.047V300.087H165.227V299.047Z" fill="#4F6070" mask="url(#path-53-inside-26_1418_35471)"/>
<mask id="path-55-inside-27_1418_35471" fill="white">
<path d="M165.227 199.246H265.028V299.047H165.227V199.246Z"/>
</mask>
<path d="M265.028 299.047V300.087H266.068V299.047H265.028ZM265.028 199.246H263.988V299.047H265.028H266.068V199.246H265.028ZM265.028 299.047V298.008H165.227V299.047V300.087H265.028V299.047Z" fill="#4F6070" mask="url(#path-55-inside-27_1418_35471)"/>
<mask id="path-57-inside-28_1418_35471" fill="white">
<path d="M265.031 199.246H364.833V299.047H265.031V199.246Z"/>
</mask>
<path d="M265.031 199.246H364.833V299.047H265.031V199.246Z" fill="#4F6070"/>
<path d="M364.833 299.047V300.087H365.872V299.047H364.833ZM364.833 199.246H363.793V299.047H364.833H365.872V199.246H364.833ZM364.833 299.047V298.008H265.031V299.047V300.087H364.833V299.047Z" fill="#4F6070" mask="url(#path-57-inside-28_1418_35471)"/>
<mask id="path-59-inside-29_1418_35471" fill="white">
<path d="M364.828 199.246H464.63V299.047H364.828V199.246Z"/>
</mask>
<path d="M464.63 299.047V300.087H465.669V299.047H464.63ZM464.63 199.246H463.59V299.047H464.63H465.669V199.246H464.63ZM464.63 299.047V298.008H364.828V299.047V300.087H464.63V299.047Z" fill="#4F6070" mask="url(#path-59-inside-29_1418_35471)"/>
<mask id="path-61-inside-30_1418_35471" fill="white">
<path d="M464.633 199.246H564.434V299.047H464.633V199.246Z"/>
</mask>
<path d="M564.434 299.047V300.087H565.474V299.047H564.434ZM564.434 199.246H563.395V299.047H564.434H565.474V199.246H564.434ZM564.434 299.047V298.008H464.633V299.047V300.087H564.434V299.047Z" fill="#4F6070" mask="url(#path-61-inside-30_1418_35471)"/>
<mask id="path-63-inside-31_1418_35471" fill="white">
<path d="M564.43 199.246H664.231V299.047H564.43V199.246Z"/>
</mask>
<path d="M664.231 299.047V300.087H665.271V299.047H664.231ZM664.231 199.246H663.191V299.047H664.231H665.271V199.246H664.231ZM664.231 299.047V298.008H564.43V299.047V300.087H664.231V299.047Z" fill="#4F6070" mask="url(#path-63-inside-31_1418_35471)"/>
<mask id="path-65-inside-32_1418_35471" fill="white">
<path d="M664.234 199.246H764.036V299.047H664.234V199.246Z"/>
</mask>
<path d="M664.234 199.246H764.036V299.047H664.234V199.246Z" fill="#4F6070"/>
<path d="M764.036 299.047V300.087H765.075V299.047H764.036ZM764.036 199.246H762.996V299.047H764.036H765.075V199.246H764.036ZM764.036 299.047V298.008H664.234V299.047V300.087H764.036V299.047Z" fill="#4F6070" mask="url(#path-65-inside-32_1418_35471)"/>
<mask id="path-67-inside-33_1418_35471" fill="white">
<path d="M764.031 199.246H863.833V299.047H764.031V199.246Z"/>
</mask>
<path d="M863.833 299.047V300.087H864.872V299.047H863.833ZM863.833 199.246H862.793V299.047H863.833H864.872V199.246H863.833ZM863.833 299.047V298.008H764.031V299.047V300.087H863.833V299.047Z" fill="#4F6070" mask="url(#path-67-inside-33_1418_35471)"/>
<mask id="path-69-inside-34_1418_35471" fill="white">
<path d="M863.836 199.246H963.637V299.047H863.836V199.246Z"/>
</mask>
<path d="M963.637 299.047V300.087H964.677V299.047H963.637ZM963.637 199.246H962.598V299.047H963.637H964.677V199.246H963.637ZM963.637 299.047V298.008H863.836V299.047V300.087H963.637V299.047Z" fill="#4F6070" mask="url(#path-69-inside-34_1418_35471)"/>
<mask id="path-71-inside-35_1418_35471" fill="white">
<path d="M963.641 199.246H1063.44V299.047H963.641V199.246Z"/>
</mask>
<path d="M1063.44 299.047V300.087H1064.48V299.047H1063.44ZM1063.44 199.246H1062.4V299.047H1063.44H1064.48V199.246H1063.44ZM1063.44 299.047V298.008H963.641V299.047V300.087H1063.44V299.047Z" fill="#4F6070" mask="url(#path-71-inside-35_1418_35471)"/>
<mask id="path-73-inside-36_1418_35471" fill="white">
<path d="M1063.44 199.246H1163.24V299.047H1063.44V199.246Z"/>
</mask>
<path d="M1163.24 299.047V300.087H1164.28V299.047H1163.24ZM1163.24 199.246H1162.2V299.047H1163.24H1164.28V199.246H1163.24ZM1163.24 299.047V298.008H1063.44V299.047V300.087H1163.24V299.047Z" fill="#4F6070" mask="url(#path-73-inside-36_1418_35471)"/>
<mask id="path-75-inside-37_1418_35471" fill="white">
<path d="M-34.375 299.047H65.4264V398.849H-34.375V299.047Z"/>
</mask>
<path d="M65.4264 398.849V399.888H66.466V398.849H65.4264ZM65.4264 299.047H64.3868V398.849H65.4264H66.466V299.047H65.4264ZM65.4264 398.849V397.809H-34.375V398.849V399.888H65.4264V398.849Z" fill="#4F6070" mask="url(#path-75-inside-37_1418_35471)"/>
<mask id="path-77-inside-38_1418_35471" fill="white">
<path d="M65.4258 299.047H165.227V398.849H65.4258V299.047Z"/>
</mask>
<path d="M165.227 398.849V399.888H166.267V398.849H165.227ZM165.227 299.047H164.188V398.849H165.227H166.267V299.047H165.227ZM165.227 398.849V397.809H65.4258V398.849V399.888H165.227V398.849Z" fill="#4F6070" mask="url(#path-77-inside-38_1418_35471)"/>
<mask id="path-79-inside-39_1418_35471" fill="white">
<path d="M165.227 299.047H265.028V398.849H165.227V299.047Z"/>
</mask>
<path d="M265.028 398.849V399.888H266.068V398.849H265.028ZM265.028 299.047H263.988V398.849H265.028H266.068V299.047H265.028ZM265.028 398.849V397.809H165.227V398.849V399.888H265.028V398.849Z" fill="#4F6070" mask="url(#path-79-inside-39_1418_35471)"/>
<mask id="path-81-inside-40_1418_35471" fill="white">
<path d="M265.031 299.047H364.833V398.849H265.031V299.047Z"/>
</mask>
<path d="M364.833 398.849V399.888H365.872V398.849H364.833ZM364.833 299.047H363.793V398.849H364.833H365.872V299.047H364.833ZM364.833 398.849V397.809H265.031V398.849V399.888H364.833V398.849Z" fill="#4F6070" mask="url(#path-81-inside-40_1418_35471)"/>
<mask id="path-83-inside-41_1418_35471" fill="white">
<path d="M364.828 299.047H464.63V398.849H364.828V299.047Z"/>
</mask>
<path d="M464.63 398.849V399.888H465.669V398.849H464.63ZM464.63 299.047H463.59V398.849H464.63H465.669V299.047H464.63ZM464.63 398.849V397.809H364.828V398.849V399.888H464.63V398.849Z" fill="#4F6070" mask="url(#path-83-inside-41_1418_35471)"/>
<mask id="path-85-inside-42_1418_35471" fill="white">
<path d="M464.633 299.047H564.434V398.849H464.633V299.047Z"/>
</mask>
<path d="M564.434 398.849V399.888H565.474V398.849H564.434ZM564.434 299.047H563.395V398.849H564.434H565.474V299.047H564.434ZM564.434 398.849V397.809H464.633V398.849V399.888H564.434V398.849Z" fill="#4F6070" mask="url(#path-85-inside-42_1418_35471)"/>
<mask id="path-87-inside-43_1418_35471" fill="white">
<path d="M564.43 299.047H664.231V398.849H564.43V299.047Z"/>
</mask>
<path d="M664.231 398.849V399.888H665.271V398.849H664.231ZM664.231 299.047H663.191V398.849H664.231H665.271V299.047H664.231ZM664.231 398.849V397.809H564.43V398.849V399.888H664.231V398.849Z" fill="#4F6070" mask="url(#path-87-inside-43_1418_35471)"/>
<mask id="path-89-inside-44_1418_35471" fill="white">
<path d="M664.234 299.047H764.036V398.849H664.234V299.047Z"/>
</mask>
<path d="M764.036 398.849V399.888H765.075V398.849H764.036ZM764.036 299.047H762.996V398.849H764.036H765.075V299.047H764.036ZM764.036 398.849V397.809H664.234V398.849V399.888H764.036V398.849Z" fill="#4F6070" mask="url(#path-89-inside-44_1418_35471)"/>
<mask id="path-91-inside-45_1418_35471" fill="white">
<path d="M764.031 299.047H863.833V398.849H764.031V299.047Z"/>
</mask>
<path d="M863.833 398.849V399.888H864.872V398.849H863.833ZM863.833 299.047H862.793V398.849H863.833H864.872V299.047H863.833ZM863.833 398.849V397.809H764.031V398.849V399.888H863.833V398.849Z" fill="#4F6070" mask="url(#path-91-inside-45_1418_35471)"/>
<mask id="path-93-inside-46_1418_35471" fill="white">
<path d="M863.836 299.047H963.637V398.849H863.836V299.047Z"/>
</mask>
<path d="M963.637 398.849V399.888H964.677V398.849H963.637ZM963.637 299.047H962.598V398.849H963.637H964.677V299.047H963.637ZM963.637 398.849V397.809H863.836V398.849V399.888H963.637V398.849Z" fill="#4F6070" mask="url(#path-93-inside-46_1418_35471)"/>
<mask id="path-95-inside-47_1418_35471" fill="white">
<path d="M963.641 299.047H1063.44V398.849H963.641V299.047Z"/>
</mask>
<path d="M963.641 299.047H1063.44V398.849H963.641V299.047Z" fill="#4F6070"/>
<path d="M1063.44 398.849V399.888H1064.48V398.849H1063.44ZM1063.44 299.047H1062.4V398.849H1063.44H1064.48V299.047H1063.44ZM1063.44 398.849V397.809H963.641V398.849V399.888H1063.44V398.849Z" fill="#4F6070" mask="url(#path-95-inside-47_1418_35471)"/>
<mask id="path-97-inside-48_1418_35471" fill="white">
<path d="M1063.44 299.047H1163.24V398.849H1063.44V299.047Z"/>
</mask>
<path d="M1163.24 398.849V399.888H1164.28V398.849H1163.24ZM1163.24 299.047H1162.2V398.849H1163.24H1164.28V299.047H1163.24ZM1163.24 398.849V397.809H1063.44V398.849V399.888H1163.24V398.849Z" fill="#4F6070" mask="url(#path-97-inside-48_1418_35471)"/>
<mask id="path-99-inside-49_1418_35471" fill="white">
<path d="M-34.375 398.849H65.4264V498.65H-34.375V398.849Z"/>
</mask>
<path d="M65.4264 498.65V499.69H66.466V498.65H65.4264ZM65.4264 398.849H64.3868V498.65H65.4264H66.466V398.849H65.4264ZM65.4264 498.65V497.611H-34.375V498.65V499.69H65.4264V498.65Z" fill="#4F6070" mask="url(#path-99-inside-49_1418_35471)"/>
<mask id="path-101-inside-50_1418_35471" fill="white">
<path d="M65.4258 398.849H165.227V498.65H65.4258V398.849Z"/>
</mask>
<path d="M165.227 498.65V499.69H166.267V498.65H165.227ZM165.227 398.849H164.188V498.65H165.227H166.267V398.849H165.227ZM165.227 498.65V497.611H65.4258V498.65V499.69H165.227V498.65Z" fill="#4F6070" mask="url(#path-101-inside-50_1418_35471)"/>
<mask id="path-103-inside-51_1418_35471" fill="white">
<path d="M165.227 398.849H265.028V498.65H165.227V398.849Z"/>
</mask>
<path d="M265.028 498.65V499.69H266.068V498.65H265.028ZM265.028 398.849H263.988V498.65H265.028H266.068V398.849H265.028ZM265.028 498.65V497.611H165.227V498.65V499.69H265.028V498.65Z" fill="#4F6070" mask="url(#path-103-inside-51_1418_35471)"/>
<mask id="path-105-inside-52_1418_35471" fill="white">
<path d="M265.031 398.849H364.833V498.65H265.031V398.849Z"/>
</mask>
<path d="M364.833 498.65V499.69H365.872V498.65H364.833ZM364.833 398.849H363.793V498.65H364.833H365.872V398.849H364.833ZM364.833 498.65V497.611H265.031V498.65V499.69H364.833V498.65Z" fill="#4F6070" mask="url(#path-105-inside-52_1418_35471)"/>
<mask id="path-107-inside-53_1418_35471" fill="white">
<path d="M364.828 398.849H464.63V498.65H364.828V398.849Z"/>
</mask>
<path d="M364.828 398.849H464.63V498.65H364.828V398.849Z" fill="#4F6070"/>
<path d="M464.63 498.65V499.69H465.669V498.65H464.63ZM464.63 398.849H463.59V498.65H464.63H465.669V398.849H464.63ZM464.63 498.65V497.611H364.828V498.65V499.69H464.63V498.65Z" fill="#4F6070" mask="url(#path-107-inside-53_1418_35471)"/>
<mask id="path-109-inside-54_1418_35471" fill="white">
<path d="M464.633 398.849H564.434V498.65H464.633V398.849Z"/>
</mask>
<path d="M564.434 498.65V499.69H565.474V498.65H564.434ZM564.434 398.849H563.395V498.65H564.434H565.474V398.849H564.434ZM564.434 498.65V497.611H464.633V498.65V499.69H564.434V498.65Z" fill="#4F6070" mask="url(#path-109-inside-54_1418_35471)"/>
<mask id="path-111-inside-55_1418_35471" fill="white">
<path d="M564.43 398.849H664.231V498.65H564.43V398.849Z"/>
</mask>
<path d="M664.231 498.65V499.69H665.271V498.65H664.231ZM664.231 398.849H663.191V498.65H664.231H665.271V398.849H664.231ZM664.231 498.65V497.611H564.43V498.65V499.69H664.231V498.65Z" fill="#4F6070" mask="url(#path-111-inside-55_1418_35471)"/>
<mask id="path-113-inside-56_1418_35471" fill="white">
<path d="M664.234 398.849H764.036V498.65H664.234V398.849Z"/>
</mask>
<path d="M764.036 498.65V499.69H765.075V498.65H764.036ZM764.036 398.849H762.996V498.65H764.036H765.075V398.849H764.036ZM764.036 498.65V497.611H664.234V498.65V499.69H764.036V498.65Z" fill="#4F6070" mask="url(#path-113-inside-56_1418_35471)"/>
<mask id="path-115-inside-57_1418_35471" fill="white">
<path d="M764.031 398.849H863.833V498.65H764.031V398.849Z"/>
</mask>
<path d="M863.833 498.65V499.69H864.872V498.65H863.833ZM863.833 398.849H862.793V498.65H863.833H864.872V398.849H863.833ZM863.833 498.65V497.611H764.031V498.65V499.69H863.833V498.65Z" fill="#4F6070" mask="url(#path-115-inside-57_1418_35471)"/>
<mask id="path-117-inside-58_1418_35471" fill="white">
<path d="M863.836 398.849H963.637V498.65H863.836V398.849Z"/>
</mask>
<path d="M963.637 498.65V499.69H964.677V498.65H963.637ZM963.637 398.849H962.598V498.65H963.637H964.677V398.849H963.637ZM963.637 498.65V497.611H863.836V498.65V499.69H963.637V498.65Z" fill="#4F6070" mask="url(#path-117-inside-58_1418_35471)"/>
<mask id="path-119-inside-59_1418_35471" fill="white">
<path d="M963.641 398.849H1063.44V498.65H963.641V398.849Z"/>
</mask>
<path d="M1063.44 498.65V499.69H1064.48V498.65H1063.44ZM1063.44 398.849H1062.4V498.65H1063.44H1064.48V398.849H1063.44ZM1063.44 498.65V497.611H963.641V498.65V499.69H1063.44V498.65Z" fill="#4F6070" mask="url(#path-119-inside-59_1418_35471)"/>
<mask id="path-121-inside-60_1418_35471" fill="white">
<path d="M1063.44 398.849H1163.24V498.65H1063.44V398.849Z"/>
</mask>
<path d="M1163.24 498.65V499.69H1164.28V498.65H1163.24ZM1163.24 398.849H1162.2V498.65H1163.24H1164.28V398.849H1163.24ZM1163.24 498.65V497.611H1063.44V498.65V499.69H1163.24V498.65Z" fill="#4F6070" mask="url(#path-121-inside-60_1418_35471)"/>
<mask id="path-123-inside-61_1418_35471" fill="white">
<path d="M-34.375 498.65H65.4264V598.452H-34.375V498.65Z"/>
</mask>
<path d="M65.4264 598.452V599.491H66.466V598.452H65.4264ZM65.4264 498.65H64.3868V598.452H65.4264H66.466V498.65H65.4264ZM65.4264 598.452V597.412H-34.375V598.452V599.491H65.4264V598.452Z" fill="#4F6070" mask="url(#path-123-inside-61_1418_35471)"/>
<mask id="path-125-inside-62_1418_35471" fill="white">
<path d="M65.4258 498.65H165.227V598.452H65.4258V498.65Z"/>
</mask>
<path d="M65.4258 498.65H165.227V598.452H65.4258V498.65Z" fill="#4F6070"/>
<path d="M165.227 598.452V599.491H166.267V598.452H165.227ZM165.227 498.65H164.188V598.452H165.227H166.267V498.65H165.227ZM165.227 598.452V597.412H65.4258V598.452V599.491H165.227V598.452Z" fill="#4F6070" mask="url(#path-125-inside-62_1418_35471)"/>
<mask id="path-127-inside-63_1418_35471" fill="white">
<path d="M165.227 498.65H265.028V598.452H165.227V498.65Z"/>
</mask>
<path d="M265.028 598.452V599.491H266.068V598.452H265.028ZM265.028 498.65H263.988V598.452H265.028H266.068V498.65H265.028ZM265.028 598.452V597.412H165.227V598.452V599.491H265.028V598.452Z" fill="#4F6070" mask="url(#path-127-inside-63_1418_35471)"/>
<mask id="path-129-inside-64_1418_35471" fill="white">
<path d="M265.031 498.65H364.833V598.452H265.031V498.65Z"/>
</mask>
<path d="M364.833 598.452V599.491H365.872V598.452H364.833ZM364.833 498.65H363.793V598.452H364.833H365.872V498.65H364.833ZM364.833 598.452V597.412H265.031V598.452V599.491H364.833V598.452Z" fill="#4F6070" mask="url(#path-129-inside-64_1418_35471)"/>
<mask id="path-131-inside-65_1418_35471" fill="white">
<path d="M364.828 498.65H464.63V598.452H364.828V498.65Z"/>
</mask>
<path d="M464.63 598.452V599.491H465.669V598.452H464.63ZM464.63 498.65H463.59V598.452H464.63H465.669V498.65H464.63ZM464.63 598.452V597.412H364.828V598.452V599.491H464.63V598.452Z" fill="#4F6070" mask="url(#path-131-inside-65_1418_35471)"/>
<mask id="path-133-inside-66_1418_35471" fill="white">
<path d="M464.633 498.65H564.434V598.452H464.633V498.65Z"/>
</mask>
<path d="M564.434 598.452V599.491H565.474V598.452H564.434ZM564.434 498.65H563.395V598.452H564.434H565.474V498.65H564.434ZM564.434 598.452V597.412H464.633V598.452V599.491H564.434V598.452Z" fill="#4F6070" mask="url(#path-133-inside-66_1418_35471)"/>
<mask id="path-135-inside-67_1418_35471" fill="white">
<path d="M564.43 498.65H664.231V598.452H564.43V498.65Z"/>
</mask>
<path d="M664.231 598.452V599.491H665.271V598.452H664.231ZM664.231 498.65H663.191V598.452H664.231H665.271V498.65H664.231ZM664.231 598.452V597.412H564.43V598.452V599.491H664.231V598.452Z" fill="#4F6070" mask="url(#path-135-inside-67_1418_35471)"/>
<mask id="path-137-inside-68_1418_35471" fill="white">
<path d="M664.234 498.65H764.036V598.452H664.234V498.65Z"/>
</mask>
<path d="M664.234 498.65H764.036V598.452H664.234V498.65Z" fill="#4F6070"/>
<path d="M764.036 598.452V599.491H765.075V598.452H764.036ZM764.036 498.65H762.996V598.452H764.036H765.075V498.65H764.036ZM764.036 598.452V597.412H664.234V598.452V599.491H764.036V598.452Z" fill="#4F6070" mask="url(#path-137-inside-68_1418_35471)"/>
<mask id="path-139-inside-69_1418_35471" fill="white">
<path d="M764.031 498.65H863.833V598.452H764.031V498.65Z"/>
</mask>
<path d="M863.833 598.452V599.491H864.872V598.452H863.833ZM863.833 498.65H862.793V598.452H863.833H864.872V498.65H863.833ZM863.833 598.452V597.412H764.031V598.452V599.491H863.833V598.452Z" fill="#4F6070" mask="url(#path-139-inside-69_1418_35471)"/>
<mask id="path-141-inside-70_1418_35471" fill="white">
<path d="M863.836 498.65H963.637V598.452H863.836V498.65Z"/>
</mask>
<path d="M963.637 598.452V599.491H964.677V598.452H963.637ZM963.637 498.65H962.598V598.452H963.637H964.677V498.65H963.637ZM963.637 598.452V597.412H863.836V598.452V599.491H963.637V598.452Z" fill="#4F6070" mask="url(#path-141-inside-70_1418_35471)"/>
<mask id="path-143-inside-71_1418_35471" fill="white">
<path d="M963.641 498.65H1063.44V598.452H963.641V498.65Z"/>
</mask>
<path d="M1063.44 598.452V599.491H1064.48V598.452H1063.44ZM1063.44 498.65H1062.4V598.452H1063.44H1064.48V498.65H1063.44ZM1063.44 598.452V597.412H963.641V598.452V599.491H1063.44V598.452Z" fill="#4F6070" mask="url(#path-143-inside-71_1418_35471)"/>
<mask id="path-145-inside-72_1418_35471" fill="white">
<path d="M1063.44 498.65H1163.24V598.452H1063.44V498.65Z"/>
</mask>
<path d="M1163.24 598.452V599.491H1164.28V598.452H1163.24ZM1163.24 498.65H1162.2V598.452H1163.24H1164.28V498.65H1163.24ZM1163.24 598.452V597.412H1063.44V598.452V599.491H1163.24V598.452Z" fill="#4F6070" mask="url(#path-145-inside-72_1418_35471)"/>
<mask id="path-147-inside-73_1418_35471" fill="white">
<path d="M-34.375 598.452H65.4264V698.253H-34.375V598.452Z"/>
</mask>
<path d="M65.4264 698.253V699.293H66.466V698.253H65.4264ZM65.4264 598.452H64.3868V698.253H65.4264H66.466V598.452H65.4264ZM65.4264 698.253V697.213H-34.375V698.253V699.293H65.4264V698.253Z" fill="#4F6070" mask="url(#path-147-inside-73_1418_35471)"/>
<mask id="path-149-inside-74_1418_35471" fill="white">
<path d="M65.4258 598.452H165.227V698.253H65.4258V598.452Z"/>
</mask>
<path d="M165.227 698.253V699.293H166.267V698.253H165.227ZM165.227 598.452H164.188V698.253H165.227H166.267V598.452H165.227ZM165.227 698.253V697.213H65.4258V698.253V699.293H165.227V698.253Z" fill="#4F6070" mask="url(#path-149-inside-74_1418_35471)"/>
<mask id="path-151-inside-75_1418_35471" fill="white">
<path d="M165.227 598.452H265.028V698.253H165.227V598.452Z"/>
</mask>
<path d="M265.028 698.253V699.293H266.068V698.253H265.028ZM265.028 598.452H263.988V698.253H265.028H266.068V598.452H265.028ZM265.028 698.253V697.213H165.227V698.253V699.293H265.028V698.253Z" fill="#4F6070" mask="url(#path-151-inside-75_1418_35471)"/>
<mask id="path-153-inside-76_1418_35471" fill="white">
<path d="M265.031 598.452H364.833V698.253H265.031V598.452Z"/>
</mask>
<path d="M364.833 698.253V699.293H365.872V698.253H364.833ZM364.833 598.452H363.793V698.253H364.833H365.872V598.452H364.833ZM364.833 698.253V697.213H265.031V698.253V699.293H364.833V698.253Z" fill="#4F6070" mask="url(#path-153-inside-76_1418_35471)"/>
<mask id="path-155-inside-77_1418_35471" fill="white">
<path d="M364.828 598.452H464.63V698.253H364.828V598.452Z"/>
</mask>
<path d="M464.63 698.253V699.293H465.669V698.253H464.63ZM464.63 598.452H463.59V698.253H464.63H465.669V598.452H464.63ZM464.63 698.253V697.213H364.828V698.253V699.293H464.63V698.253Z" fill="#4F6070" mask="url(#path-155-inside-77_1418_35471)"/>
<mask id="path-157-inside-78_1418_35471" fill="white">
<path d="M464.633 598.452H564.434V698.253H464.633V598.452Z"/>
</mask>
<path d="M564.434 698.253V699.293H565.474V698.253H564.434ZM564.434 598.452H563.395V698.253H564.434H565.474V598.452H564.434ZM564.434 698.253V697.213H464.633V698.253V699.293H564.434V698.253Z" fill="#4F6070" mask="url(#path-157-inside-78_1418_35471)"/>
<mask id="path-159-inside-79_1418_35471" fill="white">
<path d="M564.43 598.452H664.231V698.253H564.43V598.452Z"/>
</mask>
<path d="M664.231 698.253V699.293H665.271V698.253H664.231ZM664.231 598.452H663.191V698.253H664.231H665.271V598.452H664.231ZM664.231 698.253V697.213H564.43V698.253V699.293H664.231V698.253Z" fill="#4F6070" mask="url(#path-159-inside-79_1418_35471)"/>
<mask id="path-161-inside-80_1418_35471" fill="white">
<path d="M664.234 598.452H764.036V698.253H664.234V598.452Z"/>
</mask>
<path d="M764.036 698.253V699.293H765.075V698.253H764.036ZM764.036 598.452H762.996V698.253H764.036H765.075V598.452H764.036ZM764.036 698.253V697.213H664.234V698.253V699.293H764.036V698.253Z" fill="#4F6070" mask="url(#path-161-inside-80_1418_35471)"/>
<mask id="path-163-inside-81_1418_35471" fill="white">
<path d="M764.031 598.452H863.833V698.253H764.031V598.452Z"/>
</mask>
<path d="M863.833 698.253V699.293H864.872V698.253H863.833ZM863.833 598.452H862.793V698.253H863.833H864.872V598.452H863.833ZM863.833 698.253V697.213H764.031V698.253V699.293H863.833V698.253Z" fill="#4F6070" mask="url(#path-163-inside-81_1418_35471)"/>
<mask id="path-165-inside-82_1418_35471" fill="white">
<path d="M863.836 598.452H963.637V698.253H863.836V598.452Z"/>
</mask>
<path d="M963.637 698.253V699.293H964.677V698.253H963.637ZM963.637 598.452H962.598V698.253H963.637H964.677V598.452H963.637ZM963.637 698.253V697.213H863.836V698.253V699.293H963.637V698.253Z" fill="#4F6070" mask="url(#path-165-inside-82_1418_35471)"/>
<mask id="path-167-inside-83_1418_35471" fill="white">
<path d="M963.641 598.452H1063.44V698.253H963.641V598.452Z"/>
</mask>
<path d="M1063.44 698.253V699.293H1064.48V698.253H1063.44ZM1063.44 598.452H1062.4V698.253H1063.44H1064.48V598.452H1063.44ZM1063.44 698.253V697.213H963.641V698.253V699.293H1063.44V698.253Z" fill="#4F6070" mask="url(#path-167-inside-83_1418_35471)"/>
<mask id="path-169-inside-84_1418_35471" fill="white">
<path d="M1063.44 598.452H1163.24V698.253H1063.44V598.452Z"/>
</mask>
<path d="M1163.24 698.253V699.293H1164.28V698.253H1163.24ZM1163.24 598.452H1162.2V698.253H1163.24H1164.28V598.452H1163.24ZM1163.24 698.253V697.213H1063.44V698.253V699.293H1163.24V698.253Z" fill="#4F6070" mask="url(#path-169-inside-84_1418_35471)"/>
</g>
<rect x="-433.062" y="0.163109" width="1994.99" height="1495.98" stroke="#4F6070" stroke-width="1.0396"/>
</g>
</g>
<defs>
<radialGradient id="paint0_radial_1418_35471" cx="0" cy="0" r="1" gradientUnits="userSpaceOnUse" gradientTransform="translate(748.51 -0.000148344) rotate(90) scale(1244.4 781.349)">
<stop/>
<stop offset="0.953125" stop-opacity="0"/>
</radialGradient>
<clipPath id="clip0_1418_35471">
<rect width="1128" height="640" fill="white" transform="translate(0 -0.356689)"/>
</clipPath>
<clipPath id="clip1_1418_35471">
<rect x="-433.582" y="-0.356689" width="1996.03" height="1497.02" fill="white"/>
</clipPath>
</defs>
</svg>
